<?xml version="1.0" encoding="utf-8"?>
<!-- Generator: Adobe Illustrator 23.0.1, SVG Export Plug-In . SVG Version: 6.00 Build 0)  -->
<svg version="1.1" id="Layer_1" xmlns="http://www.w3.org/2000/svg" xmlns:xlink="http://www.w3.org/1999/xlink" x="0px" y="0px"
	 viewBox="0 0 255 255" style="enable-background:new 0 0 255 255;" xml:space="preserve">
<style type="text/css">
	.st0{fill:#F399FF;}
	.st1{fill:#FF4640;}
	.st2{fill:#FFE500;}
	.st3{fill:#95FF80;}
	.st4{fill:#66E5FF;}
	.st5{fill:#FFFFFF;}
</style>
<g>
	<g>
		<path class="st0" d="M40.51,52.42h12.5v-12.5C53.01,46.82,47.41,52.42,40.51,52.42"/>
		<path class="st0" d="M40.51,27.42c6.9,0,12.5,5.6,12.5,12.5v-25C53.01,21.83,47.41,27.42,40.51,27.42"/>
		<path class="st0" d="M28.01,39.92c0-6.9,5.6-12.5,12.5-12.5c-6.9,0-12.5-5.6-12.5-12.5c0-6.9,5.6-12.5,12.5-12.5H3.01v50h37.5
			C33.61,52.42,28.01,46.82,28.01,39.92"/>
		<path class="st0" d="M40.51,2.42c6.9,0,12.5,5.6,12.5,12.5V2.42H40.51z"/>
		<path class="st1" d="M53.01,52.42h50v-50h-50V52.42z M78.01,39.92c-6.9,0-12.5-5.6-12.5-12.5s5.6-12.5,12.5-12.5
			c6.9,0,12.5,5.6,12.5,12.5S84.91,39.92,78.01,39.92"/>
		<path class="st2" d="M103.01,52.42h50v-50h-50V52.42z M128.01,39.92c-6.9,0-12.5-5.6-12.5-12.5s5.6-12.5,12.5-12.5
			c6.9,0,12.5,5.6,12.5,12.5S134.91,39.92,128.01,39.92"/>
		<path class="st3" d="M165.5,39.92c0-6.9-5.6-12.5-12.5-12.5v-25h50c-6.9,0-12.5,5.6-12.5,12.5c0,6.9,5.6,12.5,12.5,12.5v25h-50
			C159.91,52.42,165.5,46.82,165.5,39.92"/>
		<path class="st4" d="M240.5,39.92c0-6.9,5.6-12.5,12.5-12.5v-25h-50v25c6.9,0,12.5,5.6,12.5,12.5c0,6.9-5.6,12.5-12.5,12.5h50
			C246.1,52.42,240.5,46.82,240.5,39.92"/>
	</g>
	<g>
		<path class="st5" d="M12.23,67.25c0.39,0.5,0.59,1.13,0.59,1.88c0,1.02-0.38,1.8-1.15,2.35c-0.77,0.55-1.88,0.82-3.34,0.82h-5.6
			V60.58h5.26c1.34,0,2.38,0.27,3.11,0.8s1.1,1.28,1.1,2.23c0,0.61-0.14,1.14-0.43,1.59c-0.28,0.45-0.67,0.79-1.15,1.02
			C11.3,66.41,11.84,66.76,12.23,67.25z M4.4,61.93v3.75h3.44c0.86,0,1.52-0.16,1.99-0.48c0.46-0.32,0.7-0.78,0.7-1.4
			c0-0.61-0.23-1.08-0.7-1.4c-0.46-0.32-1.13-0.48-1.99-0.48H4.4z M10.4,70.48c0.48-0.31,0.72-0.8,0.72-1.47
			c0-1.31-0.96-1.96-2.87-1.96H4.4v3.9h3.85C9.21,70.95,9.92,70.79,10.4,70.48z"/>
		<path class="st5" d="M16.6,71.82c-0.7-0.39-1.25-0.93-1.65-1.62c-0.4-0.69-0.6-1.47-0.6-2.34c0-0.87,0.2-1.65,0.6-2.34
			c0.4-0.69,0.95-1.22,1.65-1.61c0.7-0.39,1.5-0.58,2.38-0.58c0.88,0,1.67,0.19,2.37,0.58c0.7,0.39,1.25,0.92,1.64,1.61
			c0.4,0.69,0.59,1.47,0.59,2.34c0,0.87-0.2,1.65-0.59,2.34c-0.4,0.69-0.94,1.23-1.64,1.62c-0.7,0.39-1.49,0.59-2.37,0.59
			C18.1,72.41,17.3,72.21,16.6,71.82z M20.51,70.61c0.45-0.26,0.81-0.63,1.06-1.11c0.26-0.47,0.39-1.02,0.39-1.63
			s-0.13-1.16-0.39-1.63c-0.26-0.47-0.61-0.84-1.06-1.1c-0.45-0.26-0.96-0.39-1.53-0.39c-0.57,0-1.08,0.13-1.53,0.39
			c-0.45,0.26-0.81,0.62-1.07,1.1c-0.26,0.47-0.39,1.02-0.39,1.63s0.13,1.16,0.39,1.63c0.26,0.47,0.62,0.84,1.07,1.11
			C17.9,70.87,18.41,71,18.98,71C19.55,71,20.06,70.87,20.51,70.61z"/>
		<path class="st5" d="M27.24,71.82c-0.7-0.39-1.25-0.93-1.65-1.62c-0.4-0.69-0.6-1.47-0.6-2.34c0-0.87,0.2-1.65,0.6-2.34
			c0.4-0.69,0.95-1.22,1.65-1.61c0.7-0.39,1.5-0.58,2.38-0.58c0.88,0,1.67,0.19,2.37,0.58c0.7,0.39,1.25,0.92,1.64,1.61
			c0.4,0.69,0.59,1.47,0.59,2.34c0,0.87-0.2,1.65-0.59,2.34c-0.4,0.69-0.94,1.23-1.64,1.62c-0.7,0.39-1.49,0.59-2.37,0.59
			C28.74,72.41,27.94,72.21,27.24,71.82z M31.15,70.61c0.45-0.26,0.81-0.63,1.06-1.11c0.26-0.47,0.39-1.02,0.39-1.63
			s-0.13-1.16-0.39-1.63c-0.26-0.47-0.61-0.84-1.06-1.1c-0.45-0.26-0.96-0.39-1.53-0.39c-0.57,0-1.08,0.13-1.53,0.39
			c-0.45,0.26-0.81,0.62-1.07,1.1c-0.26,0.47-0.39,1.02-0.39,1.63s0.13,1.16,0.39,1.63c0.26,0.47,0.62,0.84,1.07,1.11
			c0.45,0.26,0.96,0.39,1.53,0.39C30.19,71,30.7,70.87,31.15,70.61z"/>
		<path class="st5" d="M36.91,72.11c-0.67-0.2-1.2-0.44-1.57-0.75L36,70.09c0.39,0.28,0.87,0.5,1.42,0.67
			c0.56,0.17,1.12,0.25,1.69,0.25c1.41,0,2.11-0.4,2.11-1.21c0-0.27-0.1-0.48-0.28-0.64c-0.19-0.16-0.43-0.27-0.71-0.34
			c-0.28-0.07-0.69-0.15-1.21-0.24c-0.72-0.11-1.3-0.24-1.75-0.39c-0.45-0.15-0.84-0.39-1.16-0.74c-0.32-0.35-0.49-0.83-0.49-1.46
			c0-0.8,0.34-1.45,1.01-1.94c0.67-0.49,1.57-0.73,2.7-0.73c0.59,0,1.18,0.07,1.78,0.22c0.59,0.15,1.08,0.34,1.46,0.59l-0.69,1.27
			c-0.73-0.47-1.58-0.7-2.56-0.7c-0.68,0-1.2,0.11-1.56,0.33c-0.36,0.22-0.54,0.52-0.54,0.89c0,0.29,0.1,0.52,0.3,0.69
			c0.2,0.17,0.45,0.29,0.75,0.37c0.3,0.08,0.71,0.17,1.25,0.27c0.71,0.12,1.29,0.25,1.73,0.39c0.44,0.14,0.82,0.38,1.13,0.71
			c0.31,0.33,0.47,0.8,0.47,1.41c0,0.8-0.34,1.44-1.03,1.92s-1.62,0.71-2.81,0.71C38.28,72.41,37.58,72.31,36.91,72.11z"/>
		<path class="st5" d="M49.84,71.79c-0.23,0.2-0.53,0.35-0.87,0.46c-0.35,0.11-0.7,0.16-1.07,0.16c-0.89,0-1.59-0.24-2.08-0.72
			c-0.49-0.48-0.74-1.17-0.74-2.06v-4.88h-1.51v-1.32h1.51v-1.94h1.61v1.94h2.55v1.32h-2.55v4.81c0,0.48,0.12,0.85,0.36,1.11
			c0.24,0.26,0.58,0.38,1.03,0.38c0.49,0,0.91-0.14,1.26-0.42L49.84,71.79z"/>
		<path class="st5" d="M64.15,63.43l-4.31,9.77c-0.38,0.9-0.82,1.54-1.33,1.91c-0.51,0.37-1.12,0.55-1.83,0.55
			c-0.44,0-0.86-0.07-1.27-0.21c-0.41-0.14-0.75-0.34-1.01-0.61l0.69-1.21c0.46,0.44,0.99,0.65,1.59,0.65c0.39,0,0.72-0.1,0.98-0.31
			s0.5-0.56,0.71-1.06l0.28-0.62l-3.92-8.86h1.68l3.1,7.1l3.07-7.1H64.15z"/>
		<path class="st5" d="M66.83,71.82c-0.7-0.39-1.25-0.93-1.65-1.62c-0.4-0.69-0.6-1.47-0.6-2.34c0-0.87,0.2-1.65,0.6-2.34
			c0.4-0.69,0.95-1.22,1.65-1.61c0.7-0.39,1.5-0.58,2.38-0.58c0.88,0,1.67,0.19,2.37,0.58c0.7,0.39,1.25,0.92,1.64,1.61
			c0.4,0.69,0.59,1.47,0.59,2.34c0,0.87-0.2,1.65-0.59,2.34c-0.4,0.69-0.94,1.23-1.64,1.62c-0.7,0.39-1.49,0.59-2.37,0.59
			C68.33,72.41,67.54,72.21,66.83,71.82z M70.75,70.61c0.45-0.26,0.81-0.63,1.06-1.11c0.26-0.47,0.39-1.02,0.39-1.63
			s-0.13-1.16-0.39-1.63c-0.26-0.47-0.61-0.84-1.06-1.1c-0.45-0.26-0.96-0.39-1.53-0.39c-0.57,0-1.08,0.13-1.53,0.39
			c-0.45,0.26-0.81,0.62-1.07,1.1c-0.26,0.47-0.39,1.02-0.39,1.63s0.13,1.16,0.39,1.63c0.26,0.47,0.62,0.84,1.07,1.11
			c0.45,0.26,0.96,0.39,1.53,0.39C69.78,71,70.29,70.87,70.75,70.61z"/>
		<path class="st5" d="M84.33,63.43v8.88H82.8v-1.34c-0.32,0.46-0.75,0.81-1.28,1.06c-0.53,0.25-1.11,0.38-1.73,0.38
			c-1.18,0-2.12-0.33-2.8-0.98c-0.68-0.65-1.02-1.62-1.02-2.89v-5.11h1.61v4.93c0,0.86,0.21,1.51,0.62,1.95
			c0.41,0.44,1.01,0.66,1.78,0.66c0.85,0,1.52-0.26,2.01-0.77c0.49-0.51,0.74-1.24,0.74-2.18v-4.59H84.33z"/>
		<path class="st5" d="M90.18,63.74c0.55-0.27,1.21-0.4,1.99-0.4v1.56c-0.09-0.01-0.21-0.02-0.37-0.02c-0.87,0-1.56,0.26-2.05,0.78
			c-0.5,0.52-0.75,1.26-0.75,2.22v4.42h-1.61v-8.88h1.54v1.49C89.21,64.4,89.63,64.01,90.18,63.74z"/>
		<path class="st5" d="M105.79,63.91c0.68,0.38,1.21,0.91,1.6,1.59c0.39,0.68,0.58,1.47,0.58,2.36c0,0.89-0.19,1.68-0.58,2.37
			c-0.39,0.69-0.92,1.22-1.6,1.6c-0.68,0.38-1.45,0.57-2.31,0.57c-0.64,0-1.22-0.12-1.75-0.37c-0.53-0.25-0.98-0.6-1.35-1.07v4.59
			h-1.61V63.43h1.54v1.41c0.36-0.49,0.81-0.86,1.36-1.11c0.55-0.25,1.15-0.38,1.81-0.38C104.34,63.34,105.11,63.53,105.79,63.91z
			 M104.88,70.61c0.45-0.26,0.81-0.63,1.07-1.11c0.26-0.47,0.39-1.02,0.39-1.63s-0.13-1.16-0.39-1.63c-0.26-0.47-0.62-0.84-1.07-1.1
			c-0.45-0.26-0.96-0.39-1.53-0.39c-0.56,0-1.06,0.13-1.52,0.39c-0.45,0.26-0.81,0.63-1.07,1.1c-0.26,0.47-0.39,1.01-0.39,1.63
			s0.13,1.16,0.39,1.63c0.26,0.47,0.61,0.84,1.07,1.11c0.46,0.26,0.97,0.39,1.52,0.39C103.91,71,104.43,70.87,104.88,70.61z"/>
		<path class="st5" d="M116.17,64.25c0.65,0.6,0.98,1.5,0.98,2.7v5.36h-1.52v-1.17c-0.27,0.41-0.65,0.73-1.15,0.95
			s-1.09,0.33-1.77,0.33c-0.99,0-1.79-0.24-2.39-0.72c-0.6-0.48-0.9-1.11-0.9-1.89c0-0.78,0.28-1.41,0.85-1.88
			c0.57-0.47,1.47-0.71,2.71-0.71h2.55v-0.32c0-0.69-0.2-1.22-0.6-1.59c-0.4-0.37-0.99-0.55-1.78-0.55c-0.53,0-1.04,0.09-1.54,0.26
			c-0.5,0.17-0.93,0.41-1.27,0.7l-0.67-1.21c0.46-0.37,1.01-0.65,1.64-0.85c0.64-0.2,1.31-0.29,2.03-0.29
			C114.58,63.34,115.52,63.64,116.17,64.25z M114.57,70.76c0.45-0.27,0.77-0.66,0.97-1.16v-1.24h-2.48c-1.36,0-2.04,0.46-2.04,1.37
			c0,0.45,0.17,0.8,0.52,1.06c0.35,0.26,0.83,0.38,1.44,0.38S114.12,71.03,114.57,70.76z"/>
		<path class="st5" d="M127.83,63.43l-4.31,9.77c-0.38,0.9-0.82,1.54-1.33,1.91c-0.51,0.37-1.12,0.55-1.83,0.55
			c-0.44,0-0.86-0.07-1.26-0.21c-0.41-0.14-0.75-0.34-1.01-0.61l0.69-1.21c0.46,0.44,0.99,0.65,1.59,0.65c0.39,0,0.72-0.1,0.98-0.31
			s0.5-0.56,0.71-1.06l0.28-0.62l-3.92-8.86h1.68l3.1,7.1l3.07-7.1H127.83z"/>
		<path class="st5" d="M143.1,64.31c0.65,0.65,0.98,1.61,0.98,2.88v5.11h-1.61v-4.93c0-0.86-0.2-1.51-0.59-1.94
			c-0.4-0.44-0.96-0.65-1.7-0.65c-0.82,0-1.46,0.25-1.94,0.76c-0.48,0.51-0.72,1.24-0.72,2.19v4.57h-1.61v-4.93
			c0-0.86-0.2-1.51-0.59-1.94c-0.4-0.44-0.96-0.65-1.7-0.65c-0.82,0-1.46,0.25-1.94,0.76c-0.48,0.51-0.72,1.24-0.72,2.19v4.57h-1.61
			v-8.88h1.54v1.32c0.32-0.46,0.75-0.81,1.27-1.05c0.52-0.24,1.12-0.36,1.79-0.36c0.69,0,1.31,0.14,1.84,0.42
			c0.54,0.28,0.95,0.69,1.24,1.22c0.34-0.51,0.8-0.92,1.4-1.21c0.6-0.29,1.27-0.44,2.02-0.44C141.56,63.34,142.45,63.67,143.1,64.31
			z"/>
		<path class="st5" d="M155.09,68.4h-7.21c0.1,0.78,0.44,1.41,1.03,1.88c0.59,0.48,1.32,0.71,2.19,0.71c1.06,0,1.92-0.36,2.56-1.07
			l0.89,1.04c-0.4,0.47-0.9,0.83-1.5,1.07c-0.6,0.25-1.27,0.37-2,0.37c-0.94,0-1.77-0.19-2.5-0.58c-0.73-0.39-1.29-0.92-1.68-1.62
			c-0.4-0.69-0.59-1.47-0.59-2.35c0-0.86,0.19-1.64,0.58-2.33c0.39-0.69,0.92-1.23,1.59-1.62c0.68-0.39,1.44-0.58,2.29-0.58
			c0.85,0,1.61,0.19,2.27,0.58c0.66,0.39,1.18,0.92,1.56,1.62c0.37,0.69,0.56,1.49,0.56,2.38C155.12,68.04,155.11,68.2,155.09,68.4z
			 M148.8,65.4c-0.52,0.47-0.82,1.08-0.91,1.84h5.7c-0.09-0.75-0.39-1.36-0.91-1.83c-0.52-0.47-1.16-0.71-1.93-0.71
			C149.96,64.7,149.32,64.93,148.8,65.4z"/>
		<path class="st5" d="M164.78,64.32c0.66,0.65,1,1.61,1,2.87v5.11h-1.61v-4.93c0-0.86-0.21-1.51-0.62-1.94
			c-0.41-0.44-1.01-0.65-1.78-0.65c-0.87,0-1.56,0.25-2.06,0.76c-0.5,0.51-0.75,1.24-0.75,2.19v4.57h-1.61v-8.88h1.54v1.34
			c0.32-0.46,0.76-0.81,1.32-1.06c0.55-0.25,1.18-0.37,1.88-0.37C163.22,63.34,164.12,63.67,164.78,64.32z"/>
		<path class="st5" d="M173.75,71.79c-0.23,0.2-0.53,0.35-0.87,0.46c-0.35,0.11-0.7,0.16-1.07,0.16c-0.89,0-1.59-0.24-2.08-0.72
			c-0.49-0.48-0.74-1.17-0.74-2.06v-4.88h-1.51v-1.32h1.51v-1.94h1.61v1.94h2.55v1.32h-2.55v4.81c0,0.48,0.12,0.85,0.36,1.11
			c0.24,0.26,0.58,0.38,1.03,0.38c0.49,0,0.91-0.14,1.26-0.42L173.75,71.79z"/>
		<path class="st5" d="M187.23,63.91c0.68,0.38,1.21,0.91,1.6,1.59c0.39,0.68,0.58,1.47,0.58,2.36c0,0.89-0.19,1.68-0.58,2.37
			c-0.39,0.69-0.92,1.22-1.6,1.6c-0.68,0.38-1.45,0.57-2.31,0.57c-0.66,0-1.26-0.13-1.81-0.39c-0.55-0.26-1-0.63-1.36-1.12v1.41
			h-1.54V59.87h1.61v4.89c0.36-0.47,0.8-0.82,1.34-1.06c0.54-0.24,1.12-0.36,1.76-0.36C185.77,63.34,186.54,63.53,187.23,63.91z
			 M186.31,70.61c0.45-0.26,0.81-0.63,1.07-1.11c0.26-0.47,0.39-1.02,0.39-1.63s-0.13-1.16-0.39-1.63s-0.62-0.84-1.07-1.1
			c-0.45-0.26-0.96-0.39-1.53-0.39c-0.56,0-1.07,0.13-1.52,0.39c-0.46,0.26-0.82,0.62-1.07,1.1c-0.26,0.47-0.39,1.02-0.39,1.63
			s0.13,1.16,0.39,1.63c0.26,0.47,0.61,0.84,1.07,1.11c0.46,0.26,0.97,0.39,1.52,0.39C185.35,71,185.86,70.87,186.31,70.61z"/>
		<path class="st5" d="M199.91,63.43v8.88h-1.52v-1.34c-0.32,0.46-0.75,0.81-1.28,1.06c-0.53,0.25-1.11,0.38-1.73,0.38
			c-1.18,0-2.12-0.33-2.8-0.98c-0.68-0.65-1.02-1.62-1.02-2.89v-5.11h1.61v4.93c0,0.86,0.21,1.51,0.62,1.95
			c0.41,0.44,1.01,0.66,1.78,0.66c0.85,0,1.52-0.26,2.01-0.77c0.49-0.51,0.74-1.24,0.74-2.18v-4.59H199.91z"/>
		<path class="st5" d="M203.43,72.11c-0.67-0.2-1.2-0.44-1.58-0.75l0.67-1.27c0.39,0.28,0.87,0.5,1.42,0.67
			c0.56,0.17,1.12,0.25,1.69,0.25c1.41,0,2.11-0.4,2.11-1.21c0-0.27-0.09-0.48-0.28-0.64c-0.19-0.16-0.43-0.27-0.71-0.34
			c-0.28-0.07-0.69-0.15-1.21-0.24c-0.71-0.11-1.3-0.24-1.75-0.39c-0.45-0.15-0.84-0.39-1.16-0.74c-0.32-0.35-0.49-0.83-0.49-1.46
			c0-0.8,0.33-1.45,1.01-1.94c0.67-0.49,1.57-0.73,2.7-0.73c0.59,0,1.18,0.07,1.78,0.22c0.59,0.15,1.08,0.34,1.46,0.59l-0.69,1.27
			c-0.73-0.47-1.58-0.7-2.56-0.7c-0.68,0-1.2,0.11-1.56,0.33c-0.36,0.22-0.54,0.52-0.54,0.89c0,0.29,0.1,0.52,0.3,0.69
			c0.2,0.17,0.45,0.29,0.75,0.37c0.3,0.08,0.71,0.17,1.25,0.27c0.71,0.12,1.29,0.25,1.73,0.39c0.44,0.14,0.82,0.38,1.13,0.71
			c0.31,0.33,0.47,0.8,0.47,1.41c0,0.8-0.34,1.44-1.03,1.92s-1.62,0.71-2.81,0.71C204.8,72.41,204.1,72.31,203.43,72.11z"/>
		<path class="st5" d="M211.4,61.41c-0.21-0.2-0.31-0.45-0.31-0.74c0-0.29,0.1-0.54,0.31-0.75c0.21-0.21,0.47-0.31,0.78-0.31
			c0.31,0,0.57,0.1,0.78,0.29c0.21,0.2,0.31,0.44,0.31,0.73c0,0.3-0.1,0.56-0.31,0.76c-0.21,0.21-0.47,0.31-0.78,0.31
			C211.86,61.72,211.6,61.62,211.4,61.41z M211.37,63.43h1.61v8.88h-1.61V63.43z"/>
		<path class="st5" d="M223.48,64.32c0.66,0.65,1,1.61,1,2.87v5.11h-1.61v-4.93c0-0.86-0.21-1.51-0.62-1.94
			c-0.41-0.44-1.01-0.65-1.78-0.65c-0.87,0-1.56,0.25-2.06,0.76c-0.5,0.51-0.75,1.24-0.75,2.19v4.57h-1.61v-8.88h1.54v1.34
			c0.32-0.46,0.76-0.81,1.32-1.06c0.55-0.25,1.18-0.37,1.88-0.37C221.91,63.34,222.81,63.67,223.48,64.32z"/>
		<path class="st5" d="M235.5,68.4h-7.21c0.1,0.78,0.44,1.41,1.03,1.88c0.59,0.48,1.32,0.71,2.19,0.71c1.06,0,1.92-0.36,2.56-1.07
			l0.89,1.04c-0.4,0.47-0.9,0.83-1.5,1.07c-0.6,0.25-1.27,0.37-2,0.37c-0.94,0-1.77-0.19-2.5-0.58c-0.73-0.39-1.29-0.92-1.68-1.62
			c-0.4-0.69-0.59-1.47-0.59-2.35c0-0.86,0.19-1.64,0.58-2.33c0.39-0.69,0.92-1.23,1.59-1.62c0.68-0.39,1.44-0.58,2.29-0.58
			c0.85,0,1.61,0.19,2.27,0.58c0.66,0.39,1.18,0.92,1.56,1.62c0.37,0.69,0.56,1.49,0.56,2.38C235.53,68.04,235.52,68.2,235.5,68.4z
			 M229.21,65.4c-0.52,0.47-0.82,1.08-0.91,1.84h5.7c-0.09-0.75-0.39-1.36-0.91-1.83c-0.52-0.47-1.16-0.71-1.93-0.71
			C230.37,64.7,229.73,64.93,229.21,65.4z"/>
		<path class="st5" d="M238.21,72.11c-0.67-0.2-1.2-0.44-1.58-0.75l0.67-1.27c0.39,0.28,0.87,0.5,1.42,0.67
			c0.56,0.17,1.12,0.25,1.69,0.25c1.41,0,2.11-0.4,2.11-1.21c0-0.27-0.09-0.48-0.28-0.64c-0.19-0.16-0.43-0.27-0.71-0.34
			c-0.28-0.07-0.69-0.15-1.21-0.24c-0.71-0.11-1.3-0.24-1.75-0.39c-0.45-0.15-0.84-0.39-1.16-0.74c-0.32-0.35-0.49-0.83-0.49-1.46
			c0-0.8,0.33-1.45,1.01-1.94c0.67-0.49,1.57-0.73,2.7-0.73c0.59,0,1.18,0.07,1.78,0.22c0.59,0.15,1.08,0.34,1.46,0.59l-0.69,1.27
			c-0.73-0.47-1.58-0.7-2.56-0.7c-0.68,0-1.2,0.11-1.56,0.33c-0.36,0.22-0.54,0.52-0.54,0.89c0,0.29,0.1,0.52,0.3,0.69
			c0.2,0.17,0.45,0.29,0.75,0.37c0.3,0.08,0.71,0.17,1.25,0.27c0.71,0.12,1.29,0.25,1.73,0.39c0.44,0.14,0.82,0.38,1.13,0.71
			c0.31,0.33,0.47,0.8,0.47,1.41c0,0.8-0.34,1.44-1.03,1.92c-0.69,0.47-1.62,0.71-2.81,0.71C239.58,72.41,238.88,72.31,238.21,72.11
			z"/>
		<path class="st5" d="M246.61,72.11c-0.67-0.2-1.2-0.44-1.58-0.75l0.67-1.27c0.39,0.28,0.87,0.5,1.42,0.67
			c0.56,0.17,1.12,0.25,1.69,0.25c1.41,0,2.11-0.4,2.11-1.21c0-0.27-0.09-0.48-0.28-0.64c-0.19-0.16-0.43-0.27-0.71-0.34
			c-0.28-0.07-0.69-0.15-1.21-0.24c-0.71-0.11-1.3-0.24-1.75-0.39c-0.45-0.15-0.84-0.39-1.16-0.74c-0.32-0.35-0.49-0.83-0.49-1.46
			c0-0.8,0.33-1.45,1.01-1.94c0.67-0.49,1.57-0.73,2.7-0.73c0.59,0,1.18,0.07,1.78,0.22c0.59,0.15,1.08,0.34,1.46,0.59l-0.69,1.27
			c-0.73-0.47-1.58-0.7-2.56-0.7c-0.68,0-1.2,0.11-1.56,0.33c-0.36,0.22-0.54,0.52-0.54,0.89c0,0.29,0.1,0.52,0.3,0.69
			c0.2,0.17,0.45,0.29,0.75,0.37c0.3,0.08,0.71,0.17,1.25,0.27c0.71,0.12,1.29,0.25,1.73,0.39c0.44,0.14,0.82,0.38,1.13,0.71
			c0.31,0.33,0.47,0.8,0.47,1.41c0,0.8-0.34,1.44-1.03,1.92s-1.62,0.71-2.81,0.71C247.98,72.41,247.28,72.31,246.61,72.11z"/>
	</g>
</g>
</svg>
