<?xml version="1.0" encoding="utf-8"?>
<!-- Generator: Adobe Illustrator 23.0.1, SVG Export Plug-In . SVG Version: 6.00 Build 0)  -->
<svg version="1.1" id="Layer_1" xmlns="http://www.w3.org/2000/svg" xmlns:xlink="http://www.w3.org/1999/xlink" x="0px" y="0px"
	 viewBox="0 0 1566 330" style="enable-background:new 0 0 1566 330;" xml:space="preserve">
<style type="text/css">
	.st0{fill:#F399FF;}
	.st1{fill:#FF4640;}
	.st2{fill:#FFE500;}
	.st3{fill:#95FF80;}
	.st4{fill:#66E5FF;}
</style>
<g>
	<path class="st0" d="M241.38,322.06h77.39v-77.39C318.77,287.41,284.12,322.06,241.38,322.06"/>
	<path class="st0" d="M241.38,167.28c42.74,0,77.39,34.65,77.39,77.39V89.89C318.77,132.63,284.12,167.28,241.38,167.28"/>
	<path class="st0" d="M163.99,244.67c0-42.74,34.65-77.39,77.39-77.39c-42.74,0-77.39-34.65-77.39-77.39
		c0-42.74,34.65-77.39,77.39-77.39H9.22v309.56h232.17C198.64,322.06,163.99,287.41,163.99,244.67"/>
	<path class="st0" d="M241.38,12.5c42.74,0,77.39,34.65,77.39,77.39V12.5H241.38z"/>
	<path class="st1" d="M318.77,322.06h309.56V12.5H318.77V322.06z M473.55,244.67c-42.74,0-77.39-34.65-77.39-77.39
		s34.65-77.39,77.39-77.39c42.74,0,77.39,34.65,77.39,77.39S516.29,244.67,473.55,244.67"/>
	<path class="st2" d="M628.33,322.06h309.56V12.5H628.33V322.06z M783.11,244.67c-42.74,0-77.39-34.65-77.39-77.39
		s34.65-77.39,77.39-77.39c42.74,0,77.39,34.65,77.39,77.39S825.85,244.67,783.11,244.67"/>
	<path class="st3" d="M1015.27,244.67c0-42.74-34.65-77.39-77.39-77.39V12.5h309.56c-42.74,0-77.39,34.65-77.39,77.39
		c0,42.74,34.65,77.39,77.39,77.39v154.78H937.88C980.62,322.06,1015.27,287.41,1015.27,244.67"/>
	<path class="st4" d="M1479.61,244.67c0-42.74,34.65-77.39,77.39-77.39V12.5h-309.56v154.78c42.74,0,77.39,34.65,77.39,77.39
		c0,42.74-34.65,77.39-77.39,77.39H1557C1514.26,322.06,1479.61,287.41,1479.61,244.67"/>
</g>
</svg>
