<?xml version="1.0" encoding="utf-8"?>
<!-- Generator: Adobe Illustrator 23.0.1, SVG Export Plug-In . SVG Version: 6.00 Build 0)  -->
<svg version="1.1" id="Layer_1" xmlns="http://www.w3.org/2000/svg" xmlns:xlink="http://www.w3.org/1999/xlink" x="0px" y="0px"
	 viewBox="0 0 326 200" style="enable-background:new 0 0 326 200;" xml:space="preserve">
<style type="text/css">
	.st0{fill:none;}
	.st1{fill:#D2D2D2;}
	.st2{fill:#77E7FF;}
	.st3{fill:none;stroke:#77E7FF;stroke-width:0;stroke-linecap:round;stroke-linejoin:round;}
</style>
<g>
	<path class="st0" d="M100.96,147.41c0.3,1.77,0.92,3.24,1.68,4.55c0.76,1.3,1.67,2.45,2.76,3.54c1.09,1.08,2.38,2.11,4.05,3.02
		c0,0,0.22,0.1,0.56,0.26c0.17,0.08,0.37,0.2,0.6,0.29c0.23,0.09,0.49,0.19,0.76,0.3c0.13,0.06,0.27,0.11,0.41,0.17l0.43,0.13
		c0.29,0.09,0.57,0.19,0.85,0.3c0.28,0.08,0.55,0.15,0.8,0.24c0.1,0.03,0.19,0.07,0.28,0.1l0.38-0.03c0-0.53,0-0.41,0,0l0.02,0
		l0.51-0.08c1.38-0.13,2.64-0.46,3.67-0.34c0.77-0.2,1.41-0.56,1.97-1c0.59-0.39,1.09-0.86,1.79-1.13l0.54,0.05
		c0.12-0.31,0.06-0.39,0.38-0.6c-0.06,0.17,0.07,0.18,0.21,0.18c0.06-0.05,0.12-0.1,0.18-0.15l0.09-0.33
		c0.23,0.16,0.27-0.19,0.31-0.52c0.03-0.33,0.05-0.64,0.27-0.46l0.39,0.17c0.08-0.05,0.15-0.11,0.23-0.16
		c0.44-0.49,0.84-1,1.17-1.51c0.81-1.24,1.4-2.42,1.68-3.31c0.16-0.44,0.29-0.79,0.34-1.04c0.06-0.24,0.09-0.36,0.1-0.38
		c0.19-1.35,0.23-2.71,0.26-4.02c0.06-0.18,0.15-0.35,0.25-0.51l0.03-2.76c-0.13-0.37-0.25-0.73-0.43-1.08l0.2,0.16
		c-0.18-0.43-0.49-0.87-0.81-0.74c0.24-0.18,0.54-0.18,0.28-0.73c-0.36,0.15-0.65,0.05-0.89-0.18c-0.12-0.11-0.24-0.25-0.35-0.41
		c-0.12-0.15-0.25-0.3-0.38-0.45c0.09-0.03,0-0.34,0.22-0.22c-0.43-0.24-0.68-0.51-0.9-0.79c-0.21-0.28-0.31-0.61-0.46-0.92
		c-0.3-0.6-0.63-1.26-1.61-1.4l0.08-0.06c-0.15-0.33-0.33-0.55-0.55-0.69c-0.21-0.16-0.42-0.27-0.63-0.38
		c-0.43-0.22-0.91-0.36-1.42-0.94l-0.14,0.37c-0.54-0.39-1.24-0.74-2.02-0.7l0.13-0.1l-0.49-0.14l0.05-0.09
		c-0.23,0.04-0.66-0.2-1.11-0.07l0.04-0.09c-0.11-0.12-0.26-0.18-0.41-0.19c-0.16,0-0.32,0.05-0.47,0.11l-0.26-0.37
		c-0.22,0.09-0.45,0.1-0.69,0.1c-0.24,0.01-0.49,0-0.73-0.02c-0.24-0.01-0.48-0.04-0.71,0c-0.22,0.05-0.42,0.13-0.58,0.29
		c0,0,0.01,0,0.01,0l-0.07,0.04c0.02-0.02,0.04-0.03,0.05-0.04c-1.41,0.15-2.87,0.6-4.2,1.09c-1.31,0.7-2.14,1.08-3,1.49
		c-0.42,0.21-0.87,0.4-1.32,0.71c-0.22,0.15-0.49,0.29-0.72,0.5c-0.24,0.21-0.49,0.44-0.76,0.7c-0.98,1.43-1.23,2.68-1.49,3.75
		c-0.19,1.11-0.48,2.03-1.07,3.34c0,0-0.03,0.08-0.09,0.21c-0.06,0.13-0.15,0.31-0.23,0.52c-0.05,0.13-0.12,0.26-0.2,0.4
		c0.01,0.2,0.02,0.42,0.03,0.62C100.84,146.54,100.91,146.96,100.96,147.41z"/>
	<path class="st0" d="M220.5,67.71c-0.55,0.52-0.65,0.05-1.01-0.06c-0.14,0.17-0.28,0.53-0.18,0.65l0.34-0.06
		c-0.19,0.12-0.29,0.11-0.34,0.06l-0.1,0.02l-0.08,0.42c-0.75,0.25-1.27,0.74-1.8,1.23c-0.51,0.51-1.09,0.9-1.79,0.92
		c0.27-0.21,0.9-0.34,0.74-0.67l-0.93,0.55c0.36-0.28,0.58-0.64,0.32-0.8c-1.23,0.82-2.32,1.71-4.11,2.23
		c-0.17-0.48-1.22,0.1-1.89-0.2c0.09,0.08,0.12,0.13,0.11,0.17c0.28-0.01,0.4,0.09-0.2,0.24c0.01-0.03-0.01-0.05-0.02-0.07
		c-0.09,0.05-0.19,0.11-0.26,0.2c-0.5-0.17-0.43-0.28-0.2-0.34c-0.36,0.02-0.76,0.09-0.46-0.21c-0.34-0.04-0.56,0.02-0.74,0.12
		c0.26,0.43,0.53,0.96,0.82,1.59c-0.39,0.62-0.43,1.16-0.13,2.07l0.38-0.18c-0.26,0.56,0.04,1.03,0.13,1.52
		c0.38,0.26,0.46-0.39,0.79,0.16c0.04,1.03,0.02,0.52,0.06,1.55c-0.24-0.06-0.2-0.61-0.52-0.46c0.18,0.1,0.21,0.87,0.62,0.77
		l-0.43,0.02c0.14,0.2-0.18,0.35-0.17,0.6c0.11,0.12,0.29,0.22,0.34-0.07c0.17,0.53,0.64,1.28,0.33,1.69
		c0.02,0.51-0.4,0.36-0.72,0.5c0.05,0.15,0.26,0.39,0.41,0.38l0.16-0.21c-0.02,0.15-0.09,0.21-0.16,0.21l-0.05,0.06l0.29,0.22
		c-0.55,1.04,0.64,1.98,0.05,2.87c-0.07-0.23,0.08-0.65-0.29-0.66l0.09,0.74c-0.1-0.3-0.33-0.55-0.58-0.43
		c0.19,1.05,0.71,1.95,0.82,3.21c-0.5,0.05-0.1,0.83-0.47,1.27c0.08-0.06,0.14-0.08,0.18-0.07c0.04-0.19,0.13-0.27,0.23,0.15
		c-0.03-0.01-0.05,0.01-0.07,0.01c0.05,0.07,0.1,0.14,0.19,0.19c-0.19,0.33-0.3,0.28-0.35,0.12c0,0.25,0.05,0.53-0.24,0.31
		c-0.18,0.67,0.55,0.73,0.7,1.11c-0.04,0.75-0.02,1.04,0.11,2.06l-0.08-0.13c-0.08,0.28-0.53,0.38-0.45,0.92
		c1.57,0.43,0.04,1.41,0.54,2.59c0.51-0.15,0.29,0.46,0.69,0.4c-0.47,1.15,0.45,2.05,0.06,3.33l-0.04-0.07
		c-0.38,0.35-0.09,1.21,0.27,1.5c-0.37-0.18-0.49,0.44-0.81,0.22c0.51,0.26,0.28,1.39,0.28,1.39c-0.46,0.22-0.02,1.05-0.37,1.57
		l0.61,0.68l-0.41-0.24c0.06,0.36-0.25,0.43-0.42,0.28c-0.07,0.16,0.07,0.24,0.14,0.49l-0.33-0.11c-0.15,0.44,0.66,0.63,0.6,0.27
		c0.92,0.91-0.46,0.53,0.22,1.35l0.48,0.16c0,0,0,0,0,0l0.24,0.08l-0.24-0.08c0.38,0.9-0.85,0.33-0.37,1.24l-0.34,0.03
		c0.08,0.24,0.07,0.47,0.46,0.39c-0.1,0.86-0.46,1.87-0.7,2.54c0.11,0.53,0.3-0.2,0.58,0.05c0.5,0.57-0.1,0.74-0.28,1.25l0.35-0.14
		l-0.17,1.03l-0.28-0.14l-0.05,0.69c0.23,0.2,0.2-0.1,0.31-0.32c-0.1,0.74,0.88,1.36,0.25,2.11l-0.34-0.09
		c0.1,0.01,0.1-0.11,0.06-0.17c-0.54-0.74-0.33,0.55-0.58,0.58c0.42,0.21,0.09,0.88,0.65,1.16c-0.77,1.32,0.33,2.35-0.12,3.35
		c-0.28-0.26-0.22,0.33-0.51,0.3c-0.22,0.44,0.42,0.33,0.34,0.73l-0.46,0.36c0.67,0.93-0.63,0.64-0.35,1.53
		c0.59,0.58-0.48,1.35,0.15,2.21l-0.34,0.03c0.3,0.66-0.36,1.01-0.15,1.55c-0.35,0.14-0.19-0.13-0.62-0.11
		c0.3,0.55-0.73-0.14-0.34,0.23c-0.41,0.77,1.44,1.53,1.33,2.27c0.54,0.79-0.82,1.48,0.02,1.62l0.07-0.41l0.07,1.09l-0.31,0.03
		c0.21,0.44-0.2,1.5,0.29,2.04c0.01,0.02,0.02,0.04,0.04,0.05c-0.02-0.01-0.02-0.03-0.04-0.05c-0.03-0.01-0.06,0.03-0.12,0.06
		c0.25,0.56-0.17,0.71,0.33,1.21l-0.13-0.06c0.73,0.88,0.52,2.81,0.64,4.19c-0.46,0.04-0.28,0.83-0.18,1.41
		c-0.01-0.18-0.23-0.2-0.29-0.23c0.54,0.79-0.57,1.66,0.04,2.49l-0.06-0.03c-0.26,0.32,0.45,1.28-0.34,1.42
		c0.65,0.93,0.58,1.78,0.27,3.13l-0.13-0.06c-4.88,9.07-4.65-2.87-4.65-2.87l0.08-2.46c-0.07,0-0.25-0.22-0.17-0.31
		c-1.01-2.69,1.34-5.75,0.46-8.38c-0.4-1.87-1.09-5.12-0.34-6.84c0.14-1.44-0.56-2.59-0.28-3.96l0.37-0.37
		c-0.18-0.25-0.27-0.26-0.25-0.6c0.13,0.19,0.24-0.04,0.35-0.14l-0.27-0.37c0.54-0.12-0.92-0.95-0.33-1.01l0.4-0.14
		c0.94-3.21-0.42-6.93-0.19-10.38c0.4-0.83,1.21-1.33,1.31-2.19l-0.54,0.01c-0.16-0.59,0.45-0.13,0.63-0.75l-0.65,0.23l-0.12-1.17
		l0.13,0.19c-0.02-0.41-0.16-0.86-0.51-0.86c0.3-0.07,0.54,0.03,0.55-0.49c-0.78-0.01-0.84-0.78-0.96-1.5
		c0.1,0.02,0.18-0.26,0.3-0.07c-1-1.56,0.77-2.44-0.28-3.95l0.1,0.02c0.53-1.2-0.3-1.68,0.15-3.01l-0.4,0.05
		c0.12-0.62,0.1-1.32-0.16-2.01l0.14,0.08l-0.04-0.48l0.1,0.02c-0.12-0.19,0.02-0.64-0.23-1.03l0.1,0.02
		c0.18-0.26,0.07-0.57-0.1-0.83l0.33-0.29c-0.49-0.76,0.09-1.9-0.49-2.54c0,0,0,0.01,0,0.01l-0.04-0.07
		c0.02,0.02,0.02,0.04,0.04,0.05c-0.09-1.35-0.26-2.83-0.2-4.22c-0.3-2.9,0.44-3.65,0.64-6.45c-0.29-3.1-1.34-4.5-0.62-7.03
		c-0.13-0.01-0.26-0.02-0.4-0.03l0.21-0.05c-0.4-0.14-0.43-0.64-1.21-0.75c-0.5,0.68-1.04,0.56-1.62,0.2
		c-0.29-0.17-0.61-0.39-0.96-0.57c-0.34-0.2-0.71-0.39-1.17-0.47c-0.02,0.55-0.75-0.04-0.87,0.34c-0.33-0.32-0.66-0.57-1.02-0.77
		c-0.36-0.2-0.73-0.35-1.09-0.56c-0.36-0.19-0.74-0.39-1.1-0.64c-0.36-0.25-0.68-0.59-0.99-0.99l0.1,0.04
		c-0.06-0.22-0.23-0.45-0.46-0.67c-0.26,7.28-1.29,14.82-0.65,21.58c0.4,6.68,1.09,18.28,0.34,24.44
		c-0.14,5.13,0.56,9.27,0.28,14.15l-0.37,1.33c0.18,0.89,0.27,0.92,0.25,2.16c-0.13-0.67-0.24,0.13-0.35,0.5l0.27,1.34
		c-0.54,0.44,0.92,3.39,0.33,3.61l-0.4,0.51c-0.24,2.87-0.33,5.85-0.34,8.91c0.03,2.67,0.77,5.37,2.31,7.61
		c0.34,0.58,0.81,1.08,1.22,1.62c0.49,0.47,0.92,0.99,1.46,1.4c0.5,0.46,1.07,0.82,1.61,1.2c0.28,0.18,0.58,0.33,0.87,0.5l0.43,0.25
		l0.46,0.2c2.41,1.14,5.08,1.51,7.66,1.36c0.62,0.01,1.21,0.07,1.77,0.08c0.55-0.03,1.11,0.04,1.65-0.04
		c0.54-0.07,1.11-0.1,1.66-0.29c0.28-0.08,0.58-0.18,0.88-0.28c0.29-0.13,0.58-0.29,0.89-0.46l-0.31-0.44
		c0.39-0.27,0.6-0.42,0.74-0.48c0.15-0.06,0.23-0.04,0.32-0.02c0.09,0.03,0.19,0.06,0.38,0.02c0.18-0.05,0.48-0.14,0.87-0.46
		c-0.33,0.01-0.65,0.01-0.98-0.02c0.25-0.18,0.46-0.41,0.68-0.62c0.22-0.22,0.45-0.42,0.66-0.65c0.38-0.48,0.83-0.91,1.15-1.43
		c-0.08,0.18-0.16,0.37-0.25,0.55c0.2-0.25,0.38-0.53,0.55-0.8c0.17-0.26,0.33-0.52,0.42-0.77c0.2-0.48,0.28-0.84,0.12-0.92
		c0.37-0.03,0.45,0.36,1.18-1.13c-0.33-0.17-0.34-0.82-0.16-1.65c0.05-0.43,0.12-0.92,0.23-1.42c0.03-0.52,0.12-1.05,0.14-1.59
		c0.09,0.06,0.21-0.77,0.31-0.18c-0.16-1.1-0.28-2.47-0.26-3.6c0.01-1.16,0.1-2.25,0.2-3.32c0.19-2.16,0.36-4.29-0.16-7l0.1,0.06
		c0.53-4.28-0.3-6.01,0.15-10.75l-0.4,0.18c0.12-2.22,0.1-4.73-0.16-7.17l0.14,0.29l-0.04-1.7l0.1,0.06
		c-0.12-0.7,0.02-2.27-0.23-3.67l0.1,0.06c0.18-0.94,0.07-2.04-0.1-2.98l0.33-1.05c-0.49-2.72,0.09-6.78-0.49-9.07
		c0,0.01,0,0.02,0,0.04l-0.04-0.23c0.01,0.06,0.03,0.13,0.04,0.19c-0.09-4.84-0.26-10.12-0.2-15.07c-0.22-7.39,0.1-10.87,0.37-15.88
		c-0.05,0.1-0.11,0.21-0.16,0.31C221.12,67.31,220.82,67.63,220.5,67.71z"/>
	<path class="st0" d="M147.38,89.47c0.01-0.07,0.01-0.13-0.01-0.18c-0.01,0.07-0.02,0.13-0.02,0.2
		C147.36,89.49,147.37,89.48,147.38,89.47z"/>
	<path class="st0" d="M147.67,102.04l0.04,0.23c-0.01-0.06-0.03-0.13-0.04-0.19c0.03,1.48,0.06,3,0.1,4.53
		c0.08,0.19,0.15,0.37,0.22,0.54c0.1,0.2,0.2,0.39,0.27,0.54c0.15,0.31,0.24,0.49,0.24,0.49c0.18,0.41,0.44,0.79,0.65,1.19
		c0.22,0.4,0.51,0.75,0.76,1.13c0.06-0.05,0.34,0.05,0.34,0.16c1.32,0.8,2.21,2.01,3.39,3.15c1.15,1.12,2.61,2.14,4.19,2.02
		c0.13,0.01,0.27,0.02,0.42,0.03c0.15-0.01,0.3-0.01,0.45-0.02c0.31-0.01,0.63-0.01,0.96-0.02c0.33-0.03,0.67-0.07,1.02-0.1
		l0.52-0.04l0.51-0.08c1.38-0.13,2.64-0.46,3.67-0.34c0.77-0.2,1.41-0.56,1.97-1c0.59-0.39,1.09-0.86,1.79-1.13l0.54,0.05
		c0.12-0.31,0.06-0.39,0.38-0.6c-0.08,0.22,0.18,0.17,0.35,0.18l0.13-0.48c0.23,0.16,0.27-0.19,0.31-0.52
		c0.03-0.33,0.05-0.64,0.27-0.46l0.39,0.17c1.59-0.96,2.66-2.76,3.17-4.65c0.54-1.92,0.56-3.89,0.61-5.76
		c0.02-0.05,0.05-0.1,0.07-0.15c-0.05-1.32-0.1-2.65-0.13-3.97c-0.03-0.07-0.06-0.15-0.1-0.22l0.09,0.07c0-0.04,0-0.09,0-0.13
		c-0.19-0.35-0.44-0.63-0.7-0.52c0.24-0.18,0.54-0.18,0.28-0.73c-0.36,0.15-0.65,0.05-0.89-0.18c-0.12-0.11-0.24-0.25-0.35-0.41
		c-0.12-0.15-0.25-0.3-0.38-0.45c0.09-0.03,0-0.34,0.22-0.22c-0.43-0.24-0.68-0.51-0.9-0.79c-0.21-0.28-0.31-0.61-0.46-0.92
		c-0.3-0.6-0.63-1.26-1.61-1.4l0.08-0.06c-0.15-0.33-0.33-0.55-0.55-0.69c-0.21-0.16-0.42-0.27-0.63-0.38
		c-0.43-0.22-0.91-0.36-1.42-0.94l-0.14,0.37c-0.54-0.39-1.24-0.74-2.02-0.7l0.13-0.1l-0.49-0.14l0.05-0.09
		c-0.23,0.04-0.66-0.2-1.11-0.07l0.04-0.09c-0.11-0.12-0.26-0.18-0.41-0.19c-0.16,0-0.32,0.05-0.47,0.11l-0.26-0.37
		c-0.22,0.09-0.45,0.1-0.69,0.1c-0.24,0.01-0.49,0-0.73-0.02c-0.24-0.01-0.48-0.04-0.71,0c-0.22,0.05-0.42,0.13-0.58,0.29
		c0,0,0.01,0,0.01,0l-0.07,0.04c0.02-0.02,0.04-0.03,0.05-0.04c-1.41,0.15-2.87,0.6-4.2,1.09c-1.31,0.7-2.14,1.08-3,1.49
		c-0.42,0.21-0.87,0.4-1.32,0.71c-0.22,0.15-0.49,0.29-0.72,0.5c-0.24,0.21-0.49,0.44-0.76,0.7c-0.98,1.43-1.23,2.68-1.49,3.75
		c-0.19,1.11-0.48,2.03-1.07,3.34c0,0-0.03,0.08-0.09,0.21c-0.06,0.13-0.15,0.31-0.23,0.52c-0.05,0.11-0.1,0.23-0.17,0.35
		c0.04,0.48,0.1,0.94,0.2,1.34C147.67,102.07,147.67,102.06,147.67,102.04z"/>
	<path class="st0" d="M175.25,71.9l0.37-1.33c-0.18-0.89-0.27-0.92-0.25-2.16c0.13,0.67,0.24-0.13,0.35-0.5l-0.27-1.34
		c0.54-0.44-0.92-3.39-0.33-3.61l0.4-0.51c0.24-2.87,0.33-5.85,0.34-8.91c-0.03-2.67-0.77-5.37-2.31-7.61
		c-0.34-0.58-0.81-1.08-1.22-1.62c-0.49-0.47-0.92-0.99-1.46-1.4c-0.5-0.46-1.07-0.82-1.61-1.2c-0.28-0.18-0.58-0.33-0.87-0.5
		l-0.43-0.25l-0.46-0.2c-2.41-1.14-5.08-1.51-7.66-1.36c-0.62-0.01-1.21-0.07-1.77-0.08c-0.55,0.03-1.11-0.04-1.65,0.04
		c-0.54,0.07-1.11,0.1-1.66,0.29c-0.28,0.08-0.58,0.18-0.88,0.28c-0.29,0.13-0.58,0.29-0.89,0.46l0.31,0.44
		c-0.39,0.27-0.6,0.42-0.74,0.48c-0.15,0.06-0.23,0.04-0.32,0.02c-0.09-0.03-0.19-0.06-0.38-0.02c-0.18,0.05-0.48,0.14-0.87,0.46
		c0.33-0.01,0.65-0.01,0.98,0.02c-0.25,0.18-0.46,0.41-0.68,0.62c-0.22,0.22-0.45,0.42-0.66,0.65c-0.38,0.48-0.83,0.91-1.15,1.43
		c0.08-0.18,0.16-0.37,0.25-0.55c-0.2,0.25-0.38,0.53-0.55,0.8c-0.17,0.26-0.33,0.52-0.42,0.77c-0.2,0.48-0.28,0.84-0.12,0.92
		c-0.37,0.03-0.45-0.36-1.18,1.13c0.33,0.17,0.34,0.82,0.16,1.65c-0.05,0.43-0.12,0.92-0.23,1.42c-0.03,0.52-0.12,1.05-0.14,1.59
		c-0.09-0.06-0.21,0.77-0.31,0.18c0.16,1.1,0.28,2.47,0.26,3.6c-0.01,1.16-0.1,2.25-0.2,3.32c-0.19,2.16-0.36,4.29,0.16,7l-0.1-0.06
		c-0.53,4.28,0.3,6.01-0.15,10.75l0.4-0.18c-0.12,2.22-0.1,4.73,0.16,7.17l-0.14-0.29l0.04,1.7l-0.1-0.06
		c0.11,0.62,0.01,1.94,0.16,3.21c0.08-0.15,0.15-0.3,0.23-0.44c0.25-0.38,0.55-0.69,0.87-0.78c0.55-0.52,0.65-0.05,1.01,0.06
		c0.14-0.17,0.28-0.53,0.18-0.65l-0.34,0.06c0.19-0.12,0.29-0.11,0.34-0.06l0.1-0.02l0.08-0.42c0.75-0.25,1.27-0.74,1.8-1.23
		c0.51-0.51,1.09-0.9,1.79-0.92c-0.27,0.21-0.9,0.34-0.74,0.67l0.93-0.55c-0.36,0.28-0.58,0.64-0.32,0.8
		c1.23-0.82,2.32-1.71,4.11-2.23c0.17,0.48,1.22-0.1,1.89,0.2c-0.09-0.08-0.12-0.13-0.11-0.17c-0.28,0.01-0.4-0.09,0.2-0.24
		c-0.01,0.03,0.01,0.05,0.02,0.07c0.09-0.05,0.19-0.11,0.26-0.2c0.5,0.17,0.43,0.28,0.2,0.34c0.21-0.01,0.42-0.04,0.51,0
		c0.06-0.17,0.02-0.35-0.16-0.59l-0.38,0.08c0.26-0.25-0.04-0.47-0.13-0.69c-0.38-0.12-0.46,0.18-0.79-0.07
		c-0.04-0.47-0.02-0.23-0.06-0.7c0.24,0.03,0.2,0.28,0.52,0.21c-0.18-0.04-0.21-0.39-0.62-0.35l0.43-0.01
		c-0.14-0.09,0.18-0.16,0.17-0.27c-0.11-0.06-0.29-0.1-0.34,0.03c-0.17-0.24-0.64-0.58-0.33-0.77c-0.02-0.23,0.4-0.16,0.72-0.23
		c-0.05-0.07-0.26-0.18-0.41-0.17l-0.16,0.09c0.02-0.07,0.09-0.09,0.16-0.09l0.05-0.03l-0.29-0.1c0.55-0.47-0.64-0.9-0.05-1.3
		c0.07,0.1-0.08,0.3,0.29,0.3l-0.09-0.34c0.1,0.14,0.33,0.25,0.58,0.2c-0.19-0.48-0.71-0.89-0.82-1.46c0.5-0.02,0.1-0.38,0.47-0.57
		c-0.08,0.03-0.14,0.03-0.18,0.03c-0.04,0.09-0.13,0.12-0.23-0.07c0.03,0,0.05,0,0.07,0c-0.05-0.03-0.1-0.06-0.19-0.08
		c0.19-0.15,0.3-0.13,0.35-0.05c0-0.11-0.05-0.24,0.24-0.14c0.18-0.3-0.55-0.33-0.7-0.5c0.04-0.34,0.02-0.47-0.11-0.93l0.08,0.06
		c0.08-0.13,0.53-0.17,0.45-0.42c-1.57-0.19-0.03-0.64-0.54-1.18c-0.51,0.07-0.29-0.21-0.69-0.18c0.47-0.52-0.45-0.93-0.06-1.51
		l0.04,0.03c0.38-0.16,0.09-0.55-0.27-0.68c0.37,0.08,0.49-0.2,0.81-0.1c-0.51-0.12-0.28-0.63-0.28-0.63
		c0.46-0.1,0.02-0.47,0.37-0.71l-0.61-0.31l0.41,0.11c-0.06-0.16,0.25-0.19,0.42-0.13c0.07-0.07-0.07-0.11-0.14-0.22l0.33,0.05
		c0.15-0.2-0.66-0.29-0.6-0.12c-0.92-0.41,0.46-0.24-0.22-0.61l-0.48-0.07l0,0l-0.24-0.04l0.24,0.04c-0.38-0.41,0.85-0.15,0.37-0.56
		l0.34-0.01c-0.08-0.11-0.07-0.21-0.46-0.18c0.1-0.39,0.46-0.85,0.7-1.15c-0.11-0.24-0.3,0.09-0.58-0.02
		c-0.5-0.26,0.1-0.34,0.28-0.57l-0.35,0.06l0.16-0.47l0.28,0.07l0.05-0.31c-0.23-0.09-0.2,0.04-0.31,0.14
		c0.1-0.34-0.88-0.62-0.25-0.96l0.34,0.04c-0.1,0-0.1,0.05-0.06,0.08c0.54,0.34,0.33-0.25,0.58-0.27c-0.42-0.1-0.09-0.4-0.65-0.53
		c0.77-0.6-0.33-1.07,0.12-1.52c0.28,0.12,0.22-0.15,0.51-0.14c0.22-0.2-0.42-0.15-0.34-0.33l0.46-0.16
		c-0.67-0.42,0.63-0.29,0.35-0.69c-0.59-0.26,0.48-0.61-0.15-1l0.34-0.01c-0.3-0.3,0.36-0.46,0.15-0.7
		c0.35-0.06,0.19,0.06,0.62,0.05c-0.3-0.25,0.73,0.06,0.34-0.1c0.41-0.35-1.44-0.7-1.33-1.03c-0.54-0.36,0.82-0.67-0.02-0.73
		l-0.07,0.19l-0.07-0.5l0.31-0.01c-0.21-0.2,0.2-0.68-0.29-0.93c-0.01-0.01-0.02-0.02-0.04-0.02c0.02,0.01,0.02,0.02,0.04,0.02
		c0.03,0,0.06-0.02,0.12-0.03c-0.25-0.26,0.17-0.32-0.33-0.55l0.13,0.03c-0.73-0.4-0.52-1.27-0.64-1.9
		c0.46-0.02,0.28-0.38,0.18-0.64c0.01,0.08,0.23,0.09,0.29,0.1c-0.54-0.36,0.57-0.75-0.04-1.13l0.06,0.01
		c0.26-0.14-0.45-0.58,0.34-0.65c-0.65-0.42-0.58-0.81-0.27-1.42l0.13,0.03c4.88-4.12,4.65,1.3,4.65,1.3l-0.08,1.12
		c0.07,0,0.25,0.1,0.17,0.14c1.01,1.22-1.34,2.61-0.46,3.8c0.4,0.85,1.09,2.32,0.34,3.1c-0.14,0.65,0.56,1.18,0.28,1.8l-0.37,0.17
		c0.18,0.11,0.27,0.12,0.25,0.27c-0.13-0.08-0.24,0.02-0.35,0.06l0.27,0.17c-0.54,0.06,0.92,0.43,0.33,0.46l-0.4,0.06
		c-0.94,1.46,0.42,3.14,0.19,4.71c-0.4,0.38-1.21,0.61-1.31,1l0.54,0c0.16,0.27-0.45,0.06-0.63,0.34l0.65-0.1l0.12,0.53l-0.13-0.09
		c0.02,0.19,0.16,0.39,0.51,0.39c-0.3,0.03-0.54-0.01-0.55,0.22c0.78,0.01,0.84,0.35,0.96,0.68c-0.1-0.01-0.18,0.12-0.3,0.03
		c1,0.71-0.77,1.11,0.28,1.79l-0.1-0.01c-0.53,0.54,0.3,0.76-0.15,1.36l0.4-0.02c-0.12,0.28-0.1,0.6,0.16,0.91l-0.14-0.04l0.04,0.22
		l-0.1-0.01c0.12,0.09-0.02,0.29,0.23,0.47l-0.1-0.01c-0.18,0.12-0.07,0.26,0.1,0.38l-0.33,0.13c0.49,0.35-0.09,0.86,0.49,1.15
		c0,0,0,0,0-0.01l0.04,0.03c-0.02-0.01-0.02-0.02-0.04-0.02c0.09,0.61,0.26,1.29,0.2,1.91c0.3,1.32-0.44,1.66-0.64,2.93
		c0.18,0.86,0.64,1.43,0.81,2.01c0.12,0.01,0.24,0.02,0.37,0.03l-0.21,0.05c0.4,0.14,0.43,0.64,1.21,0.75
		c0.5-0.68,1.04-0.56,1.62-0.2c0.29,0.17,0.61,0.39,0.96,0.57c0.34,0.2,0.71,0.39,1.17,0.47c0.02-0.55,0.75,0.04,0.87-0.34
		c0.33,0.32,0.66,0.57,1.02,0.77c0.36,0.2,0.73,0.35,1.09,0.56c0.36,0.19,0.74,0.39,1.1,0.64c0.36,0.25,0.68,0.59,0.99,0.99
		l-0.1-0.04c0.07,0.27,0.32,0.56,0.62,0.82c0.04-0.55,0.09-1.08,0.15-1.57C175.67,80.92,174.96,76.77,175.25,71.9z"/>
	<path class="st0" d="M207.86,39.37l-0.02,0l-0.51,0.08c-1.38,0.13-2.64,0.46-3.67,0.34c-0.77,0.2-1.41,0.56-1.97,1
		c-0.59,0.39-1.09,0.86-1.79,1.13l-0.54-0.05c-0.12,0.31-0.06,0.39-0.38,0.6c0.06-0.17-0.07-0.18-0.21-0.18
		c-0.06,0.05-0.12,0.1-0.18,0.15l-0.09,0.33c-0.23-0.16-0.27,0.19-0.31,0.52c-0.03,0.33-0.05,0.64-0.27,0.46l-0.39-0.17
		c-0.08,0.05-0.15,0.11-0.23,0.16c-0.44,0.49-0.84,1-1.17,1.51c-0.81,1.24-1.4,2.42-1.68,3.31c-0.16,0.44-0.29,0.79-0.34,1.04
		c-0.06,0.24-0.09,0.36-0.1,0.38c-0.19,1.35-0.23,2.71-0.26,4.02c-0.06,0.18-0.15,0.35-0.25,0.51l-0.03,2.76
		c0.13,0.37,0.25,0.73,0.43,1.08l-0.2-0.16c0.18,0.43,0.49,0.87,0.81,0.74c-0.24,0.18-0.54,0.18-0.28,0.73
		c0.36-0.15,0.65-0.05,0.89,0.18c0.12,0.11,0.24,0.25,0.35,0.41c0.12,0.15,0.25,0.3,0.38,0.45c-0.09,0.03,0,0.34-0.22,0.22
		c0.43,0.24,0.68,0.51,0.9,0.79c0.21,0.28,0.31,0.61,0.46,0.92c0.3,0.6,0.63,1.26,1.61,1.4l-0.08,0.06
		c0.15,0.33,0.33,0.55,0.55,0.69c0.21,0.16,0.42,0.27,0.63,0.38c0.43,0.22,0.91,0.36,1.42,0.94l0.14-0.37
		c0.54,0.39,1.24,0.74,2.02,0.7l-0.13,0.1l0.49,0.14l-0.05,0.09c0.23-0.04,0.66,0.2,1.11,0.07l-0.04,0.09
		c0.11,0.12,0.26,0.18,0.41,0.19c0.16,0,0.32-0.05,0.47-0.11l0.26,0.37c0.22-0.09,0.45-0.1,0.69-0.1c0.24-0.01,0.49,0,0.73,0.02
		c0.24,0.01,0.48,0.04,0.71,0c0.22-0.05,0.42-0.13,0.58-0.29c0,0-0.01,0-0.01,0l0.07-0.04c-0.02,0.02-0.04,0.03-0.05,0.04
		c1.41-0.15,2.87-0.6,4.2-1.09c1.31-0.7,2.14-1.08,3-1.49c0.42-0.21,0.87-0.4,1.32-0.71c0.22-0.15,0.49-0.29,0.72-0.5
		c0.24-0.21,0.49-0.44,0.76-0.7c0.98-1.43,1.23-2.68,1.49-3.75c0.19-1.11,0.48-2.03,1.07-3.34c0,0,0.03-0.08,0.09-0.21
		c0.06-0.13,0.15-0.31,0.23-0.52c0.05-0.13,0.12-0.26,0.2-0.4c-0.01-0.2-0.02-0.42-0.03-0.62c-0.05-0.53-0.12-0.95-0.16-1.4
		c-0.3-1.77-0.92-3.24-1.68-4.55c-0.76-1.3-1.67-2.45-2.76-3.54c-1.09-1.08-2.38-2.11-4.05-3.02c0,0-0.22-0.1-0.56-0.26
		c-0.17-0.08-0.37-0.2-0.6-0.29c-0.23-0.09-0.49-0.19-0.76-0.3c-0.13-0.06-0.27-0.11-0.41-0.17l-0.43-0.13
		c-0.29-0.09-0.57-0.19-0.85-0.3c-0.28-0.08-0.55-0.15-0.8-0.24c-0.1-0.03-0.19-0.07-0.28-0.1L207.86,39.37
		C207.86,39.9,207.86,39.78,207.86,39.37z"/>
	<path class="st0" d="M129.19,110.49c-0.4-6.68-1.09-18.28-0.34-24.44c0.14-5.13-0.56-9.27-0.28-14.15l0.37-1.33
		c-0.18-0.89-0.27-0.92-0.25-2.16c0.13,0.67,0.24-0.13,0.35-0.5l-0.27-1.34c0.54-0.44-0.92-3.39-0.33-3.61l0.4-0.51
		c0.24-2.87,0.33-5.85,0.34-8.91c-0.03-2.67-0.77-5.37-2.31-7.61c-0.34-0.58-0.81-1.08-1.22-1.62c-0.49-0.47-0.92-0.99-1.46-1.4
		c-0.5-0.46-1.07-0.82-1.61-1.2c-0.28-0.18-0.58-0.33-0.87-0.5l-0.43-0.25l-0.46-0.2c-2.41-1.14-5.08-1.51-7.66-1.36
		c-0.62-0.01-1.21-0.07-1.77-0.08c-0.55,0.03-1.11-0.04-1.65,0.04c-0.54,0.07-1.11,0.1-1.66,0.29c-0.28,0.08-0.58,0.18-0.88,0.28
		c-0.29,0.13-0.58,0.29-0.89,0.46l0.31,0.44c-0.39,0.27-0.6,0.42-0.74,0.48c-0.15,0.06-0.23,0.04-0.32,0.02
		c-0.09-0.03-0.19-0.06-0.38-0.02c-0.18,0.05-0.48,0.14-0.87,0.46c0.33-0.01,0.65-0.01,0.98,0.02c-0.25,0.18-0.46,0.41-0.68,0.62
		c-0.22,0.22-0.45,0.42-0.66,0.65c-0.38,0.48-0.83,0.91-1.15,1.43c0.08-0.18,0.16-0.37,0.25-0.55c-0.2,0.25-0.38,0.53-0.55,0.8
		c-0.17,0.26-0.33,0.52-0.42,0.77c-0.2,0.48-0.28,0.84-0.12,0.92c-0.37,0.03-0.45-0.36-1.18,1.13c0.33,0.17,0.34,0.82,0.16,1.65
		c-0.05,0.43-0.12,0.92-0.23,1.42c-0.03,0.52-0.12,1.05-0.14,1.59c-0.09-0.06-0.21,0.77-0.31,0.18c0.16,1.1,0.28,2.47,0.26,3.6
		c-0.01,1.16-0.1,2.25-0.2,3.32c-0.19,2.16-0.36,4.29,0.16,7l-0.1-0.06c-0.53,4.28,0.3,6.01-0.15,10.75l0.4-0.18
		c-0.12,2.22-0.1,4.73,0.16,7.17l-0.14-0.29l0.04,1.7l-0.1-0.06c0.12,0.7-0.02,2.27,0.23,3.67l-0.1-0.06
		c-0.18,0.94-0.07,2.04,0.1,2.98l-0.33,1.05c0.49,2.72-0.09,6.78,0.49,9.07c0-0.01,0-0.02,0-0.04l0.04,0.23
		c-0.01-0.06-0.03-0.13-0.04-0.19c0.09,4.84,0.26,10.12,0.2,15.07c0.22,7.39-0.1,10.87-0.37,15.88c0.05-0.1,0.11-0.21,0.16-0.31
		c0.25-0.38,0.55-0.69,0.87-0.78c0.55-0.52,0.65-0.05,1.01,0.06c0.14-0.17,0.28-0.53,0.18-0.65l-0.34,0.06
		c0.19-0.12,0.29-0.11,0.34-0.06l0.1-0.02l0.08-0.42c0.75-0.25,1.27-0.74,1.8-1.23c0.51-0.51,1.09-0.9,1.79-0.92
		c-0.27,0.21-0.9,0.34-0.74,0.67l0.93-0.55c-0.36,0.28-0.58,0.64-0.32,0.8c1.23-0.82,2.32-1.71,4.11-2.23
		c0.17,0.48,1.22-0.1,1.89,0.2c-0.09-0.08-0.12-0.13-0.11-0.17c-0.28,0.01-0.4-0.09,0.2-0.24c-0.01,0.03,0.01,0.05,0.02,0.07
		c0.09-0.05,0.19-0.11,0.26-0.2c0.5,0.17,0.43,0.28,0.2,0.34c0.36-0.02,0.76-0.09,0.46,0.21c0.34,0.04,0.56-0.02,0.74-0.12
		c-0.26-0.43-0.53-0.96-0.82-1.59c0.39-0.62,0.43-1.16,0.13-2.07l-0.38,0.18c0.26-0.56-0.04-1.03-0.13-1.52
		c-0.38-0.26-0.46,0.39-0.79-0.16c-0.04-1.03-0.02-0.52-0.06-1.55c0.24,0.06,0.2,0.61,0.52,0.46c-0.18-0.1-0.21-0.87-0.62-0.77
		l0.43-0.02c-0.14-0.2,0.18-0.35,0.17-0.6c-0.11-0.12-0.29-0.22-0.34,0.07c-0.17-0.53-0.64-1.28-0.33-1.69
		c-0.02-0.51,0.4-0.36,0.72-0.5c-0.05-0.15-0.26-0.39-0.41-0.38l-0.16,0.21c0.02-0.15,0.09-0.21,0.16-0.21l0.05-0.06l-0.29-0.22
		c0.55-1.04-0.64-1.98-0.05-2.87c0.07,0.23-0.08,0.65,0.29,0.66l-0.09-0.74c0.1,0.3,0.33,0.55,0.58,0.43
		c-0.19-1.05-0.71-1.95-0.82-3.21c0.5-0.05,0.1-0.83,0.47-1.27c-0.08,0.06-0.14,0.08-0.18,0.07c-0.04,0.19-0.13,0.27-0.23-0.15
		c0.03,0.01,0.05-0.01,0.07-0.01c-0.05-0.07-0.1-0.14-0.19-0.19c0.19-0.33,0.3-0.28,0.35-0.12c0-0.25-0.05-0.53,0.24-0.31
		c0.18-0.67-0.55-0.73-0.7-1.11c0.04-0.75,0.02-1.04-0.11-2.06l0.08,0.13c0.08-0.28,0.53-0.38,0.45-0.92
		c-1.57-0.43-0.03-1.41-0.54-2.59c-0.51,0.15-0.29-0.46-0.69-0.4c0.47-1.15-0.45-2.05-0.06-3.33l0.04,0.07
		c0.38-0.35,0.09-1.21-0.27-1.5c0.37,0.18,0.49-0.44,0.81-0.22c-0.51-0.26-0.28-1.39-0.28-1.39c0.46-0.22,0.02-1.05,0.37-1.57
		l-0.61-0.68l0.41,0.24c-0.06-0.36,0.25-0.43,0.42-0.28c0.07-0.16-0.07-0.24-0.14-0.49l0.33,0.11c0.15-0.44-0.66-0.63-0.6-0.27
		c-0.92-0.91,0.46-0.53-0.22-1.35l-0.48-0.16v0l-0.24-0.08l0.24,0.08c-0.38-0.9,0.85-0.33,0.37-1.24l0.34-0.03
		c-0.08-0.24-0.07-0.47-0.46-0.39c0.1-0.86,0.46-1.87,0.7-2.54c-0.11-0.53-0.3,0.2-0.58-0.05c-0.5-0.57,0.1-0.74,0.28-1.25
		l-0.35,0.14l0.16-1.03l0.28,0.14l0.05-0.69c-0.23-0.2-0.2,0.1-0.31,0.32c0.1-0.74-0.88-1.36-0.25-2.11l0.34,0.09
		c-0.1-0.01-0.1,0.11-0.06,0.17c0.54,0.74,0.33-0.55,0.58-0.58c-0.42-0.21-0.09-0.88-0.65-1.16c0.77-1.32-0.33-2.35,0.12-3.35
		c0.28,0.26,0.22-0.33,0.51-0.3c0.22-0.44-0.42-0.33-0.34-0.73l0.46-0.36c-0.67-0.93,0.63-0.64,0.35-1.53
		c-0.59-0.58,0.48-1.35-0.15-2.21l0.34-0.03c-0.3-0.66,0.36-1.01,0.15-1.55c0.35-0.14,0.19,0.13,0.62,0.11
		c-0.3-0.55,0.73,0.14,0.34-0.23c0.41-0.77-1.44-1.53-1.33-2.27c-0.54-0.79,0.82-1.48-0.02-1.62l-0.07,0.41l-0.07-1.09l0.31-0.03
		c-0.21-0.44,0.2-1.5-0.29-2.04c-0.01-0.02-0.02-0.04-0.04-0.05c0.02,0.01,0.02,0.03,0.04,0.05c0.03,0.01,0.06-0.03,0.12-0.06
		c-0.25-0.56,0.17-0.71-0.33-1.21l0.13,0.06c-0.73-0.88-0.52-2.81-0.64-4.19c0.46-0.04,0.28-0.83,0.18-1.41
		c0.01,0.18,0.23,0.2,0.29,0.23c-0.54-0.79,0.57-1.66-0.04-2.49l0.06,0.03c0.26-0.32-0.45-1.28,0.34-1.42
		c-0.65-0.93-0.58-1.78-0.27-3.13l0.13,0.06c4.88-9.07,4.65,2.87,4.65,2.87l-0.08,2.46c0.07,0,0.25,0.22,0.17,0.31
		c1.01,2.69-1.34,5.75-0.46,8.38c0.4,1.87,1.09,5.11,0.34,6.84c-0.14,1.44,0.56,2.59,0.28,3.96l-0.37,0.37
		c0.18,0.25,0.27,0.26,0.25,0.6c-0.13-0.19-0.24,0.04-0.35,0.14l0.27,0.37c-0.54,0.12,0.92,0.95,0.33,1.01l-0.4,0.14
		c-0.94,3.21,0.42,6.93,0.19,10.38c-0.4,0.83-1.21,1.33-1.31,2.19l0.54-0.01c0.16,0.59-0.45,0.13-0.63,0.75l0.65-0.23l0.12,1.17
		l-0.13-0.19c0.02,0.41,0.16,0.86,0.51,0.86c-0.3,0.07-0.54-0.03-0.55,0.49c0.78,0.01,0.84,0.78,0.96,1.5
		c-0.1-0.02-0.18,0.26-0.3,0.07c1,1.56-0.77,2.44,0.28,3.95l-0.1-0.02c-0.53,1.2,0.3,1.68-0.15,3.01l0.4-0.05
		c-0.12,0.62-0.1,1.32,0.16,2.01l-0.14-0.08l0.04,0.48l-0.1-0.02c0.12,0.19-0.02,0.64,0.23,1.03l-0.1-0.02
		c-0.18,0.26-0.07,0.57,0.1,0.83l-0.33,0.29c0.49,0.76-0.09,1.9,0.49,2.54c0,0,0-0.01,0-0.01l0.04,0.07
		c-0.02-0.02-0.02-0.04-0.04-0.05c0.09,1.35,0.26,2.83,0.2,4.22c0.3,2.9-0.44,3.65-0.64,6.45c0.29,3.1,1.34,4.5,0.62,7.03
		c0.13,0.01,0.26,0.02,0.4,0.03l-0.21,0.05c0.4,0.14,0.43,0.64,1.21,0.75c0.5-0.68,1.04-0.56,1.62-0.2
		c0.29,0.17,0.61,0.39,0.96,0.57c0.34,0.2,0.71,0.39,1.17,0.47c0.02-0.55,0.75,0.04,0.87-0.34c0.33,0.32,0.66,0.57,1.02,0.77
		c0.36,0.2,0.73,0.35,1.09,0.56c0.36,0.19,0.74,0.39,1.1,0.64c0.36,0.25,0.68,0.59,0.99,0.99l-0.1-0.04
		c0.06,0.22,0.23,0.45,0.46,0.67C128.79,124.78,129.82,117.24,129.19,110.49z"/>
	<path class="st0" d="M147.24,140.21c0.04,1.42,0.09,2.75,0.15,3.99c0.03,0.62,0.06,1.22,0.09,1.81c0.05,0.53,0.12,0.95,0.16,1.4
		c0.3,1.77,0.92,3.24,1.68,4.55c0.76,1.3,1.67,2.45,2.76,3.54c1.09,1.08,2.38,2.11,4.05,3.02c0,0,0.22,0.1,0.56,0.26
		c0.17,0.08,0.37,0.2,0.6,0.29c0.23,0.09,0.49,0.19,0.76,0.3c0.13,0.06,0.27,0.11,0.41,0.17l0.43,0.13c0.29,0.09,0.57,0.19,0.85,0.3
		c0.28,0.08,0.55,0.15,0.8,0.24c0.12,0.04,0.24,0.09,0.35,0.13c0.05,0.02,0.11,0.05,0.16,0.07l0.08,0.04l0.04,0.02l0.02,0.01l0.01,0
		l0,0l0,0c0-1.46,0,0.21,0,1.47c0.15-0.18,0.49-0.34,0.97-0.5c0.2-0.07,0.44-0.12,0.69-0.2c0.25-0.09,0.52-0.18,0.81-0.27
		c0.58-0.14,1.21-0.44,1.89-0.67c1.34-0.58,2.8-1.37,4.1-2.4c1.3-1.02,2.46-2.26,3.27-3.5c0.81-1.24,1.4-2.42,1.68-3.31
		c0.16-0.44,0.29-0.79,0.34-1.04c0.06-0.25,0.1-0.39,0.1-0.39c0.19-0.59,0.26-1.21,0.37-1.83c0.07-0.31,0.05-0.62,0.08-0.93
		c0.01-0.33,0.05-0.59,0.05-0.97l0.04-4.4c-0.07,0.01-0.25-0.8-0.17-1.12c-0.86-8.24,0.73-17.44,0.65-25.81
		c-0.31,0.45-0.65,0.86-1.12,1.11c0.1-0.46-0.51,0.18-0.68-0.06c-0.63,0.27-0.08,0.64-0.58,0.99c-0.24,0-0.48-0.02-0.72-0.03
		c-0.72,1.36-1.09,0.09-2.04,0.98c-0.21,0.47-0.68,0.65-1.23,0.76c-0.55,0.12-1.09,0.32-1.58,0.8l-0.16-0.3
		c-0.39,0.3-0.77,0.34-1.12,0.36c-0.35,0.01-0.69-0.03-1.03,0.17c-0.28-0.29,0.14-0.23,0-0.64c-0.65,0.48,0-0.75-0.38-0.25
		c-0.28-0.04-0.51,0.07-0.74,0.24c-0.23,0.15-0.46,0.38-0.69,0.61c-0.27,0.28-0.56,0.56-0.86,0.75c0.39,0.72,0.34,1.66,0.34,1.66
		l-0.08,0.97c0.07,0,0.25,0.09,0.17,0.12c1.01,1.06-1.34,2.27-0.46,3.31c0.4,0.74,1.09,2.02,0.34,2.7
		c-0.14,0.57,0.56,1.02,0.28,1.56l-0.37,0.15c0.18,0.1,0.27,0.1,0.25,0.24c-0.13-0.07-0.24,0.01-0.35,0.06l0.27,0.15
		c-0.54,0.05,0.92,0.37,0.33,0.4l-0.4,0.06c-0.94,1.27,0.42,2.73,0.19,4.1c-0.4,0.33-1.21,0.53-1.31,0.87l0.54,0
		c0.16,0.23-0.45,0.05-0.63,0.3l0.65-0.09l0.12,0.46l-0.13-0.07c0.02,0.16,0.16,0.34,0.51,0.34c-0.3,0.03-0.54-0.01-0.55,0.2
		c0.78,0,0.84,0.31,0.96,0.59c-0.1-0.01-0.18,0.1-0.3,0.03c1,0.62-0.77,0.96,0.28,1.56l-0.1-0.01c-0.53,0.47,0.3,0.66-0.15,1.19
		l0.4-0.02c-0.12,0.24-0.1,0.52,0.16,0.79l-0.14-0.03l0.04,0.19l-0.1-0.01c0.12,0.08-0.02,0.25,0.23,0.41l-0.1-0.01
		c-0.18,0.1-0.07,0.23,0.1,0.33l-0.33,0.12c0.49,0.3-0.09,0.75,0.49,1c0,0,0,0,0,0l0.04,0.03c-0.02-0.01-0.02-0.01-0.04-0.02
		c0.09,0.53,0.26,1.12,0.2,1.67c0.3,1.15-0.44,1.44-0.64,2.55c0.3,1.26,1.42,1.8,0.57,2.86c0,0-1.14,2.12-4.27-0.57
		c0.39-0.24,0.43-0.46,0.13-0.82l-0.38,0.07c0.26-0.22-0.04-0.41-0.13-0.6c-0.38-0.1-0.46,0.15-0.79-0.06
		c-0.04-0.41-0.02-0.2-0.06-0.61c0.24,0.03,0.2,0.24,0.52,0.18c-0.18-0.04-0.21-0.34-0.62-0.3l0.43-0.01
		c-0.14-0.08,0.18-0.14,0.17-0.24c-0.11-0.05-0.29-0.09-0.34,0.03c-0.17-0.21-0.64-0.51-0.33-0.67c-0.02-0.2,0.4-0.14,0.72-0.2
		c-0.05-0.06-0.26-0.15-0.41-0.15l-0.16,0.08c0.02-0.06,0.09-0.08,0.16-0.08l0.05-0.02l-0.29-0.09c0.55-0.41-0.64-0.78-0.05-1.13
		c0.07,0.09-0.08,0.26,0.29,0.26l-0.09-0.29c0.1,0.12,0.33,0.22,0.58,0.17c-0.19-0.41-0.71-0.77-0.82-1.27
		c0.5-0.02,0.1-0.33,0.47-0.5c-0.08,0.02-0.14,0.03-0.18,0.03c-0.04,0.08-0.13,0.11-0.23-0.06c0.03,0,0.05,0,0.07,0
		c-0.05-0.03-0.1-0.05-0.19-0.07c0.19-0.13,0.3-0.11,0.35-0.05c0-0.1-0.05-0.21,0.24-0.12c0.18-0.27-0.55-0.29-0.7-0.44
		c0.04-0.3,0.02-0.41-0.11-0.81l0.08,0.05c0.08-0.11,0.53-0.15,0.45-0.36c-1.57-0.17-0.03-0.55-0.54-1.02
		c-0.51,0.06-0.29-0.18-0.69-0.16c0.47-0.45-0.45-0.81-0.06-1.32l0.04,0.03c0.38-0.14,0.09-0.48-0.27-0.59
		c0.37,0.07,0.49-0.18,0.81-0.09c-0.51-0.1-0.28-0.55-0.28-0.55c0.46-0.09,0.02-0.41,0.37-0.62l-0.61-0.27l0.41,0.1
		c-0.06-0.14,0.25-0.17,0.42-0.11c0.07-0.06-0.07-0.1-0.14-0.19l0.33,0.04c0.15-0.17-0.66-0.25-0.6-0.11
		c-0.92-0.36,0.46-0.21-0.22-0.53l-0.48-0.06l0,0l-0.24-0.03l0.24,0.03c-0.38-0.36,0.85-0.13,0.37-0.49l0.34-0.01
		c-0.08-0.09-0.07-0.19-0.46-0.15c0.1-0.34,0.46-0.74,0.7-1c-0.11-0.21-0.3,0.08-0.58-0.02c-0.5-0.22,0.1-0.29,0.28-0.49l-0.35,0.06
		l0.16-0.41l0.28,0.06l0.05-0.27c-0.23-0.08-0.2,0.04-0.31,0.13c0.1-0.29-0.88-0.54-0.25-0.83l0.34,0.04c-0.1,0-0.1,0.04-0.06,0.07
		c0.54,0.29,0.33-0.22,0.58-0.23c-0.42-0.08-0.09-0.35-0.65-0.46c0.77-0.52-0.33-0.93,0.12-1.32c0.28,0.1,0.22-0.13,0.51-0.12
		c0.22-0.17-0.42-0.13-0.34-0.29l0.46-0.14c-0.67-0.37,0.63-0.25,0.35-0.6c-0.59-0.23,0.48-0.53-0.15-0.87l0.34-0.01
		c-0.3-0.26,0.36-0.4,0.15-0.61c0.35-0.06,0.19,0.05,0.62,0.05c-0.3-0.22,0.73,0.06,0.34-0.09c0.41-0.3-1.44-0.61-1.33-0.9
		c-0.54-0.31,0.82-0.58-0.02-0.64l-0.07,0.16l-0.07-0.43l0.31-0.01c-0.21-0.18,0.2-0.59-0.29-0.81c-0.01-0.01-0.02-0.01-0.04-0.02
		c0.02,0.01,0.02,0.01,0.04,0.02c0.03,0,0.06-0.01,0.12-0.03c-0.25-0.22,0.17-0.28-0.33-0.48l0.13,0.02
		c-0.73-0.35-0.52-1.11-0.64-1.65c0.46-0.02,0.28-0.33,0.18-0.56c0.01,0.07,0.23,0.08,0.29,0.09c-0.54-0.31,0.57-0.66-0.04-0.98
		l0.06,0.01c0.26-0.12-0.45-0.5,0.34-0.56c-0.65-0.37-0.58-0.7-0.27-1.23l0.13,0.02c0.12-0.09,0.22-0.14,0.33-0.22
		c0,0-0.01,0-0.01,0l-0.01-0.31c-0.33,0.06-0.86-0.07-1.4-0.18c-0.55-0.09-1.1-0.26-1.55-0.11c-0.03,0.01-0.06,0.01-0.08,0.02
		c0.02-0.01,0.05-0.01,0.08-0.02c0.02-0.02-0.03-0.07-0.06-0.14c-0.88,0.05-0.92-0.48-1.79-0.25l0.13-0.09
		c-0.75,0.15-1.76-0.2-2.81-0.69c-0.51-0.28-1.03-0.57-1.52-0.89c-0.48-0.34-0.94-0.68-1.38-0.97c0.17-0.29-0.32-0.72-0.87-1.14
		c0,0.5,0,1.01,0,1.5C148.18,127.53,147.43,130.19,147.24,140.21z"/>
	<path class="st1" d="M95.62,131.12l0.16-0.75C95.7,130.39,95.64,130.57,95.62,131.12z"/>
	<path class="st1" d="M133.45,112.24c0.01,0.06,0.02,0.13,0.04,0.18C133.47,112.29,133.46,112.25,133.45,112.24z"/>
	<path class="st1" d="M101,102.04c0,0.02,0,0.03,0,0.04c0.01,0.06,0.03,0.14,0.04,0.19L101,102.04z"/>
	<path class="st1" d="M114.5,160.29L114.5,160.29C114.5,159.88,114.5,159.76,114.5,160.29z"/>
	<path class="st1" d="M118.74,163.08c-0.19-0.02-0.35,0.03-0.51,0.11c0.19,0,0.39,0,0.6-0.01
		C118.87,163,118.92,162.84,118.74,163.08z"/>
	<path class="st1" d="M123.73,157.37l0.04-0.15c-0.06,0.05-0.12,0.1-0.18,0.15C123.64,157.37,123.69,157.37,123.73,157.37z"/>
	<path class="st1" d="M129.3,144.38c0.2-0.41,0.37-0.85,0.34-1.37l-0.52,0.12c-0.33-0.63,0.4-0.24,0.39-1l-0.56,0.42
		c-0.02-0.06-0.04-0.12-0.06-0.17l-0.03,2.76C129.02,144.88,129.18,144.63,129.3,144.38z"/>
	<path class="st1" d="M101.86,37.63C101.86,37.63,101.86,37.63,101.86,37.63c0.04-0.13,0.09-0.26,0.13-0.4L101.86,37.63z"/>
	<path class="st1" d="M97.2,147.35c0.42-0.75,0.8-1.1,1.12-1.2c0.66-0.19,1.12,0.59,1.46,1.61c0.42,1.02,0.78,2.3,1.24,3.29
		c0.1,0.25,0.2,0.48,0.29,0.7c0.1,0.2,0.2,0.39,0.27,0.54c0.15,0.31,0.24,0.49,0.24,0.49c0.18,0.41,0.44,0.79,0.65,1.19
		c0.22,0.4,0.51,0.75,0.76,1.13c0.06-0.05,0.34,0.05,0.34,0.16c1.32,0.8,2.21,2.01,3.39,3.15c1.15,1.12,2.61,2.14,4.19,2.02
		c0.13,0.01,0.27,0.02,0.42,0.03c0.15-0.01,0.3-0.01,0.45-0.02c0.31-0.01,0.63-0.01,0.96-0.02c0.33-0.03,0.67-0.07,1.02-0.1
		l0.12-0.01c-0.09-0.04-0.18-0.07-0.28-0.1c-0.25-0.09-0.52-0.16-0.8-0.24c-0.28-0.11-0.56-0.21-0.85-0.3l-0.43-0.13
		c-0.14-0.06-0.27-0.11-0.41-0.17c-0.27-0.1-0.52-0.21-0.76-0.3c-0.23-0.09-0.43-0.21-0.6-0.29c-0.34-0.16-0.56-0.26-0.56-0.26
		c-1.67-0.91-2.95-1.94-4.05-3.02c-1.09-1.09-1.99-2.23-2.76-3.54c-0.76-1.3-1.37-2.78-1.68-4.55c-0.05-0.46-0.12-0.88-0.16-1.4
		c-0.01-0.2-0.02-0.42-0.03-0.62c-0.16,0.29-0.36,0.57-0.6,0.76c-0.33,0.33-0.79,0.35-1.31-0.21c-0.26-0.28-0.54-0.71-0.84-1.39
		c-0.14-0.34-0.24-0.73-0.35-1.19c-0.05-0.23-0.11-0.48-0.16-0.75c-0.02-0.27-0.05-0.55-0.08-0.85c0.56-0.72,0.85-1.35,1.03-2.61
		l-0.45,0.07c0.58-0.58,0.55-1.31,0.82-1.93c-0.14-0.51-0.69,0.25-0.56-0.59c0.75-1.29,0.33-0.67,1.2-1.9
		c0.14,0.22-0.37,0.82,0.02,0.84c-0.07-0.21,0.57-1.11,0.17-1.25l0.36,0.24c0.06-0.32,0.45-0.27,0.69-0.54
		c0.03-0.2-0.01-0.42-0.33-0.15c0.14-0.26,0.3-0.57,0.46-0.88c0.27-5,0.58-8.49,0.37-15.88c0.06-4.95-0.11-10.23-0.2-15.07
		c-0.58-2.3-0.01-6.36-0.49-9.07l0.33-1.05c-0.17-0.94-0.28-2.04-0.1-2.98l0.1,0.06c-0.25-1.4-0.1-2.98-0.23-3.67l0.1,0.06
		l-0.04-1.7l0.14,0.29c-0.26-2.44-0.28-4.95-0.16-7.17l-0.4,0.18c0.45-4.74-0.38-6.47,0.15-10.75l0.1,0.06
		c-0.53-2.7-0.35-4.84-0.16-7c0.09-1.08,0.19-2.16,0.2-3.32c0.02-1.13-0.1-2.5-0.26-3.6c0.1,0.59,0.22-0.24,0.31-0.18
		c0.02-0.53,0.1-1.07,0.14-1.59c0.1-0.5,0.17-0.99,0.23-1.42c0.18-0.83,0.17-1.48-0.16-1.65c0.73-1.49,0.8-1.1,1.18-1.13
		c-0.15-0.08-0.08-0.44,0.12-0.92c0.09-0.25,0.24-0.5,0.42-0.77c0.17-0.26,0.35-0.54,0.55-0.8c-0.09,0.18-0.17,0.37-0.25,0.55
		c0.33-0.52,0.77-0.95,1.15-1.43c0.2-0.23,0.44-0.43,0.66-0.65c0.22-0.21,0.43-0.44,0.68-0.62c-0.33-0.03-0.65-0.03-0.98-0.02
		c0.4-0.32,0.69-0.41,0.87-0.46c0.19-0.04,0.29-0.01,0.38,0.02c0.09,0.03,0.18,0.05,0.32-0.02c0.15-0.07,0.36-0.22,0.74-0.48
		l-0.31-0.44c0.31-0.17,0.6-0.33,0.89-0.46c0.3-0.11,0.59-0.2,0.88-0.28c0.56-0.19,1.13-0.22,1.66-0.29
		c0.53-0.08,1.1-0.01,1.65-0.04c0.56,0.01,1.14,0.07,1.77,0.08c2.58-0.15,5.25,0.22,7.66,1.36l0.46,0.2l0.43,0.25
		c0.29,0.17,0.59,0.32,0.87,0.5c0.55,0.39,1.12,0.75,1.61,1.2c0.54,0.41,0.98,0.93,1.46,1.4c0.41,0.53,0.88,1.03,1.22,1.62
		c1.54,2.24,2.28,4.95,2.31,7.61c-0.01,3.05-0.1,6.03-0.34,8.91l-0.4,0.51c-0.59,0.22,0.87,3.17,0.33,3.61l0.27,1.34
		c-0.11,0.38-0.22,1.17-0.35,0.5c-0.02,1.24,0.07,1.27,0.25,2.16l-0.37,1.33c-0.28,4.87,0.42,9.02,0.28,14.15
		c-0.75,6.16-0.06,17.76,0.34,24.44c0.63,6.75-0.4,14.3-0.65,21.58c0.41,0.4,0.99,0.74,1.36,0.82c-0.46,0.04,0.08,0.83-0.39,0.77
		c0.33-0.02,0.69,0.37,0.99,0.75c0.15,0.19,0.27,0.38,0.36,0.52c0.09,0.14,0.13,0.24,0.13,0.24c-0.11,0.27,0.09,0.61,0.34,0.99
		c0.12,0.19,0.25,0.39,0.36,0.6c0.1,0.21,0.16,0.44,0.17,0.65c0.33,0.21,0.66,0.44,1,0.67l-0.53-0.16c0.29,0.47,0.05,0.68-0.2,0.55
		c0.05,0.24,0.21,0.3,0.4,0.62l-0.36-0.03c0.08,0.65,0.94,0.65,0.7,0.16c1.31,0.98-0.07,0.89,0.77,1.83
		c0.14-1.79,0.4-3.58,0.08-5.27c0.06,0.11,0.28,0.17,0.29,0.82c-0.1-2.06-0.28-4.89,0.18-5.04c-0.12-4.93,0.09-11.81-0.64-14.97
		l0.13,0.22c-0.5-1.8-0.07-2.33-0.33-4.34c0.06-0.11,0.09-0.25,0.12-0.23c-0.49-1.96-0.08-5.72-0.29-7.31l0.31-0.1l-0.07-3.9
		l-0.07,1.46c-0.84-0.51,0.53-2.95-0.02-5.78c0.11-2.65-1.75-5.37-1.33-8.13c-0.39-1.31,0.64,1.16,0.34-0.81
		c0.44-0.06,0.27,0.92,0.62,0.41c-0.21-1.93,0.45-3.16,0.15-5.54l0.34-0.1c-0.62-3.1,0.45-5.85-0.15-7.91
		c-0.28-3.2,1.01-2.14,0.35-5.47l0.46-1.29c0.07-1.42-0.57-1.02-0.34-2.6c0.29,0.1,0.23-2,0.51-1.07c0.23-1.79,0.07-3.6-0.06-5.56
		c-0.06-0.98-0.11-1.99-0.1-3.05c0.01-0.53,0.03-1.08,0.07-1.63c0.03-0.26,0.04-0.59,0.06-0.93c0.02-0.34,0.05-0.68,0.07-1.03
		c-0.14-0.29-0.29-0.67-0.41-1.1c-0.12-0.43-0.2-0.9-0.32-1.36c-0.28-0.9-0.5-1.78-0.88-2.11c0.08-0.1-0.33-1.41-0.75-2.28
		c-0.38-0.88-0.57-1.45,0.36-0.17c0.16,0.22,0.35,0.66,0.25,0.66c0.15,0.07,0.32,0.13,0.46,0.21c-0.19-0.78-0.46-1.52-0.83-2.17
		c-0.19-0.32-0.4-0.63-0.61-0.93l-0.32-0.44l-0.37-0.41c-0.5-0.54-0.99-1.07-1.55-1.55c-0.27-0.25-0.54-0.5-0.81-0.77
		c-0.29-0.24-0.57-0.5-0.85-0.77c0.3,0.36,0.7,0.72,0.88,0.98c0.19,0.26,0.22,0.37-0.14,0.15c-0.32-0.35-0.68-0.66-1.03-0.99
		c-0.34-0.34-0.71-0.63-1.09-0.92l0.65,0.14c-1.1-0.93-2.27-1.79-3.56-2.47l0.37,0.57c-0.9-0.53-1.45-1.05-2.14-1.39
		c-0.34-0.18-0.69-0.35-1.11-0.49c-0.43-0.11-0.93-0.18-1.54-0.21c-1.09,0.01,1.8,0.95-0.35,0.51c-0.66-0.21-1.42-0.37-2.25-0.55
		c-0.42-0.06-0.85-0.11-1.29-0.17c-0.22-0.03-0.45-0.06-0.67-0.08c-0.23-0.01-0.46-0.01-0.69-0.02c-1.86-0.11-3.84,0.2-5.59,0.7
		c0.44,0.26-0.48,0.57-1.37,1l-0.24-0.26c-1.64,1.02-1.99,1.08-2.4,1.09c-0.39,0.02-0.86-0.03-2.29,1.31
		c-0.08,0.26-0.16,0.52-0.22,0.8c-1.06,1.38-1.44,1.61-1.9,1.89c-0.45,0.27-0.95,0.64-1.64,2.45c0.38-0.64,0.67-0.65,0.66-0.37
		c-0.01,0.28-0.2,0.91-0.72,1.63l-0.05-0.56c-0.48,0.88-0.47,1.25-0.82,1.82c0.11-0.61-0.32-0.51-0.86,0.89
		c-0.02-0.37,0.01-0.72,0.03-1.09c-0.06,0.24-0.12,0.47-0.17,0.71l-0.11,0.72c-0.06,0.48-0.15,0.95-0.17,1.43
		c-0.22,0.5-0.42,1.09-0.58,1.71c-0.11,0.63-0.21,1.29-0.29,1.9c-0.03,0.62-0.06,1.2-0.11,1.68c-0.05,0.48-0.09,0.76-0.22,0.97
		c0,0-0.23,4.03,0.28,4.95c-0.32-0.81-0.44,1.41-0.81,0.78c0.36,1.04,0.65,4.13,0.27,5.36l-0.04-0.23
		c-0.39,4.57,0.53,7.81,0.06,11.91c0.4-0.19,0.18,1.98,0.69,1.44c0.5,4.24-1.03,7.73,0.54,9.26c0.08,1.93-0.37,2.29-0.45,3.28
		l-0.08-0.46c0.13,3.61,0.14,4.66,0.11,7.35c0.15,1.34,0.88,1.55,0.7,3.95c-0.29-0.78-0.24,0.2-0.24,1.1
		c-0.05-0.57-0.15-0.75-0.35,0.43c0.09,0.17,0.14,0.42,0.19,0.66c-0.02,0.01-0.04,0.06-0.07,0.03c0.1,1.5,0.19,1.24,0.23,0.54
		c0.04,0.04,0.1-0.02,0.18-0.24c-0.37,1.56,0.03,4.34-0.47,4.53c0.12,4.51,0.63,7.73,0.82,11.48c-0.26,0.42-0.48-0.46-0.58-1.54
		l0.09,2.66c-0.37-0.02-0.21-1.53-0.29-2.35c-0.59,3.17,0.59,6.53,0.05,10.25l0.29,0.77l-0.05,0.22c0.15-0.01,0.36,0.82,0.41,1.37
		c-0.32,0.53-0.74-0.04-0.72,1.8c-0.31,1.45,0.15,4.13,0.33,6.04c0.05-1.03,0.23-0.7,0.34-0.25c0.01,0.92-0.31,1.45-0.17,2.16
		l-0.34,0.07c0.32,0.13,0.36,2.45,0.52,2.76c-0.32,0.52-0.28-1.43-0.52-1.66c0.02,1.84,0.03,2.31,0.03,2.77
		c0.01,0.24,0,0.44,0.02,0.88c0.04,0.45,0.03,1.09,0.16,2.11c0.6,1.94,0.39-0.07,0.77,0.36c0.09-0.29,0.17-0.56,0.26-0.79
		C96.98,147.75,97.09,147.53,97.2,147.35z"/>
	<path class="st1" d="M127.92,151.09c-0.28,0.89-0.88,2.07-1.68,3.31c-0.33,0.51-0.73,1.02-1.17,1.51c1.46-0.99,2.45-2.69,2.94-4.49
		c0.16-0.58,0.27-1.16,0.35-1.74c0,0.01-0.04,0.14-0.1,0.38C128.21,150.3,128.08,150.66,127.92,151.09z"/>
	<path class="st1" d="M131.8,154.64c0.02-0.05,0.04-0.09,0.06-0.14c-0.03,0.03-0.06,0.05-0.09,0.04
		C131.79,154.58,131.79,154.61,131.8,154.64z"/>
	<path class="st1" d="M95.54,141.58l0.1-0.02C95.6,141.55,95.57,141.55,95.54,141.58z"/>
	<path class="st2" d="M112.39,117.58l0.16-0.21C112.47,117.37,112.41,117.42,112.39,117.58z"/>
	<path class="st3" d="M112.29,64.54c0.02,0.01,0.02,0.03,0.04,0.05"/>
	<path class="st2" d="M117.77,109.44c0,0,0,0.01,0,0.01c0.02,0.02,0.02,0.04,0.04,0.05L117.77,109.44z"/>
	<polygon class="st2" points="110.96,91.62 110.96,91.62 110.72,91.54 	"/>
	<path class="st2" d="M102.71,131.41l0.34-0.06C103,131.3,102.9,131.29,102.71,131.41z"/>
	<path class="st3" d="M109.5,164.4c-0.03,0.01-0.06,0.01-0.08,0.02"/>
	<path class="st2" d="M113.86,132.68c0,0-0.01,0-0.01,0c-0.02,0.02-0.04,0.03-0.05,0.04L113.86,132.68z"/>
	<path class="st2" d="M134.35,147.79c-0.25-0.41-0.51,0.68-0.57-0.13c0.14-0.49,0.35-1.12,0.46-1.79c0.09-0.67,0.21-1.4,0.17-2.07
		c-0.37,0.17-0.41-0.18-0.54-0.53l0.33-0.09c-0.7-1.29,0.7-0.66-0.01-1.95l-0.52-0.12c-0.02-0.02-0.03-0.04-0.05-0.06
		c-0.84-0.94,0.54-0.84-0.77-1.83c0.24,0.49-0.62,0.49-0.7-0.16l0.36,0.03c-0.19-0.32-0.35-0.38-0.4-0.62
		c0.26,0.12,0.49-0.09,0.2-0.55l0.53,0.16c-0.34-0.23-0.67-0.46-1-0.67c-0.01-0.22-0.07-0.44-0.17-0.65
		c-0.11-0.21-0.24-0.41-0.36-0.6c-0.24-0.38-0.44-0.72-0.34-0.99c0,0-0.04-0.1-0.13-0.24c-0.09-0.14-0.21-0.33-0.36-0.52
		c-0.3-0.38-0.66-0.77-0.99-0.75c0.48,0.06-0.07-0.73,0.39-0.77c-0.37-0.08-0.95-0.42-1.36-0.82c-0.22-0.22-0.4-0.45-0.46-0.67
		l0.1,0.04c-0.3-0.4-0.62-0.74-0.99-0.99c-0.37-0.25-0.74-0.45-1.1-0.64c-0.36-0.2-0.73-0.36-1.09-0.56
		c-0.36-0.2-0.69-0.45-1.02-0.77c-0.12,0.38-0.85-0.21-0.87,0.34c-0.46-0.08-0.83-0.27-1.17-0.47c-0.35-0.18-0.66-0.4-0.96-0.57
		c-0.58-0.36-1.12-0.48-1.62,0.2c-0.78-0.1-0.81-0.61-1.21-0.75l0.21-0.05c-0.15-0.01-0.27-0.02-0.4-0.03
		c0.72-2.53-0.33-3.93-0.62-7.03c0.19-2.8,0.94-3.55,0.64-6.45c0.06-1.39-0.11-2.86-0.2-4.22c-0.58-0.64-0.01-1.78-0.49-2.54
		l0.33-0.29c-0.17-0.26-0.28-0.57-0.1-0.83l0.1,0.02c-0.25-0.39-0.1-0.83-0.23-1.03l0.1,0.02l-0.04-0.48l0.14,0.08
		c-0.26-0.68-0.28-1.39-0.16-2.01l-0.4,0.05c0.45-1.33-0.38-1.81,0.15-3.01l0.1,0.02c-1.05-1.51,0.72-2.39-0.28-3.95
		c0.12,0.19,0.21-0.08,0.3-0.07c-0.11-0.72-0.17-1.48-0.96-1.5c0.01-0.52,0.24-0.43,0.55-0.49c-0.34,0-0.49-0.45-0.51-0.86
		l0.13,0.19l-0.12-1.17l-0.65,0.23c0.19-0.62,0.79-0.16,0.63-0.75l-0.54,0.01c0.11-0.86,0.92-1.36,1.31-2.19
		c0.23-3.45-1.14-7.17-0.19-10.38l0.4-0.14c0.59-0.06-0.87-0.89-0.33-1.01l-0.27-0.37c0.1-0.11,0.22-0.33,0.35-0.14
		c0.02-0.35-0.07-0.35-0.25-0.6l0.37-0.37c0.28-1.36-0.42-2.52-0.28-3.96c0.75-1.72,0.06-4.97-0.34-6.84
		c-0.88-2.63,1.46-5.69,0.46-8.38c0.08-0.09-0.1-0.31-0.17-0.31l0.08-2.46c0,0,0.23-11.94-4.65-2.87l-0.13-0.06
		c-0.31,1.35-0.38,2.2,0.27,3.13c-0.79,0.15-0.08,1.11-0.34,1.42l-0.06-0.03c0.61,0.82-0.51,1.69,0.04,2.49
		c-0.06-0.03-0.28-0.05-0.29-0.23c0.1,0.58,0.28,1.37-0.18,1.41c0.12,1.38-0.09,3.3,0.64,4.19l-0.13-0.06
		c0.5,0.5,0.07,0.65,0.33,1.21c-0.06,0.03-0.09,0.07-0.12,0.06c0.49,0.55,0.08,1.6,0.29,2.04l-0.31,0.03l0.07,1.09l0.07-0.41
		c0.84,0.14-0.53,0.83,0.02,1.62c-0.11,0.74,1.75,1.5,1.33,2.27c0.39,0.37-0.64-0.32-0.34,0.23c-0.44,0.02-0.27-0.26-0.62-0.11
		c0.21,0.54-0.45,0.88-0.15,1.55l-0.34,0.03c0.62,0.87-0.45,1.64,0.15,2.21c0.28,0.89-1.01,0.6-0.35,1.53l-0.46,0.36
		c-0.07,0.4,0.57,0.29,0.34,0.73c-0.29-0.03-0.23,0.56-0.51,0.3c-0.45,1,0.65,2.03-0.12,3.35c0.57,0.29,0.23,0.95,0.65,1.16
		c-0.25,0.04-0.04,1.33-0.58,0.58c-0.04-0.06-0.04-0.18,0.06-0.17l-0.34-0.09c-0.63,0.75,0.35,1.37,0.25,2.11
		c0.11-0.22,0.08-0.51,0.31-0.32l-0.05,0.69l-0.28-0.14l-0.16,1.03l0.35-0.14c-0.18,0.5-0.77,0.68-0.28,1.25
		c0.28,0.26,0.47-0.48,0.58,0.05c-0.24,0.67-0.6,1.68-0.7,2.54c0.39-0.08,0.38,0.15,0.46,0.39l-0.34,0.03
		c0.47,0.91-0.75,0.33-0.37,1.24l0.48,0.16c0.68,0.82-0.71,0.44,0.22,1.35c-0.06-0.36,0.75-0.17,0.6,0.27l-0.33-0.11
		c0.07,0.24,0.21,0.33,0.14,0.49c-0.18-0.15-0.48-0.08-0.42,0.28l-0.41-0.24l0.61,0.68c-0.35,0.52,0.09,1.36-0.37,1.57
		c0,0-0.23,1.13,0.28,1.39c-0.32-0.23-0.44,0.4-0.81,0.22c0.36,0.29,0.65,1.16,0.27,1.5l-0.04-0.07c-0.39,1.28,0.53,2.19,0.06,3.33
		c0.4-0.05,0.18,0.55,0.69,0.4c0.5,1.19-1.03,2.16,0.54,2.59c0.08,0.54-0.37,0.64-0.45,0.92l-0.08-0.13
		c0.13,1.01,0.14,1.3,0.11,2.06c0.15,0.37,0.88,0.43,0.7,1.11c-0.29-0.22-0.24,0.06-0.24,0.31c-0.05-0.16-0.15-0.21-0.35,0.12
		c0.09,0.05,0.14,0.12,0.19,0.19c-0.02,0-0.04,0.02-0.07,0.01c0.1,0.42,0.19,0.35,0.23,0.15c0.04,0.01,0.1-0.01,0.18-0.07
		c-0.37,0.44,0.03,1.21-0.47,1.27c0.12,1.26,0.63,2.16,0.82,3.21c-0.26,0.12-0.48-0.13-0.58-0.43l0.09,0.74
		c-0.37-0.01-0.21-0.43-0.29-0.66c-0.59,0.89,0.59,1.83,0.05,2.87l0.29,0.22l-0.05,0.06c0.15,0,0.36,0.23,0.41,0.38
		c-0.32,0.15-0.74-0.01-0.72,0.5c-0.31,0.41,0.15,1.16,0.33,1.69c0.05-0.29,0.23-0.19,0.34-0.07c0.01,0.26-0.31,0.41-0.17,0.6
		l-0.43,0.02c0.41-0.1,0.44,0.67,0.62,0.77c-0.32,0.15-0.28-0.4-0.52-0.46c0.04,1.03,0.02,0.52,0.06,1.55
		c0.33,0.55,0.41-0.1,0.79,0.16c0.08,0.49,0.39,0.96,0.13,1.52l0.38-0.18c0.3,0.91,0.25,1.46-0.13,2.07
		c0.29,0.63,0.56,1.15,0.82,1.59c-0.18,0.1-0.41,0.16-0.74,0.12c0.3-0.3-0.09-0.23-0.46-0.21c0.23-0.06,0.3-0.17-0.2-0.34
		c-0.06,0.09-0.16,0.15-0.26,0.2c-0.01-0.02-0.03-0.04-0.02-0.07c-0.6,0.15-0.48,0.25-0.2,0.24c-0.01,0.05,0.02,0.1,0.11,0.17
		c-0.67-0.3-1.72,0.28-1.89-0.2c-1.8,0.52-2.88,1.41-4.11,2.23c-0.26-0.16-0.05-0.51,0.32-0.8l-0.93,0.55
		c-0.16-0.33,0.47-0.46,0.74-0.67c-0.7,0.03-1.29,0.41-1.79,0.92c-0.52,0.5-1.04,0.98-1.8,1.23l-0.08,0.42l-0.1,0.02
		c0.1,0.12-0.04,0.48-0.18,0.65c-0.36-0.11-0.46-0.58-1.01-0.06c-0.32,0.09-0.62,0.4-0.87,0.78c-0.06,0.1-0.11,0.21-0.16,0.31
		c-0.16,0.31-0.31,0.63-0.46,0.88c0.32-0.27,0.36-0.05,0.33,0.15c-0.24,0.27-0.63,0.23-0.69,0.54l-0.36-0.24
		c0.4,0.14-0.23,1.04-0.17,1.25c-0.39-0.02,0.11-0.62-0.02-0.84c-0.86,1.23-0.44,0.61-1.2,1.9c-0.13,0.84,0.43,0.08,0.56,0.59
		c-0.28,0.63-0.25,1.35-0.82,1.93l0.45-0.07c-0.18,1.26-0.47,1.89-1.03,2.61c0.03,0.3,0.05,0.58,0.08,0.85
		c0.04,0.27,0.11,0.52,0.16,0.75c0.12,0.46,0.22,0.86,0.35,1.19c0.3,0.67,0.58,1.11,0.84,1.39c0.52,0.56,0.98,0.54,1.31,0.21
		c0.24-0.19,0.44-0.47,0.6-0.76c0.07-0.13,0.14-0.27,0.2-0.4c0.08-0.2,0.17-0.38,0.23-0.52c0.06-0.13,0.09-0.21,0.09-0.21
		c0.59-1.3,0.88-2.22,1.07-3.34c0.27-1.07,0.51-2.33,1.49-3.75c0.27-0.26,0.53-0.49,0.76-0.7c0.24-0.21,0.5-0.35,0.72-0.5
		c0.45-0.31,0.89-0.5,1.32-0.71c0.86-0.41,1.69-0.79,3-1.49c1.33-0.49,2.78-0.94,4.2-1.09c0.16-0.15,0.36-0.24,0.58-0.29
		c0.22-0.04,0.46-0.01,0.71,0c0.24,0.02,0.49,0.04,0.73,0.02c0.24,0,0.47-0.01,0.69-0.1l0.26,0.37c0.15-0.06,0.31-0.11,0.47-0.11
		c0.15,0.01,0.3,0.07,0.41,0.19l-0.04,0.09c0.46-0.13,0.89,0.1,1.11,0.07l-0.05,0.09l0.49,0.14l-0.13,0.1
		c0.78-0.03,1.47,0.32,2.02,0.7l0.14-0.37c0.51,0.57,0.99,0.71,1.42,0.94c0.22,0.11,0.43,0.22,0.63,0.38
		c0.21,0.15,0.4,0.37,0.55,0.69l-0.08,0.06c0.98,0.14,1.31,0.8,1.61,1.4c0.14,0.31,0.25,0.64,0.46,0.92
		c0.22,0.28,0.47,0.55,0.9,0.79c-0.22-0.12-0.13,0.18-0.22,0.22c0.13,0.15,0.26,0.3,0.38,0.45c0.11,0.15,0.22,0.29,0.35,0.41
		c0.25,0.22,0.53,0.33,0.89,0.18c0.26,0.54-0.04,0.55-0.28,0.73c0.32-0.14,0.62,0.3,0.81,0.74l-0.2-0.16
		c0.18,0.34,0.3,0.71,0.43,1.08c0.02,0.06,0.04,0.12,0.06,0.17l0.56-0.42c0,0.76-0.72,0.37-0.39,1l0.52-0.12
		c0.03,0.52-0.14,0.95-0.34,1.37c-0.12,0.25-0.28,0.5-0.43,0.76c-0.09,0.17-0.18,0.33-0.25,0.51c-0.03,1.31-0.07,2.67-0.26,4.02
		c-0.08,0.58-0.19,1.17-0.35,1.74c-0.49,1.8-1.49,3.51-2.94,4.49c-0.08,0.05-0.15,0.11-0.23,0.16l-0.39-0.17
		c-0.23-0.18-0.24,0.14-0.27,0.46c-0.03,0.33-0.08,0.68-0.31,0.52l-0.09,0.33l-0.04,0.15c-0.04,0-0.09,0-0.14,0
		c-0.14,0-0.27-0.01-0.21-0.18c-0.32,0.21-0.26,0.29-0.38,0.6l-0.54-0.05c-0.71,0.27-1.2,0.74-1.79,1.13c-0.56,0.44-1.2,0.8-1.97,1
		c-1.03-0.12-2.29,0.21-3.67,0.34l-0.51,0.08l-0.02,0l0,0l-0.38,0.03l-0.12,0.01c-0.35,0.03-0.69,0.07-1.02,0.1
		c-0.33,0.01-0.66,0.01-0.96,0.02c-0.16,0.01-0.31,0.01-0.45,0.02c-0.14-0.01-0.28-0.02-0.42-0.03c-1.57,0.12-3.04-0.9-4.19-2.02
		c-1.18-1.15-2.07-2.36-3.39-3.15c-0.01-0.12-0.29-0.21-0.34-0.16c-0.25-0.38-0.54-0.73-0.76-1.13c-0.21-0.4-0.47-0.78-0.65-1.19
		c0,0-0.09-0.19-0.24-0.49c-0.08-0.15-0.17-0.33-0.27-0.54c-0.09-0.21-0.18-0.45-0.29-0.7c-0.46-0.98-0.82-2.27-1.24-3.29
		c-0.34-1.02-0.8-1.8-1.46-1.61c-0.33,0.1-0.7,0.45-1.12,1.2c-0.1,0.19-0.22,0.4-0.32,0.65c-0.09,0.23-0.17,0.5-0.26,0.79
		c0,0.01,0,0.01-0.01,0.02c-0.09,0.3-0.18,0.64-0.26,1.01c-0.07,0.37-0.11,0.77-0.15,1.21l-0.15-0.05c0.06,1.01,0.31,1.8,0.58,2.49
		c0.3,0.67,0.75,1.2,1.32,1.66c-0.57,0.57,0.75,1.44,0.81,1.94l-0.08,0c0.62,0.31,0.86,0.89,1.16,1.45
		c0.32,0.54,0.62,1.12,1.23,1.34c-0.07,0.01-0.26,0.16-0.45-0.03c0.7,0.54,1.68,1.18,1.45,1.57c0.44,0.29,0.9,0.63,1.38,0.97
		c0.49,0.32,1.02,0.61,1.52,0.89c1.04,0.49,2.06,0.83,2.81,0.69l-0.13,0.09c0.87-0.23,0.91,0.3,1.79,0.25
		c0.03,0.07,0.08,0.11,0.06,0.14c0.45-0.15,1,0.02,1.55,0.11c0.55,0.1,1.08,0.23,1.4,0.18l0.01,0.31c0.53,0.02,1.06,0.02,1.59,0.02
		l-0.59-0.09c0.13-0.41,0.41-0.27,0.82-0.08c0.41,0.19,0.96,0.34,1.52,0.05c0.54,0.04,1.04-0.48,1.5-0.96
		c0.23-0.24,0.45-0.46,0.69-0.61c0.08-0.06,0.15-0.09,0.23-0.13c0.16-0.08,0.32-0.13,0.51-0.11c0.18-0.24,0.13-0.08,0.09,0.09
		c-0.04,0.19-0.05,0.4,0.29,0.15c0.14,0.42-0.28,0.35,0,0.64c0.34-0.2,0.68-0.15,1.03-0.17c0.35-0.02,0.72-0.06,1.12-0.36l0.16,0.3
		c0.49-0.48,1.03-0.68,1.58-0.8c0.55-0.11,1.03-0.29,1.23-0.76c0.94-0.9,1.32,0.37,2.04-0.98c0.24,0.01,0.48,0.03,0.72,0.03
		c0.5-0.35-0.05-0.71,0.58-0.99c0.17,0.24,0.78-0.4,0.68,0.06c0.71-0.37,1.11-1.07,1.55-1.78c0.4-0.75,0.88-1.46,1.7-2.14
		c-0.13-0.33,0.01-0.66,0.14-0.98c0.1-0.29,0.2-0.56,0.14-0.78c-0.01-0.03-0.01-0.06-0.02-0.09c0.02,0.01,0.05-0.02,0.09-0.04
		c0.13-0.11,0.3-0.43,0.45-0.67c0.18-0.3,0.33-0.47,0.36,0.16c0,0.11-0.08,0.26-0.17,0.21l0.25,0.26c0.56-0.39,0.64-0.95,0.68-1.49
		c0.02-0.27,0.02-0.55,0.04-0.82c0.02-0.27,0.03-0.55,0.13-0.82c-0.19,0.3-0.28,0.73-0.42,0.38l0.3-1l0.22,0.28l0.27-0.75
		c0.08-0.25,0.14-0.51,0.21-0.76l-0.38,0.15C134.11,148.93,134.79,148.71,134.35,147.79z"/>
	<polygon class="st2" points="134.19,141.23 134.19,141.23 134.45,141.3 	"/>
	<path class="st1" d="M142.29,131.12l0.16-0.75C142.38,130.39,142.32,130.57,142.29,131.12z"/>
	<path class="st1" d="M180.12,112.24c0.01,0.06,0.02,0.13,0.04,0.18C180.15,112.29,180.14,112.25,180.12,112.24z"/>
	<path class="st1" d="M147.67,102.04c0,0.02,0,0.03,0,0.04c0.01,0.06,0.03,0.14,0.04,0.19L147.67,102.04z"/>
	<path class="st1" d="M142.22,141.58l0.1-0.02C142.28,141.55,142.25,141.55,142.22,141.58z"/>
	<path class="st1" d="M148.54,37.63C148.54,37.63,148.54,37.63,148.54,37.63c0.04-0.13,0.09-0.26,0.13-0.4L148.54,37.63z"/>
	<path class="st1" d="M179.44,109.87l-0.25-0.26c0.08,0.05,0.16-0.1,0.17-0.21c-0.03-0.63-0.18-0.46-0.36-0.16
		c-0.19,0.3-0.42,0.74-0.54,0.71c0.12,0.24,0,0.54-0.12,0.87c-0.14,0.32-0.27,0.65-0.14,0.98c-0.82,0.68-1.3,1.39-1.7,2.14
		c-0.14,0.23-0.28,0.45-0.43,0.66c0.08,8.37-1.51,17.57-0.65,25.81c-0.08,0.31,0.1,1.12,0.17,1.12l-0.04,4.4
		c0,0.37-0.04,0.64-0.05,0.97c-0.03,0.31-0.01,0.63-0.08,0.93c-0.11,0.61-0.17,1.23-0.37,1.83c0,0-0.04,0.14-0.1,0.39
		c-0.05,0.25-0.18,0.61-0.34,1.04c-0.28,0.89-0.88,2.07-1.68,3.31c-0.81,1.25-1.97,2.48-3.27,3.5c-1.3,1.03-2.76,1.82-4.1,2.4
		c-0.69,0.23-1.31,0.53-1.89,0.67c-0.29,0.09-0.56,0.18-0.81,0.27c-0.25,0.08-0.48,0.13-0.69,0.2c-0.48,0.16-0.83,0.33-0.97,0.5
		c0-1.25,0-2.92,0-1.47l0,0l0,0l-0.01,0l-0.02-0.01l-0.04-0.02l-0.08-0.04c-0.05-0.02-0.1-0.05-0.16-0.07
		c-0.11-0.05-0.23-0.09-0.35-0.13c-0.25-0.09-0.52-0.16-0.8-0.24c-0.28-0.11-0.56-0.21-0.85-0.3l-0.43-0.13
		c-0.14-0.06-0.27-0.11-0.41-0.17c-0.27-0.1-0.52-0.21-0.76-0.3c-0.23-0.09-0.43-0.21-0.6-0.29c-0.34-0.16-0.56-0.26-0.56-0.26
		c-1.67-0.91-2.95-1.94-4.05-3.02c-1.09-1.09-1.99-2.23-2.76-3.54c-0.76-1.3-1.37-2.78-1.68-4.55c-0.05-0.46-0.12-0.88-0.16-1.4
		c-0.03-0.59-0.06-1.19-0.09-1.81c-0.06-1.24-0.11-2.57-0.15-3.99c0.19-10.02,0.94-12.67,0.64-23.05c0.01-0.49,0-1,0-1.5
		c-0.19-0.15-0.39-0.29-0.57-0.43c0.19,0.19,0.38,0.04,0.45,0.03c-0.61-0.21-0.92-0.8-1.23-1.34c-0.3-0.56-0.54-1.14-1.16-1.45
		l0.08,0c-0.06-0.5-1.39-1.38-0.81-1.94c-0.57-0.46-1.02-0.99-1.32-1.66c-0.27-0.69-0.52-1.48-0.58-2.49l0.15,0.05
		c0.05-0.44,0.09-0.84,0.15-1.21c0.09-0.37,0.17-0.71,0.26-1.01c0.09-0.3,0.18-0.57,0.27-0.81c0.1-0.24,0.22-0.46,0.32-0.65
		c0.42-0.75,0.8-1.1,1.12-1.2c0.66-0.19,1.12,0.59,1.46,1.61c0.42,1.02,0.78,2.3,1.24,3.29c0.02,0.06,0.04,0.1,0.07,0.16
		c-0.03-1.54-0.07-3.06-0.1-4.53c-0.1-0.39-0.16-0.85-0.2-1.34c-0.16,0.31-0.37,0.61-0.63,0.81c-0.33,0.33-0.79,0.35-1.31-0.21
		c-0.26-0.28-0.54-0.71-0.84-1.39c-0.14-0.34-0.24-0.73-0.35-1.19c-0.05-0.23-0.11-0.48-0.16-0.75c-0.02-0.27-0.05-0.55-0.08-0.85
		c0.56-0.72,0.85-1.35,1.03-2.61l-0.45,0.07c0.58-0.58,0.55-1.31,0.82-1.93c-0.14-0.51-0.69,0.25-0.56-0.59
		c0.75-1.29,0.33-0.67,1.2-1.9c0.14,0.22-0.37,0.82,0.02,0.84c-0.07-0.21,0.57-1.11,0.17-1.25l0.36,0.24
		c0.06-0.31,0.42-0.28,0.66-0.52c0.01-0.07,0.01-0.14,0.02-0.2c-0.03-0.11-0.11-0.15-0.32,0.03c0.12-0.22,0.25-0.48,0.39-0.75
		c-0.15-1.27-0.05-2.59-0.16-3.21l0.1,0.06l-0.04-1.7l0.14,0.29c-0.26-2.44-0.28-4.95-0.16-7.17l-0.4,0.18
		c0.45-4.74-0.38-6.47,0.15-10.75l0.1,0.06c-0.53-2.7-0.35-4.84-0.16-7c0.09-1.08,0.19-2.16,0.2-3.32c0.02-1.13-0.1-2.5-0.26-3.6
		c0.1,0.59,0.22-0.24,0.31-0.18c0.02-0.53,0.1-1.07,0.14-1.59c0.1-0.5,0.17-0.99,0.23-1.42c0.18-0.83,0.17-1.48-0.16-1.65
		c0.73-1.49,0.8-1.1,1.18-1.13c-0.15-0.08-0.08-0.44,0.12-0.92c0.09-0.25,0.24-0.5,0.42-0.77c0.17-0.26,0.35-0.54,0.55-0.8
		c-0.09,0.18-0.17,0.37-0.25,0.55c0.33-0.52,0.77-0.95,1.15-1.43c0.2-0.23,0.44-0.43,0.66-0.65c0.22-0.21,0.43-0.44,0.68-0.62
		c-0.33-0.03-0.65-0.03-0.98-0.02c0.4-0.32,0.69-0.41,0.87-0.46c0.19-0.04,0.29-0.01,0.38,0.02c0.09,0.03,0.18,0.05,0.32-0.02
		c0.15-0.07,0.36-0.22,0.74-0.48l-0.31-0.44c0.31-0.17,0.6-0.33,0.89-0.46c0.3-0.11,0.59-0.2,0.88-0.28
		c0.56-0.19,1.13-0.22,1.66-0.29c0.53-0.08,1.1-0.01,1.65-0.04c0.56,0.01,1.14,0.07,1.77,0.08c2.58-0.15,5.25,0.22,7.66,1.36
		l0.46,0.2l0.43,0.25c0.29,0.17,0.59,0.32,0.87,0.5c0.55,0.39,1.12,0.75,1.61,1.2c0.54,0.41,0.98,0.93,1.46,1.4
		c0.41,0.53,0.88,1.03,1.22,1.62c1.54,2.24,2.28,4.95,2.31,7.61c-0.01,3.05-0.1,6.03-0.34,8.91l-0.4,0.51
		c-0.59,0.22,0.87,3.17,0.33,3.61l0.27,1.34c-0.11,0.38-0.22,1.17-0.35,0.5c-0.02,1.24,0.07,1.27,0.25,2.16l-0.37,1.33
		c-0.28,4.87,0.42,9.02,0.28,14.15c-0.06,0.49-0.11,1.02-0.15,1.57c0.39,0.33,0.87,0.6,1.2,0.67c-0.46,0.04,0.08,0.83-0.39,0.77
		c0.33-0.02,0.69,0.37,0.99,0.75c0.15,0.19,0.27,0.38,0.36,0.52c0.09,0.14,0.13,0.24,0.13,0.24c-0.11,0.27,0.09,0.61,0.34,0.99
		c0.12,0.19,0.25,0.39,0.36,0.6c0.1,0.21,0.16,0.44,0.17,0.65c0.31,0.2,0.63,0.42,0.94,0.64c-0.47-1.64-1.06-3.31-0.81-4.98
		c-0.39-1.31,0.64,1.16,0.34-0.81c0.44-0.06,0.27,0.92,0.62,0.41c-0.21-1.93,0.45-3.16,0.15-5.54l0.34-0.1
		c-0.62-3.1,0.45-5.85-0.15-7.91c-0.28-3.2,1.01-2.14,0.35-5.47l0.46-1.29c0.07-1.42-0.57-1.02-0.34-2.6c0.29,0.1,0.23-2,0.51-1.07
		c0.23-1.79,0.07-3.6-0.06-5.56c-0.06-0.98-0.11-1.99-0.1-3.05c0.01-0.53,0.03-1.08,0.07-1.63c0.03-0.26,0.04-0.59,0.06-0.93
		c0.02-0.34,0.05-0.68,0.07-1.03c-0.14-0.29-0.29-0.67-0.41-1.1c-0.12-0.43-0.2-0.9-0.32-1.36c-0.28-0.9-0.5-1.78-0.88-2.11
		c0.08-0.1-0.33-1.41-0.75-2.28c-0.38-0.88-0.57-1.45,0.36-0.17c0.16,0.22,0.35,0.66,0.25,0.66c0.15,0.07,0.32,0.13,0.46,0.21
		c-0.19-0.78-0.46-1.52-0.83-2.17c-0.19-0.32-0.4-0.63-0.61-0.93l-0.32-0.44l-0.37-0.41c-0.5-0.54-0.99-1.07-1.55-1.55
		c-0.27-0.25-0.54-0.5-0.81-0.77c-0.29-0.24-0.57-0.5-0.85-0.77c0.3,0.36,0.7,0.72,0.88,0.98c0.19,0.26,0.22,0.37-0.14,0.15
		c-0.32-0.35-0.68-0.66-1.03-0.99c-0.34-0.34-0.71-0.63-1.09-0.92l0.65,0.14c-1.1-0.93-2.27-1.79-3.56-2.47l0.37,0.57
		c-0.9-0.53-1.45-1.05-2.14-1.39c-0.34-0.18-0.69-0.35-1.11-0.49c-0.43-0.11-0.93-0.18-1.54-0.21c-1.09,0.01,1.8,0.95-0.35,0.51
		c-0.66-0.21-1.42-0.37-2.25-0.55c-0.42-0.06-0.85-0.11-1.29-0.17c-0.22-0.03-0.45-0.06-0.67-0.08c-0.23-0.01-0.46-0.01-0.69-0.02
		c-1.86-0.11-3.84,0.2-5.59,0.7c0.44,0.26-0.48,0.57-1.37,1l-0.24-0.26c-1.64,1.02-1.99,1.08-2.4,1.09
		c-0.39,0.02-0.86-0.03-2.29,1.31c-0.08,0.26-0.16,0.52-0.22,0.8c-1.06,1.38-1.44,1.61-1.9,1.89c-0.45,0.27-0.95,0.64-1.64,2.45
		c0.38-0.64,0.67-0.65,0.66-0.37c-0.01,0.28-0.2,0.91-0.72,1.63l-0.05-0.56c-0.48,0.88-0.47,1.25-0.82,1.82
		c0.11-0.61-0.32-0.51-0.86,0.89c-0.02-0.37,0.01-0.72,0.03-1.09c-0.06,0.24-0.12,0.47-0.17,0.71l-0.11,0.72
		c-0.06,0.48-0.15,0.95-0.17,1.43c-0.22,0.5-0.42,1.09-0.58,1.71c-0.11,0.63-0.21,1.29-0.29,1.9c-0.03,0.62-0.06,1.2-0.11,1.68
		c-0.05,0.48-0.09,0.76-0.22,0.97c0,0-0.23,4.03,0.28,4.95c-0.32-0.81-0.44,1.41-0.81,0.78c0.36,1.04,0.65,4.13,0.27,5.36
		l-0.04-0.23c-0.39,4.57,0.53,7.81,0.06,11.91c0.4-0.19,0.18,1.98,0.69,1.44c0.5,4.24-1.03,7.73,0.54,9.26
		c0.08,1.93-0.37,2.29-0.45,3.28l-0.08-0.46c0.13,3.61,0.14,4.66,0.11,7.35c0.15,1.34,0.88,1.55,0.7,3.95
		c-0.29-0.78-0.24,0.2-0.24,1.1c-0.05-0.57-0.15-0.75-0.35,0.43c0.09,0.17,0.14,0.42,0.19,0.66c-0.02,0.01-0.04,0.06-0.07,0.03
		c0.1,1.5,0.19,1.24,0.23,0.54c0.04,0.04,0.1-0.02,0.18-0.24c-0.37,1.56,0.03,4.34-0.47,4.53c0.12,4.51,0.63,7.73,0.82,11.48
		c-0.26,0.42-0.48-0.46-0.58-1.54l0.09,2.66c-0.37-0.02-0.21-1.53-0.29-2.35c-0.59,3.17,0.59,6.53,0.05,10.25l0.29,0.77l-0.05,0.22
		c0.15-0.01,0.36,0.82,0.41,1.37c-0.32,0.53-0.74-0.04-0.72,1.8c-0.31,1.45,0.15,4.13,0.33,6.04c0.05-1.03,0.23-0.7,0.34-0.25
		c0.01,0.92-0.31,1.45-0.17,2.16l-0.34,0.07c0.32,0.13,0.36,2.45,0.52,2.76c-0.32,0.52-0.28-1.43-0.52-1.66
		c0.02,1.84,0.03,2.31,0.03,2.77c0.01,0.24,0,0.44,0.02,0.88c0.04,0.45,0.03,1.09,0.16,2.11c0.65,2.1,0.35-0.44,0.88,0.52
		c0.38,1.83,1.15,3.45,1.9,5.42l0.06-0.77c0.83,1.48,1.69,2.51,2.4,3.48c0.38,0.46,0.75,0.9,1.08,1.35
		c0.37,0.42,0.73,0.84,1.09,1.31c2.73,1.7,5.14,2.23,6.92,2.38c0.45,0.02,0.85,0.07,1.24,0.05c0.38-0.02,0.72-0.05,1.03-0.08
		c0.31-0.02,0.59-0.07,0.84-0.14c0.25-0.06,0.47-0.12,0.66-0.18c0.41,0.89,0.35,0.77,0.58,1.26c0,0.16,0-0.19,0-0.7
		c0.13,0.16,0.44,0.32,0.97,0.49c0.26,0.08,0.59,0.19,0.97,0.24c0.38,0.05,0.82,0.09,1.34,0.13c0.51,0.03,1.08-0.02,1.73-0.05
		c0.65-0.05,1.35-0.2,2.14-0.35c1.54-0.4,3.36-1.08,5.28-2.33l-0.1,0.26c2.17-1.66,3.62-3.44,4.58-5.23c0.94-1.8,1.43-3.6,1.52-5.47
		c0.23-0.1,0.38-0.43,0.5-0.89c0.12-0.46,0.22-1.04,0.21-1.64c0.04-1.27-0.1-2.36,0.03-2.93l0.06,0.11
		c-0.61-2.94,0.51-6.05-0.04-8.89c0.06,0.11,0.28,0.17,0.29,0.82c-0.1-2.06-0.28-4.89,0.18-5.04c-0.12-4.93,0.09-11.81-0.64-14.97
		l0.13,0.22c-0.5-1.8-0.07-2.33-0.33-4.34c0.06-0.11,0.09-0.25,0.12-0.23c-0.19-0.76-0.24-1.8-0.25-2.87
		C179.78,109.55,179.65,109.73,179.44,109.87z"/>
	<path class="st1" d="M179.89,107.16c0-0.03,0-0.07,0-0.1l-0.02,0.07C179.88,107.14,179.89,107.14,179.89,107.16z"/>
	<path class="st1" d="M175.34,96.87c-0.03-0.08-0.07-0.15-0.11-0.22c0,0.04,0,0.09,0,0.13L175.34,96.87z"/>
	<path class="st1" d="M178.78,93.88c0.05,0.24,0.21,0.3,0.4,0.62l-0.36-0.03c0.08,0.65,0.94,0.65,0.7,0.16
		c0.12,0.09,0.22,0.17,0.3,0.25c-0.09-0.47-0.21-0.93-0.35-1.4l-0.49-0.15C179.27,93.8,179.04,94.01,178.78,93.88z"/>
	<path class="st1" d="M175.98,99.79c0.2-0.41,0.37-0.85,0.34-1.37l-0.52,0.12c-0.33-0.63,0.4-0.24,0.39-1l-0.56,0.42
		c-0.12-0.35-0.24-0.69-0.39-1.03c0.03,1.32,0.07,2.65,0.13,3.97C175.54,100.51,175.81,100.15,175.98,99.79z"/>
	<path class="st2" d="M158.91,79.39l0.16-0.09C158.99,79.3,158.93,79.32,158.91,79.39z"/>
	<path class="st3" d="M158.81,55.32c0.02,0.01,0.02,0.02,0.04,0.02"/>
	<path class="st2" d="M164.28,75.7C164.28,75.7,164.28,75.7,164.28,75.7c0.02,0.01,0.02,0.02,0.04,0.03L164.28,75.7z"/>
	<polygon class="st2" points="157.48,67.61 157.48,67.61 157.24,67.58 	"/>
	<path class="st2" d="M158.91,146.89l0.16-0.08C158.99,146.81,158.93,146.83,158.91,146.89z"/>
	<path class="st3" d="M158.85,125.97c-0.01-0.01-0.02-0.01-0.04-0.02"/>
	<path class="st2" d="M164.28,143.68C164.28,143.68,164.28,143.68,164.28,143.68c0.02,0.01,0.02,0.02,0.04,0.03L164.28,143.68z"/>
	<polygon class="st2" points="157.48,136.64 157.48,136.64 157.24,136.61 	"/>
	<path class="st2" d="M149.39,86.82l0.34-0.06C149.68,86.7,149.58,86.7,149.39,86.82z"/>
	<path class="st3" d="M156.18,119.81c-0.03,0.01-0.06,0.01-0.08,0.02"/>
	<path class="st2" d="M160.54,88.08c0,0-0.01,0-0.01,0c-0.02,0.02-0.04,0.03-0.05,0.04L160.54,88.08z"/>
	<polygon class="st2" points="180.87,96.64 180.87,96.64 181.13,96.7 	"/>
	<path class="st2" d="M181.03,103.2c-0.25-0.41-0.51,0.68-0.57-0.13c0.14-0.49,0.35-1.12,0.46-1.79c0.09-0.67,0.21-1.4,0.17-2.07
		c-0.37,0.17-0.41-0.18-0.54-0.53l0.33-0.09c-0.7-1.29,0.7-0.66-0.01-1.95l-0.52-0.12c-0.87-0.91,0.26-0.9-0.53-1.64
		c-0.08-0.08-0.17-0.16-0.3-0.25c0.24,0.49-0.62,0.49-0.7-0.16l0.36,0.03c-0.19-0.32-0.35-0.38-0.4-0.62
		c0.26,0.12,0.49-0.09,0.2-0.55l0.49,0.15l0.05,0.01c-0.02-0.01-0.04-0.02-0.05-0.04c-0.32-0.22-0.63-0.43-0.94-0.64
		c-0.01-0.22-0.07-0.44-0.17-0.65c-0.11-0.21-0.24-0.41-0.36-0.6c-0.24-0.38-0.44-0.72-0.34-0.99c0,0-0.04-0.1-0.13-0.24
		c-0.09-0.14-0.21-0.33-0.36-0.52c-0.3-0.38-0.66-0.77-0.99-0.75c0.48,0.06-0.07-0.73,0.39-0.77c-0.33-0.07-0.81-0.34-1.2-0.67
		c-0.3-0.26-0.55-0.55-0.62-0.82l0.1,0.04c-0.3-0.4-0.62-0.74-0.99-0.99c-0.37-0.25-0.74-0.45-1.1-0.64
		c-0.36-0.2-0.73-0.36-1.09-0.56c-0.36-0.2-0.69-0.45-1.02-0.77c-0.12,0.38-0.85-0.21-0.87,0.34c-0.46-0.08-0.83-0.27-1.17-0.47
		c-0.35-0.18-0.66-0.4-0.96-0.57c-0.58-0.36-1.12-0.48-1.62,0.2c-0.78-0.1-0.81-0.61-1.21-0.75l0.21-0.05
		c-0.14-0.01-0.25-0.02-0.37-0.03c-0.17-0.58-0.63-1.15-0.81-2.01c0.19-1.27,0.94-1.61,0.64-2.93c0.06-0.63-0.11-1.3-0.2-1.91
		c-0.58-0.29-0.01-0.81-0.49-1.15l0.33-0.13c-0.17-0.12-0.28-0.26-0.1-0.38l0.1,0.01c-0.25-0.18-0.1-0.38-0.23-0.47l0.1,0.01
		l-0.04-0.22l0.14,0.04c-0.26-0.31-0.28-0.63-0.16-0.91l-0.4,0.02c0.45-0.6-0.38-0.82,0.15-1.36l0.1,0.01
		c-1.05-0.69,0.72-1.08-0.28-1.79c0.12,0.09,0.21-0.04,0.3-0.03c-0.11-0.33-0.17-0.67-0.96-0.68c0.01-0.24,0.24-0.19,0.55-0.22
		c-0.34,0-0.49-0.2-0.51-0.39l0.13,0.09l-0.12-0.53l-0.65,0.1c0.19-0.28,0.79-0.07,0.63-0.34l-0.54,0c0.11-0.39,0.92-0.62,1.31-1
		c0.23-1.57-1.14-3.25-0.19-4.71l0.4-0.06c0.59-0.03-0.87-0.4-0.33-0.46l-0.27-0.17c0.11-0.05,0.22-0.15,0.35-0.06
		c0.02-0.16-0.07-0.16-0.25-0.27l0.37-0.17c0.28-0.62-0.42-1.15-0.28-1.8c0.75-0.78,0.06-2.25-0.34-3.1
		c-0.88-1.19,1.46-2.58,0.46-3.8c0.08-0.04-0.1-0.14-0.17-0.14l0.08-1.12c0,0,0.23-5.42-4.65-1.3l-0.13-0.03
		c-0.31,0.61-0.38,1,0.27,1.42c-0.79,0.07-0.08,0.5-0.34,0.65l-0.06-0.01c0.61,0.37-0.51,0.77,0.04,1.13
		c-0.06-0.01-0.28-0.02-0.29-0.1c0.1,0.26,0.28,0.62-0.18,0.64c0.12,0.63-0.09,1.5,0.64,1.9l-0.13-0.03c0.5,0.23,0.07,0.3,0.33,0.55
		c-0.06,0.01-0.09,0.03-0.12,0.03c0.49,0.25,0.08,0.73,0.29,0.93l-0.31,0.01l0.07,0.5l0.07-0.19c0.84,0.06-0.53,0.37,0.02,0.73
		c-0.11,0.34,1.75,0.68,1.33,1.03c0.39,0.17-0.64-0.15-0.34,0.1c-0.44,0.01-0.27-0.12-0.62-0.05c0.21,0.24-0.45,0.4-0.15,0.7
		l-0.34,0.01c0.62,0.39-0.45,0.74,0.15,1c0.28,0.41-1.01,0.27-0.35,0.69l-0.46,0.16c-0.07,0.18,0.57,0.13,0.34,0.33
		c-0.29-0.01-0.23,0.25-0.51,0.14c-0.45,0.45,0.65,0.92-0.12,1.52c0.57,0.13,0.23,0.43,0.65,0.53c-0.25,0.02-0.04,0.6-0.58,0.27
		c-0.04-0.03-0.04-0.08,0.06-0.08l-0.34-0.04c-0.63,0.34,0.35,0.62,0.25,0.96c0.11-0.1,0.08-0.23,0.31-0.14l-0.05,0.31l-0.28-0.07
		l-0.16,0.47l0.35-0.06c-0.18,0.23-0.77,0.31-0.28,0.57c0.28,0.12,0.47-0.22,0.58,0.02c-0.24,0.31-0.6,0.76-0.7,1.15
		c0.39-0.04,0.38,0.07,0.46,0.18l-0.34,0.01c0.47,0.41-0.75,0.15-0.37,0.56l0.48,0.07c0.68,0.37-0.71,0.2,0.22,0.61
		c-0.06-0.16,0.75-0.08,0.6,0.12l-0.33-0.05c0.07,0.11,0.21,0.15,0.14,0.22c-0.18-0.07-0.48-0.03-0.42,0.13l-0.41-0.11l0.61,0.31
		c-0.35,0.24,0.09,0.62-0.37,0.71c0,0-0.23,0.51,0.28,0.63c-0.32-0.1-0.44,0.18-0.81,0.1c0.36,0.13,0.65,0.52,0.27,0.68l-0.04-0.03
		c-0.39,0.58,0.53,0.99,0.06,1.51c0.4-0.02,0.18,0.25,0.69,0.18c0.5,0.54-1.03,0.98,0.54,1.18c0.08,0.24-0.37,0.29-0.45,0.42
		l-0.08-0.06c0.13,0.46,0.14,0.59,0.11,0.93c0.15,0.17,0.88,0.2,0.7,0.5c-0.29-0.1-0.24,0.03-0.24,0.14
		c-0.05-0.07-0.15-0.1-0.35,0.05c0.09,0.02,0.14,0.05,0.19,0.08c-0.02,0-0.04,0.01-0.07,0c0.1,0.19,0.19,0.16,0.23,0.07
		c0.04,0,0.1,0,0.18-0.03c-0.37,0.2,0.03,0.55-0.47,0.57c0.12,0.57,0.63,0.98,0.82,1.46c-0.26,0.05-0.48-0.06-0.58-0.2l0.09,0.34
		c-0.37,0-0.21-0.19-0.29-0.3c-0.59,0.4,0.59,0.83,0.05,1.3l0.29,0.1l-0.05,0.03c0.15,0,0.36,0.1,0.41,0.17
		c-0.32,0.07-0.74,0-0.72,0.23c-0.31,0.18,0.15,0.52,0.33,0.77c0.05-0.13,0.23-0.09,0.34-0.03c0.01,0.12-0.31,0.18-0.17,0.27
		l-0.43,0.01c0.41-0.05,0.44,0.3,0.62,0.35c-0.32,0.07-0.28-0.18-0.52-0.21c0.04,0.47,0.02,0.23,0.06,0.7
		c0.33,0.25,0.41-0.05,0.79,0.07c0.08,0.22,0.39,0.44,0.13,0.69l0.38-0.08c0.17,0.24,0.22,0.42,0.16,0.59
		c-0.09-0.04-0.31-0.01-0.51,0c0.23-0.06,0.3-0.17-0.2-0.34c-0.06,0.09-0.16,0.15-0.26,0.2c-0.01-0.02-0.03-0.04-0.02-0.07
		c-0.6,0.15-0.48,0.25-0.2,0.24c-0.01,0.05,0.02,0.1,0.11,0.17c-0.67-0.3-1.72,0.28-1.89-0.2c-1.8,0.52-2.88,1.41-4.11,2.23
		c-0.26-0.16-0.05-0.51,0.32-0.8l-0.93,0.55c-0.16-0.33,0.47-0.46,0.74-0.67c-0.7,0.03-1.29,0.41-1.79,0.92
		c-0.52,0.5-1.04,0.98-1.8,1.23l-0.08,0.42l-0.1,0.02c0.1,0.12-0.04,0.48-0.18,0.65c-0.36-0.11-0.46-0.58-1.01-0.06
		c-0.32,0.09-0.62,0.4-0.87,0.78c-0.08,0.14-0.16,0.29-0.23,0.44c-0.14,0.27-0.26,0.53-0.39,0.75c0.21-0.18,0.3-0.14,0.32-0.03
		c0.01,0.05,0.02,0.11,0.01,0.18c-0.01,0.01-0.02,0.01-0.03,0.02c-0.24,0.24-0.6,0.21-0.66,0.52l-0.36-0.24
		c0.4,0.14-0.23,1.04-0.17,1.25c-0.39-0.02,0.11-0.62-0.02-0.84c-0.86,1.23-0.44,0.61-1.2,1.9c-0.13,0.84,0.43,0.08,0.56,0.59
		c-0.28,0.63-0.25,1.35-0.82,1.93l0.45-0.07c-0.18,1.26-0.47,1.89-1.03,2.61c0.03,0.3,0.05,0.58,0.08,0.85
		c0.04,0.27,0.11,0.52,0.16,0.75c0.12,0.46,0.22,0.86,0.35,1.19c0.3,0.67,0.58,1.11,0.84,1.39c0.52,0.56,0.98,0.54,1.31,0.21
		c0.26-0.2,0.47-0.5,0.63-0.81c0.06-0.12,0.12-0.23,0.17-0.35c0.08-0.2,0.17-0.38,0.23-0.52c0.06-0.13,0.09-0.21,0.09-0.21
		c0.59-1.3,0.88-2.22,1.07-3.34c0.27-1.07,0.51-2.33,1.49-3.75c0.27-0.26,0.53-0.49,0.76-0.7c0.24-0.21,0.5-0.35,0.72-0.5
		c0.45-0.31,0.89-0.5,1.32-0.71c0.86-0.41,1.69-0.79,3-1.49c1.33-0.49,2.78-0.94,4.2-1.09c0.16-0.15,0.36-0.24,0.58-0.29
		c0.22-0.04,0.46-0.01,0.71,0c0.24,0.02,0.49,0.04,0.73,0.02c0.24,0,0.47-0.01,0.69-0.1l0.26,0.37c0.15-0.06,0.31-0.11,0.47-0.11
		c0.15,0.01,0.3,0.07,0.41,0.19l-0.04,0.09c0.46-0.13,0.89,0.1,1.11,0.07l-0.05,0.09l0.49,0.14l-0.13,0.1
		c0.78-0.03,1.47,0.32,2.02,0.7l0.14-0.37c0.51,0.57,0.99,0.71,1.42,0.94c0.22,0.11,0.43,0.22,0.63,0.38
		c0.21,0.15,0.4,0.37,0.55,0.69l-0.08,0.06c0.98,0.14,1.31,0.8,1.61,1.4c0.14,0.31,0.25,0.64,0.46,0.92
		c0.22,0.28,0.47,0.55,0.9,0.79c-0.22-0.12-0.13,0.18-0.22,0.22c0.13,0.15,0.26,0.3,0.38,0.45c0.11,0.15,0.22,0.29,0.35,0.41
		c0.25,0.22,0.53,0.33,0.89,0.18c0.26,0.54-0.04,0.55-0.28,0.73c0.26-0.11,0.51,0.17,0.7,0.52c0.04,0.07,0.08,0.15,0.11,0.22
		l-0.11-0.09l-0.09-0.07c0.04,0.07,0.06,0.15,0.1,0.22c0.15,0.33,0.27,0.68,0.39,1.03l0.56-0.42c0,0.76-0.72,0.37-0.39,1l0.52-0.12
		c0.03,0.52-0.14,0.95-0.34,1.37c-0.17,0.37-0.44,0.72-0.61,1.12c-0.02,0.05-0.05,0.1-0.07,0.15c-0.05,1.88-0.07,3.85-0.61,5.76
		c-0.52,1.9-1.59,3.7-3.17,4.65l-0.39-0.17c-0.23-0.18-0.24,0.14-0.27,0.46c-0.03,0.33-0.08,0.68-0.31,0.52l-0.13,0.48
		c-0.16-0.01-0.43,0.05-0.35-0.18c-0.32,0.21-0.26,0.29-0.38,0.6l-0.54-0.05c-0.71,0.27-1.2,0.74-1.79,1.13
		c-0.56,0.44-1.2,0.8-1.97,1c-1.03-0.12-2.29,0.21-3.67,0.34l-0.51,0.08l-0.52,0.04c-0.35,0.03-0.69,0.07-1.02,0.1
		c-0.33,0.01-0.66,0.01-0.96,0.02c-0.16,0.01-0.31,0.01-0.45,0.02c-0.14-0.01-0.28-0.02-0.42-0.03c-1.57,0.12-3.04-0.9-4.19-2.02
		c-1.18-1.15-2.07-2.36-3.39-3.15c-0.01-0.12-0.29-0.21-0.34-0.16c-0.25-0.38-0.54-0.73-0.76-1.13c-0.21-0.4-0.47-0.78-0.65-1.19
		c0,0-0.09-0.19-0.24-0.49c-0.08-0.15-0.17-0.33-0.27-0.54c-0.07-0.16-0.14-0.35-0.22-0.54c-0.02-0.06-0.04-0.1-0.07-0.16
		c-0.46-0.98-0.82-2.27-1.24-3.29c-0.34-1.02-0.8-1.8-1.46-1.61c-0.33,0.1-0.7,0.45-1.12,1.2c-0.1,0.19-0.22,0.4-0.32,0.65
		c-0.09,0.24-0.18,0.51-0.27,0.81c-0.09,0.3-0.18,0.64-0.26,1.01c-0.07,0.37-0.11,0.77-0.15,1.21l-0.15-0.05
		c0.06,1.01,0.31,1.8,0.58,2.49c0.3,0.67,0.75,1.2,1.32,1.66c-0.57,0.57,0.75,1.44,0.81,1.94l-0.08,0c0.62,0.31,0.86,0.89,1.16,1.45
		c0.32,0.54,0.62,1.12,1.23,1.34c-0.07,0.01-0.26,0.16-0.45-0.03c0.18,0.14,0.38,0.28,0.57,0.43c0.55,0.42,1.05,0.85,0.87,1.14
		c0.44,0.29,0.9,0.63,1.38,0.97c0.49,0.32,1.02,0.61,1.52,0.89c1.04,0.49,2.06,0.83,2.81,0.69l-0.13,0.09
		c0.87-0.23,0.91,0.3,1.79,0.25c0.03,0.07,0.08,0.11,0.06,0.14c0.45-0.15,1,0.02,1.55,0.11c0.55,0.1,1.08,0.23,1.4,0.18l0.01,0.31
		c0,0,0.01,0,0.01,0c-0.11,0.08-0.21,0.14-0.33,0.22l-0.13-0.02c-0.31,0.53-0.38,0.87,0.27,1.23c-0.79,0.06-0.08,0.44-0.34,0.56
		l-0.06-0.01c0.61,0.32-0.51,0.67,0.04,0.98c-0.06-0.01-0.28-0.02-0.29-0.09c0.1,0.23,0.28,0.54-0.18,0.56
		c0.12,0.54-0.09,1.3,0.64,1.65l-0.13-0.02c0.5,0.2,0.07,0.26,0.33,0.48c-0.06,0.01-0.09,0.03-0.12,0.03
		c0.49,0.22,0.08,0.63,0.29,0.81l-0.31,0.01l0.07,0.43l0.07-0.16c0.84,0.06-0.53,0.33,0.02,0.64c-0.11,0.29,1.75,0.59,1.33,0.9
		c0.39,0.14-0.64-0.13-0.34,0.09c-0.44,0.01-0.27-0.1-0.62-0.05c0.21,0.21-0.45,0.35-0.15,0.61l-0.34,0.01
		c0.62,0.34-0.45,0.65,0.15,0.87c0.28,0.35-1.01,0.24-0.35,0.6l-0.46,0.14c-0.07,0.16,0.57,0.11,0.34,0.29
		c-0.29-0.01-0.23,0.22-0.51,0.12c-0.45,0.39,0.65,0.8-0.12,1.32c0.57,0.11,0.23,0.37,0.65,0.46c-0.25,0.01-0.04,0.52-0.58,0.23
		c-0.04-0.03-0.04-0.07,0.06-0.07l-0.34-0.04c-0.63,0.3,0.35,0.54,0.25,0.83c0.11-0.09,0.08-0.2,0.31-0.13l-0.05,0.27l-0.28-0.06
		l-0.16,0.41l0.35-0.06c-0.18,0.2-0.77,0.27-0.28,0.49c0.28,0.1,0.47-0.19,0.58,0.02c-0.24,0.27-0.6,0.66-0.7,1
		c0.39-0.03,0.38,0.06,0.46,0.15l-0.34,0.01c0.47,0.36-0.75,0.13-0.37,0.49l0.48,0.06c0.68,0.32-0.71,0.17,0.22,0.53
		c-0.06-0.14,0.75-0.07,0.6,0.11l-0.33-0.04c0.07,0.1,0.21,0.13,0.14,0.19c-0.18-0.06-0.48-0.03-0.42,0.11l-0.41-0.1l0.61,0.27
		c-0.35,0.21,0.09,0.54-0.37,0.62c0,0-0.23,0.45,0.28,0.55c-0.32-0.09-0.44,0.16-0.81,0.09c0.36,0.12,0.65,0.46,0.27,0.59
		l-0.04-0.03c-0.39,0.5,0.53,0.86,0.06,1.32c0.4-0.02,0.18,0.22,0.69,0.16c0.5,0.47-1.03,0.85,0.54,1.02
		c0.08,0.21-0.37,0.25-0.45,0.36l-0.08-0.05c0.13,0.4,0.14,0.52,0.11,0.81c0.15,0.15,0.88,0.17,0.7,0.44
		c-0.29-0.09-0.24,0.02-0.24,0.12c-0.05-0.06-0.15-0.08-0.35,0.05c0.09,0.02,0.14,0.05,0.19,0.07c-0.02,0-0.04,0.01-0.07,0
		c0.1,0.17,0.19,0.14,0.23,0.06c0.04,0,0.1,0,0.18-0.03c-0.37,0.17,0.03,0.48-0.47,0.5c0.12,0.5,0.63,0.85,0.82,1.27
		c-0.26,0.05-0.48-0.05-0.58-0.17l0.09,0.29c-0.37,0-0.21-0.17-0.29-0.26c-0.59,0.35,0.59,0.72,0.05,1.13l0.29,0.09l-0.05,0.02
		c0.15,0,0.36,0.09,0.41,0.15c-0.32,0.06-0.74,0-0.72,0.2c-0.31,0.16,0.15,0.46,0.33,0.67c0.05-0.11,0.23-0.08,0.34-0.03
		c0.01,0.1-0.31,0.16-0.17,0.24l-0.43,0.01c0.41-0.04,0.44,0.27,0.62,0.3c-0.32,0.06-0.28-0.16-0.52-0.18
		c0.04,0.41,0.02,0.2,0.06,0.61c0.33,0.22,0.41-0.04,0.79,0.06c0.08,0.19,0.39,0.38,0.13,0.6l0.38-0.07
		c0.3,0.36,0.25,0.58-0.13,0.82c3.13,2.69,4.27,0.57,4.27,0.57c0.85-1.06-0.27-1.6-0.57-2.86c0.19-1.11,0.94-1.4,0.64-2.55
		c0.06-0.55-0.11-1.13-0.2-1.67c-0.58-0.25-0.01-0.7-0.49-1l0.33-0.12c-0.17-0.1-0.28-0.22-0.1-0.33l0.1,0.01
		c-0.25-0.15-0.1-0.33-0.23-0.41l0.1,0.01l-0.04-0.19l0.14,0.03c-0.26-0.27-0.28-0.55-0.16-0.79l-0.4,0.02
		c0.45-0.52-0.38-0.71,0.15-1.19l0.1,0.01c-1.05-0.6,0.72-0.94-0.28-1.56c0.12,0.08,0.21-0.03,0.3-0.03
		c-0.11-0.28-0.17-0.59-0.96-0.59c0.01-0.21,0.24-0.17,0.55-0.2c-0.34,0-0.49-0.18-0.51-0.34l0.13,0.07l-0.12-0.46l-0.65,0.09
		c0.19-0.25,0.79-0.06,0.63-0.3l-0.54,0c0.11-0.34,0.92-0.54,1.31-0.87c0.23-1.36-1.14-2.83-0.19-4.1l0.4-0.06
		c0.59-0.02-0.87-0.35-0.33-0.4l-0.27-0.15c0.11-0.04,0.22-0.13,0.35-0.06c0.02-0.14-0.07-0.14-0.25-0.24l0.37-0.15
		c0.28-0.54-0.42-1-0.28-1.56c0.75-0.68,0.06-1.96-0.34-2.7c-0.88-1.04,1.46-2.24,0.46-3.31c0.08-0.03-0.1-0.12-0.17-0.12l0.08-0.97
		c0,0,0.04-0.94-0.34-1.66c0.3-0.19,0.59-0.47,0.86-0.75c0.23-0.24,0.45-0.46,0.69-0.61c0.23-0.17,0.47-0.27,0.74-0.24
		c0.39-0.5-0.27,0.73,0.38,0.25c0.14,0.42-0.28,0.35,0,0.64c0.34-0.2,0.68-0.15,1.03-0.17c0.35-0.02,0.72-0.06,1.12-0.36l0.16,0.3
		c0.49-0.48,1.03-0.68,1.58-0.8c0.55-0.11,1.03-0.29,1.23-0.76c0.94-0.9,1.32,0.37,2.04-0.98c0.24,0.01,0.48,0.03,0.72,0.03
		c0.5-0.35-0.05-0.71,0.58-0.99c0.17,0.24,0.78-0.4,0.68,0.06c0.48-0.25,0.82-0.66,1.12-1.11c0.15-0.22,0.29-0.44,0.43-0.66
		c0.4-0.75,0.88-1.46,1.7-2.14c-0.13-0.33,0.01-0.66,0.14-0.98c0.12-0.33,0.24-0.63,0.12-0.87c0.12,0.03,0.35-0.41,0.54-0.71
		c0.18-0.3,0.33-0.47,0.36,0.16c0,0.11-0.08,0.26-0.17,0.21l0.25,0.26c0.21-0.15,0.34-0.32,0.44-0.5c0.16-0.31,0.22-0.65,0.25-0.99
		c0.02-0.27,0.02-0.55,0.04-0.82c0.02-0.27,0.03-0.55,0.13-0.82c-0.18,0.28-0.27,0.69-0.4,0.42c-0.01-0.01-0.01-0.02-0.02-0.04
		l0.02-0.07l0.28-0.93l0.22,0.28l0.27-0.75c0.08-0.25,0.14-0.51,0.21-0.76l-0.38,0.15C180.79,104.33,181.47,104.12,181.03,103.2z"/>
	<path class="st1" d="M226.75,68.54l-0.16,0.75C226.66,69.27,226.72,69.08,226.75,68.54z"/>
	<path class="st1" d="M188.92,87.42c-0.01-0.06-0.02-0.13-0.04-0.18C188.89,87.37,188.9,87.41,188.92,87.42z"/>
	<path class="st1" d="M221.37,97.62c0-0.02,0-0.03,0-0.04c-0.01-0.06-0.03-0.14-0.04-0.19L221.37,97.62z"/>
	<path class="st1" d="M198.63,42.28l-0.04,0.15c0.06-0.05,0.12-0.1,0.18-0.15C198.72,42.29,198.67,42.29,198.63,42.28z"/>
	<path class="st1" d="M193.06,55.27c-0.2,0.41-0.37,0.85-0.34,1.37l0.52-0.12c0.33,0.63-0.4,0.24-0.39,1l0.56-0.42
		c0.02,0.06,0.04,0.12,0.06,0.17l0.03-2.76C193.35,54.77,193.18,55.02,193.06,55.27z"/>
	<path class="st1" d="M207.86,39.37L207.86,39.37C207.86,39.78,207.86,39.9,207.86,39.37z"/>
	<path class="st1" d="M227.93,134.32l0.04,0.23c0.39-4.57-0.53-7.81-0.06-11.91c-0.4,0.19-0.18-1.98-0.69-1.44
		c-0.5-4.24,1.03-7.73-0.54-9.26c-0.08-1.93,0.37-2.29,0.45-3.28l0.08,0.46c-0.13-3.61-0.14-4.66-0.11-7.35
		c-0.15-1.34-0.88-1.55-0.7-3.95c0.29,0.78,0.24-0.2,0.24-1.1c0.05,0.57,0.15,0.75,0.35-0.43c-0.09-0.17-0.14-0.42-0.19-0.66
		c0.02-0.01,0.04-0.06,0.07-0.03c-0.1-1.5-0.19-1.24-0.23-0.54c-0.04-0.04-0.1,0.02-0.18,0.24c0.37-1.56-0.03-4.34,0.47-4.53
		c-0.12-4.51-0.63-7.73-0.82-11.48c0.26-0.42,0.48,0.46,0.58,1.54l-0.09-2.66c0.37,0.02,0.21,1.53,0.29,2.35
		c0.59-3.17-0.59-6.53-0.05-10.25l-0.29-0.77l0.05-0.22c-0.15,0.01-0.36-0.82-0.41-1.37c0.32-0.53,0.74,0.04,0.72-1.8
		c0.31-1.45-0.15-4.13-0.33-6.04c-0.05,1.03-0.23,0.7-0.34,0.25c-0.01-0.92,0.31-1.45,0.17-2.16l0.34-0.07
		c-0.32-0.13-0.36-2.45-0.52-2.76c0.32-0.52,0.28,1.43,0.52,1.66c-0.02-1.84-0.03-2.31-0.03-2.77c-0.01-0.24,0-0.44-0.02-0.88
		c-0.04-0.45-0.03-1.09-0.16-2.11c-0.6-1.94-0.39,0.07-0.77-0.36c-0.09,0.29-0.17,0.56-0.26,0.79c-0.1,0.24-0.22,0.46-0.32,0.65
		c-0.42,0.75-0.8,1.1-1.12,1.2c-0.66,0.19-1.12-0.59-1.46-1.61c-0.42-1.02-0.78-2.3-1.24-3.29c-0.1-0.25-0.2-0.48-0.29-0.7
		c-0.1-0.2-0.2-0.39-0.27-0.54c-0.15-0.31-0.24-0.49-0.24-0.49c-0.18-0.41-0.44-0.79-0.65-1.19c-0.22-0.4-0.51-0.75-0.76-1.13
		c-0.06,0.05-0.34-0.05-0.34-0.16c-1.32-0.8-2.21-2.01-3.39-3.15c-1.15-1.12-2.61-2.14-4.19-2.02c-0.13-0.01-0.27-0.02-0.42-0.03
		c-0.15,0.01-0.3,0.01-0.45,0.02c-0.31,0.01-0.63,0.01-0.96,0.02c-0.33,0.03-0.67,0.07-1.02,0.1l-0.12,0.01
		c0.09,0.04,0.18,0.07,0.28,0.1c0.25,0.09,0.52,0.16,0.8,0.24c0.28,0.11,0.56,0.21,0.85,0.3l0.43,0.13
		c0.14,0.06,0.27,0.11,0.41,0.17c0.27,0.1,0.52,0.21,0.76,0.3c0.23,0.09,0.43,0.21,0.6,0.29c0.34,0.16,0.56,0.26,0.56,0.26
		c1.67,0.91,2.95,1.94,4.05,3.02c1.09,1.09,1.99,2.23,2.76,3.54c0.76,1.3,1.37,2.78,1.68,4.55c0.05,0.46,0.12,0.88,0.16,1.4
		c0.01,0.2,0.02,0.42,0.03,0.62c0.16-0.29,0.36-0.57,0.6-0.76c0.33-0.33,0.79-0.35,1.31,0.21c0.26,0.28,0.54,0.71,0.84,1.39
		c0.14,0.34,0.24,0.73,0.35,1.19c0.05,0.23,0.11,0.48,0.16,0.75c0.02,0.27,0.05,0.55,0.08,0.85c-0.56,0.72-0.85,1.35-1.03,2.61
		l0.45-0.07c-0.58,0.58-0.55,1.31-0.82,1.93c0.14,0.51,0.69-0.25,0.56,0.59c-0.75,1.29-0.33,0.67-1.2,1.9
		c-0.14-0.22,0.37-0.82-0.02-0.84c0.07,0.21-0.57,1.11-0.17,1.25l-0.36-0.24c-0.06,0.32-0.45,0.27-0.69,0.54
		c-0.03,0.2,0.01,0.42,0.33,0.15c-0.14,0.26-0.3,0.57-0.46,0.88c-0.27,5-0.58,8.49-0.37,15.88c-0.06,4.95,0.11,10.23,0.2,15.07
		c0.58,2.3,0.01,6.36,0.49,9.07l-0.33,1.05c0.17,0.94,0.28,2.04,0.1,2.98l-0.1-0.06c0.25,1.4,0.1,2.98,0.23,3.67l-0.1-0.06l0.04,1.7
		l-0.14-0.29c0.26,2.44,0.28,4.95,0.16,7.17l0.4-0.18c-0.45,4.74,0.38,6.47-0.15,10.75l-0.1-0.06c0.53,2.7,0.35,4.84,0.16,7
		c-0.09,1.08-0.19,2.16-0.2,3.32c-0.02,1.13,0.1,2.5,0.26,3.6c-0.1-0.59-0.22,0.24-0.31,0.18c-0.02,0.53-0.1,1.07-0.14,1.59
		c-0.1,0.5-0.17,0.99-0.23,1.42c-0.18,0.83-0.17,1.48,0.16,1.65c-0.73,1.49-0.8,1.1-1.18,1.13c0.15,0.08,0.07,0.44-0.12,0.92
		c-0.09,0.25-0.24,0.5-0.42,0.77c-0.17,0.26-0.35,0.54-0.55,0.8c0.09-0.18,0.17-0.37,0.25-0.55c-0.33,0.52-0.77,0.95-1.15,1.43
		c-0.2,0.23-0.44,0.43-0.66,0.65c-0.22,0.21-0.43,0.44-0.68,0.62c0.33,0.03,0.65,0.03,0.98,0.02c-0.4,0.32-0.69,0.41-0.87,0.46
		c-0.19,0.04-0.29,0.01-0.38-0.02c-0.09-0.03-0.18-0.05-0.32,0.02c-0.15,0.07-0.36,0.22-0.74,0.48l0.31,0.44
		c-0.31,0.17-0.6,0.33-0.89,0.46c-0.3,0.11-0.59,0.2-0.88,0.28c-0.56,0.19-1.13,0.22-1.66,0.29c-0.54,0.08-1.1,0.01-1.65,0.04
		c-0.56-0.01-1.14-0.07-1.77-0.08c-2.58,0.15-5.25-0.22-7.66-1.36l-0.46-0.2l-0.43-0.25c-0.29-0.17-0.59-0.32-0.87-0.5
		c-0.55-0.39-1.12-0.75-1.61-1.2c-0.54-0.41-0.98-0.93-1.46-1.4c-0.41-0.53-0.88-1.03-1.22-1.62c-1.54-2.24-2.28-4.95-2.31-7.61
		c0.01-3.05,0.1-6.03,0.34-8.91l0.4-0.51c0.59-0.22-0.87-3.17-0.33-3.61l-0.27-1.34c0.11-0.38,0.22-1.17,0.35-0.5
		c0.02-1.24-0.07-1.27-0.25-2.16l0.37-1.33c0.28-4.87-0.42-9.02-0.28-14.15c0.75-6.16,0.06-17.76-0.34-24.44
		c-0.63-6.75,0.4-14.3,0.65-21.58c-0.41-0.4-0.99-0.74-1.36-0.82c0.46-0.04-0.08-0.83,0.39-0.77c-0.33,0.02-0.69-0.37-0.99-0.75
		c-0.15-0.19-0.27-0.38-0.36-0.52c-0.09-0.14-0.13-0.24-0.13-0.24c0.11-0.27-0.09-0.61-0.34-0.99c-0.12-0.19-0.25-0.39-0.36-0.6
		c-0.1-0.21-0.16-0.44-0.17-0.65c-0.33-0.21-0.66-0.44-1-0.67l0.53,0.16c-0.29-0.47-0.05-0.68,0.2-0.55
		c-0.05-0.24-0.21-0.3-0.4-0.62l0.36,0.03c-0.08-0.65-0.94-0.65-0.7-0.16c-1.31-0.98,0.06-0.89-0.77-1.83
		c-0.14,1.79-0.4,3.58-0.08,5.27c-0.06-0.11-0.28-0.17-0.29-0.82c0.1,2.06,0.28,4.89-0.18,5.04c0.12,4.93-0.09,11.81,0.64,14.97
		l-0.13-0.22c0.5,1.8,0.07,2.33,0.33,4.34c-0.06,0.11-0.09,0.25-0.12,0.23c0.49,1.96,0.08,5.72,0.29,7.31l-0.31,0.1l0.07,3.9
		l0.07-1.46c0.84,0.51-0.53,2.95,0.02,5.78c-0.11,2.65,1.75,5.37,1.33,8.13c0.39,1.31-0.64-1.16-0.34,0.81
		c-0.44,0.06-0.27-0.92-0.62-0.41c0.21,1.93-0.45,3.16-0.15,5.54l-0.34,0.1c0.62,3.1-0.45,5.85,0.15,7.91
		c0.28,3.2-1.01,2.14-0.35,5.47l-0.46,1.29c-0.07,1.42,0.57,1.02,0.34,2.6c-0.29-0.1-0.23,2-0.51,1.07
		c-0.23,1.79-0.07,3.6,0.06,5.56c0.06,0.98,0.11,1.99,0.1,3.05c-0.01,0.53-0.03,1.08-0.07,1.63c-0.03,0.26-0.04,0.59-0.06,0.93
		c-0.02,0.34-0.05,0.68-0.07,1.03c0.14,0.29,0.29,0.67,0.41,1.1c0.12,0.43,0.2,0.9,0.32,1.36c0.28,0.9,0.5,1.78,0.88,2.11
		c-0.08,0.1,0.33,1.41,0.75,2.28c0.38,0.88,0.57,1.45-0.36,0.17c-0.16-0.22-0.35-0.66-0.25-0.66c-0.15-0.07-0.32-0.13-0.46-0.21
		c0.19,0.78,0.46,1.52,0.83,2.17c0.19,0.32,0.4,0.63,0.61,0.93l0.32,0.44l0.37,0.41c0.5,0.54,0.99,1.07,1.55,1.55
		c0.27,0.25,0.54,0.5,0.81,0.77c0.29,0.24,0.57,0.5,0.85,0.77c-0.3-0.36-0.7-0.72-0.88-0.98c-0.19-0.26-0.22-0.37,0.14-0.15
		c0.32,0.35,0.68,0.66,1.03,0.99c0.34,0.34,0.71,0.63,1.09,0.92l-0.65-0.14c1.1,0.93,2.27,1.79,3.56,2.47l-0.37-0.57
		c0.9,0.53,1.45,1.05,2.14,1.39c0.34,0.18,0.69,0.35,1.11,0.49c0.43,0.11,0.93,0.18,1.54,0.21c1.09-0.01-1.8-0.95,0.35-0.51
		c0.66,0.21,1.42,0.37,2.25,0.55c0.42,0.06,0.85,0.11,1.29,0.17c0.22,0.03,0.45,0.06,0.67,0.08c0.23,0.01,0.46,0.01,0.69,0.02
		c1.86,0.11,3.84-0.2,5.59-0.7c-0.44-0.26,0.48-0.57,1.37-1l0.24,0.26c1.64-1.02,1.99-1.08,2.4-1.09c0.39-0.02,0.86,0.03,2.29-1.31
		c0.08-0.26,0.16-0.52,0.22-0.8c1.06-1.38,1.44-1.61,1.9-1.89c0.45-0.27,0.95-0.64,1.64-2.45c-0.38,0.64-0.67,0.65-0.66,0.37
		c0.01-0.28,0.2-0.91,0.72-1.63l0.05,0.56c0.48-0.88,0.47-1.25,0.82-1.82c-0.11,0.61,0.32,0.51,0.86-0.89
		c0.02,0.37-0.01,0.72-0.03,1.09c0.06-0.24,0.12-0.47,0.17-0.71l0.11-0.72c0.06-0.48,0.15-0.95,0.17-1.43
		c0.22-0.5,0.42-1.09,0.58-1.71c0.11-0.63,0.21-1.29,0.29-1.9c0.03-0.62,0.06-1.2,0.11-1.68c0.05-0.48,0.09-0.76,0.22-0.97
		c0,0,0.23-4.03-0.28-4.95c0.32,0.81,0.44-1.41,0.81-0.78C227.84,138.64,227.54,135.56,227.93,134.32z"/>
	<path class="st1" d="M194.44,48.56c0.28-0.89,0.88-2.07,1.68-3.31c0.33-0.51,0.73-1.02,1.17-1.51c-1.46,0.99-2.45,2.69-2.94,4.49
		c-0.16,0.58-0.27,1.16-0.35,1.74c0-0.01,0.04-0.14,0.1-0.38C194.15,49.35,194.28,49,194.44,48.56z"/>
	<path class="st1" d="M190.56,45.02c-0.02,0.05-0.04,0.09-0.06,0.14c0.03-0.03,0.06-0.05,0.09-0.04
		C190.57,45.08,190.57,45.05,190.56,45.02z"/>
	<path class="st1" d="M226.82,58.08l-0.1,0.02C226.76,58.11,226.79,58.11,226.82,58.08z"/>
	<path class="st1" d="M203.63,36.57c0.19,0.02,0.35-0.03,0.51-0.11c-0.19,0-0.39,0-0.6,0.01C203.5,36.65,203.44,36.81,203.63,36.57z
		"/>
	<path class="st1" d="M220.51,162.03C220.5,162.03,220.5,162.03,220.51,162.03c-0.04,0.13-0.09,0.26-0.13,0.4L220.51,162.03z"/>
	<path class="st2" d="M209.98,82.08l-0.16,0.21C209.89,82.29,209.95,82.23,209.98,82.08z"/>
	<path class="st3" d="M210.07,135.12c-0.02-0.01-0.02-0.03-0.04-0.05"/>
	<path class="st2" d="M204.6,90.22c0,0,0-0.01,0-0.01c-0.02-0.02-0.02-0.04-0.04-0.05L204.6,90.22z"/>
	<polygon class="st2" points="211.4,108.04 211.4,108.04 211.64,108.12 	"/>
	<path class="st2" d="M219.65,68.25l-0.34,0.06C219.36,68.36,219.46,68.36,219.65,68.25z"/>
	<path class="st3" d="M212.86,35.25c0.03-0.01,0.06-0.01,0.08-0.02"/>
	<path class="st2" d="M208.5,66.98c0,0,0.01,0,0.01,0c0.02-0.02,0.04-0.03,0.05-0.04L208.5,66.98z"/>
	<polygon class="st2" points="188.17,58.43 188.17,58.42 187.91,58.36 	"/>
	<path class="st2" d="M189.52,60.43c-0.24-0.49,0.62-0.49,0.7,0.16l-0.36-0.03c0.19,0.32,0.35,0.38,0.4,0.62
		c-0.26-0.12-0.49,0.09-0.2,0.55l-0.53-0.16c0.34,0.23,0.67,0.46,1,0.67c0.01,0.22,0.07,0.44,0.17,0.65
		c0.11,0.21,0.24,0.41,0.36,0.6c0.24,0.38,0.44,0.72,0.34,0.99c0,0,0.04,0.1,0.13,0.24c0.09,0.14,0.21,0.33,0.36,0.52
		c0.3,0.38,0.66,0.77,0.99,0.75c-0.48-0.06,0.07,0.73-0.39,0.77c0.37,0.08,0.95,0.42,1.36,0.82c0.22,0.22,0.4,0.45,0.46,0.67
		l-0.1-0.04c0.3,0.4,0.62,0.74,0.99,0.99c0.37,0.25,0.74,0.45,1.1,0.64c0.36,0.2,0.73,0.36,1.09,0.56c0.36,0.2,0.69,0.45,1.02,0.77
		c0.12-0.38,0.85,0.21,0.87-0.34c0.46,0.08,0.83,0.27,1.17,0.47c0.35,0.18,0.66,0.4,0.96,0.57c0.58,0.36,1.12,0.48,1.62-0.2
		c0.78,0.1,0.81,0.61,1.21,0.75l-0.21,0.05c0.15,0.01,0.27,0.02,0.4,0.03c-0.72,2.53,0.33,3.93,0.62,7.03
		c-0.19,2.8-0.94,3.55-0.64,6.45c-0.06,1.39,0.11,2.86,0.2,4.22c0.58,0.64,0.01,1.78,0.49,2.54l-0.33,0.29
		c0.17,0.26,0.28,0.57,0.1,0.83l-0.1-0.02c0.25,0.39,0.1,0.83,0.23,1.03l-0.1-0.02l0.04,0.48l-0.14-0.08
		c0.26,0.68,0.28,1.39,0.16,2.01l0.4-0.05c-0.45,1.33,0.38,1.81-0.15,3.01l-0.1-0.02c1.05,1.51-0.72,2.39,0.28,3.95
		c-0.12-0.19-0.2,0.08-0.3,0.07c0.11,0.72,0.17,1.48,0.96,1.5c-0.01,0.52-0.24,0.43-0.55,0.49c0.34,0,0.49,0.45,0.51,0.86
		l-0.13-0.19l0.12,1.17l0.65-0.23c-0.19,0.62-0.79,0.16-0.63,0.75l0.54-0.01c-0.11,0.86-0.92,1.36-1.31,2.19
		c-0.23,3.45,1.14,7.17,0.19,10.38l-0.4,0.14c-0.59,0.06,0.87,0.89,0.33,1.01l0.27,0.37c-0.11,0.11-0.22,0.33-0.35,0.14
		c-0.02,0.35,0.07,0.35,0.25,0.6l-0.37,0.37c-0.28,1.36,0.42,2.52,0.28,3.96c-0.75,1.72-0.06,4.97,0.34,6.84
		c0.88,2.63-1.46,5.69-0.46,8.38c-0.08,0.09,0.1,0.31,0.17,0.31l-0.08,2.46c0,0-0.23,11.94,4.65,2.87l0.13,0.06
		c0.31-1.35,0.38-2.2-0.27-3.13c0.79-0.15,0.08-1.11,0.34-1.42l0.06,0.03c-0.61-0.82,0.51-1.69-0.04-2.49
		c0.06,0.03,0.28,0.05,0.29,0.23c-0.1-0.58-0.28-1.37,0.18-1.41c-0.12-1.38,0.09-3.3-0.64-4.19l0.13,0.06
		c-0.5-0.5-0.07-0.65-0.33-1.21c0.06-0.03,0.09-0.07,0.12-0.06c-0.49-0.55-0.08-1.6-0.29-2.04l0.31-0.03l-0.07-1.09l-0.07,0.41
		c-0.84-0.14,0.53-0.83-0.02-1.62c0.11-0.74-1.75-1.5-1.33-2.27c-0.39-0.37,0.64,0.32,0.34-0.23c0.44-0.02,0.27,0.26,0.62,0.11
		c-0.21-0.54,0.45-0.88,0.15-1.55l0.34-0.03c-0.62-0.87,0.45-1.64-0.15-2.21c-0.28-0.89,1.01-0.6,0.35-1.53l0.46-0.36
		c0.07-0.4-0.57-0.29-0.34-0.73c0.29,0.03,0.23-0.56,0.51-0.3c0.45-1-0.65-2.03,0.12-3.35c-0.57-0.29-0.23-0.95-0.65-1.16
		c0.25-0.04,0.04-1.33,0.58-0.58c0.04,0.06,0.04,0.18-0.06,0.17l0.34,0.09c0.63-0.75-0.35-1.37-0.25-2.11
		c-0.11,0.22-0.08,0.51-0.31,0.32l0.05-0.69l0.28,0.14l0.17-1.03l-0.35,0.14c0.18-0.5,0.77-0.68,0.28-1.25
		c-0.28-0.26-0.47,0.48-0.58-0.05c0.24-0.67,0.6-1.68,0.7-2.54c-0.39,0.08-0.38-0.15-0.46-0.39l0.34-0.03
		c-0.47-0.91,0.75-0.33,0.37-1.24l-0.48-0.16c-0.68-0.82,0.71-0.44-0.22-1.35c0.06,0.36-0.75,0.17-0.6-0.27l0.33,0.11
		c-0.07-0.24-0.21-0.33-0.14-0.49c0.18,0.15,0.48,0.08,0.42-0.28l0.41,0.24l-0.61-0.68c0.35-0.52-0.09-1.36,0.37-1.57
		c0,0,0.23-1.13-0.28-1.39c0.32,0.23,0.44-0.4,0.81-0.22c-0.36-0.29-0.65-1.16-0.27-1.5l0.04,0.07c0.39-1.28-0.53-2.19-0.06-3.33
		c-0.4,0.05-0.18-0.55-0.69-0.4c-0.5-1.19,1.03-2.16-0.54-2.59c-0.08-0.54,0.37-0.64,0.45-0.92l0.08,0.13
		c-0.13-1.01-0.14-1.3-0.11-2.06c-0.15-0.37-0.88-0.43-0.7-1.11c0.29,0.22,0.24-0.06,0.24-0.31c0.05,0.16,0.15,0.21,0.35-0.12
		c-0.09-0.05-0.14-0.12-0.19-0.19c0.02,0,0.04-0.02,0.07-0.01c-0.1-0.42-0.19-0.35-0.23-0.15c-0.04-0.01-0.1,0.01-0.18,0.07
		c0.37-0.44-0.03-1.21,0.47-1.27c-0.12-1.26-0.63-2.16-0.82-3.21c0.26-0.12,0.48,0.13,0.58,0.43l-0.09-0.74
		c0.37,0.01,0.21,0.43,0.29,0.66c0.59-0.89-0.59-1.83-0.05-2.87l-0.29-0.22l0.05-0.06c-0.15,0-0.36-0.23-0.41-0.38
		c0.32-0.15,0.74,0.01,0.72-0.5c0.31-0.41-0.15-1.16-0.33-1.69c-0.05,0.29-0.23,0.19-0.34,0.07c-0.01-0.26,0.31-0.41,0.17-0.6
		l0.43-0.02c-0.41,0.1-0.44-0.67-0.62-0.77c0.32-0.15,0.28,0.4,0.52,0.46c-0.04-1.03-0.02-0.52-0.06-1.55
		c-0.33-0.55-0.41,0.1-0.79-0.16c-0.08-0.49-0.39-0.96-0.13-1.52l-0.38,0.18c-0.3-0.91-0.25-1.46,0.13-2.07
		c-0.29-0.63-0.56-1.15-0.82-1.59c0.18-0.1,0.41-0.16,0.74-0.12c-0.3,0.3,0.09,0.23,0.46,0.21c-0.23,0.06-0.3,0.17,0.2,0.34
		c0.06-0.09,0.16-0.15,0.26-0.2c0.01,0.02,0.03,0.04,0.02,0.07c0.6-0.15,0.48-0.25,0.2-0.24c0.01-0.05-0.02-0.1-0.11-0.17
		c0.67,0.3,1.72-0.28,1.89,0.2c1.8-0.52,2.88-1.41,4.11-2.23c0.26,0.16,0.05,0.51-0.32,0.8l0.93-0.55c0.16,0.33-0.47,0.46-0.74,0.67
		c0.7-0.03,1.29-0.41,1.79-0.92c0.52-0.5,1.04-0.98,1.8-1.23l0.08-0.42l0.1-0.02c-0.1-0.12,0.04-0.48,0.18-0.65
		c0.36,0.11,0.46,0.58,1.01,0.06c0.32-0.09,0.62-0.4,0.87-0.78c0.06-0.1,0.11-0.21,0.16-0.31c0.16-0.31,0.31-0.63,0.46-0.88
		c-0.32,0.27-0.36,0.05-0.33-0.15c0.24-0.27,0.63-0.23,0.69-0.54l0.36,0.24c-0.4-0.14,0.23-1.04,0.17-1.25
		c0.39,0.02-0.11,0.62,0.02,0.84c0.86-1.23,0.44-0.61,1.2-1.9c0.13-0.84-0.43-0.08-0.56-0.59c0.28-0.63,0.25-1.35,0.82-1.93
		l-0.45,0.07c0.18-1.26,0.47-1.89,1.03-2.61c-0.03-0.3-0.05-0.58-0.08-0.85c-0.04-0.27-0.11-0.52-0.16-0.75
		c-0.12-0.46-0.22-0.86-0.35-1.19c-0.3-0.67-0.58-1.11-0.84-1.39c-0.52-0.56-0.98-0.54-1.31-0.21c-0.24,0.19-0.44,0.47-0.6,0.76
		c-0.07,0.13-0.14,0.27-0.2,0.4c-0.08,0.2-0.17,0.38-0.23,0.52c-0.06,0.13-0.09,0.21-0.09,0.21c-0.59,1.3-0.88,2.22-1.07,3.34
		c-0.27,1.07-0.51,2.33-1.49,3.75c-0.27,0.26-0.53,0.49-0.76,0.7c-0.24,0.21-0.5,0.35-0.72,0.5c-0.45,0.31-0.89,0.5-1.32,0.71
		c-0.86,0.41-1.69,0.79-3,1.49c-1.33,0.49-2.78,0.95-4.2,1.09c-0.16,0.15-0.36,0.24-0.58,0.29c-0.22,0.04-0.46,0.01-0.71,0
		c-0.24-0.02-0.49-0.04-0.73-0.02c-0.24,0-0.47,0.01-0.69,0.1l-0.26-0.37c-0.15,0.06-0.31,0.11-0.47,0.11
		c-0.15-0.01-0.3-0.07-0.41-0.19l0.04-0.09c-0.46,0.13-0.89-0.1-1.11-0.07l0.05-0.09l-0.49-0.14l0.13-0.1
		c-0.78,0.03-1.47-0.32-2.02-0.7l-0.14,0.37c-0.51-0.57-0.99-0.71-1.42-0.94c-0.22-0.11-0.43-0.22-0.63-0.38
		c-0.21-0.15-0.4-0.37-0.55-0.69l0.08-0.06c-0.98-0.14-1.31-0.8-1.61-1.4c-0.14-0.31-0.25-0.64-0.46-0.92
		c-0.22-0.28-0.47-0.55-0.9-0.79c0.22,0.12,0.13-0.18,0.22-0.22c-0.13-0.15-0.26-0.3-0.38-0.45c-0.11-0.15-0.22-0.29-0.35-0.41
		c-0.25-0.22-0.53-0.33-0.89-0.18c-0.26-0.54,0.04-0.55,0.28-0.73c-0.32,0.14-0.62-0.3-0.81-0.74l0.2,0.16
		c-0.18-0.34-0.3-0.71-0.43-1.08c-0.02-0.06-0.04-0.12-0.06-0.17l-0.56,0.42c0-0.76,0.72-0.37,0.39-1l-0.52,0.12
		c-0.03-0.52,0.14-0.95,0.34-1.37c0.12-0.25,0.28-0.5,0.43-0.76c0.09-0.17,0.18-0.33,0.25-0.51c0.03-1.31,0.07-2.67,0.26-4.02
		c0.08-0.58,0.19-1.17,0.35-1.74c0.49-1.8,1.49-3.51,2.94-4.49c0.08-0.05,0.15-0.11,0.23-0.16l0.39,0.17
		c0.23,0.18,0.24-0.14,0.27-0.46c0.03-0.33,0.08-0.68,0.31-0.52l0.09-0.33l0.04-0.15c0.04,0,0.09,0,0.14,0
		c0.14,0,0.27,0.01,0.21,0.18c0.32-0.21,0.26-0.29,0.38-0.6l0.54,0.05c0.71-0.27,1.2-0.74,1.79-1.13c0.56-0.44,1.2-0.8,1.97-1
		c1.03,0.12,2.29-0.21,3.67-0.34l0.51-0.08l0.02,0l0,0l0.38-0.03l0.12-0.01c0.35-0.03,0.69-0.07,1.02-0.1
		c0.33-0.01,0.66-0.01,0.96-0.02c0.16-0.01,0.31-0.01,0.45-0.02c0.14,0.01,0.28,0.02,0.42,0.03c1.57-0.12,3.04,0.9,4.19,2.02
		c1.18,1.15,2.07,2.36,3.39,3.15c0.01,0.12,0.29,0.21,0.34,0.16c0.25,0.38,0.55,0.73,0.76,1.13c0.21,0.4,0.47,0.78,0.65,1.19
		c0,0,0.09,0.19,0.24,0.49c0.08,0.15,0.17,0.33,0.27,0.54c0.09,0.21,0.18,0.45,0.29,0.7c0.46,0.98,0.82,2.27,1.24,3.29
		c0.34,1.02,0.8,1.8,1.46,1.61c0.33-0.1,0.7-0.45,1.12-1.2c0.1-0.19,0.22-0.4,0.32-0.65c0.09-0.23,0.17-0.5,0.26-0.79
		c0-0.01,0-0.01,0.01-0.02c0.09-0.3,0.18-0.64,0.26-1.01c0.07-0.37,0.11-0.77,0.15-1.21l0.15,0.05c-0.06-1.01-0.31-1.8-0.58-2.49
		c-0.3-0.67-0.75-1.2-1.32-1.66c0.57-0.57-0.75-1.44-0.81-1.94l0.08,0c-0.62-0.31-0.86-0.89-1.16-1.45
		c-0.32-0.54-0.62-1.12-1.23-1.34c0.07-0.01,0.26-0.16,0.45,0.03c-0.7-0.54-1.68-1.18-1.45-1.57c-0.44-0.29-0.9-0.63-1.38-0.97
		c-0.49-0.32-1.02-0.61-1.52-0.89c-1.04-0.49-2.06-0.83-2.81-0.69l0.13-0.09c-0.87,0.23-0.91-0.3-1.79-0.25
		c-0.03-0.07-0.08-0.11-0.06-0.14c-0.45,0.15-1-0.02-1.55-0.11c-0.55-0.1-1.08-0.23-1.4-0.18l-0.01-0.31
		c-0.53-0.02-1.06-0.02-1.59-0.02l0.59,0.09c-0.13,0.41-0.41,0.27-0.82,0.08c-0.41-0.19-0.96-0.34-1.52-0.05
		c-0.54-0.04-1.04,0.48-1.5,0.96c-0.23,0.24-0.45,0.46-0.69,0.61c-0.08,0.06-0.15,0.09-0.23,0.13c-0.16,0.08-0.32,0.13-0.51,0.11
		c-0.18,0.24-0.13,0.08-0.09-0.09c0.04-0.19,0.05-0.4-0.29-0.16c-0.14-0.42,0.28-0.35,0-0.64c-0.34,0.2-0.68,0.15-1.03,0.17
		c-0.35,0.02-0.72,0.06-1.12,0.36l-0.16-0.3c-0.49,0.48-1.03,0.68-1.58,0.8c-0.55,0.11-1.03,0.29-1.23,0.76
		c-0.94,0.9-1.32-0.37-2.04,0.98c-0.24-0.01-0.48-0.03-0.72-0.03c-0.5,0.35,0.05,0.71-0.58,0.99c-0.17-0.24-0.78,0.4-0.68-0.06
		c-0.71,0.37-1.11,1.07-1.55,1.78c-0.4,0.75-0.88,1.46-1.7,2.14c0.13,0.33-0.01,0.66-0.14,0.98c-0.1,0.29-0.2,0.56-0.14,0.78
		c0.01,0.03,0.01,0.06,0.02,0.09c-0.02-0.01-0.05,0.02-0.09,0.04c-0.13,0.11-0.3,0.43-0.45,0.67c-0.18,0.3-0.33,0.47-0.36-0.16
		c0-0.11,0.08-0.26,0.17-0.21l-0.25-0.26c-0.56,0.39-0.64,0.95-0.68,1.49c-0.02,0.27-0.02,0.55-0.04,0.82
		c-0.02,0.27-0.03,0.55-0.13,0.82c0.19-0.3,0.28-0.73,0.42-0.38l-0.3,1l-0.22-0.28l-0.27,0.75c-0.08,0.25-0.14,0.51-0.21,0.76
		l0.38-0.15c-0.28,0.72-0.96,0.93-0.52,1.85c0.25,0.41,0.51-0.68,0.57,0.13c-0.14,0.49-0.35,1.12-0.46,1.79
		c-0.09,0.67-0.21,1.4-0.17,2.07c0.37-0.17,0.41,0.18,0.54,0.53l-0.33,0.09c0.7,1.29-0.7,0.66,0.01,1.95l0.52,0.12
		c0.02,0.02,0.03,0.04,0.05,0.06C189.58,59.54,188.21,59.45,189.52,60.43z"/>
</g>
</svg>
