<?xml version="1.0" encoding="utf-8"?>
<!-- Generator: Adobe Illustrator 26.3.1, SVG Export Plug-In . SVG Version: 6.00 Build 0)  -->
<svg version="1.1" id="Layer_1" xmlns="http://www.w3.org/2000/svg" xmlns:xlink="http://www.w3.org/1999/xlink" x="0px" y="0px"
	 viewBox="0 0 326 200" style="enable-background:new 0 0 326 200;" xml:space="preserve">
<style type="text/css">
	.st0{fill:#FFFFFF;}
</style>
<g>
	<path class="st0" d="M145,89.7c0-0.1,0-0.1,0-0.2C145,89.6,145,89.6,145,89.7C145,89.7,145,89.7,145,89.7z"/>
	<path class="st0" d="M93.2,131.3l0.2-0.8C93.3,130.6,93.3,130.8,93.2,131.3z"/>
	<path class="st0" d="M131.1,112.4c0,0.1,0,0.1,0,0.2C131.1,112.5,131.1,112.4,131.1,112.4z"/>
	<path class="st0" d="M98.6,102.2C98.6,102.2,98.6,102.3,98.6,102.2c0,0.1,0,0.2,0,0.2L98.6,102.2z"/>
	<path class="st0" d="M112.1,160.5L112.1,160.5C112.1,160.1,112.1,159.9,112.1,160.5z"/>
	<path class="st0" d="M116.4,163.3c-0.2,0-0.3,0-0.5,0.1c0.2,0,0.4,0,0.6,0C116.5,163.2,116.5,163,116.4,163.3z"/>
	<path class="st0" d="M121.3,157.6l0-0.1c-0.1,0.1-0.1,0.1-0.2,0.1C121.3,157.6,121.3,157.6,121.3,157.6z"/>
	<path class="st0" d="M126.9,144.6c0.2-0.4,0.4-0.9,0.3-1.4l-0.5,0.1c-0.3-0.6,0.4-0.2,0.4-1l-0.6,0.4c0-0.1,0-0.1-0.1-0.2l0,2.8
		C126.6,145.1,126.8,144.8,126.9,144.6z"/>
	<path class="st0" d="M99.5,37.8L99.5,37.8c0-0.1,0.1-0.3,0.1-0.4L99.5,37.8z"/>
	<path class="st0" d="M94.8,147.5c0.4-0.8,0.8-1.1,1.1-1.2c0.7-0.2,1.1,0.6,1.5,1.6c0.4,1,0.8,2.3,1.2,3.3c0.1,0.2,0.2,0.5,0.3,0.7
		c0.1,0.2,0.2,0.4,0.3,0.5c0.2,0.3,0.2,0.5,0.2,0.5c0.2,0.4,0.4,0.8,0.6,1.2c0.2,0.4,0.5,0.8,0.8,1.1c0.1-0.1,0.3,0.1,0.3,0.2
		c1.3,0.8,2.2,2,3.4,3.1c1.1,1.1,2.6,2.1,4.2,2c0.1,0,0.3,0,0.4,0c0.1,0,0.3,0,0.4,0c0.3,0,0.6,0,1,0c0.3,0,0.7-0.1,1-0.1l0.1,0
		c-0.1,0-0.2-0.1-0.3-0.1c-0.2-0.1-0.5-0.2-0.8-0.2c-0.3-0.1-0.6-0.2-0.8-0.3l-0.4-0.1c-0.1-0.1-0.3-0.1-0.4-0.2
		c-0.3-0.1-0.5-0.2-0.8-0.3c-0.2-0.1-0.4-0.2-0.6-0.3c-0.3-0.2-0.6-0.3-0.6-0.3c-1.7-0.9-2.9-1.9-4.1-3c-1.1-1.1-2-2.2-2.8-3.5
		c-0.8-1.3-1.4-2.8-1.7-4.6c-0.1-0.5-0.1-0.9-0.2-1.4c0-0.2,0-0.4,0-0.6c-0.2,0.3-0.4,0.6-0.6,0.8c-0.3,0.3-0.8,0.4-1.3-0.2
		c-0.3-0.3-0.5-0.7-0.8-1.4c-0.1-0.3-0.2-0.7-0.4-1.2c-0.1-0.2-0.1-0.5-0.2-0.8c0-0.3-0.1-0.6-0.1-0.9c0.6-0.7,0.9-1.4,1-2.6
		l-0.4,0.1c0.6-0.6,0.6-1.3,0.8-1.9c-0.1-0.5-0.7,0.2-0.6-0.6c0.8-1.3,0.3-0.7,1.2-1.9c0.1,0.2-0.4,0.8,0,0.8
		c-0.1-0.2,0.6-1.1,0.2-1.2l0.4,0.2c0.1-0.3,0.4-0.3,0.7-0.5c0-0.2,0-0.4-0.3-0.1c0.1-0.3,0.3-0.6,0.5-0.9c0.3-5,0.6-8.5,0.4-15.9
		c0.1-4.9-0.1-10.2-0.2-15.1c-0.6-2.3,0-6.4-0.5-9.1l0.3-1.1c-0.2-0.9-0.3-2-0.1-3l0.1,0.1c-0.2-1.4-0.1-3-0.2-3.7l0.1,0.1l0-1.7
		l0.1,0.3c-0.3-2.4-0.3-4.9-0.2-7.2l-0.4,0.2c0.4-4.7-0.4-6.5,0.1-10.8l0.1,0.1c-0.5-2.7-0.4-4.8-0.2-7c0.1-1.1,0.2-2.2,0.2-3.3
		c0-1.1-0.1-2.5-0.3-3.6c0.1,0.6,0.2-0.2,0.3-0.2c0-0.5,0.1-1.1,0.1-1.6c0.1-0.5,0.2-1,0.2-1.4c0.2-0.8,0.2-1.5-0.2-1.7
		c0.7-1.5,0.8-1.1,1.2-1.1c-0.1-0.1-0.1-0.4,0.1-0.9c0.1-0.2,0.2-0.5,0.4-0.8c0.2-0.3,0.3-0.5,0.6-0.8c-0.1,0.2-0.2,0.4-0.2,0.5
		c0.3-0.5,0.8-1,1.1-1.4c0.2-0.2,0.4-0.4,0.7-0.7c0.2-0.2,0.4-0.4,0.7-0.6c-0.3,0-0.7,0-1,0c0.4-0.3,0.7-0.4,0.9-0.5
		c0.2,0,0.3,0,0.4,0s0.2,0,0.3,0c0.1-0.1,0.4-0.2,0.7-0.5l-0.3-0.4c0.3-0.2,0.6-0.3,0.9-0.5c0.3-0.1,0.6-0.2,0.9-0.3
		c0.6-0.2,1.1-0.2,1.7-0.3c0.5-0.1,1.1,0,1.6,0c0.6,0,1.1,0.1,1.8,0.1c2.6-0.2,5.2,0.2,7.7,1.4l0.5,0.2l0.4,0.2
		c0.3,0.2,0.6,0.3,0.9,0.5c0.6,0.4,1.1,0.8,1.6,1.2c0.5,0.4,1,0.9,1.5,1.4c0.4,0.5,0.9,1,1.2,1.6c1.5,2.2,2.3,5,2.3,7.6
		c0,3-0.1,6-0.3,8.9l-0.4,0.5c-0.6,0.2,0.9,3.2,0.3,3.6l0.3,1.3c-0.1,0.4-0.2,1.2-0.4,0.5c0,1.2,0.1,1.3,0.2,2.2l-0.4,1.3
		c-0.3,4.9,0.4,9,0.3,14.2c-0.8,6.2-0.1,17.8,0.3,24.4c0.6,6.8-0.4,14.3-0.6,21.6c0.4,0.4,1,0.7,1.4,0.8c-0.5,0,0.1,0.8-0.4,0.8
		c0.3,0,0.7,0.4,1,0.8c0.1,0.2,0.3,0.4,0.4,0.5s0.1,0.2,0.1,0.2c-0.1,0.3,0.1,0.6,0.3,1c0.1,0.2,0.2,0.4,0.4,0.6
		c0.1,0.2,0.2,0.4,0.2,0.6c0.3,0.2,0.7,0.4,1,0.7l-0.5-0.2c0.3,0.5,0.1,0.7-0.2,0.6c0.1,0.2,0.2,0.3,0.4,0.6l-0.4,0
		c0.1,0.6,0.9,0.6,0.7,0.2c1.3,1-0.1,0.9,0.8,1.8c0.1-1.8,0.4-3.6,0.1-5.3c0.1,0.1,0.3,0.2,0.3,0.8c-0.1-2.1-0.3-4.9,0.2-5
		c-0.1-4.9,0.1-11.8-0.6-15l0.1,0.2c-0.5-1.8-0.1-2.3-0.3-4.3c0.1-0.1,0.1-0.2,0.1-0.2c-0.5-2-0.1-5.7-0.3-7.3l0.3-0.1l-0.1-3.9
		l-0.1,1.5c-0.8-0.5,0.5-2.9,0-5.8c0.1-2.7-1.8-5.4-1.3-8.1c-0.4-1.3,0.6,1.2,0.3-0.8c0.4-0.1,0.3,0.9,0.6,0.4
		c-0.2-1.9,0.4-3.2,0.1-5.5l0.3-0.1c-0.6-3.1,0.4-5.8-0.1-7.9c-0.3-3.2,1-2.1,0.4-5.5l0.5-1.3c0.1-1.4-0.6-1-0.3-2.6
		c0.3,0.1,0.2-2,0.5-1.1c0.2-1.8,0.1-3.6-0.1-5.6c-0.1-1-0.1-2-0.1-3c0-0.5,0-1.1,0.1-1.6c0-0.3,0-0.6,0.1-0.9s0.1-0.7,0.1-1
		c-0.1-0.3-0.3-0.7-0.4-1.1c-0.1-0.4-0.2-0.9-0.3-1.4c-0.3-0.9-0.5-1.8-0.9-2.1c0.1-0.1-0.3-1.4-0.8-2.3c-0.4-0.9-0.6-1.5,0.4-0.2
		c0.2,0.2,0.4,0.7,0.2,0.7c0.1,0.1,0.3,0.1,0.5,0.2c-0.2-0.8-0.5-1.5-0.8-2.2c-0.2-0.3-0.4-0.6-0.6-0.9l-0.3-0.4l-0.4-0.4
		c-0.5-0.5-1-1.1-1.6-1.5c-0.3-0.2-0.5-0.5-0.8-0.8c-0.3-0.2-0.6-0.5-0.9-0.8c0.3,0.4,0.7,0.7,0.9,1c0.2,0.3,0.2,0.4-0.1,0.2
		c-0.3-0.3-0.7-0.7-1-1c-0.3-0.3-0.7-0.6-1.1-0.9l0.6,0.1c-1.1-0.9-2.3-1.8-3.6-2.5l0.4,0.6c-0.9-0.5-1.4-1-2.1-1.4
		c-0.3-0.2-0.7-0.3-1.1-0.5c-0.4-0.1-0.9-0.2-1.5-0.2c-1.1,0,1.8,1-0.3,0.5c-0.7-0.2-1.4-0.4-2.2-0.5c-0.4-0.1-0.9-0.1-1.3-0.2
		c-0.2,0-0.4-0.1-0.7-0.1c-0.2,0-0.5,0-0.7,0c-1.9-0.1-3.8,0.2-5.6,0.7c0.4,0.3-0.5,0.6-1.4,1l-0.2-0.3c-1.6,1-2,1.1-2.4,1.1
		c-0.4,0-0.9,0-2.3,1.3c-0.1,0.3-0.2,0.5-0.2,0.8c-1.1,1.4-1.4,1.6-1.9,1.9c-0.4,0.3-0.9,0.6-1.6,2.5c0.4-0.6,0.7-0.7,0.7-0.4
		c0,0.3-0.2,0.9-0.7,1.6l-0.1-0.6c-0.5,0.9-0.5,1.2-0.8,1.8c0.1-0.6-0.3-0.5-0.9,0.9c0-0.4,0-0.7,0-1.1c-0.1,0.2-0.1,0.5-0.2,0.7
		l-0.1,0.7c-0.1,0.5-0.2,1-0.2,1.4c-0.2,0.5-0.4,1.1-0.6,1.7c-0.1,0.6-0.2,1.3-0.3,1.9c0,0.6-0.1,1.2-0.1,1.7s-0.1,0.8-0.2,1
		c0,0-0.2,4,0.3,5c-0.3-0.8-0.4,1.4-0.8,0.8c0.4,1,0.7,4.1,0.3,5.4l0-0.2c-0.4,4.6,0.5,7.8,0.1,11.9c0.4-0.2,0.2,2,0.7,1.4
		c0.5,4.2-1,7.7,0.5,9.3c0.1,1.9-0.4,2.3-0.4,3.3l-0.1-0.5c0.1,3.6,0.1,4.7,0.1,7.3c0.1,1.3,0.9,1.6,0.7,3.9
		c-0.3-0.8-0.2,0.2-0.2,1.1c-0.1-0.6-0.1-0.8-0.3,0.4c0.1,0.2,0.1,0.4,0.2,0.7c0,0,0,0.1-0.1,0c0.1,1.5,0.2,1.2,0.2,0.5
		c0,0,0.1,0,0.2-0.2c-0.4,1.6,0,4.3-0.5,4.5c0.1,4.5,0.6,7.7,0.8,11.5c-0.3,0.4-0.5-0.5-0.6-1.5l0.1,2.7c-0.4,0-0.2-1.5-0.3-2.3
		c-0.6,3.2,0.6,6.5,0.1,10.2l0.3,0.8l-0.1,0.2c0.1,0,0.4,0.8,0.4,1.4c-0.3,0.5-0.7,0-0.7,1.8c-0.3,1.4,0.1,4.1,0.3,6
		c0.1-1,0.2-0.7,0.3-0.2c0,0.9-0.3,1.4-0.2,2.2l-0.3,0.1c0.3,0.1,0.4,2.4,0.5,2.8c-0.3,0.5-0.3-1.4-0.5-1.7c0,1.8,0,2.3,0,2.8
		c0,0.2,0,0.4,0,0.9c0,0.4,0,1.1,0.2,2.1c0.6,1.9,0.4-0.1,0.8,0.4c0.1-0.3,0.2-0.6,0.3-0.8C94.6,147.9,94.7,147.7,94.8,147.5z"/>
	<path class="st0" d="M125.5,151.3c-0.3,0.9-0.9,2.1-1.7,3.3c-0.3,0.5-0.7,1-1.2,1.5c1.5-1,2.4-2.7,2.9-4.5c0.2-0.6,0.3-1.2,0.4-1.7
		c0,0,0,0.1-0.1,0.4C125.8,150.5,125.7,150.9,125.5,151.3z"/>
	<path class="st0" d="M129.4,154.8c0-0.1,0-0.1,0.1-0.1c0,0-0.1,0.1-0.1,0C129.4,154.8,129.4,154.8,129.4,154.8z"/>
	<path class="st0" d="M93.2,141.8l0.1,0C93.2,141.7,93.2,141.7,93.2,141.8z"/>
	<path class="st0" d="M110,117.8l0.2-0.2C110.1,117.6,110,117.6,110,117.8z"/>
	<path class="st0" d="M109.9,64.7C109.9,64.7,109.9,64.8,109.9,64.7"/>
	<path class="st0" d="M115.4,109.6L115.4,109.6C115.4,109.7,115.4,109.7,115.4,109.6L115.4,109.6z"/>
	<polygon class="st0" points="108.6,91.8 108.6,91.8 108.3,91.7 	"/>
	<path class="st0" d="M100.3,131.6l0.3-0.1C100.6,131.5,100.5,131.5,100.3,131.6z"/>
	<path class="st0" d="M107.1,164.6C107.1,164.6,107.1,164.6,107.1,164.6"/>
	<path class="st0" d="M111.5,132.9L111.5,132.9C111.4,132.9,111.4,132.9,111.5,132.9L111.5,132.9z"/>
	<path class="st0" d="M132,148c-0.2-0.4-0.5,0.7-0.6-0.1c0.1-0.5,0.4-1.1,0.5-1.8c0.1-0.7,0.2-1.4,0.2-2.1c-0.4,0.2-0.4-0.2-0.5-0.5
		l0.3-0.1c-0.7-1.3,0.7-0.7,0-1.9l-0.5-0.1c0,0,0,0-0.1-0.1c-0.8-0.9,0.5-0.8-0.8-1.8c0.2,0.5-0.6,0.5-0.7-0.2l0.4,0
		c-0.2-0.3-0.4-0.4-0.4-0.6c0.3,0.1,0.5-0.1,0.2-0.6l0.5,0.2c-0.3-0.2-0.7-0.5-1-0.7c0-0.2-0.1-0.4-0.2-0.6
		c-0.1-0.2-0.2-0.4-0.4-0.6c-0.2-0.4-0.4-0.7-0.3-1c0,0,0-0.1-0.1-0.2c-0.1-0.1-0.2-0.3-0.4-0.5c-0.3-0.4-0.7-0.8-1-0.8
		c0.5,0.1-0.1-0.7,0.4-0.8c-0.4-0.1-0.9-0.4-1.4-0.8c-0.2-0.2-0.4-0.4-0.5-0.7l0.1,0c-0.3-0.4-0.6-0.7-1-1s-0.7-0.4-1.1-0.6
		c-0.4-0.2-0.7-0.4-1.1-0.6c-0.4-0.2-0.7-0.4-1-0.8c-0.1,0.4-0.8-0.2-0.9,0.3c-0.5-0.1-0.8-0.3-1.2-0.5c-0.4-0.2-0.7-0.4-1-0.6
		c-0.6-0.4-1.1-0.5-1.6,0.2c-0.8-0.1-0.8-0.6-1.2-0.8l0.2-0.1c-0.2,0-0.3,0-0.4,0c0.7-2.5-0.3-3.9-0.6-7c0.2-2.8,0.9-3.6,0.6-6.4
		c0.1-1.4-0.1-2.9-0.2-4.2c-0.6-0.6,0-1.8-0.5-2.5l0.3-0.3c-0.2-0.3-0.3-0.6-0.1-0.8l0.1,0c-0.2-0.4-0.1-0.8-0.2-1l0.1,0l0-0.5
		l0.1,0.1c-0.3-0.7-0.3-1.4-0.2-2l-0.4,0.1c0.4-1.3-0.4-1.8,0.2-3l0.1,0c-1.1-1.5,0.7-2.4-0.3-3.9c0.1,0.2,0.2-0.1,0.3-0.1
		c-0.1-0.7-0.2-1.5-1-1.5c0-0.5,0.2-0.4,0.6-0.5c-0.3,0-0.5-0.4-0.5-0.9l0.1,0.2l-0.1-1.2l-0.6,0.2c0.2-0.6,0.8-0.2,0.6-0.8l-0.5,0
		c0.1-0.9,0.9-1.4,1.3-2.2c0.2-3.4-1.1-7.2-0.2-10.4l0.4-0.1c0.6-0.1-0.9-0.9-0.3-1l-0.3-0.4c0.1-0.1,0.2-0.3,0.3-0.1
		c0-0.3-0.1-0.3-0.2-0.6l0.4-0.4c0.3-1.4-0.4-2.5-0.3-4c0.8-1.7,0.1-5-0.3-6.8c-0.9-2.6,1.5-5.7,0.5-8.4c0.1-0.1-0.1-0.3-0.2-0.3
		l0.1-2.5c0,0,0.2-11.9-4.6-2.9l-0.1-0.1c-0.3,1.3-0.4,2.2,0.3,3.1c-0.8,0.2-0.1,1.1-0.3,1.4l-0.1,0c0.6,0.8-0.5,1.7,0,2.5
		c-0.1,0-0.3,0-0.3-0.2c0.1,0.6,0.3,1.4-0.2,1.4c0.1,1.4-0.1,3.3,0.6,4.2l-0.1-0.1c0.5,0.5,0.1,0.7,0.3,1.2c-0.1,0-0.1,0.1-0.1,0.1
		c0.5,0.6,0.1,1.6,0.3,2l-0.3,0l0.1,1.1l0.1-0.4c0.8,0.1-0.5,0.8,0,1.6c-0.1,0.7,1.8,1.5,1.3,2.3c0.4,0.4-0.6-0.3-0.3,0.2
		c-0.4,0-0.3-0.3-0.6-0.1c0.2,0.5-0.4,0.9-0.2,1.6l-0.3,0c0.6,0.9-0.4,1.6,0.2,2.2c0.3,0.9-1,0.6-0.4,1.5l-0.5,0.4
		c-0.1,0.4,0.6,0.3,0.3,0.7c-0.3,0-0.2,0.6-0.5,0.3c-0.4,1,0.7,2-0.1,3.3c0.6,0.3,0.2,0.9,0.6,1.2c-0.2,0,0,1.3-0.6,0.6
		c0-0.1,0-0.2,0.1-0.2l-0.3-0.1c-0.6,0.8,0.4,1.4,0.2,2.1c0.1-0.2,0.1-0.5,0.3-0.3l-0.1,0.7l-0.3-0.1l-0.2,1l0.4-0.1
		c-0.2,0.5-0.8,0.7-0.3,1.2c0.3,0.3,0.5-0.5,0.6,0.1c-0.2,0.7-0.6,1.7-0.7,2.5c0.4-0.1,0.4,0.2,0.5,0.4l-0.3,0
		c0.5,0.9-0.8,0.3-0.4,1.2l0.5,0.2c0.7,0.8-0.7,0.4,0.2,1.3c-0.1-0.4,0.8-0.2,0.6,0.3l-0.3-0.1c0.1,0.2,0.2,0.3,0.1,0.5
		c-0.2-0.2-0.5-0.1-0.4,0.3l-0.4-0.2l0.6,0.7c-0.4,0.5,0.1,1.4-0.4,1.6c0,0-0.2,1.1,0.3,1.4c-0.3-0.2-0.4,0.4-0.8,0.2
		c0.4,0.3,0.7,1.2,0.3,1.5l0-0.1c-0.4,1.3,0.5,2.2,0.1,3.3c0.4-0.1,0.2,0.6,0.7,0.4c0.5,1.2-1,2.2,0.5,2.6c0.1,0.5-0.4,0.6-0.4,0.9
		l-0.1-0.1c0.1,1,0.1,1.3,0.1,2.1c0.1,0.4,0.9,0.4,0.7,1.1c-0.3-0.2-0.2,0.1-0.2,0.3c-0.1-0.2-0.1-0.2-0.3,0.1
		c0.1,0.1,0.1,0.1,0.2,0.2c0,0,0,0-0.1,0c0.1,0.4,0.2,0.3,0.2,0.2c0,0,0.1,0,0.2-0.1c-0.4,0.4,0,1.2-0.5,1.3
		c0.1,1.3,0.6,2.2,0.8,3.2c-0.3,0.1-0.5-0.1-0.6-0.4l0.1,0.7c-0.4,0-0.2-0.4-0.3-0.7c-0.6,0.9,0.6,1.8,0.1,2.9l0.3,0.2l-0.1,0.1
		c0.1,0,0.4,0.2,0.4,0.4c-0.3,0.2-0.7,0-0.7,0.5c-0.3,0.4,0.1,1.2,0.3,1.7c0.1-0.3,0.2-0.2,0.3-0.1c0,0.3-0.3,0.4-0.2,0.6l-0.4,0
		c0.4-0.1,0.4,0.7,0.6,0.8c-0.3,0.2-0.3-0.4-0.5-0.5c0,1,0,0.5,0.1,1.6c0.3,0.6,0.4-0.1,0.8,0.2c0.1,0.5,0.4,1,0.1,1.5l0.4-0.2
		c0.3,0.9,0.2,1.5-0.1,2.1c0.3,0.6,0.6,1.2,0.8,1.6c-0.2,0.1-0.4,0.2-0.7,0.1c0.3-0.3-0.1-0.2-0.5-0.2c0.2-0.1,0.3-0.2-0.2-0.3
		c-0.1,0.1-0.2,0.2-0.3,0.2c0,0,0,0,0-0.1c-0.6,0.2-0.5,0.2-0.2,0.2c0,0.1,0,0.1,0.1,0.2c-0.7-0.3-1.7,0.3-1.9-0.2
		c-1.8,0.5-2.9,1.4-4.1,2.2c-0.3-0.2-0.1-0.5,0.3-0.8l-0.9,0.6c-0.2-0.3,0.5-0.5,0.7-0.7c-0.7,0-1.3,0.4-1.8,0.9
		c-0.5,0.5-1,1-1.8,1.2l-0.1,0.4l-0.1,0c0.1,0.1,0,0.5-0.2,0.6c-0.4-0.1-0.5-0.6-1-0.1c-0.3,0.1-0.6,0.4-0.9,0.8
		c-0.1,0.1-0.1,0.2-0.2,0.3c-0.2,0.3-0.3,0.6-0.5,0.9c0.3-0.3,0.4-0.1,0.3,0.1c-0.2,0.3-0.6,0.2-0.7,0.5l-0.4-0.2
		c0.4,0.1-0.2,1-0.2,1.2c-0.4,0,0.1-0.6,0-0.8c-0.9,1.2-0.4,0.6-1.2,1.9c-0.1,0.8,0.4,0.1,0.6,0.6c-0.3,0.6-0.2,1.4-0.8,1.9l0.4-0.1
		c-0.2,1.3-0.5,1.9-1,2.6c0,0.3,0.1,0.6,0.1,0.9c0,0.3,0.1,0.5,0.2,0.8c0.1,0.5,0.2,0.9,0.4,1.2c0.3,0.7,0.6,1.1,0.8,1.4
		c0.5,0.6,1,0.5,1.3,0.2c0.2-0.2,0.4-0.5,0.6-0.8c0.1-0.1,0.1-0.3,0.2-0.4c0.1-0.2,0.2-0.4,0.2-0.5c0.1-0.1,0.1-0.2,0.1-0.2
		c0.6-1.3,0.9-2.2,1.1-3.3c0.3-1.1,0.5-2.3,1.5-3.8c0.3-0.3,0.5-0.5,0.8-0.7c0.2-0.2,0.5-0.4,0.7-0.5c0.4-0.3,0.9-0.5,1.3-0.7
		c0.9-0.4,1.7-0.8,3-1.5c1.3-0.5,2.8-0.9,4.2-1.1c0.2-0.1,0.4-0.2,0.6-0.3c0.2,0,0.5,0,0.7,0c0.2,0,0.5,0,0.7,0c0.2,0,0.5,0,0.7-0.1
		l0.3,0.4c0.2-0.1,0.3-0.1,0.5-0.1c0.2,0,0.3,0.1,0.4,0.2l0,0.1c0.5-0.1,0.9,0.1,1.1,0.1l-0.1,0.1l0.5,0.1l-0.1,0.1
		c0.8,0,1.5,0.3,2,0.7l0.1-0.4c0.5,0.6,1,0.7,1.4,0.9c0.2,0.1,0.4,0.2,0.6,0.4c0.2,0.1,0.4,0.4,0.6,0.7l-0.1,0.1
		c1,0.1,1.3,0.8,1.6,1.4c0.1,0.3,0.2,0.6,0.5,0.9c0.2,0.3,0.5,0.6,0.9,0.8c-0.2-0.1-0.1,0.2-0.2,0.2c0.1,0.1,0.3,0.3,0.4,0.4
		c0.1,0.1,0.2,0.3,0.4,0.4c0.2,0.2,0.5,0.3,0.9,0.2c0.3,0.5,0,0.6-0.3,0.7c0.3-0.1,0.6,0.3,0.8,0.7l-0.2-0.2
		c0.2,0.3,0.3,0.7,0.4,1.1c0,0.1,0,0.1,0.1,0.2l0.6-0.4c0,0.8-0.7,0.4-0.4,1l0.5-0.1c0,0.5-0.1,0.9-0.3,1.4
		c-0.1,0.2-0.3,0.5-0.4,0.8c-0.1,0.2-0.2,0.3-0.2,0.5c0,1.3-0.1,2.7-0.3,4c-0.1,0.6-0.2,1.2-0.4,1.7c-0.5,1.8-1.5,3.5-2.9,4.5
		c-0.1,0.1-0.2,0.1-0.2,0.2l-0.4-0.2c-0.2-0.2-0.2,0.1-0.3,0.5c0,0.3-0.1,0.7-0.3,0.5l-0.1,0.3l0,0.1c0,0-0.1,0-0.1,0
		c-0.1,0-0.3,0-0.2-0.2c-0.3,0.2-0.3,0.3-0.4,0.6l-0.5-0.1c-0.7,0.3-1.2,0.7-1.8,1.1c-0.6,0.4-1.2,0.8-2,1c-1-0.1-2.3,0.2-3.7,0.3
		l-0.5,0.1h0l0,0l-0.4,0l-0.1,0c-0.3,0-0.7,0.1-1,0.1c-0.3,0-0.7,0-1,0c-0.2,0-0.3,0-0.4,0c-0.1,0-0.3,0-0.4,0c-1.6,0.1-3-0.9-4.2-2
		c-1.2-1.1-2.1-2.4-3.4-3.1c0-0.1-0.3-0.2-0.3-0.2c-0.2-0.4-0.5-0.7-0.8-1.1c-0.2-0.4-0.5-0.8-0.7-1.2c0,0-0.1-0.2-0.2-0.5
		c-0.1-0.1-0.2-0.3-0.3-0.5c-0.1-0.2-0.2-0.4-0.3-0.7c-0.5-1-0.8-2.3-1.2-3.3c-0.3-1-0.8-1.8-1.5-1.6c-0.3,0.1-0.7,0.4-1.1,1.2
		c-0.1,0.2-0.2,0.4-0.3,0.6c-0.1,0.2-0.2,0.5-0.3,0.8c0,0,0,0,0,0c-0.1,0.3-0.2,0.6-0.3,1c-0.1,0.4-0.1,0.8-0.1,1.2l-0.2-0.1
		c0.1,1,0.3,1.8,0.6,2.5c0.3,0.7,0.8,1.2,1.3,1.7c-0.6,0.6,0.8,1.4,0.8,1.9h-0.1c0.6,0.3,0.9,0.9,1.2,1.4c0.3,0.5,0.6,1.1,1.2,1.3
		c-0.1,0-0.3,0.2-0.4,0c0.7,0.5,1.7,1.2,1.4,1.6c0.4,0.3,0.9,0.6,1.4,1c0.5,0.3,1,0.6,1.5,0.9c1,0.5,2.1,0.8,2.8,0.7l-0.1,0.1
		c0.9-0.2,0.9,0.3,1.8,0.2c0,0.1,0.1,0.1,0.1,0.1c0.4-0.1,1,0,1.6,0.1c0.6,0.1,1.1,0.2,1.4,0.2l0,0.3c0.5,0,1.1,0,1.6,0l-0.6-0.1
		c0.1-0.4,0.4-0.3,0.8-0.1s1,0.3,1.5,0.1c0.5,0,1-0.5,1.5-1c0.2-0.2,0.4-0.5,0.7-0.6c0.1-0.1,0.2-0.1,0.2-0.1
		c0.2-0.1,0.3-0.1,0.5-0.1c0.2-0.2,0.1-0.1,0.1,0.1c0,0.2-0.1,0.4,0.3,0.1c0.1,0.4-0.3,0.4,0,0.6c0.3-0.2,0.7-0.1,1-0.2
		c0.3,0,0.7-0.1,1.1-0.4l0.2,0.3c0.5-0.5,1-0.7,1.6-0.8c0.6-0.1,1-0.3,1.2-0.8c0.9-0.9,1.3,0.4,2-1c0.2,0,0.5,0,0.7,0
		c0.5-0.4-0.1-0.7,0.6-1c0.2,0.2,0.8-0.4,0.7,0.1c0.7-0.4,1.1-1.1,1.6-1.8c0.4-0.8,0.9-1.5,1.7-2.1c-0.1-0.3,0-0.7,0.1-1
		c0.1-0.3,0.2-0.6,0.1-0.8c0,0,0-0.1,0-0.1c0,0,0.1,0,0.1,0c0.1-0.1,0.3-0.4,0.4-0.7c0.2-0.3,0.3-0.5,0.4,0.2c0,0.1-0.1,0.3-0.2,0.2
		l0.2,0.3c0.6-0.4,0.6-0.9,0.7-1.5c0-0.3,0-0.6,0-0.8c0-0.3,0-0.6,0.1-0.8c-0.2,0.3-0.3,0.7-0.4,0.4l0.3-1l0.2,0.3l0.3-0.8
		c0.1-0.2,0.1-0.5,0.2-0.8l-0.4,0.1C131.7,149.1,132.4,148.9,132,148z"/>
	<polygon class="st0" points="131.8,141.4 131.8,141.4 132.1,141.5 	"/>
	<path class="st0" d="M139.9,131.3l0.2-0.8C140,130.6,139.9,130.8,139.9,131.3z"/>
	<path class="st0" d="M177.7,112.4c0,0.1,0,0.1,0,0.2C177.8,112.5,177.8,112.4,177.7,112.4z"/>
	<path class="st0" d="M145.3,102.2C145.3,102.2,145.3,102.3,145.3,102.2c0,0.1,0,0.2,0,0.2L145.3,102.2z"/>
	<path class="st0" d="M139.8,141.8l0.1,0C139.9,141.7,139.9,141.7,139.8,141.8z"/>
	<path class="st0" d="M146.2,37.8L146.2,37.8c0-0.1,0.1-0.3,0.1-0.4L146.2,37.8z"/>
	<path class="st0" d="M177.1,110.1l-0.2-0.3c0.1,0.1,0.2-0.1,0.2-0.2c0-0.6-0.2-0.5-0.4-0.2c-0.2,0.3-0.4,0.7-0.5,0.7
		c0.1,0.2,0,0.5-0.1,0.9c-0.1,0.3-0.3,0.7-0.1,1c-0.8,0.7-1.3,1.4-1.7,2.1c-0.1,0.2-0.3,0.4-0.4,0.7c0.1,8.4-1.5,17.6-0.6,25.8
		c-0.1,0.3,0.1,1.1,0.2,1.1l0,4.4c0,0.4,0,0.6-0.1,1c0,0.3,0,0.6-0.1,0.9c-0.1,0.6-0.2,1.2-0.4,1.8c0,0,0,0.1-0.1,0.4
		c-0.1,0.2-0.2,0.6-0.3,1c-0.3,0.9-0.9,2.1-1.7,3.3c-0.8,1.2-2,2.5-3.3,3.5c-1.3,1-2.8,1.8-4.1,2.4c-0.7,0.2-1.3,0.5-1.9,0.7
		c-0.3,0.1-0.6,0.2-0.8,0.3c-0.2,0.1-0.5,0.1-0.7,0.2c-0.5,0.2-0.8,0.3-1,0.5c0-1.2,0-2.9,0-1.5l0,0l0,0h0l0,0l0,0l-0.1,0
		c-0.1,0-0.1-0.1-0.2-0.1c-0.1-0.1-0.2-0.1-0.4-0.1c-0.2-0.1-0.5-0.2-0.8-0.2c-0.3-0.1-0.6-0.2-0.9-0.3l-0.4-0.1
		c-0.1-0.1-0.3-0.1-0.4-0.2c-0.3-0.1-0.5-0.2-0.8-0.3c-0.2-0.1-0.4-0.2-0.6-0.3c-0.3-0.2-0.6-0.3-0.6-0.3c-1.7-0.9-2.9-1.9-4.1-3
		c-1.1-1.1-2-2.2-2.8-3.5c-0.8-1.3-1.4-2.8-1.7-4.6c-0.1-0.5-0.1-0.9-0.2-1.4c0-0.6-0.1-1.2-0.1-1.8c-0.1-1.2-0.1-2.6-0.1-4
		c0.2-10,0.9-12.7,0.6-23.1c0-0.5,0-1,0-1.5c-0.2-0.2-0.4-0.3-0.6-0.4c0.2,0.2,0.4,0,0.4,0c-0.6-0.2-0.9-0.8-1.2-1.3
		c-0.3-0.6-0.5-1.1-1.2-1.4h0.1c-0.1-0.5-1.4-1.4-0.8-1.9c-0.6-0.5-1-1-1.3-1.7c-0.3-0.7-0.5-1.5-0.6-2.5l0.1,0.1
		c0.1-0.4,0.1-0.8,0.1-1.2c0.1-0.4,0.2-0.7,0.3-1s0.2-0.6,0.3-0.8c0.1-0.2,0.2-0.5,0.3-0.7c0.4-0.8,0.8-1.1,1.1-1.2
		c0.7-0.2,1.1,0.6,1.5,1.6c0.4,1,0.8,2.3,1.2,3.3c0,0.1,0,0.1,0.1,0.2c0-1.5-0.1-3.1-0.1-4.5c-0.1-0.4-0.2-0.8-0.2-1.3
		c-0.2,0.3-0.4,0.6-0.6,0.8c-0.3,0.3-0.8,0.3-1.3-0.2c-0.3-0.3-0.5-0.7-0.8-1.4c-0.1-0.3-0.2-0.7-0.4-1.2c-0.1-0.2-0.1-0.5-0.2-0.8
		c0-0.3-0.1-0.6-0.1-0.8c0.6-0.7,0.9-1.3,1-2.6l-0.4,0.1c0.6-0.6,0.6-1.3,0.8-1.9c-0.1-0.5-0.7,0.2-0.6-0.6c0.8-1.3,0.3-0.7,1.2-1.9
		c0.1,0.2-0.4,0.8,0,0.8c-0.1-0.2,0.6-1.1,0.2-1.2l0.4,0.2c0.1-0.3,0.4-0.3,0.7-0.5c0-0.1,0-0.1,0-0.2c0-0.1-0.1-0.2-0.3,0
		c0.1-0.2,0.2-0.5,0.4-0.8c-0.1-1.3-0.1-2.6-0.2-3.2l0.1,0.1l0-1.7l0.1,0.3c-0.3-2.4-0.3-4.9-0.2-7.2l-0.4,0.2
		c0.4-4.7-0.4-6.5,0.1-10.8l0.1,0.1c-0.5-2.7-0.4-4.8-0.2-7c0.1-1.1,0.2-2.2,0.2-3.3c0-1.1-0.1-2.5-0.3-3.6c0.1,0.6,0.2-0.2,0.3-0.2
		c0-0.5,0.1-1.1,0.1-1.6c0.1-0.5,0.2-1,0.2-1.4c0.2-0.8,0.2-1.5-0.2-1.7c0.7-1.5,0.8-1.1,1.2-1.1c-0.1-0.1-0.1-0.4,0.1-0.9
		c0.1-0.2,0.2-0.5,0.4-0.8c0.2-0.3,0.4-0.5,0.6-0.8c-0.1,0.2-0.2,0.4-0.2,0.5c0.3-0.5,0.8-1,1.1-1.4c0.2-0.2,0.4-0.4,0.7-0.7
		c0.2-0.2,0.4-0.4,0.7-0.6c-0.3,0-0.6,0-1,0c0.4-0.3,0.7-0.4,0.9-0.5c0.2,0,0.3,0,0.4,0c0.1,0,0.2,0,0.3,0c0.1-0.1,0.4-0.2,0.7-0.5
		l-0.3-0.4c0.3-0.2,0.6-0.3,0.9-0.5c0.3-0.1,0.6-0.2,0.9-0.3c0.6-0.2,1.1-0.2,1.7-0.3c0.5-0.1,1.1,0,1.6,0c0.6,0,1.1,0.1,1.8,0.1
		c2.6-0.2,5.2,0.2,7.7,1.4l0.5,0.2l0.4,0.2c0.3,0.2,0.6,0.3,0.9,0.5c0.6,0.4,1.1,0.8,1.6,1.2c0.5,0.4,1,0.9,1.5,1.4
		c0.4,0.5,0.9,1,1.2,1.6c1.5,2.2,2.3,5,2.3,7.6c0,3-0.1,6-0.3,8.9l-0.4,0.5c-0.6,0.2,0.9,3.2,0.3,3.6l0.3,1.3
		c-0.1,0.4-0.2,1.2-0.4,0.5c0,1.2,0.1,1.3,0.2,2.2l-0.4,1.3c-0.3,4.9,0.4,9,0.3,14.2c-0.1,0.5-0.1,1-0.1,1.6
		c0.4,0.3,0.9,0.6,1.2,0.7c-0.5,0,0.1,0.8-0.4,0.8c0.3,0,0.7,0.4,1,0.8c0.1,0.2,0.3,0.4,0.4,0.5s0.1,0.2,0.1,0.2
		c-0.1,0.3,0.1,0.6,0.3,1c0.1,0.2,0.2,0.4,0.4,0.6c0.1,0.2,0.2,0.4,0.2,0.7c0.3,0.2,0.6,0.4,0.9,0.6c-0.5-1.6-1.1-3.3-0.8-5
		c-0.4-1.3,0.6,1.2,0.3-0.8c0.4-0.1,0.3,0.9,0.6,0.4c-0.2-1.9,0.4-3.2,0.1-5.5l0.3-0.1c-0.6-3.1,0.4-5.8-0.1-7.9
		c-0.3-3.2,1-2.1,0.4-5.5l0.5-1.3c0.1-1.4-0.6-1-0.3-2.6c0.3,0.1,0.2-2,0.5-1.1c0.2-1.8,0.1-3.6-0.1-5.6c-0.1-1-0.1-2-0.1-3
		c0-0.5,0-1.1,0.1-1.6c0-0.3,0-0.6,0.1-0.9s0.1-0.7,0.1-1c-0.1-0.3-0.3-0.7-0.4-1.1c-0.1-0.4-0.2-0.9-0.3-1.4
		c-0.3-0.9-0.5-1.8-0.9-2.1c0.1-0.1-0.3-1.4-0.8-2.3c-0.4-0.9-0.6-1.5,0.4-0.2c0.2,0.2,0.4,0.7,0.2,0.7c0.1,0.1,0.3,0.1,0.5,0.2
		c-0.2-0.8-0.5-1.5-0.8-2.2c-0.2-0.3-0.4-0.6-0.6-0.9l-0.3-0.4l-0.4-0.4c-0.5-0.5-1-1.1-1.6-1.5c-0.3-0.2-0.5-0.5-0.8-0.8
		c-0.3-0.2-0.6-0.5-0.9-0.8c0.3,0.4,0.7,0.7,0.9,1c0.2,0.3,0.2,0.4-0.1,0.2c-0.3-0.3-0.7-0.7-1-1c-0.3-0.3-0.7-0.6-1.1-0.9l0.6,0.1
		c-1.1-0.9-2.3-1.8-3.6-2.5l0.4,0.6c-0.9-0.5-1.4-1-2.1-1.4c-0.3-0.2-0.7-0.3-1.1-0.5c-0.4-0.1-0.9-0.2-1.5-0.2
		c-1.1,0,1.8,1-0.4,0.5c-0.7-0.2-1.4-0.4-2.2-0.5c-0.4-0.1-0.9-0.1-1.3-0.2c-0.2,0-0.4-0.1-0.7-0.1c-0.2,0-0.5,0-0.7,0
		c-1.9-0.1-3.8,0.2-5.6,0.7c0.4,0.3-0.5,0.6-1.4,1l-0.2-0.3c-1.6,1-2,1.1-2.4,1.1c-0.4,0-0.9,0-2.3,1.3c-0.1,0.3-0.2,0.5-0.2,0.8
		c-1.1,1.4-1.4,1.6-1.9,1.9c-0.4,0.3-0.9,0.6-1.6,2.5c0.4-0.6,0.7-0.7,0.7-0.4c0,0.3-0.2,0.9-0.7,1.6l-0.1-0.6
		c-0.5,0.9-0.5,1.2-0.8,1.8c0.1-0.6-0.3-0.5-0.9,0.9c0-0.4,0-0.7,0-1.1c-0.1,0.2-0.1,0.5-0.2,0.7l-0.1,0.7c-0.1,0.5-0.1,1-0.2,1.4
		c-0.2,0.5-0.4,1.1-0.6,1.7c-0.1,0.6-0.2,1.3-0.3,1.9c0,0.6-0.1,1.2-0.1,1.7s-0.1,0.8-0.2,1c0,0-0.2,4,0.3,5
		c-0.3-0.8-0.4,1.4-0.8,0.8c0.4,1,0.6,4.1,0.3,5.4l0-0.2c-0.4,4.6,0.5,7.8,0.1,11.9c0.4-0.2,0.2,2,0.7,1.4c0.5,4.2-1,7.7,0.5,9.3
		c0.1,1.9-0.4,2.3-0.4,3.3l-0.1-0.5c0.1,3.6,0.1,4.7,0.1,7.3c0.1,1.3,0.9,1.6,0.7,3.9c-0.3-0.8-0.2,0.2-0.2,1.1
		c-0.1-0.6-0.1-0.8-0.4,0.4c0.1,0.2,0.1,0.4,0.2,0.7c0,0,0,0.1-0.1,0c0.1,1.5,0.2,1.2,0.2,0.5c0,0,0.1,0,0.2-0.2
		c-0.4,1.6,0,4.3-0.5,4.5c0.1,4.5,0.6,7.7,0.8,11.5c-0.3,0.4-0.5-0.5-0.6-1.5l0.1,2.7c-0.4,0-0.2-1.5-0.3-2.3
		c-0.6,3.2,0.6,6.5,0.1,10.2l0.3,0.8l-0.1,0.2c0.1,0,0.4,0.8,0.4,1.4c-0.3,0.5-0.7,0-0.7,1.8c-0.3,1.4,0.1,4.1,0.3,6
		c0.1-1,0.2-0.7,0.3-0.2c0,0.9-0.3,1.4-0.2,2.2l-0.3,0.1c0.3,0.1,0.4,2.4,0.5,2.8c-0.3,0.5-0.3-1.4-0.5-1.7c0,1.8,0,2.3,0,2.8
		c0,0.2,0,0.4,0,0.9c0,0.4,0,1.1,0.2,2.1c0.6,2.1,0.4-0.4,0.9,0.5c0.4,1.8,1.1,3.4,1.9,5.4l0.1-0.8c0.8,1.5,1.7,2.5,2.4,3.5
		c0.4,0.5,0.8,0.9,1.1,1.4c0.4,0.4,0.7,0.8,1.1,1.3c2.7,1.7,5.1,2.2,6.9,2.4c0.4,0,0.9,0.1,1.2,0.1c0.4,0,0.7-0.1,1-0.1
		c0.3,0,0.6-0.1,0.8-0.1c0.2-0.1,0.5-0.1,0.7-0.2c0.4,0.9,0.4,0.8,0.6,1.3c0,0.2,0-0.2,0-0.7c0.1,0.2,0.4,0.3,1,0.5
		c0.3,0.1,0.6,0.2,1,0.2s0.8,0.1,1.3,0.1c0.5,0,1.1,0,1.7-0.1c0.6-0.1,1.4-0.2,2.1-0.4c1.5-0.4,3.4-1.1,5.3-2.3l-0.1,0.3
		c2.2-1.7,3.6-3.4,4.6-5.2c0.9-1.8,1.4-3.6,1.5-5.5c0.2-0.1,0.4-0.4,0.5-0.9s0.2-1,0.2-1.6c0-1.3-0.1-2.4,0-2.9l0.1,0.1
		c-0.6-2.9,0.5-6.1,0-8.9c0.1,0.1,0.3,0.2,0.3,0.8c-0.1-2.1-0.3-4.9,0.2-5c-0.1-4.9,0.1-11.8-0.6-15l0.1,0.2
		c-0.5-1.8-0.1-2.3-0.3-4.3c0.1-0.1,0.1-0.2,0.1-0.2c-0.2-0.8-0.2-1.8-0.2-2.9C177.4,109.7,177.3,109.9,177.1,110.1z"/>
	<path class="st0" d="M177.5,107.4C177.5,107.3,177.5,107.3,177.5,107.4L177.5,107.4C177.5,107.3,177.5,107.3,177.5,107.4z"/>
	<path class="st0" d="M173,97.1c0-0.1-0.1-0.2-0.1-0.2c0,0,0,0.1,0,0.1L173,97.1z"/>
	<path class="st0" d="M176.4,94.1c0.1,0.2,0.2,0.3,0.4,0.6l-0.4,0c0.1,0.7,0.9,0.7,0.7,0.2c0.1,0.1,0.2,0.2,0.3,0.2
		c-0.1-0.5-0.2-0.9-0.4-1.4l-0.5-0.2C176.9,94,176.7,94.2,176.4,94.1z"/>
	<path class="st0" d="M173.6,100c0.2-0.4,0.4-0.8,0.3-1.4l-0.5,0.1c-0.3-0.6,0.4-0.2,0.4-1l-0.6,0.4c-0.1-0.3-0.2-0.7-0.4-1
		c0,1.3,0.1,2.7,0.1,4C173.2,100.7,173.4,100.3,173.6,100z"/>
	<path class="st0" d="M156.5,79.6l0.2-0.1C156.6,79.5,156.5,79.5,156.5,79.6z"/>
	<path class="st0" d="M156.4,55.5C156.4,55.5,156.4,55.5,156.4,55.5"/>
	<path class="st0" d="M161.9,75.9L161.9,75.9C161.9,75.9,161.9,75.9,161.9,75.9L161.9,75.9z"/>
	<polygon class="st0" points="155.1,67.8 155.1,67.8 154.9,67.8 	"/>
	<path class="st0" d="M156.5,147.1l0.2-0.1C156.6,147,156.5,147,156.5,147.1z"/>
	<path class="st0" d="M156.5,126.2C156.5,126.2,156.4,126.2,156.5,126.2"/>
	<path class="st0" d="M161.9,143.9L161.9,143.9C161.9,143.9,161.9,143.9,161.9,143.9L161.9,143.9z"/>
	<polygon class="st0" points="155.1,136.8 155.1,136.8 154.9,136.8 	"/>
	<path class="st0" d="M147,87l0.3-0.1C147.3,86.9,147.2,86.9,147,87z"/>
	<path class="st0" d="M153.8,120C153.8,120,153.7,120,153.8,120"/>
	<path class="st0" d="M158.2,88.3L158.2,88.3C158.1,88.3,158.1,88.3,158.2,88.3L158.2,88.3z"/>
	<polygon class="st0" points="178.5,96.8 178.5,96.8 178.7,96.9 	"/>
	<path class="st0" d="M178.6,103.4c-0.2-0.4-0.5,0.7-0.6-0.1c0.1-0.5,0.4-1.1,0.5-1.8c0.1-0.7,0.2-1.4,0.2-2.1
		c-0.4,0.2-0.4-0.2-0.5-0.5l0.3-0.1c-0.7-1.3,0.7-0.7,0-1.9l-0.5-0.1c-0.9-0.9,0.3-0.9-0.5-1.6c-0.1-0.1-0.2-0.2-0.3-0.2
		c0.2,0.5-0.6,0.5-0.7-0.2l0.4,0c-0.2-0.3-0.4-0.4-0.4-0.6c0.3,0.1,0.5-0.1,0.2-0.6l0.5,0.2l0.1,0c0,0,0,0-0.1,0
		c-0.3-0.2-0.6-0.4-0.9-0.6c0-0.2-0.1-0.4-0.2-0.7c-0.1-0.2-0.2-0.4-0.4-0.6c-0.2-0.4-0.4-0.7-0.3-1c0,0,0-0.1-0.1-0.2
		c-0.1-0.1-0.2-0.3-0.4-0.5c-0.3-0.4-0.7-0.8-1-0.8c0.5,0.1-0.1-0.7,0.4-0.8c-0.3-0.1-0.8-0.3-1.2-0.7c-0.3-0.3-0.6-0.6-0.6-0.8
		l0.1,0c-0.3-0.4-0.6-0.7-1-1c-0.4-0.2-0.7-0.4-1.1-0.6c-0.4-0.2-0.7-0.4-1.1-0.6s-0.7-0.4-1-0.8c-0.1,0.4-0.9-0.2-0.9,0.3
		c-0.5-0.1-0.8-0.3-1.2-0.5c-0.4-0.2-0.7-0.4-1-0.6c-0.6-0.4-1.1-0.5-1.6,0.2c-0.8-0.1-0.8-0.6-1.2-0.8l0.2-0.1c-0.1,0-0.2,0-0.4,0
		c-0.2-0.6-0.6-1.2-0.8-2c0.2-1.3,0.9-1.6,0.6-2.9c0.1-0.6-0.1-1.3-0.2-1.9c-0.6-0.3,0-0.8-0.5-1.2l0.3-0.1
		c-0.2-0.1-0.3-0.3-0.1-0.4l0.1,0c-0.2-0.2-0.1-0.4-0.2-0.5l0.1,0l0-0.2l0.1,0c-0.3-0.3-0.3-0.6-0.2-0.9l-0.4,0
		c0.4-0.6-0.4-0.8,0.1-1.4l0.1,0c-1.1-0.7,0.7-1.1-0.3-1.8c0.1,0.1,0.2,0,0.3,0c-0.1-0.3-0.2-0.7-1-0.7c0-0.2,0.2-0.2,0.6-0.2
		c-0.3,0-0.5-0.2-0.5-0.4l0.1,0.1l-0.1-0.5l-0.6,0.1c0.2-0.3,0.8-0.1,0.6-0.3H160c0.1-0.4,0.9-0.6,1.3-1c0.2-1.6-1.1-3.2-0.2-4.7
		l0.4-0.1c0.6,0-0.9-0.4-0.3-0.5l-0.3-0.2c0.1,0,0.2-0.2,0.4-0.1c0-0.2-0.1-0.2-0.2-0.3l0.4-0.2c0.3-0.6-0.4-1.2-0.3-1.8
		c0.8-0.8,0.1-2.2-0.3-3.1c-0.9-1.2,1.5-2.6,0.5-3.8c0.1,0-0.1-0.1-0.2-0.1l0.1-1.1c0,0,0.2-5.4-4.6-1.3l-0.1,0
		c-0.3,0.6-0.4,1,0.3,1.4c-0.8,0.1-0.1,0.5-0.3,0.7l-0.1,0c0.6,0.4-0.5,0.8,0,1.1c-0.1,0-0.3,0-0.3-0.1c0.1,0.3,0.3,0.6-0.2,0.6
		c0.1,0.6-0.1,1.5,0.6,1.9l-0.1,0c0.5,0.2,0.1,0.3,0.3,0.5c-0.1,0-0.1,0-0.1,0c0.5,0.2,0.1,0.7,0.3,0.9l-0.3,0l0.1,0.5l0.1-0.2
		c0.8,0.1-0.5,0.4,0,0.7c-0.1,0.3,1.8,0.7,1.3,1c0.4,0.2-0.6-0.2-0.3,0.1c-0.4,0-0.3-0.1-0.6,0c0.2,0.2-0.4,0.4-0.1,0.7l-0.3,0
		c0.6,0.4-0.4,0.7,0.1,1c0.3,0.4-1,0.3-0.4,0.7l-0.5,0.2c-0.1,0.2,0.6,0.1,0.3,0.3c-0.3,0-0.2,0.2-0.5,0.1c-0.4,0.5,0.6,0.9-0.1,1.5
		c0.6,0.1,0.2,0.4,0.6,0.5c-0.2,0,0,0.6-0.6,0.3c0,0,0-0.1,0.1-0.1l-0.3,0c-0.6,0.3,0.4,0.6,0.2,1c0.1-0.1,0.1-0.2,0.3-0.1l-0.1,0.3
		l-0.3-0.1l-0.2,0.5l0.4-0.1c-0.2,0.2-0.8,0.3-0.3,0.6c0.3,0.1,0.5-0.2,0.6,0c-0.2,0.3-0.6,0.8-0.7,1.2c0.4,0,0.4,0.1,0.5,0.2
		l-0.3,0c0.5,0.4-0.8,0.2-0.4,0.6l0.5,0.1c0.7,0.4-0.7,0.2,0.2,0.6c-0.1-0.2,0.8-0.1,0.6,0.1l-0.3-0.1c0.1,0.1,0.2,0.2,0.1,0.2
		c-0.2-0.1-0.5,0-0.4,0.1l-0.4-0.1l0.6,0.3c-0.4,0.2,0.1,0.6-0.4,0.7c0,0-0.2,0.5,0.3,0.6c-0.3-0.1-0.4,0.2-0.8,0.1
		c0.4,0.1,0.6,0.5,0.3,0.7l0,0c-0.4,0.6,0.5,1,0.1,1.5c0.4,0,0.2,0.2,0.7,0.2c0.5,0.5-1,1,0.5,1.2c0.1,0.2-0.4,0.3-0.4,0.4l-0.1-0.1
		c0.1,0.5,0.1,0.6,0.1,0.9c0.1,0.2,0.9,0.2,0.7,0.5c-0.3-0.1-0.2,0-0.2,0.1c-0.1-0.1-0.1-0.1-0.4,0.1c0.1,0,0.1,0.1,0.2,0.1
		c0,0,0,0-0.1,0c0.1,0.2,0.2,0.2,0.2,0.1c0,0,0.1,0,0.2,0c-0.4,0.2,0,0.6-0.5,0.6c0.1,0.6,0.6,1,0.8,1.5c-0.3,0.1-0.5-0.1-0.6-0.2
		l0.1,0.3c-0.4,0-0.2-0.2-0.3-0.3c-0.6,0.4,0.6,0.8,0.1,1.3l0.3,0.1l-0.1,0c0.1,0,0.4,0.1,0.4,0.2c-0.3,0.1-0.7,0-0.7,0.2
		c-0.3,0.2,0.1,0.5,0.3,0.8c0.1-0.1,0.2-0.1,0.3,0c0,0.1-0.3,0.2-0.2,0.3l-0.4,0c0.4-0.1,0.4,0.3,0.6,0.3c-0.3,0.1-0.3-0.2-0.5-0.2
		c0,0.5,0,0.2,0.1,0.7c0.3,0.2,0.4-0.1,0.8,0.1c0.1,0.2,0.4,0.4,0.1,0.7l0.4-0.1c0.2,0.2,0.2,0.4,0.2,0.6c-0.1,0-0.3,0-0.5,0
		c0.2-0.1,0.3-0.2-0.2-0.3c-0.1,0.1-0.2,0.2-0.3,0.2c0,0,0,0,0-0.1c-0.6,0.2-0.5,0.2-0.2,0.2c0,0.1,0,0.1,0.1,0.2
		c-0.7-0.3-1.7,0.3-1.9-0.2c-1.8,0.5-2.9,1.4-4.1,2.2c-0.3-0.2-0.1-0.5,0.3-0.8l-0.9,0.6c-0.2-0.3,0.5-0.5,0.7-0.7
		c-0.7,0-1.3,0.4-1.8,0.9c-0.5,0.5-1,1-1.8,1.2l-0.1,0.4l-0.1,0c0.1,0.1,0,0.5-0.2,0.7c-0.4-0.1-0.5-0.6-1-0.1
		c-0.3,0.1-0.6,0.4-0.9,0.8c-0.1,0.1-0.2,0.3-0.2,0.4c-0.1,0.3-0.3,0.5-0.4,0.8c0.2-0.2,0.3-0.1,0.3,0c0,0.1,0,0.1,0,0.2
		c0,0,0,0,0,0c-0.2,0.2-0.6,0.2-0.7,0.5l-0.4-0.2c0.4,0.1-0.2,1-0.2,1.2c-0.4,0,0.1-0.6,0-0.8c-0.9,1.2-0.4,0.6-1.2,1.9
		c-0.1,0.8,0.4,0.1,0.6,0.6c-0.3,0.6-0.2,1.3-0.8,1.9l0.4-0.1c-0.2,1.3-0.5,1.9-1,2.6c0,0.3,0.1,0.6,0.1,0.8c0,0.3,0.1,0.5,0.2,0.8
		c0.1,0.5,0.2,0.9,0.4,1.2c0.3,0.7,0.6,1.1,0.8,1.4c0.5,0.6,1,0.5,1.3,0.2c0.3-0.2,0.5-0.5,0.6-0.8c0.1-0.1,0.1-0.2,0.2-0.3
		c0.1-0.2,0.2-0.4,0.2-0.5c0.1-0.1,0.1-0.2,0.1-0.2c0.6-1.3,0.9-2.2,1.1-3.3c0.3-1.1,0.5-2.3,1.5-3.8c0.3-0.3,0.5-0.5,0.8-0.7
		c0.2-0.2,0.5-0.3,0.7-0.5c0.4-0.3,0.9-0.5,1.3-0.7c0.9-0.4,1.7-0.8,3-1.5c1.3-0.5,2.8-0.9,4.2-1.1c0.2-0.2,0.4-0.2,0.6-0.3
		c0.2,0,0.5,0,0.7,0c0.2,0,0.5,0,0.7,0c0.2,0,0.5,0,0.7-0.1l0.3,0.4c0.1-0.1,0.3-0.1,0.5-0.1c0.1,0,0.3,0.1,0.4,0.2l0,0.1
		c0.5-0.1,0.9,0.1,1.1,0.1l-0.1,0.1l0.5,0.1l-0.1,0.1c0.8,0,1.5,0.3,2,0.7l0.1-0.4c0.5,0.6,1,0.7,1.4,0.9c0.2,0.1,0.4,0.2,0.6,0.4
		c0.2,0.2,0.4,0.4,0.6,0.7l-0.1,0.1c1,0.1,1.3,0.8,1.6,1.4c0.1,0.3,0.2,0.6,0.5,0.9c0.2,0.3,0.5,0.6,0.9,0.8
		c-0.2-0.1-0.1,0.2-0.2,0.2c0.1,0.2,0.3,0.3,0.4,0.4c0.1,0.2,0.2,0.3,0.4,0.4c0.2,0.2,0.5,0.3,0.9,0.2c0.3,0.5,0,0.6-0.3,0.7
		c0.3-0.1,0.5,0.2,0.7,0.5c0,0.1,0.1,0.2,0.1,0.2l-0.1-0.1l-0.1-0.1c0,0.1,0.1,0.2,0.1,0.2c0.1,0.3,0.3,0.7,0.4,1l0.6-0.4
		c0,0.8-0.7,0.4-0.4,1l0.5-0.1c0,0.5-0.1,0.9-0.3,1.4c-0.2,0.4-0.4,0.7-0.6,1.1c0,0.1-0.1,0.1-0.1,0.2c-0.1,1.9-0.1,3.8-0.6,5.8
		c-0.5,1.9-1.6,3.7-3.2,4.7l-0.4-0.2c-0.2-0.2-0.2,0.1-0.3,0.5c0,0.3-0.1,0.7-0.3,0.5l-0.1,0.5c-0.2,0-0.4,0.1-0.4-0.2
		c-0.3,0.2-0.3,0.3-0.4,0.6l-0.5-0.1c-0.7,0.3-1.2,0.7-1.8,1.1c-0.6,0.4-1.2,0.8-2,1c-1-0.1-2.3,0.2-3.7,0.3l-0.5,0.1l-0.5,0
		c-0.4,0-0.7,0.1-1,0.1c-0.3,0-0.7,0-1,0c-0.2,0-0.3,0-0.4,0c-0.1,0-0.3,0-0.4,0c-1.6,0.1-3-0.9-4.2-2c-1.2-1.2-2.1-2.4-3.4-3.2
		c0-0.1-0.3-0.2-0.3-0.2c-0.2-0.4-0.5-0.7-0.8-1.1c-0.2-0.4-0.5-0.8-0.6-1.2c0,0-0.1-0.2-0.2-0.5c-0.1-0.2-0.2-0.3-0.3-0.5
		c-0.1-0.2-0.1-0.3-0.2-0.5c0-0.1,0-0.1-0.1-0.2c-0.5-1-0.8-2.3-1.2-3.3c-0.3-1-0.8-1.8-1.5-1.6c-0.3,0.1-0.7,0.4-1.1,1.2
		c-0.1,0.2-0.2,0.4-0.3,0.7c-0.1,0.2-0.2,0.5-0.3,0.8c-0.1,0.3-0.2,0.6-0.3,1c-0.1,0.4-0.1,0.8-0.1,1.2l-0.1-0.1
		c0.1,1,0.3,1.8,0.6,2.5c0.3,0.7,0.8,1.2,1.3,1.7c-0.6,0.6,0.8,1.4,0.8,1.9H143c0.6,0.3,0.9,0.9,1.2,1.4c0.3,0.5,0.6,1.1,1.2,1.3
		c-0.1,0-0.3,0.2-0.4,0c0.2,0.1,0.4,0.3,0.6,0.4c0.6,0.4,1.1,0.8,0.9,1.1c0.4,0.3,0.9,0.6,1.4,1c0.5,0.3,1,0.6,1.5,0.9
		c1,0.5,2.1,0.8,2.8,0.7l-0.1,0.1c0.9-0.2,0.9,0.3,1.8,0.2c0,0.1,0.1,0.1,0.1,0.1c0.4-0.2,1,0,1.6,0.1c0.6,0.1,1.1,0.2,1.4,0.2
		l0,0.3h0c-0.1,0.1-0.2,0.1-0.3,0.2l-0.1,0c-0.3,0.5-0.4,0.9,0.3,1.2c-0.8,0.1-0.1,0.4-0.3,0.6l-0.1,0c0.6,0.3-0.5,0.7,0,1
		c-0.1,0-0.3,0-0.3-0.1c0.1,0.2,0.3,0.5-0.2,0.6c0.1,0.5-0.1,1.3,0.6,1.7l-0.1,0c0.5,0.2,0.1,0.3,0.3,0.5c-0.1,0-0.1,0-0.1,0
		c0.5,0.2,0.1,0.6,0.3,0.8l-0.3,0l0.1,0.4l0.1-0.2c0.8,0.1-0.5,0.3,0,0.6c-0.1,0.3,1.8,0.6,1.3,0.9c0.4,0.1-0.6-0.1-0.3,0.1
		c-0.4,0-0.3-0.1-0.6-0.1c0.2,0.2-0.4,0.4-0.1,0.6l-0.3,0c0.6,0.3-0.4,0.6,0.1,0.9c0.3,0.4-1,0.2-0.4,0.6l-0.5,0.1
		c-0.1,0.2,0.6,0.1,0.3,0.3c-0.3,0-0.2,0.2-0.5,0.1c-0.4,0.4,0.6,0.8-0.1,1.3c0.6,0.1,0.2,0.4,0.6,0.5c-0.2,0,0,0.5-0.6,0.2
		c0,0,0-0.1,0.1-0.1l-0.3,0c-0.6,0.3,0.4,0.5,0.2,0.8c0.1-0.1,0.1-0.2,0.3-0.1l-0.1,0.3l-0.3-0.1l-0.2,0.4l0.4-0.1
		c-0.2,0.2-0.8,0.3-0.3,0.5c0.3,0.1,0.5-0.2,0.6,0c-0.2,0.3-0.6,0.7-0.7,1c0.4,0,0.4,0.1,0.5,0.1l-0.3,0c0.5,0.4-0.8,0.1-0.4,0.5
		l0.5,0.1c0.7,0.3-0.7,0.2,0.2,0.5c-0.1-0.1,0.8-0.1,0.6,0.1l-0.3,0c0.1,0.1,0.2,0.1,0.1,0.2c-0.2-0.1-0.5,0-0.4,0.1l-0.4-0.1
		l0.6,0.3c-0.4,0.2,0.1,0.5-0.4,0.6c0,0-0.2,0.4,0.3,0.6c-0.3-0.1-0.4,0.2-0.8,0.1c0.4,0.1,0.6,0.5,0.3,0.6l0,0
		c-0.4,0.5,0.5,0.9,0.1,1.3c0.4,0,0.2,0.2,0.7,0.2c0.5,0.5-1,0.9,0.5,1c0.1,0.2-0.4,0.2-0.4,0.4l-0.1-0.1c0.1,0.4,0.1,0.5,0.1,0.8
		c0.1,0.1,0.9,0.2,0.7,0.4c-0.3-0.1-0.2,0-0.2,0.1c-0.1-0.1-0.1-0.1-0.4,0.1c0.1,0,0.1,0.1,0.2,0.1c0,0,0,0-0.1,0
		c0.1,0.2,0.2,0.1,0.2,0.1c0,0,0.1,0,0.2,0c-0.4,0.2,0,0.5-0.5,0.5c0.1,0.5,0.6,0.9,0.8,1.3c-0.3,0.1-0.5-0.1-0.6-0.2l0.1,0.3
		c-0.4,0-0.2-0.2-0.3-0.3c-0.6,0.4,0.6,0.7,0.1,1.1l0.3,0.1l-0.1,0c0.1,0,0.4,0.1,0.4,0.1c-0.3,0.1-0.7,0-0.7,0.2
		c-0.3,0.2,0.1,0.5,0.3,0.7c0.1-0.1,0.2-0.1,0.3,0c0,0.1-0.3,0.2-0.2,0.2l-0.4,0c0.4,0,0.4,0.3,0.6,0.3c-0.3,0.1-0.3-0.2-0.5-0.2
		c0,0.4,0,0.2,0.1,0.6c0.3,0.2,0.4,0,0.8,0.1c0.1,0.2,0.4,0.4,0.1,0.6l0.4-0.1c0.3,0.4,0.2,0.6-0.1,0.8c3.1,2.7,4.3,0.6,4.3,0.6
		c0.9-1.1-0.3-1.6-0.6-2.9c0.2-1.1,0.9-1.4,0.6-2.6c0.1-0.6-0.1-1.1-0.2-1.7c-0.6-0.2,0-0.7-0.5-1l0.3-0.1c-0.2-0.1-0.3-0.2-0.1-0.3
		l0.1,0c-0.2-0.1-0.1-0.3-0.2-0.4l0.1,0l0-0.2l0.1,0c-0.3-0.3-0.3-0.6-0.2-0.8l-0.4,0c0.4-0.5-0.4-0.7,0.1-1.2l0.1,0
		c-1.1-0.6,0.7-0.9-0.3-1.6c0.1,0.1,0.2,0,0.3,0c-0.1-0.3-0.2-0.6-1-0.6c0-0.2,0.2-0.2,0.6-0.2c-0.3,0-0.5-0.2-0.5-0.3l0.1,0.1
		l-0.1-0.5l-0.6,0.1c0.2-0.2,0.8-0.1,0.6-0.3H160c0.1-0.3,0.9-0.5,1.3-0.9c0.2-1.4-1.1-2.8-0.2-4.1l0.4-0.1c0.6,0-0.9-0.4-0.3-0.4
		l-0.3-0.1c0.1,0,0.2-0.1,0.4-0.1c0-0.1-0.1-0.1-0.2-0.2l0.4-0.1c0.3-0.5-0.4-1-0.3-1.6c0.8-0.7,0.1-2-0.3-2.7
		c-0.9-1,1.5-2.2,0.5-3.3c0.1,0-0.1-0.1-0.2-0.1l0.1-1c0,0,0-0.9-0.3-1.7c0.3-0.2,0.6-0.5,0.9-0.8c0.2-0.2,0.4-0.5,0.7-0.6
		c0.2-0.2,0.5-0.3,0.7-0.2c0.4-0.5-0.3,0.7,0.4,0.2c0.1,0.4-0.3,0.3,0,0.6c0.3-0.2,0.7-0.2,1-0.2s0.7-0.1,1.1-0.4l0.2,0.3
		c0.5-0.5,1-0.7,1.6-0.8c0.6-0.1,1-0.3,1.2-0.8c0.9-0.9,1.3,0.4,2-1c0.2,0,0.5,0,0.7,0c0.5-0.3-0.1-0.7,0.6-1
		c0.2,0.2,0.8-0.4,0.7,0.1c0.5-0.2,0.8-0.7,1.1-1.1c0.1-0.2,0.3-0.4,0.4-0.7c0.4-0.8,0.9-1.5,1.7-2.1c-0.1-0.3,0-0.7,0.1-1
		c0.1-0.3,0.2-0.6,0.1-0.9c0.1,0,0.4-0.4,0.5-0.7c0.2-0.3,0.3-0.5,0.4,0.2c0,0.1-0.1,0.3-0.2,0.2l0.2,0.3c0.2-0.2,0.3-0.3,0.4-0.5
		c0.2-0.3,0.2-0.7,0.2-1c0-0.3,0-0.6,0-0.8c0-0.3,0-0.6,0.1-0.8c-0.2,0.3-0.3,0.7-0.4,0.4c0,0,0,0,0,0l0-0.1l0.3-0.9l0.2,0.3
		l0.3-0.8c0.1-0.2,0.1-0.5,0.2-0.8l-0.4,0.2C178.4,104.5,179.1,104.3,178.6,103.4z"/>
	<path class="st0" d="M224.4,68.7l-0.2,0.8C224.3,69.5,224.3,69.3,224.4,68.7z"/>
	<path class="st0" d="M186.5,87.6c0-0.1,0-0.1,0-0.2C186.5,87.6,186.5,87.6,186.5,87.6z"/>
	<path class="st0" d="M219,97.8C219,97.8,219,97.8,219,97.8c0-0.1,0-0.2,0-0.2L219,97.8z"/>
	<path class="st0" d="M196.2,42.5l0,0.2c0.1,0,0.1-0.1,0.2-0.2C196.3,42.5,196.3,42.5,196.2,42.5z"/>
	<path class="st0" d="M190.7,55.5c-0.2,0.4-0.4,0.8-0.3,1.4l0.5-0.1c0.3,0.6-0.4,0.2-0.4,1l0.6-0.4c0,0.1,0,0.1,0.1,0.2l0-2.8
		C191,55,190.8,55.2,190.7,55.5z"/>
	<path class="st0" d="M205.5,39.6L205.5,39.6C205.5,40,205.5,40.1,205.5,39.6z"/>
	<path class="st0" d="M225.5,134.5l0,0.2c0.4-4.6-0.5-7.8-0.1-11.9c-0.4,0.2-0.2-2-0.7-1.4c-0.5-4.2,1-7.7-0.5-9.3
		c-0.1-1.9,0.4-2.3,0.4-3.3l0.1,0.5c-0.1-3.6-0.1-4.7-0.1-7.3c-0.1-1.3-0.9-1.6-0.7-3.9c0.3,0.8,0.2-0.2,0.2-1.1
		c0.1,0.6,0.1,0.8,0.4-0.4c-0.1-0.2-0.1-0.4-0.2-0.7c0,0,0-0.1,0.1,0c-0.1-1.5-0.2-1.2-0.2-0.5c0,0-0.1,0-0.2,0.2
		c0.4-1.6,0-4.3,0.5-4.5c-0.1-4.5-0.6-7.7-0.8-11.5c0.3-0.4,0.5,0.5,0.6,1.5l-0.1-2.7c0.4,0,0.2,1.5,0.3,2.3
		c0.6-3.2-0.6-6.5-0.1-10.2l-0.3-0.8l0.1-0.2c-0.1,0-0.4-0.8-0.4-1.4c0.3-0.5,0.7,0,0.7-1.8c0.3-1.4-0.1-4.1-0.3-6
		c-0.1,1-0.2,0.7-0.3,0.2c0-0.9,0.3-1.5,0.2-2.2l0.3-0.1c-0.3-0.1-0.4-2.5-0.5-2.8c0.3-0.5,0.3,1.4,0.5,1.7c0-1.8,0-2.3,0-2.8
		c0-0.2,0-0.4,0-0.9c0-0.5,0-1.1-0.2-2.1c-0.6-1.9-0.4,0.1-0.8-0.4c-0.1,0.3-0.2,0.6-0.3,0.8c-0.1,0.2-0.2,0.5-0.3,0.7
		c-0.4,0.8-0.8,1.1-1.1,1.2c-0.7,0.2-1.1-0.6-1.5-1.6c-0.4-1-0.8-2.3-1.2-3.3c-0.1-0.2-0.2-0.5-0.3-0.7c-0.1-0.2-0.2-0.4-0.3-0.5
		c-0.1-0.3-0.2-0.5-0.2-0.5c-0.2-0.4-0.4-0.8-0.6-1.2c-0.2-0.4-0.5-0.8-0.8-1.1c-0.1,0-0.3,0-0.3-0.2c-1.3-0.8-2.2-2-3.4-3.2
		c-1.1-1.1-2.6-2.1-4.2-2c-0.1,0-0.3,0-0.4,0c-0.1,0-0.3,0-0.4,0c-0.3,0-0.6,0-1,0c-0.3,0-0.7,0.1-1,0.1l-0.1,0
		c0.1,0,0.2,0.1,0.3,0.1c0.2,0.1,0.5,0.2,0.8,0.2c0.3,0.1,0.6,0.2,0.9,0.3l0.4,0.1c0.1,0.1,0.3,0.1,0.4,0.2c0.3,0.1,0.5,0.2,0.8,0.3
		c0.2,0.1,0.4,0.2,0.6,0.3c0.3,0.2,0.6,0.3,0.6,0.3c1.7,0.9,2.9,1.9,4.1,3c1.1,1.1,2,2.2,2.8,3.5c0.8,1.3,1.4,2.8,1.7,4.5
		c0.1,0.5,0.1,0.9,0.2,1.4c0,0.2,0,0.4,0,0.6c0.2-0.3,0.4-0.6,0.6-0.8c0.3-0.3,0.8-0.3,1.3,0.2c0.3,0.3,0.5,0.7,0.8,1.4
		c0.1,0.3,0.2,0.7,0.4,1.2c0.1,0.2,0.1,0.5,0.2,0.8c0,0.3,0.1,0.5,0.1,0.8c-0.6,0.7-0.9,1.3-1,2.6l0.4-0.1c-0.6,0.6-0.6,1.3-0.8,1.9
		c0.1,0.5,0.7-0.2,0.6,0.6c-0.8,1.3-0.3,0.7-1.2,1.9c-0.1-0.2,0.4-0.8,0-0.8c0.1,0.2-0.6,1.1-0.2,1.2l-0.4-0.2
		c-0.1,0.3-0.4,0.3-0.7,0.5c0,0.2,0,0.4,0.3,0.2c-0.1,0.3-0.3,0.6-0.5,0.9c-0.3,5-0.6,8.5-0.4,15.9c-0.1,4.9,0.1,10.2,0.2,15.1
		c0.6,2.3,0,6.4,0.5,9.1l-0.3,1.1c0.2,0.9,0.3,2,0.1,3l-0.1-0.1c0.2,1.4,0.1,3,0.2,3.7l-0.1-0.1l0,1.7l-0.1-0.3
		c0.3,2.4,0.3,4.9,0.2,7.2l0.4-0.2c-0.4,4.7,0.4,6.5-0.1,10.7l-0.1-0.1c0.5,2.7,0.4,4.8,0.2,7c-0.1,1.1-0.2,2.2-0.2,3.3
		c0,1.1,0.1,2.5,0.3,3.6c-0.1-0.6-0.2,0.2-0.3,0.2c0,0.5-0.1,1.1-0.1,1.6c-0.1,0.5-0.2,1-0.2,1.4c-0.2,0.8-0.2,1.5,0.2,1.6
		c-0.7,1.5-0.8,1.1-1.2,1.1c0.1,0.1,0.1,0.4-0.1,0.9c-0.1,0.2-0.2,0.5-0.4,0.8c-0.2,0.3-0.4,0.5-0.6,0.8c0.1-0.2,0.2-0.4,0.2-0.6
		c-0.3,0.5-0.8,0.9-1.1,1.4c-0.2,0.2-0.4,0.4-0.7,0.6c-0.2,0.2-0.4,0.4-0.7,0.6c0.3,0,0.6,0,1,0c-0.4,0.3-0.7,0.4-0.9,0.5
		c-0.2,0-0.3,0-0.4,0c-0.1,0-0.2-0.1-0.3,0c-0.1,0.1-0.4,0.2-0.7,0.5l0.3,0.4c-0.3,0.2-0.6,0.3-0.9,0.5c-0.3,0.1-0.6,0.2-0.9,0.3
		c-0.6,0.2-1.1,0.2-1.7,0.3c-0.5,0.1-1.1,0-1.6,0c-0.6,0-1.1-0.1-1.8-0.1c-2.6,0.1-5.2-0.2-7.7-1.4l-0.5-0.2l-0.4-0.2
		c-0.3-0.2-0.6-0.3-0.9-0.5c-0.6-0.4-1.1-0.8-1.6-1.2c-0.5-0.4-1-0.9-1.5-1.4c-0.4-0.5-0.9-1-1.2-1.6c-1.5-2.2-2.3-4.9-2.3-7.6
		c0-3.1,0.1-6,0.3-8.9l0.4-0.5c0.6-0.2-0.9-3.2-0.3-3.6l-0.3-1.3c0.1-0.4,0.2-1.2,0.4-0.5c0-1.2-0.1-1.3-0.2-2.2l0.4-1.3
		c0.3-4.9-0.4-9-0.3-14.2c0.8-6.2,0.1-17.8-0.3-24.4c-0.6-6.8,0.4-14.3,0.6-21.6c-0.4-0.4-1-0.7-1.4-0.8c0.5,0-0.1-0.8,0.4-0.8
		c-0.3,0-0.7-0.4-1-0.8c-0.1-0.2-0.3-0.4-0.4-0.5s-0.1-0.2-0.1-0.2c0.1-0.3-0.1-0.6-0.3-1c-0.1-0.2-0.2-0.4-0.4-0.6
		c-0.1-0.2-0.2-0.4-0.2-0.7c-0.3-0.2-0.7-0.4-1-0.7l0.5,0.2c-0.3-0.5-0.1-0.7,0.2-0.5c-0.1-0.2-0.2-0.3-0.4-0.6l0.4,0
		c-0.1-0.7-0.9-0.7-0.7-0.2c-1.3-1,0.1-0.9-0.8-1.8c-0.1,1.8-0.4,3.6-0.1,5.3c-0.1-0.1-0.3-0.2-0.3-0.8c0.1,2.1,0.3,4.9-0.2,5
		c0.1,4.9-0.1,11.8,0.6,15l-0.1-0.2c0.5,1.8,0.1,2.3,0.3,4.3c-0.1,0.1-0.1,0.2-0.1,0.2c0.5,2,0.1,5.7,0.3,7.3l-0.3,0.1l0.1,3.9
		l0.1-1.5c0.8,0.5-0.5,2.9,0,5.8c-0.1,2.7,1.8,5.4,1.3,8.1c0.4,1.3-0.6-1.2-0.3,0.8c-0.4,0.1-0.3-0.9-0.6-0.4
		c0.2,1.9-0.4,3.2-0.1,5.5l-0.3,0.1c0.6,3.1-0.4,5.8,0.1,7.9c0.3,3.2-1,2.1-0.4,5.5l-0.5,1.3c-0.1,1.4,0.6,1,0.3,2.6
		c-0.3-0.1-0.2,2-0.5,1.1c-0.2,1.8-0.1,3.6,0.1,5.6c0.1,1,0.1,2,0.1,3.1c0,0.5,0,1.1-0.1,1.6c0,0.3,0,0.6-0.1,0.9s-0.1,0.7-0.1,1
		c0.1,0.3,0.3,0.7,0.4,1.1c0.1,0.4,0.2,0.9,0.3,1.4c0.3,0.9,0.5,1.8,0.9,2.1c-0.1,0.1,0.3,1.4,0.8,2.3c0.4,0.9,0.6,1.4-0.4,0.2
		c-0.2-0.2-0.4-0.7-0.2-0.7c-0.1-0.1-0.3-0.1-0.5-0.2c0.2,0.8,0.5,1.5,0.8,2.2c0.2,0.3,0.4,0.6,0.6,0.9l0.3,0.4l0.4,0.4
		c0.5,0.5,1,1.1,1.6,1.6c0.3,0.2,0.5,0.5,0.8,0.8c0.3,0.2,0.6,0.5,0.9,0.8c-0.3-0.4-0.7-0.7-0.9-1c-0.2-0.3-0.2-0.4,0.1-0.1
		c0.3,0.4,0.7,0.7,1,1c0.3,0.3,0.7,0.6,1.1,0.9l-0.6-0.1c1.1,0.9,2.3,1.8,3.6,2.5l-0.4-0.6c0.9,0.5,1.4,1.1,2.1,1.4
		c0.3,0.2,0.7,0.4,1.1,0.5c0.4,0.1,0.9,0.2,1.5,0.2c1.1,0-1.8-0.9,0.4-0.5c0.7,0.2,1.4,0.4,2.2,0.6c0.4,0.1,0.9,0.1,1.3,0.2
		c0.2,0,0.4,0.1,0.7,0.1c0.2,0,0.5,0,0.7,0c1.9,0.1,3.8-0.2,5.6-0.7c-0.4-0.3,0.5-0.6,1.4-1l0.2,0.3c1.6-1,2-1.1,2.4-1.1
		c0.4,0,0.9,0,2.3-1.3c0.1-0.3,0.2-0.5,0.2-0.8c1.1-1.4,1.4-1.6,1.9-1.9c0.4-0.3,0.9-0.6,1.6-2.4c-0.4,0.6-0.7,0.6-0.7,0.4
		s0.2-0.9,0.7-1.6l0.1,0.6c0.5-0.9,0.5-1.2,0.8-1.8c-0.1,0.6,0.3,0.5,0.9-0.9c0,0.4,0,0.7,0,1.1c0.1-0.2,0.1-0.5,0.2-0.7l0.1-0.7
		c0.1-0.5,0.1-0.9,0.2-1.4c0.2-0.5,0.4-1.1,0.6-1.7c0.1-0.6,0.2-1.3,0.3-1.9c0-0.6,0.1-1.2,0.1-1.7s0.1-0.8,0.2-1c0,0,0.2-4-0.3-4.9
		c0.3,0.8,0.4-1.4,0.8-0.8C225.5,138.8,225.2,135.8,225.5,134.5z"/>
	<path class="st0" d="M192.1,48.8c0.3-0.9,0.9-2.1,1.7-3.3c0.3-0.5,0.7-1,1.2-1.5c-1.5,1-2.4,2.7-2.9,4.5c-0.2,0.6-0.3,1.2-0.4,1.7
		c0,0,0-0.1,0.1-0.4C191.8,49.5,191.9,49.2,192.1,48.8z"/>
	<path class="st0" d="M188.2,45.2c0,0,0,0.1-0.1,0.1C188.1,45.3,188.2,45.3,188.2,45.2C188.2,45.3,188.2,45.2,188.2,45.2z"/>
	<path class="st0" d="M224.4,58.3l-0.1,0C224.4,58.3,224.4,58.3,224.4,58.3z"/>
	<path class="st0" d="M201.2,36.8c0.2,0,0.4,0,0.5-0.1c-0.2,0-0.4,0-0.6,0C201.1,36.8,201.1,37,201.2,36.8z"/>
	<path class="st0" d="M218.1,162.2C218.1,162.2,218.1,162.2,218.1,162.2c0,0.1-0.1,0.3-0.1,0.4L218.1,162.2z"/>
	<path class="st0" d="M207.6,82.3l-0.2,0.2C207.5,82.5,207.6,82.4,207.6,82.3z"/>
	<path class="st0" d="M207.7,135.3C207.7,135.3,207.7,135.3,207.7,135.3"/>
	<path class="st0" d="M202.2,90.4L202.2,90.4C202.2,90.4,202.2,90.4,202.2,90.4L202.2,90.4z"/>
	<polygon class="st0" points="209,108.2 209,108.2 209.3,108.3 	"/>
	<path class="st0" d="M217.3,68.4l-0.3,0.1C217,68.6,217.1,68.6,217.3,68.4z"/>
	<path class="st0" d="M210.5,35.4C210.5,35.4,210.5,35.4,210.5,35.4"/>
	<path class="st0" d="M206.1,67.2L206.1,67.2C206.1,67.2,206.2,67.1,206.1,67.2L206.1,67.2z"/>
	<polygon class="st0" points="185.8,58.6 185.8,58.6 185.5,58.6 	"/>
	<path class="st0" d="M187.1,60.6c-0.2-0.5,0.6-0.5,0.7,0.2l-0.4,0c0.2,0.3,0.4,0.4,0.4,0.6c-0.3-0.1-0.5,0.1-0.2,0.5l-0.5-0.2
		c0.3,0.2,0.7,0.5,1,0.7c0,0.2,0.1,0.4,0.2,0.7c0.1,0.2,0.2,0.4,0.4,0.6c0.2,0.4,0.4,0.7,0.3,1c0,0,0,0.1,0.1,0.2
		c0.1,0.1,0.2,0.3,0.4,0.5c0.3,0.4,0.7,0.8,1,0.8c-0.5-0.1,0.1,0.7-0.4,0.8c0.4,0.1,0.9,0.4,1.4,0.8c0.2,0.2,0.4,0.4,0.5,0.7l-0.1,0
		c0.3,0.4,0.6,0.7,1,1c0.4,0.2,0.7,0.4,1.1,0.6c0.4,0.2,0.7,0.4,1.1,0.6s0.7,0.4,1,0.8c0.1-0.4,0.9,0.2,0.9-0.3
		c0.5,0.1,0.8,0.3,1.2,0.5c0.4,0.2,0.7,0.4,1,0.6c0.6,0.4,1.1,0.5,1.6-0.2c0.8,0.1,0.8,0.6,1.2,0.8l-0.2,0.1c0.1,0,0.3,0,0.4,0
		c-0.7,2.5,0.3,3.9,0.6,7c-0.2,2.8-0.9,3.6-0.6,6.4c-0.1,1.4,0.1,2.9,0.2,4.2c0.6,0.6,0,1.8,0.5,2.5l-0.3,0.3
		c0.2,0.3,0.3,0.6,0.1,0.8l-0.1,0c0.2,0.4,0.1,0.8,0.2,1l-0.1,0l0,0.5l-0.1-0.1c0.3,0.7,0.3,1.4,0.2,2l0.4-0.1
		c-0.4,1.3,0.4,1.8-0.1,3l-0.1,0c1.1,1.5-0.7,2.4,0.3,3.9c-0.1-0.2-0.2,0.1-0.3,0.1c0.1,0.7,0.2,1.5,1,1.5c0,0.5-0.2,0.4-0.6,0.5
		c0.3,0,0.5,0.4,0.5,0.9l-0.1-0.2l0.1,1.2l0.6-0.2c-0.2,0.6-0.8,0.2-0.6,0.8l0.5,0c-0.1,0.9-0.9,1.4-1.3,2.2
		c-0.2,3.4,1.1,7.2,0.2,10.4l-0.4,0.1c-0.6,0.1,0.9,0.9,0.3,1l0.3,0.4c-0.1,0.1-0.2,0.3-0.4,0.1c0,0.3,0.1,0.3,0.2,0.6l-0.4,0.4
		c-0.3,1.4,0.4,2.5,0.3,4c-0.8,1.7-0.1,5,0.3,6.8c0.9,2.6-1.5,5.7-0.5,8.4c-0.1,0.1,0.1,0.3,0.2,0.3l-0.1,2.5c0,0-0.2,11.9,4.6,2.9
		l0.1,0.1c0.3-1.4,0.4-2.2-0.3-3.1c0.8-0.1,0.1-1.1,0.3-1.4l0.1,0c-0.6-0.8,0.5-1.7,0-2.5c0.1,0,0.3,0.1,0.3,0.2
		c-0.1-0.6-0.3-1.4,0.2-1.4c-0.1-1.4,0.1-3.3-0.6-4.2l0.1,0.1c-0.5-0.5-0.1-0.6-0.3-1.2c0.1,0,0.1-0.1,0.1-0.1
		c-0.5-0.6-0.1-1.6-0.3-2l0.3,0l-0.1-1.1l-0.1,0.4c-0.8-0.1,0.5-0.8,0-1.6c0.1-0.7-1.8-1.5-1.3-2.3c-0.4-0.4,0.6,0.3,0.3-0.2
		c0.4,0,0.3,0.3,0.6,0.1c-0.2-0.5,0.4-0.9,0.1-1.6l0.3,0c-0.6-0.9,0.4-1.6-0.1-2.2c-0.3-0.9,1-0.6,0.4-1.5l0.5-0.4
		c0.1-0.4-0.6-0.3-0.3-0.7c0.3,0,0.2-0.6,0.5-0.3c0.4-1-0.6-2,0.1-3.3c-0.6-0.3-0.2-0.9-0.6-1.2c0.2,0,0-1.3,0.6-0.6
		c0,0.1,0,0.2-0.1,0.2l0.3,0.1c0.6-0.8-0.4-1.4-0.2-2.1c-0.1,0.2-0.1,0.5-0.3,0.3l0.1-0.7l0.3,0.1l0.2-1l-0.4,0.1
		c0.2-0.5,0.8-0.7,0.3-1.2c-0.3-0.3-0.5,0.5-0.6-0.1c0.2-0.7,0.6-1.7,0.7-2.5c-0.4,0.1-0.4-0.2-0.5-0.4l0.3,0
		c-0.5-0.9,0.8-0.3,0.4-1.2l-0.5-0.2c-0.7-0.8,0.7-0.4-0.2-1.3c0.1,0.4-0.8,0.2-0.6-0.3l0.3,0.1c-0.1-0.2-0.2-0.3-0.1-0.5
		c0.2,0.2,0.5,0.1,0.4-0.3l0.4,0.2l-0.6-0.7c0.4-0.5-0.1-1.4,0.4-1.6c0,0,0.2-1.1-0.3-1.4c0.3,0.2,0.4-0.4,0.8-0.2
		c-0.4-0.3-0.6-1.2-0.3-1.5l0,0.1c0.4-1.3-0.5-2.2-0.1-3.3c-0.4,0.1-0.2-0.6-0.7-0.4c-0.5-1.2,1-2.2-0.5-2.6
		c-0.1-0.5,0.4-0.6,0.4-0.9l0.1,0.1c-0.1-1-0.1-1.3-0.1-2.1c-0.1-0.4-0.9-0.4-0.7-1.1c0.3,0.2,0.2-0.1,0.2-0.3
		c0.1,0.2,0.1,0.2,0.4-0.1c-0.1-0.1-0.1-0.1-0.2-0.2c0,0,0,0,0.1,0c-0.1-0.4-0.2-0.3-0.2-0.2c0,0-0.1,0-0.2,0.1
		c0.4-0.4,0-1.2,0.5-1.3c-0.1-1.3-0.6-2.2-0.8-3.2c0.3-0.1,0.5,0.1,0.6,0.4l-0.1-0.7c0.4,0,0.2,0.4,0.3,0.7c0.6-0.9-0.6-1.8-0.1-2.9
		l-0.3-0.2l0.1-0.1c-0.1,0-0.4-0.2-0.4-0.4c0.3-0.2,0.7,0,0.7-0.5c0.3-0.4-0.1-1.2-0.3-1.7c-0.1,0.3-0.2,0.2-0.3,0.1
		c0-0.3,0.3-0.4,0.2-0.6l0.4,0c-0.4,0.1-0.4-0.7-0.6-0.8c0.3-0.2,0.3,0.4,0.5,0.5c0-1,0-0.5-0.1-1.6c-0.3-0.6-0.4,0.1-0.8-0.2
		c-0.1-0.5-0.4-1-0.1-1.5l-0.4,0.2c-0.3-0.9-0.2-1.5,0.1-2.1c-0.3-0.6-0.6-1.2-0.8-1.6c0.2-0.1,0.4-0.2,0.7-0.1
		c-0.3,0.3,0.1,0.2,0.5,0.2c-0.2,0.1-0.3,0.2,0.2,0.3c0.1-0.1,0.2-0.2,0.3-0.2c0,0,0,0,0,0.1c0.6-0.2,0.5-0.2,0.2-0.2
		c0-0.1,0-0.1-0.1-0.2c0.7,0.3,1.7-0.3,1.9,0.2c1.8-0.5,2.9-1.4,4.1-2.2c0.3,0.2,0.1,0.5-0.3,0.8l0.9-0.6c0.2,0.3-0.5,0.5-0.7,0.7
		c0.7,0,1.3-0.4,1.8-0.9c0.5-0.5,1-1,1.8-1.2l0.1-0.4l0.1,0c-0.1-0.1,0-0.5,0.2-0.7c0.4,0.1,0.5,0.6,1,0.1c0.3-0.1,0.6-0.4,0.9-0.8
		c0.1-0.1,0.1-0.2,0.2-0.3c0.2-0.3,0.3-0.6,0.5-0.9c-0.3,0.3-0.4,0.1-0.3-0.2c0.2-0.3,0.6-0.2,0.7-0.5l0.4,0.2
		c-0.4-0.1,0.2-1,0.2-1.2c0.4,0-0.1,0.6,0,0.8c0.9-1.2,0.4-0.6,1.2-1.9c0.1-0.8-0.4-0.1-0.6-0.6c0.3-0.6,0.2-1.3,0.8-1.9l-0.4,0.1
		c0.2-1.3,0.5-1.9,1-2.6c0-0.3-0.1-0.6-0.1-0.8c0-0.3-0.1-0.5-0.2-0.8c-0.1-0.5-0.2-0.9-0.4-1.2c-0.3-0.7-0.6-1.1-0.8-1.4
		c-0.5-0.6-1-0.5-1.3-0.2c-0.2,0.2-0.4,0.5-0.6,0.8c-0.1,0.1-0.1,0.3-0.2,0.4c-0.1,0.2-0.2,0.4-0.2,0.5c-0.1,0.1-0.1,0.2-0.1,0.2
		c-0.6,1.3-0.9,2.2-1.1,3.3c-0.3,1.1-0.5,2.3-1.5,3.8c-0.3,0.3-0.5,0.5-0.8,0.7c-0.2,0.2-0.5,0.3-0.7,0.5c-0.4,0.3-0.9,0.5-1.3,0.7
		c-0.9,0.4-1.7,0.8-3,1.5c-1.3,0.5-2.8,0.9-4.2,1.1c-0.2,0.2-0.4,0.2-0.6,0.3c-0.2,0-0.5,0-0.7,0c-0.2,0-0.5,0-0.7,0
		c-0.2,0-0.5,0-0.7,0.1l-0.3-0.4c-0.1,0.1-0.3,0.1-0.5,0.1c-0.1,0-0.3-0.1-0.4-0.2l0-0.1c-0.5,0.1-0.9-0.1-1.1-0.1l0.1-0.1l-0.5-0.1
		l0.1-0.1c-0.8,0-1.5-0.3-2-0.7l-0.1,0.4c-0.5-0.6-1-0.7-1.4-0.9c-0.2-0.1-0.4-0.2-0.6-0.4c-0.2-0.2-0.4-0.4-0.6-0.7l0.1-0.1
		c-1-0.1-1.3-0.8-1.6-1.4c-0.1-0.3-0.2-0.6-0.5-0.9c-0.2-0.3-0.5-0.5-0.9-0.8c0.2,0.1,0.1-0.2,0.2-0.2c-0.1-0.2-0.3-0.3-0.4-0.5
		c-0.1-0.2-0.2-0.3-0.4-0.4c-0.2-0.2-0.5-0.3-0.9-0.2c-0.3-0.5,0-0.5,0.3-0.7c-0.3,0.1-0.6-0.3-0.8-0.7l0.2,0.2
		c-0.2-0.3-0.3-0.7-0.4-1.1c0-0.1,0-0.1-0.1-0.2l-0.6,0.4c0-0.8,0.7-0.4,0.4-1l-0.5,0.1c0-0.5,0.1-1,0.3-1.4
		c0.1-0.2,0.3-0.5,0.4-0.8c0.1-0.2,0.2-0.3,0.2-0.5c0-1.3,0.1-2.7,0.3-4c0.1-0.6,0.2-1.2,0.4-1.7c0.5-1.8,1.5-3.5,2.9-4.5
		c0.1,0,0.1-0.1,0.2-0.2l0.4,0.2c0.2,0.2,0.2-0.1,0.3-0.5c0-0.3,0.1-0.7,0.3-0.5l0.1-0.3l0-0.2c0,0,0.1,0,0.1,0c0.1,0,0.3,0,0.2,0.2
		c0.3-0.2,0.3-0.3,0.4-0.6l0.5,0c0.7-0.3,1.2-0.7,1.8-1.1c0.6-0.4,1.2-0.8,2-1c1,0.1,2.3-0.2,3.7-0.3l0.5-0.1h0l0,0l0.4,0l0.1,0
		c0.4,0,0.7-0.1,1-0.1c0.3,0,0.7,0,1,0c0.2,0,0.3,0,0.4,0c0.1,0,0.3,0,0.4,0c1.6-0.1,3,0.9,4.2,2c1.2,1.2,2.1,2.4,3.4,3.2
		c0,0.1,0.3,0.2,0.3,0.2c0.2,0.4,0.6,0.7,0.8,1.1c0.2,0.4,0.5,0.8,0.6,1.2c0,0,0.1,0.2,0.2,0.5c0.1,0.2,0.2,0.3,0.3,0.5
		c0.1,0.2,0.2,0.5,0.3,0.7c0.5,1,0.8,2.3,1.2,3.3c0.3,1,0.8,1.8,1.5,1.6c0.3-0.1,0.7-0.5,1.1-1.2c0.1-0.2,0.2-0.4,0.3-0.7
		c0.1-0.2,0.2-0.5,0.3-0.8c0,0,0,0,0,0c0.1-0.3,0.2-0.6,0.3-1c0.1-0.4,0.1-0.8,0.1-1.2l0.1,0c-0.1-1-0.3-1.8-0.6-2.5
		c-0.3-0.7-0.8-1.2-1.3-1.7c0.6-0.6-0.8-1.4-0.8-1.9h0.1c-0.6-0.3-0.9-0.9-1.2-1.5c-0.3-0.5-0.6-1.1-1.2-1.3c0.1,0,0.3-0.2,0.4,0
		c-0.7-0.5-1.7-1.2-1.4-1.6c-0.4-0.3-0.9-0.6-1.4-1c-0.5-0.3-1-0.6-1.5-0.9c-1-0.5-2.1-0.8-2.8-0.7l0.1-0.1
		c-0.9,0.2-0.9-0.3-1.8-0.2c0-0.1-0.1-0.1-0.1-0.1c-0.4,0.2-1,0-1.6-0.1c-0.6-0.1-1.1-0.2-1.4-0.2l0-0.3c-0.5,0-1.1,0-1.6,0l0.6,0.1
		c-0.1,0.4-0.4,0.3-0.8,0.1s-1-0.3-1.5,0c-0.5,0-1,0.5-1.5,1c-0.2,0.2-0.4,0.5-0.7,0.6c-0.1,0.1-0.1,0.1-0.2,0.1
		c-0.2,0.1-0.3,0.1-0.5,0.1c-0.2,0.2-0.1,0.1-0.1-0.1c0-0.2,0.1-0.4-0.3-0.2c-0.1-0.4,0.3-0.3,0-0.6c-0.3,0.2-0.7,0.2-1,0.2
		c-0.4,0-0.7,0.1-1.1,0.4l-0.2-0.3c-0.5,0.5-1,0.7-1.6,0.8c-0.6,0.1-1,0.3-1.2,0.8c-0.9,0.9-1.3-0.4-2,1c-0.2,0-0.5,0-0.7,0
		c-0.5,0.3,0.1,0.7-0.6,1c-0.2-0.2-0.8,0.4-0.7-0.1c-0.7,0.4-1.1,1.1-1.6,1.8c-0.4,0.8-0.9,1.5-1.7,2.1c0.1,0.3,0,0.7-0.1,1
		c-0.1,0.3-0.2,0.6-0.1,0.8c0,0,0,0.1,0,0.1c0,0-0.1,0-0.1,0c-0.1,0.1-0.3,0.4-0.4,0.7c-0.2,0.3-0.3,0.5-0.4-0.2
		c0-0.1,0.1-0.3,0.2-0.2l-0.2-0.3c-0.6,0.4-0.6,1-0.7,1.5c0,0.3,0,0.5,0,0.8c0,0.3,0,0.5-0.1,0.8c0.2-0.3,0.3-0.7,0.4-0.4l-0.3,1
		l-0.2-0.3l-0.3,0.8c-0.1,0.2-0.1,0.5-0.2,0.8l0.4-0.2c-0.3,0.7-1,0.9-0.5,1.8c0.2,0.4,0.5-0.7,0.6,0.1c-0.1,0.5-0.4,1.1-0.5,1.8
		c-0.1,0.7-0.2,1.4-0.2,2.1c0.4-0.2,0.4,0.2,0.5,0.5l-0.3,0.1c0.7,1.3-0.7,0.7,0,2l0.5,0.1c0,0,0,0,0.1,0.1
		C187.2,59.7,185.8,59.6,187.1,60.6z"/>
</g>
</svg>
