<?xml version="1.0" encoding="utf-8"?>
<!-- Generator: Adobe Illustrator 23.0.1, SVG Export Plug-In . SVG Version: 6.00 Build 0)  -->
<svg version="1.1" id="Layer_1" xmlns="http://www.w3.org/2000/svg" xmlns:xlink="http://www.w3.org/1999/xlink" x="0px" y="0px"
	 viewBox="0 0 326 200" style="enable-background:new 0 0 326 200;" xml:space="preserve">
<style type="text/css">
	.st0{fill:none;}
	.st1{fill:#D2D2D2;}
	.st2{fill:#77E7FF;}
	.st3{fill:none;stroke:#77E7FF;stroke-width:0;stroke-linecap:round;stroke-linejoin:round;}
</style>
<g>
	<path class="st0" d="M143.72,148.81c0.06-0.02,0.11-0.04,0.17-0.06c-0.04-0.01-0.08-0.01-0.12-0.02
		C143.76,148.76,143.73,148.78,143.72,148.81z"/>
	<path class="st0" d="M151.19,134.81c0.96,0.14,1.98,0.17,3.03,0.26c2.11,0.07,4.37,0.12,6.59-0.06c4.46-0.27,8.73-1.17,11.76-1.71
		c2.46-0.69,4.55-1.69,6.54-2.78c1.98-1.11,3.84-2.32,5.91-3.55l1.28-0.46c0.62-0.65,0.56-0.77,1.54-1.5
		c-0.44,0.51,0.25,0.11,0.61-0.04l0.83-1.07c0.34,0.06,0.84-0.66,1.26-1.39c0.44-0.72,0.84-1.41,1.11-1.29l0.64-0.08
		c4.31-3.78,7.77-9.17,9.86-15.09c2.06-5.77,2.82-11.96,2.76-17.91c-0.36,0.13-0.71,0.24-1.09,0.34c-0.27,0.07-0.56,0.11-0.87,0.16
		c-0.3,0.04-0.64,0.06-0.97,0.08c-0.5,0.02-1.08,0.05-1.78,0.08l0.36-0.08c-0.77-0.08-1.05-0.53-2.55-0.45
		c-1.19,1.57-3.9,0.04-7.18,0.54c0.41,0.51-1.26,0.29-1.12,0.69c-1.59-0.24-3.01-0.12-4.48,0c-0.37,0.03-0.74,0.06-1.11,0.09
		c-0.18,0.01-0.36,0.03-0.55,0.04c-0.09,0.02-0.18,0.03-0.27,0.04c-0.35,0.06-0.7,0.14-1.1,0.26c0.02-0.03,0.03-0.06,0.05-0.08
		c-0.29-0.06-0.68,0.17-0.9,0.53c-0.23,0.35-0.26,0.78-0.16,1c-0.12-0.17-0.3-0.1-0.45,0c-0.17,0.09-0.29,0.22-0.41,0
		c0.11,0.14,0.12,0.32,0.15,0.53c0,0.1,0.01,0.22,0.02,0.33c0,0.17,0.01,0.35,0.01,0.53c0.01,0.87-0.05,1.65-0.05,1.65
		c-0.46,0.6-0.02,2.9-0.37,4.36l0.61,1.88l-0.41-0.67c0.06,1-0.25,1.19-0.42,0.78c-0.07,0.45,0.07,0.68,0.14,1.35l-0.33-0.31
		c-0.15,1.22,0.66,1.75,0.6,0.76c0.92,2.52-0.46,1.47,0.22,3.74l0.48,0.44c0,0,0,0,0,0l0.24,0.22l-0.24-0.22
		c0.38,2.51-0.85,0.91-0.37,3.44l-0.34,0.08c0.02,0.17,0.03,0.33,0.05,0.48c0.02,0.16,0.02,0.4,0.04,0.54
		c0.04,0.32,0.12,0.48,0.33,0.33c-0.11,0.9-0.36,1.82-0.78,2.68c-0.42,0.85-0.97,1.63-1.6,2.28c-1.27,1.31-2.86,2.04-4.14,2.33
		c-0.98,0.34-0.79,0.35-0.43,0.36c0.35,0.02,0.86-0.04,0.4,0.26c-1.07,0.59-1.94,0.59-2.65,0.5c-0.49-0.11-0.97-0.3-1.66-0.39
		l0.39,0.35l-2.85-0.16l0.4-0.28l-1.91-0.05c-0.54,0.23,0.27,0.2,0.88,0.31c-2.06-0.1-3.76,0.88-5.85,0.25l0.25-0.34
		c-0.02,0.1,0.29,0.1,0.47,0.06c2.06-0.54-1.52-0.33-1.62-0.58c-0.59,0.42-2.43,0.09-3.22,0.65c-0.91-0.19-1.78-0.27-2.6-0.28
		c-0.21,0-0.41,0-0.61,0l-0.3,0.01l-0.15,0.01l-0.09,0.01c-0.22,0.02-0.42,0.08-0.62,0.15c-0.78,0.3-1.24,0.83-1.85,1.26
		c0-0.24-0.11-0.18-0.26-0.07c-0.15,0.11-0.31,0.28-0.43,0.19c-0.27,0.28-0.23,0.47-0.15,0.62c0.07,0.16,0.18,0.3,0.08,0.59
		c-0.19,0.15-0.35,0.34-0.52,0.55c0.66,2.55-0.63,1.76-0.35,4.23c0.59,1.6-0.48,3.73,0.15,6.14l-0.34,0.08
		c0.07,0.44,0.08,0.82,0.07,1.17c0.32,0.05,0.65,0.11,0.99,0.17C150.24,134.7,150.71,134.75,151.19,134.81z"/>
	<path class="st0" d="M203.04,73.99l0.34,0.6c-0.46-1.4-1.23-2.85-1.53-2.71c0.17-0.33,0.58-0.12-0.2-1.84
		c-0.73,0.28-1.88-2.18-3.31-4.28c0.12-0.01-0.33-0.88,0.14-0.36c-1.87-2.09-2.99-3.89-4.21-5.66c-1.22-1.75-2.6-3.44-4.95-4.83
		l0.11-0.03c-0.36-0.4-0.7-0.75-1.03-1.08c-0.34-0.31-0.68-0.59-1-0.85c-0.64-0.53-1.29-0.93-1.95-1.35
		c-1.31-0.83-2.71-1.6-4.65-2.93l-0.03,0.43c-1.86-1.14-4.15-2.15-6.49-2.71l0.32-0.04l-1.6-0.49l0.08-0.07
		c-0.34-0.06-0.88-0.21-1.5-0.38c-0.62-0.17-1.33-0.35-2.03-0.37l0.08-0.08c-0.43-0.19-0.92-0.32-1.41-0.4
		c-0.5-0.06-1-0.08-1.47-0.08c-0.32-0.16-0.64-0.35-0.97-0.49c-0.68,0.04-1.43-0.01-2.21-0.07c-0.79-0.03-1.6-0.12-2.4-0.16
		c-0.04,0-0.08,0-0.13,0c0.09,0.23,0.19,0.48,0.29,0.75c-0.39,0.76-0.43,1.43-0.13,2.55l0.38-0.22c-0.26,0.69,0.04,1.27,0.13,1.87
		c0.38,0.32,0.46-0.48,0.79,0.2c0.04,1.27,0.02,0.63,0.06,1.91c-0.24-0.08-0.2-0.75-0.52-0.57c0.18,0.12,0.21,1.07,0.62,0.94
		l-0.43,0.03c0.14,0.24-0.18,0.43-0.17,0.74c0.11,0.15,0.29,0.27,0.34-0.09c0.17,0.66,0.64,1.58,0.33,2.08
		c0.02,0.63-0.4,0.44-0.72,0.62c0.05,0.19,0.26,0.48,0.41,0.47l0.16-0.26c-0.02,0.19-0.09,0.25-0.16,0.26l-0.05,0.08l0.29,0.27
		c-0.55,1.28,0.64,2.44,0.05,3.53c-0.07-0.28,0.08-0.8-0.29-0.81l0.09,0.92c-0.1-0.38-0.33-0.68-0.58-0.53
		c0.19,1.29,0.71,2.4,0.82,3.96c-0.5,0.06-0.1,1.02-0.47,1.56c0.08-0.07,0.14-0.09,0.18-0.08c0.04-0.24,0.13-0.33,0.23,0.19
		c-0.03-0.01-0.05,0.01-0.07,0.01c0.05,0.08,0.1,0.17,0.19,0.23c-0.19,0.41-0.3,0.35-0.35,0.15c0,0.31,0.05,0.65-0.24,0.38
		c-0.18,0.83,0.55,0.9,0.7,1.36c-0.04,0.92-0.02,1.29,0.11,2.53l-0.08-0.16c-0.08,0.34-0.53,0.47-0.45,1.13
		c1.57,0.53,0.03,1.73,0.54,3.19c0.51-0.18,0.29,0.56,0.69,0.5c-0.47,1.41,0.45,2.53,0.06,4.1l-0.04-0.08
		c-0.38,0.43-0.09,1.49,0.27,1.85c-0.37-0.22-0.49,0.55-0.81,0.27c0.51,0.32,0.28,1.71,0.28,1.71c-0.46,0.27-0.02,1.29-0.37,1.93
		l0.61,0.84l-0.41-0.3c0.06,0.44-0.25,0.53-0.42,0.35c-0.07,0.2,0.07,0.3,0.14,0.6l-0.33-0.14c-0.15,0.54,0.66,0.78,0.6,0.34
		c0.92,1.12-0.46,0.65,0.22,1.66l0.48,0.2v0l0.24,0.1l-0.24-0.1c0.02,0.08,0.04,0.11,0.05,0.21c0.01,0.11,0.02,0.21,0.02,0.29
		c0,0.17-0.01,0.3-0.04,0.4c-0.05,0.2-0.16,0.28-0.26,0.36c-0.2,0.17-0.39,0.28-0.15,1.37l-0.34-0.07c0.08,0.53,0.07,1.03,0.46,1.05
		c-0.06,1.09-0.2,2.2-0.36,3.1c-0.94-0.12-1.77-0.24-2.43-0.34c-1.04,0.11,0.62,0.3,0.26,0.58c-0.48,0.25-0.95,0.22-1.4,0.11
		c-0.45-0.11-0.9-0.3-1.46-0.39l0.4,0.35l-1.17-0.08c-0.37-0.03-0.84-0.05-0.98-0.08l0.18-0.28l-0.85-0.05
		c-0.24,0.23,0.12,0.2,0.39,0.31c-0.92-0.1-1.67,0.88-2.6,0.25l0.11-0.34c-0.01,0.1,0.13,0.1,0.21,0.06
		c0.92-0.54-0.68-0.33-0.72-0.58c-0.26,0.42-1.08,0.09-1.43,0.65c-1.62-0.77-2.89,0.33-4.12-0.12c0.32-0.28-0.4-0.22-0.37-0.51
		c-0.54-0.22-0.4,0.42-0.9,0.34l-0.45-0.46c-1.15,0.67-0.78-0.63-1.89-0.35c-0.71,0.59-1.66-0.48-2.73,0.15l-0.03-0.34
		c-0.82,0.3-1.24-0.36-1.91-0.15c-0.17-0.35,0.16-0.19,0.14-0.62c-0.68,0.3,0.17-0.73-0.28-0.34c-0.95-0.41-1.89,1.44-2.8,1.33
		c-0.98,0.54-1.82-0.82-1.99,0.02l0.5,0.07l-1.35,0.07l-0.04-0.31c-0.55,0.21-1.84-0.2-2.52,0.29c-0.02,0.01-0.04,0.02-0.06,0.04
		c0.02-0.02,0.04-0.02,0.06-0.04c0.01-0.03-0.04-0.06-0.08-0.12c-0.69,0.25-0.88-0.17-1.5,0.33l0.07-0.13
		c-1.09,0.73-3.46,0.52-5.16,0.64c-0.05-0.46-1.03-0.28-1.74-0.18c0.22-0.01,0.25-0.23,0.28-0.29c-0.98,0.54-2.05-0.57-3.06,0.04
		l0.04-0.06c-0.39-0.26-1.57,0.45-1.75-0.34c-1.14,0.65-2.19,0.58-3.85,0.27l0.07-0.13c-0.92-0.4-1.64-0.76-2.23-1.1
		c0.15,0.76,0.32,1.65,0.5,2.63c0.61,3.28,1.69,7.45,2.94,10.69c0.33,0.8,0.64,1.56,0.91,2.24c0.31,0.67,0.58,1.27,0.81,1.76
		c0.49,0.98,0.79,1.57,0.79,1.57c1.33,2.59,2.9,5.06,4.7,7.36c0.05-0.05,0.68,0.48,0.83,0.76c3.43,3.32,6.98,6.9,11.14,9.88
		c2.95,2.1,6.21,3.87,9.54,4.94c-0.11-2.89-0.49-5.5-0.27-8.45l0.37-1.03c-0.09-0.35-0.16-0.52-0.2-0.74
		c-0.02-0.11-0.04-0.22-0.05-0.37c0-0.19,0.01-0.47,0.03-0.81c0.1,0.75,0.23-0.13,0.42-0.51c-0.03-0.49,0.02-0.99,0.08-1.49
		c0.34-0.14,0.42-1.08,0.75-1.99c0.3-0.91,0.82-1.75,1.11-1.63c0.24-0.04,0.47-0.07,0.7-0.09c1.26-0.95,2.78-1.59,4.36-1.77
		c0.39-0.06,0.79-0.06,1.19-0.07l0.9,0.02c0.58,0.01,1.17,0.02,1.76,0.02c2.37,0.01,4.79-0.07,7.23-0.16c2.44-0.1,4.9-0.2,7.35-0.3
		l0.92-0.03l0.23-0.01c0.08,0,0.16,0,0.19-0.01l0.25-0.02c0.33-0.05,0.65-0.14,0.95-0.27c0.6-0.27,1.12-0.7,1.51-1.23
		c0.5-0.42,0.98-0.86,1.29-1.48c0.16-0.24,0.28-0.8,0.37-1.28c0.1-0.5,0.17-1.04,0.19-1.63l-0.54,0.02
		c-0.16-1.65,0.45-0.36,0.63-2.09l-0.65,0.64l-0.12-3.25l0.13,0.52c-0.02-1.13-0.16-2.39-0.51-2.38c0.3-0.19,0.54,0.08,0.55-1.37
		c-0.78-0.03-0.84-2.16-0.96-4.15c0.1,0.04,0.18-0.73,0.3-0.19c-0.25-1.08-0.33-2.04-0.32-2.94c0-0.23,0.01-0.44,0.02-0.67
		c0.02-0.32,0.05-0.64,0.1-0.95c0.11-0.62,0.28-1.21,0.52-1.77c0.47-1.12,1.15-2.12,1.99-3.04c0.85-0.92,1.86-1.79,3.21-2.58
		l-0.03,0.11c1.18-0.3,2.19-0.39,3.11-0.4c0.66,0,1.25-0.04,1.85-0.08c1.21-0.08,2.47-0.18,4.3,0.04l-0.14-0.4
		c1.72,0.12,3.67,0.1,5.56-0.16l-0.23,0.14l1.32-0.04l-0.05,0.1c0.54-0.12,1.76,0.02,2.85-0.23l-0.05,0.1
		c0.73,0.18,1.58,0.07,2.31-0.1l0.41,0.16c0.12,0.05,0.32,0.11,0.36,0.16c0.28-0.13,0.55-0.23,0.83-0.33
		c0.28-0.12,0.56-0.25,0.82-0.43c0.52-0.34,0.88-0.92,0.76-1.39l0,0.01l-0.01-0.09c0.01,0.02,0.01,0.05,0.02,0.08
		c0.06-0.2,0.12-0.39,0.12-0.6c0.02-0.1,0.01-0.21,0.01-0.31l0-0.08l0-0.17l-0.01-0.36c-0.01-0.2-0.01-0.4-0.02-0.59
		c-0.06-0.29-0.05-0.44-0.01-0.54c-0.01-0.38-0.02-0.75-0.03-1.13c-0.07,0.16-0.14,0.33-0.21,0.49
		C203.96,76.63,203.54,75.3,203.04,73.99z"/>
	<path class="st0" d="M142.64,47.3c-1.17,0.47-2.18,1-3.14,1.44c-0.93,0.5-1.81,0.9-2.59,1.36c-0.4,0.22-0.78,0.43-1.16,0.63
		c-0.37,0.22-0.72,0.43-1.07,0.64c-0.71,0.4-1.37,0.83-2.03,1.25c-2.62,1.71-5.21,3.52-8.5,7.21c-3.48,4.42-5.07,8.18-6.38,11.66
		c-0.62,1.76-1.2,3.48-1.72,5.32c-0.57,1.83-1.06,3.8-1.62,6.07c0,0-0.06,0.29-0.15,0.74c-0.1,0.46-0.24,1.08-0.36,1.77
		c-0.22,1-0.41,2.12-0.64,3c2.19-0.32,4.79-0.28,4.79-0.28l3.03,0.08c0-0.07,0.28-0.25,0.38-0.17c3.31-1.01,7.08,1.34,10.31,0.46
		c2.3-0.4,6.3-1.09,8.42-0.34c1.77,0.14,3.2-0.56,4.87-0.28l0.46,0.37c0.31-0.18,0.32-0.27,0.74-0.25
		c-0.23,0.13,0.04,0.24,0.17,0.35l0.46-0.27c0.15,0.54,1.17-0.92,1.24-0.33l0.17,0.4c1.89,0.45,3.93,0.37,6,0.2
		c0.52-0.05,1.04-0.1,1.56-0.15l0.78-0.07c0.17-0.01,0.18-0.02,0.22-0.04l0.11-0.03c0.29-0.09,0.5-0.14,0.79-0.12
		c0-0.04,0.01-0.09,0.02-0.13c0.2,0.03,0.5,0.09,0.77,0.02c0.27-0.06,0.5-0.25,0.55-0.57l-0.54-0.07c-0.08-0.18,0.03-0.19,0.19-0.21
		c0.15-0.01,0.35-0.08,0.44-0.45l-0.65,0.28l-0.12-1.44l0.13,0.23c-0.02-0.5-0.16-1.06-0.51-1.06c0.3-0.08,0.54,0.04,0.55-0.61
		c-0.78-0.01-0.84-0.96-0.96-1.84c0.1,0.02,0.18-0.32,0.3-0.08c-1-1.92,0.77-3-0.28-4.86l0.1,0.02c0.53-1.47-0.3-2.07,0.15-3.7
		l-0.4,0.06c0.12-0.76,0.1-1.63-0.16-2.47l0.14,0.1l-0.04-0.59l0.1,0.02c-0.12-0.24,0.02-0.78-0.23-1.27l0.1,0.02
		c0.18-0.32,0.07-0.7-0.1-1.03l0.33-0.36c-0.49-0.94,0.09-2.33-0.49-3.13v0.01l-0.04-0.08c0.02,0.02,0.02,0.05,0.04,0.07
		c-0.09-1.67-0.26-3.49-0.2-5.19c-0.3-3.58,0.44-4.49,0.64-7.94c-0.26-3.36-1.1-5.1-0.81-7.6c-0.04,0.01-0.08,0.02-0.13,0.03
		c0.04-0.01,0.08-0.02,0.13-0.03c0,0,0-0.01,0-0.01c-2.34,0.18-4.76,0.54-7.15,1.09C147.25,45.68,144.89,46.46,142.64,47.3z"/>
	<path class="st0" d="M153,145.88c2.64,0.12,5.46,0.2,8.25-0.01c5.58-0.3,10.95-1.44,14.72-2.2c3.07-0.88,5.7-2.1,8.2-3.43
		c2.49-1.36,4.84-2.85,7.41-4.43l1.55-0.66c0.8-0.78,0.74-0.91,1.97-1.83c-0.57,0.61,0.28,0.09,0.71-0.11l1.09-1.29
		c0.39,0.03,1.04-0.83,1.61-1.7c0.59-0.86,1.13-1.69,1.42-1.59l0.72-0.17c5.31-4.82,9.64-11.52,12.3-18.9
		c2.69-7.39,3.71-15.39,3.54-23.03c0.1-0.93,0.14-1.76,0.21-2.56c0.08-0.8,0.16-1.56,0.18-2.33c0.03-0.76,0.08-1.54,0.04-2.36
		c-0.05-0.82-0.13-1.69-0.28-2.65l-0.52,0.14c-0.77-2.57,0.33-0.67-0.17-3.45c-0.11,0.39-0.23,0.78-0.37,1.17
		c-0.47-1.69-0.99-3.36-1.61-4.99l0.4,0.76c-0.57-1.75-1.5-3.57-1.8-3.43c0.08-0.2,0.22-0.22,0.23-0.46
		c0.02-0.25-0.11-0.71-0.6-1.78c-0.47,0.17-1.21-1.01-2.14-2.56c-0.02,0.16-0.04,0.35-0.05,0.52c-0.02,0.35-0.02,0.7-0.01,1.04
		c0.03,0.69,0.1,1.36,0.18,2.02c0.15,1.32,0.3,2.59,0.01,3.82c-0.07-0.64,0.08-1.8-0.29-1.82l0.09,2.06
		c-0.1-0.84-0.33-1.52-0.58-1.2c0.19,2.91,0.71,5.41,0.82,8.91c-0.18,0.05-0.24,0.38-0.27,0.84c0.04,0.33,0.03,0.53-0.02,0.7
		c0,0.31,0,0.63-0.02,0.94c-0.01,0.2-0.02,0.34-0.06,0.57c0,0.01-0.01,0.02-0.01,0.04c0.02,0.09,0.04,0.2,0.07,0.3
		c0.04-0.32,0.07-0.53,0.11-0.49c0.03,0.02,0.1,0.35,0.06,1.11c0.02,0.07,0.04,0.13,0.06,0.21l-0.12,0.06
		c0.01,0.18,0.03,0.36,0.05,0.5c-0.04,0.1-0.08,0.18-0.12,0.26c0.13,0.63,0.25,1.08,0.52,0.81c0.32,3.43-0.04,7.45-0.51,10.06
		c-0.05,2.1,0.36-0.77,0.56,0.26c0.18,1.15,0.03,1.89-0.16,2.58c-0.1,0.35-0.22,0.68-0.34,1.05c-0.14,0.37-0.28,0.77-0.41,1.25
		l0.44-0.49c-0.15,0.67-0.28,1.34-0.45,2l-0.54,1.98l-0.15-0.62c-0.2,0.89-0.49,1.75-0.75,2.62c0.01,0.81,0.3-0.31,0.64-1.13
		c-0.85,2.8-0.79,5.48-2.62,7.98l-0.16-0.46c0.08,0.07,0.27-0.34,0.33-0.59c0.32-1.47,0.05-0.99-0.36-0.16
		c-0.43,0.82-0.96,2.02-1.12,2.02c0,0.47-0.37,1.25-0.75,2.07c-0.41,0.8-0.83,1.64-0.87,2.28c-1.7,2.03-2.96,3.95-4.24,5.71
		c-0.63,0.88-1.28,1.71-1.94,2.5c-0.7,0.75-1.37,1.5-2.18,2.09c0.55-0.9-1.09,0.74-1.21,0.45c-1.43,1-0.69,1.17-1.92,2.15
		l-1.41,0.53c-0.61,0.7-1.08,1.1-1.48,1.35c-0.39,0.25-0.69,0.35-1,0.44c-0.6,0.19-1.24,0.28-2.63,1.34
		c-0.82,0.81-2.02,1.4-3.37,1.93c-0.67,0.29-1.38,0.56-2.11,0.88c-0.36,0.16-0.72,0.34-1.08,0.53c-0.37,0.18-0.74,0.38-1.1,0.61
		l-0.22-0.28c-2.31,1.22-3.81,0.95-5.75,1.71c-0.61-0.2,0.45-0.31,0.27-0.72c-1.95,0.81,0.34-0.82-0.91-0.11
		c-0.74,0.06-1.43,0.27-2.12,0.53c-0.69,0.24-1.37,0.55-2.06,0.88c-1.38,0.6-2.79,1.22-4.24,1.25c-0.76,0.21-1.51,0.24-2.2,0.22
		c-0.69-0.02-1.34-0.09-1.89-0.2c-1.12-0.2-1.9-0.34-2.2,0.05c0.53,0.05,1.06,0.08,1.59,0.12c-1.42,0.01-2.84-0.09-4.26-0.2
		l-0.08-0.32c-0.87,0-2.31-0.22-3.78-0.53c-0.74-0.13-1.48-0.3-2.18-0.43c-0.05,0.91,0.24,1.82,0.58,2.73
		c0.44,1.13,0.57,2.72-0.12,3.9c-0.04,0.13-0.09,0.24-0.14,0.36c0.43,0.06,0.85,0.11,1.3,0.17
		C150.41,145.7,151.69,145.75,153,145.88z"/>
	<path class="st1" d="M120.21,39.94l0.89-0.49C121.04,39.4,120.81,39.51,120.21,39.94z"/>
	<path class="st1" d="M156.36,31.74c-0.02,0-0.03,0-0.05,0c-0.08,0.02-0.17,0.03-0.24,0.05C156.17,31.77,156.27,31.76,156.36,31.74z
		"/>
	<path class="st1" d="M114.56,132.8c-0.08-0.07-0.15-0.14-0.23-0.22C114.42,132.67,114.49,132.74,114.56,132.8z"/>
	<path class="st1" d="M110.28,49.82l0.09,0.04C110.36,49.83,110.33,49.81,110.28,49.82z"/>
	<path class="st1" d="M211.46,53.23c-0.08-0.12-0.18-0.28-0.3-0.46c-0.3-0.44-0.71-1.04-1.16-1.66c-0.92-1.22-2.03-2.5-2.62-2.82
		c0.97,0.63-0.92-1.74-0.08-1.33c-1.16-0.91-4.3-3.68-5.29-5.09l0.26,0.19c-2.17-2.26-4.34-3.86-6.53-5.24
		c-2.17-1.42-4.36-2.61-6.7-4.17c0.04,0.46-2.48-1.07-2.06-0.28c-0.66-0.28-1.31-0.54-1.94-0.81c-0.63-0.27-1.22-0.57-1.8-0.83
		c-1.18-0.5-2.23-1.07-3.24-1.46c-1.01-0.39-1.9-0.77-2.72-0.9c-0.82-0.15-1.53-0.14-2.13,0.1c-1.26-0.3-1.99-0.53-2.56-0.79
		c-0.57-0.25-0.99-0.48-1.65-0.63l0.63,0.03c-1.21-0.18-2.2-0.33-3.07-0.46c-0.87-0.1-1.61-0.18-2.32-0.26
		c-0.7-0.1-1.37-0.13-2.09-0.19c-0.72-0.04-1.48-0.15-2.38-0.17c-1.82,0.12-2.1,0.78-5.3,0.71c1.03-0.3-0.29-0.27-1.48-0.15
		c0.76-0.1,1-0.23-0.6-0.3c-0.22,0.11-0.56,0.19-0.87,0.26c-0.02-0.02-0.08-0.03-0.05-0.07c-2,0.29-1.63,0.38-0.7,0.29
		c-0.04,0.05,0.04,0.09,0.34,0.15c-1.05-0.08-2.49,0.11-3.71,0.28c-1.21,0.21-2.19,0.36-2.36,0.14c-2.96,0.67-5.44,1.48-7.71,2.45
		c-0.57,0.24-1.13,0.46-1.68,0.71c-0.55,0.26-1.09,0.52-1.63,0.77c-1.1,0.49-2.14,1.09-3.26,1.64c-0.62,0,0.34-0.69,1.64-1.38
		c-1.07,0.52-2.15,1.01-3.18,1.6c-0.07-0.17,0.36-0.45,0.93-0.76c0.58-0.28,1.3-0.59,1.79-0.85c-1.03,0.3-2.04,0.71-3.01,1.24
		c-0.49,0.26-0.97,0.54-1.46,0.82c-0.48,0.3-0.95,0.62-1.42,0.94c-1.92,1.26-3.79,2.71-5.97,3.95c-0.23,0.27-0.43,0.58-0.64,0.86
		l-0.26,0.14c0.11,0.11-0.64,0.96-1.18,1.45c-0.74,0.21-0.43-0.6-2.29,1.03c-0.85,0.52-1.81,1.53-2.8,2.62
		c-0.94,1.13-1.9,2.34-2.65,3.38c0.94-1,0.78-0.55,0.48-0.03c-0.79,0.93-1.51,1.25-1.98,2.1l-0.32-0.14
		c0.06,0.15-0.28,0.73-0.7,1.37c-0.49,0.78-1.03,1.66-1.1,1.9c-0.66,0.39,0.86-1.72,0.88-2.1c-1.44,2.01-1.79,2.52-2.12,3.04
		c-0.16,0.26-0.33,0.52-0.62,0.98c-0.28,0.46-0.72,1.1-1.31,2.18c-1.03,2.44,0.59-0.21,0.3,1.07c-1.08,2.04-1.77,4.18-3.06,6.48
		c0.22-0.21,0.46-0.41,0.69-0.61c-1.42,4.05-2.16,6.46-3.31,9.15c-0.62,3.97-0.62,7.08-0.55,9.42c0.08,1.18,0.15,2.16,0.26,2.99
		c0.13,0.82,0.26,1.48,0.38,2c0.51,2.07,0.97,1.94,1.3,0.79c0.37-1.1,0.62-3.11,0.95-4.83c0.13-0.86,0.29-1.65,0.41-2.23
		c0.11-0.58,0.17-0.94,0.17-0.94c0.65-2.86,1.25-5.35,1.96-7.66c0.31-1.17,0.71-2.27,1.04-3.39c0.37-1.1,0.76-2.19,1.16-3.3
		c1.7-4.37,3.78-9.03,8.17-14.55c4.1-4.64,7.32-6.95,10.58-9.14c0.83-0.54,1.65-1.09,2.54-1.59c0.44-0.26,0.89-0.53,1.34-0.81
		c0.47-0.26,0.95-0.52,1.45-0.8c0.98-0.58,2.08-1.09,3.25-1.71c1.2-0.55,2.49-1.2,3.96-1.79c2.83-1.07,5.8-2.04,8.84-2.71
		c3.03-0.68,6.11-1.13,9.07-1.33c0.7-0.16,1.54-0.26,2.46-0.32c0.92-0.04,1.91,0.01,2.93,0.03c1.01,0.05,2.03,0.16,3.02,0.2
		c0.98,0.08,1.92,0.16,2.77,0.14c0.42,0.15,0.82,0.36,1.23,0.54c0.58,0.02,1.21,0.06,1.84,0.14c0.62,0.11,1.23,0.27,1.77,0.49
		l-0.09,0.08c0.87,0.05,1.76,0.28,2.54,0.5c0.78,0.21,1.45,0.4,1.88,0.49l-0.1,0.07l2,0.63l-0.39,0.01
		c2.92,0.76,5.78,2.04,8.13,3.43l-0.01-0.45c2.47,1.62,4.2,2.6,5.83,3.66c0.82,0.52,1.62,1.04,2.42,1.7
		c0.41,0.33,0.83,0.66,1.26,1.05c0.42,0.4,0.85,0.84,1.31,1.32l-0.12,0.03c2.85,1.84,4.6,3.92,6.17,6.08
		c1.11,1.56,2.17,3.14,3.5,4.89c0.03-0.04,0.05-0.07,0.08-0.11C207.8,55.03,209.38,53.82,211.46,53.23z"/>
	<path class="st1" d="M136.81,145.16c0.65-0.05,1.36-0.1,2.11-0.16c0.38-0.03,0.76-0.06,1.16-0.08c0.2-0.01,0.4-0.03,0.6-0.04
		l0.3-0.02l0.18-0.03c0.49-0.08,0.96-0.27,1.38-0.54c-4.74-1.26-9.44-3.64-13.68-6.57c-5.25-3.64-9.77-8.09-13.97-12.33
		c-0.2-0.34-0.95-1.03-1-0.97c-2.25-2.88-4.23-5.96-5.9-9.2c0,0-0.09-0.18-0.27-0.52c-0.17-0.34-0.44-0.82-0.72-1.44
		c-0.29-0.62-0.63-1.37-1.01-2.21c-0.35-0.85-0.73-1.8-1.14-2.81c-0.73-2.04-1.53-4.34-2.11-6.68c-0.64-2.32-1.07-4.67-1.46-6.71
		c-0.34-2.05-0.62-3.8-0.85-4.96c-0.26-1.15-0.54-1.72-0.87-1.36c-0.16,0.18-0.33,0.59-0.51,1.27c-0.17,0.68-0.4,1.64-0.51,2.92
		c-0.06,0.64-0.14,1.36-0.19,2.17c-0.01,0.81-0.03,1.7-0.05,2.68c0.01,0.98,0.08,2.05,0.14,3.22c0.11,1.16,0.23,2.43,0.43,3.78
		l-0.2-0.25c0.37,1.58,0.69,3.02,1.12,4.32c0.38,1.32,0.84,2.49,1.29,3.61c0.44,1.12,0.99,2.12,1.51,3.1
		c0.55,0.97,1.17,1.88,1.82,2.8c-0.17,0.49,0.47,1.67,1.24,2.88c0.82,1.18,1.71,2.43,2.07,3.1l-0.14-0.08
		c1.38,1.45,2.5,3.14,3.71,4.77c1.2,1.63,2.48,3.21,4.03,4.35c-0.12-0.06-0.32,0.02-0.77-0.36c2.02,1.89,4.81,4.07,4.7,4.52
		c2.61,2.09,5.92,4.38,9.19,6.13c1.37,0.73,2.71,1.37,3.98,1.9C133.92,145.38,135.39,145.33,136.81,145.16z"/>
	<path class="st1" d="M213.09,57.38c-0.23,0.18-0.34,0.39,0.21,0.3c-0.49,0.18-1,0.55-1.38,0.95c-0.39,0.39-0.68,0.78-1.01,0.99
		c-0.24,0.39-0.38,0.5-0.55,0.51c-0.17,0.02-0.34-0.06-0.54,0.02c-0.08,0.33,0.02,0.84,0.18,0.86c0.08-0.12,0.17-0.23,0.25-0.35
		c-0.09,0.27-0.18,0.35-0.25,0.35l-0.06,0.11c0.08,0.15,0.14,0.3,0.24,0.44c-0.04,0.09-0.08,0.25-0.1,0.42
		c0.93,1.56,1.67,2.74,2.14,2.56c0.49,1.07,0.62,1.53,0.6,1.78c-0.01,0.24-0.14,0.26-0.23,0.46c0.3-0.14,1.23,1.69,1.8,3.43
		l-0.4-0.76c0.62,1.63,1.14,3.31,1.61,4.99c0.14-0.39,0.26-0.78,0.37-1.17c0.5,2.77-0.59,0.88,0.17,3.45l0.52-0.14
		c0.15,0.96,0.23,1.83,0.28,2.65c0.04,0.82-0.01,1.6-0.04,2.36c-0.02,0.76-0.11,1.53-0.18,2.33c-0.08,0.8-0.12,1.64-0.21,2.56
		c0.17,7.64-0.85,15.64-3.54,23.03c-2.65,7.39-6.99,14.09-12.3,18.9l-0.72,0.17c-0.29-0.1-0.83,0.73-1.42,1.59
		c-0.57,0.88-1.22,1.73-1.61,1.7l-1.09,1.29c-0.44,0.21-1.28,0.73-0.71,0.11c-1.23,0.92-1.17,1.05-1.97,1.83l-1.55,0.66
		c-2.57,1.58-4.92,3.07-7.41,4.43c-2.5,1.33-5.14,2.55-8.2,3.43c-3.77,0.77-9.13,1.9-14.72,2.2c-2.79,0.21-5.61,0.13-8.25,0.01
		c-1.31-0.13-2.6-0.18-3.79-0.37c-0.45-0.06-0.87-0.11-1.3-0.17c-0.51,1.23-1.58,2.02-2.43,2.42c-0.89,0.42-1.54,0.56-1.71,0.97
		c0.04,0.01,0.08,0.01,0.12,0.02c0.18-0.06,0.36-0.12,0.53-0.2c0.23-0.1,0.46-0.2,0.68-0.33c-0.34,0.21-0.69,0.39-1.06,0.55
		c0.29,0.05,0.58,0.09,0.9,0.15c0.86,0.16,1.77,0.39,2.69,0.54c1.81,0.38,3.59,0.63,4.65,0.66l0.1,0.32
		c1.74,0.13,3.49,0.27,5.23,0.26c-0.65-0.04-1.3-0.07-1.95-0.13c0.36-0.39,1.33-0.25,2.71-0.04c0.69,0.12,1.47,0.17,2.33,0.19
		c0.85,0.02,1.77-0.01,2.71-0.24c1.78-0.05,3.53-0.72,5.24-1.36c0.85-0.35,1.7-0.7,2.56-0.97c0.85-0.3,1.72-0.55,2.62-0.65
		c1.58-0.79-1.32,1,1.11,0.06c0.2,0.41-1.1,0.58-0.37,0.75c2.4-0.89,4.2-0.71,7.06-2.14l0.25,0.27c0.46-0.26,0.91-0.5,1.37-0.71
		c0.45-0.24,0.89-0.45,1.34-0.65c0.44-0.2,0.88-0.38,1.32-0.55c0.43-0.19,0.85-0.37,1.26-0.55c1.66-0.68,3.11-1.42,4.15-2.36
		c1.72-1.28,2.48-1.43,3.19-1.71c0.36-0.13,0.72-0.28,1.2-0.59c0.24-0.15,0.5-0.35,0.81-0.61c0.3-0.27,0.64-0.6,1.02-1.01
		c0.55-0.24,1.11-0.47,1.66-0.73c1.5-1.22,0.69-1.31,2.41-2.58c0.1,0.3,2.12-1.7,1.4-0.63c0.98-0.74,1.8-1.66,2.66-2.57
		c0.81-0.96,1.61-1.96,2.4-3.03c1.59-2.14,3.15-4.5,5.16-7.02c0.1-0.75,0.63-1.77,1.14-2.75c0.47-1,0.93-1.96,0.98-2.51
		c0.17-0.01,0.82-1.48,1.34-2.49c0.26-0.5,0.44-0.92,0.53-0.97c0.08-0.06,0.08,0.25-0.17,1.13c-0.09,0.3-0.32,0.8-0.39,0.73
		l0.13,0.53c2.1-3.11,2.23-6.31,3.26-9.75c-0.4,1-0.76,2.38-0.72,1.4c0.31-1.07,0.67-2.13,0.91-3.22l0.12,0.75l0.64-2.42
		c0.2-0.81,0.36-1.63,0.54-2.45l-0.47,0.62c0.15-0.59,0.31-1.09,0.47-1.54c0.14-0.45,0.26-0.86,0.37-1.29
		c0.21-0.85,0.39-1.75,0.22-3.16c-0.18-1.26-0.65,2.26-0.56-0.31c0.12-0.81,0.28-1.71,0.35-2.69c0.08-0.98,0.22-2.03,0.24-3.1
		c0.11-2.16,0.08-4.44-0.12-6.53c-0.34,0.43-0.47-0.68-0.69-1.82l0.32-0.18c-0.6-2.15-0.5-2.58-0.37-3.02
		c0.14-0.44,0.23-0.87-0.44-3l0.32,0.33c-0.33-0.32-0.63-0.65-0.97-0.96c-0.87-1.82-0.83-2.38-0.88-2.99
		c-0.06-0.6-0.12-1.28-1.32-3.18c0.67,1.61-0.4,1.01-1.05-1.01l0.5,0.38c-0.5-1.07-0.76-1.39-1.03-2.13
		c0.45,0.57,0.59,0.15-0.18-1.42l0.86,0.9c-0.64-0.93-1.26-1.85-1.96-2.73c-0.21-0.6-0.5-1.28-0.85-1.94
		c-0.17-0.31-0.35-0.62-0.53-0.93C213.57,57.36,213.35,57.32,213.09,57.38z"/>
	<path class="st1" d="M127.46,49.71l0.74-0.38C128.14,49.29,127.94,49.36,127.46,49.71z"/>
	<path class="st1" d="M156.82,44.07C156.82,44.06,156.82,44.06,156.82,44.07c-0.04,0-0.09,0.01-0.13,0.03
		C156.73,44.08,156.77,44.07,156.82,44.07z"/>
	<path class="st1" d="M153.55,139.32l0.08,0.32c1.42,0.1,2.84,0.21,4.26,0.2c-0.53-0.04-1.06-0.06-1.59-0.12
		c0.3-0.39,1.08-0.26,2.2-0.05c0.56,0.11,1.2,0.17,1.89,0.2c0.69,0.02,1.44-0.01,2.2-0.22c1.45-0.03,2.86-0.66,4.24-1.25
		c0.69-0.32,1.37-0.64,2.06-0.88c0.69-0.26,1.38-0.47,2.12-0.53c1.26-0.71-1.04,0.92,0.91,0.11c0.18,0.41-0.88,0.52-0.27,0.72
		c1.94-0.76,3.44-0.49,5.75-1.71l0.22,0.28c0.37-0.23,0.73-0.43,1.1-0.61c0.36-0.2,0.72-0.37,1.08-0.53
		c0.72-0.31,1.44-0.59,2.11-0.88c1.36-0.53,2.55-1.12,3.37-1.93c1.39-1.06,2.03-1.14,2.63-1.34c0.3-0.09,0.61-0.2,1-0.44
		c0.39-0.24,0.87-0.64,1.48-1.35l1.41-0.53c1.24-0.98,0.5-1.15,1.92-2.15c0.12,0.29,1.75-1.35,1.21-0.45
		c0.81-0.59,1.49-1.34,2.18-2.09c0.66-0.78,1.3-1.61,1.94-2.5c1.28-1.76,2.54-3.69,4.24-5.71c0.04-0.64,0.46-1.48,0.87-2.28
		c0.38-0.82,0.75-1.6,0.75-2.07c0.16,0,0.69-1.19,1.12-2.02c0.41-0.83,0.69-1.31,0.36,0.16c-0.06,0.25-0.26,0.66-0.33,0.59
		l0.16,0.46c1.82-2.5,1.76-5.18,2.62-7.98c-0.35,0.81-0.64,1.94-0.64,1.13c0.26-0.87,0.55-1.74,0.75-2.62l0.15,0.62l0.54-1.98
		c0.17-0.66,0.3-1.33,0.45-2l-0.44,0.49c0.13-0.48,0.27-0.88,0.41-1.25c0.13-0.37,0.24-0.7,0.34-1.05c0.19-0.69,0.34-1.43,0.16-2.58
		c-0.2-1.03-0.61,1.84-0.56-0.26c0.47-2.61,0.83-6.63,0.51-10.06c-0.26,0.27-0.39-0.18-0.52-0.81c-0.18,0.38-0.3,0.54-0.36,0.55
		c-0.07,0.01-0.02-0.18,0.03-0.47c-0.25,0.89-0.69,1.78-0.6,0.96c-0.58,1.03-0.88,1.59-1.1,2.11c-0.22,0.51-0.36,0.97-0.89,1.46
		c-0.78,0.55-1.46,0.89-2.15,1.14c0.06,5.95-0.7,12.14-2.76,17.91c-2.08,5.92-5.54,11.31-9.86,15.09l-0.64,0.08
		c-0.28-0.12-0.68,0.57-1.11,1.29c-0.42,0.73-0.92,1.45-1.26,1.39l-0.83,1.07c-0.36,0.15-1.05,0.55-0.61,0.04
		c-0.98,0.73-0.92,0.85-1.54,1.5l-1.28,0.46c-2.07,1.23-3.93,2.44-5.91,3.55c-1.99,1.08-4.08,2.09-6.54,2.78
		c-3.03,0.54-7.3,1.44-11.76,1.71c-2.22,0.18-4.48,0.14-6.59,0.06c-1.05-0.09-2.08-0.12-3.03-0.26c-0.48-0.06-0.95-0.11-1.4-0.17
		c-0.34-0.06-0.67-0.11-0.99-0.17c-0.04,1.15-0.38,1.98-0.22,3.12c-0.35,0.39-0.19-0.37-0.62-0.32c0.3,1.52-0.73-0.39-0.34,0.63
		c-0.03,0.15-0.02,0.3-0.03,0.45c0.7,0.13,1.44,0.31,2.18,0.43C151.24,139.1,152.68,139.31,153.55,139.32z"/>
	<path class="st1" d="M144.47,133.5c-3.33-1.07-6.59-2.84-9.54-4.94c-4.16-2.98-7.71-6.56-11.14-9.88
		c-0.15-0.28-0.77-0.81-0.83-0.76c-1.8-2.3-3.37-4.77-4.7-7.36c0,0-0.3-0.59-0.79-1.57c-0.23-0.5-0.5-1.09-0.81-1.76
		c-0.28-0.68-0.59-1.44-0.91-2.24c-1.25-3.24-2.33-7.42-2.94-10.69c-0.18-0.99-0.35-1.87-0.5-2.63c-0.87-0.49-1.42-0.92-1.7-1.29
		c-0.17,0.54-0.38,1.28-0.5,2.25c-0.07,0.52-0.16,1.1-0.22,1.76c-0.04,0.65-0.08,1.38-0.11,2.18c-0.02,0.8,0.02,1.67,0.04,2.63
		c0.06,0.95,0.13,1.98,0.27,3.09l-0.19-0.2c1.1,5.17,2.46,8.35,4.72,11.24c-0.2,0.44,0.32,1.4,0.95,2.38
		c0.68,0.96,1.42,1.96,1.69,2.52l-0.12-0.06c1.17,1.15,2.06,2.54,3.02,3.88c0.96,1.34,1.98,2.65,3.28,3.54
		c-0.11-0.04-0.29,0.05-0.67-0.26c1.66,1.53,3.95,3.29,3.81,3.72c2.14,1.7,4.83,3.57,7.51,4.99c2.67,1.42,5.28,2.41,7.03,2.67
		l-0.27,0.03c1,0.15,1.62,0.3,2.24,0.53c0.36,0.14,0.74,0.27,1.2,0.4c0.05-0.59,0.11-1.15,0.19-1.65
		C144.52,135.15,144.5,134.32,144.47,133.5z"/>
	<path class="st1" d="M204.61,79.15c0-0.18-0.01-0.36-0.01-0.54C204.55,78.72,204.55,78.86,204.61,79.15z"/>
	<path class="st1" d="M119.36,57.74l0.09,0.04C119.43,57.75,119.41,57.73,119.36,57.74z"/>
	<path class="st1" d="M209.99,78.17c-0.01,0.16-0.01,0.34-0.01,0.52c0,0.06,0,0.12,0,0.18C210.02,78.71,210.04,78.5,209.99,78.17z"
		/>
	<path class="st1" d="M210.12,81.34c0,0.01,0,0.01,0,0.02c-0.03-0.03-0.05,0.02-0.08,0.02c0,0.07,0.01,0.15,0.01,0.22l0.12-0.06
		C210.16,81.47,210.14,81.41,210.12,81.34z"/>
	<path class="st1" d="M122.77,125.34c-0.06-0.06-0.12-0.11-0.18-0.17C122.66,125.24,122.72,125.29,122.77,125.34z"/>
	<path class="st1" d="M209.75,81.01c0.09-0.21,0.15-0.26,0.19-0.22c0-0.02,0.01-0.04,0.01-0.06c-0.03-0.11-0.05-0.21-0.07-0.3
		C209.85,80.63,209.8,80.83,209.75,81.01z"/>
	<path class="st1" d="M113.91,85.39c0.12-0.69,0.26-1.31,0.36-1.77c0.09-0.46,0.15-0.74,0.15-0.74c0.56-2.27,1.05-4.24,1.62-6.07
		c0.53-1.85,1.1-3.56,1.72-5.32c1.31-3.49,2.9-7.24,6.38-11.66c3.29-3.69,5.89-5.49,8.5-7.21c0.66-0.42,1.32-0.85,2.03-1.25
		c0.35-0.21,0.71-0.42,1.07-0.64c0.37-0.2,0.76-0.41,1.16-0.63c0.78-0.46,1.66-0.86,2.59-1.36c0.96-0.44,1.97-0.96,3.14-1.44
		c2.25-0.84,4.61-1.62,7.03-2.16c2.39-0.55,4.81-0.91,7.15-1.09c0.05-0.41,0.12-0.84,0.24-1.31c0,0,1.07-6.2,3.98,1.02
		c0.04,0,0.08,0,0.13,0c0.81,0.04,1.62,0.13,2.4,0.16c0.78,0.06,1.53,0.11,2.21,0.07c0.33,0.14,0.65,0.33,0.97,0.49
		c0.47,0,0.97,0.02,1.47,0.08c0.49,0.08,0.98,0.22,1.41,0.4l-0.08,0.08c0.7,0.02,1.41,0.19,2.03,0.37c0.62,0.17,1.16,0.32,1.5,0.38
		L173,45.86l1.6,0.49l-0.32,0.04c2.34,0.56,4.63,1.57,6.49,2.71l0.03-0.43c1.95,1.33,3.34,2.1,4.65,2.93
		c0.66,0.41,1.3,0.82,1.95,1.35c0.32,0.26,0.66,0.53,1,0.85c0.33,0.33,0.67,0.68,1.03,1.08l-0.11,0.03
		c2.34,1.39,3.72,3.08,4.95,4.83c1.22,1.78,2.35,3.57,4.21,5.66c-0.47-0.52-0.02,0.36-0.14,0.36c1.43,2.1,2.57,4.56,3.31,4.28
		c0.78,1.72,0.37,1.51,0.2,1.84c0.3-0.14,1.07,1.31,1.53,2.71l-0.34-0.6c0.51,1.31,0.93,2.64,1.31,3.99
		c0.08-0.16,0.14-0.33,0.21-0.49c-0.01-0.23-0.01-0.46-0.02-0.69c-0.05-1.97-0.07-3.96-0.04-5.88c-0.08-2.23-0.09-3.99-0.04-5.56
		c-0.1-0.25-0.22-0.5-0.35-0.75c-0.29-0.54-0.61-1.08-0.91-1.6c-0.61-1.02-1.19-1.87-1.22-2.37c0,0-0.13-0.25-0.38-0.61
		c-0.24-0.36-0.57-0.85-0.94-1.36c-0.75-1-1.67-2.03-2.19-2.26c0.83,0.48-0.69-1.47,0.05-1.18c-1-0.7-3.6-2.93-4.36-4.13l0.22,0.15
		c-1.75-1.87-3.54-3.16-5.35-4.27c-1.79-1.14-3.59-2.09-5.47-3.41c0,0.44-2.04-0.84-1.74-0.12c-1.09-0.42-2.12-0.85-3.05-1.32
		c-0.95-0.42-1.81-0.9-2.63-1.23c-1.62-0.71-2.98-1.07-3.99-0.54c-1.02-0.24-1.62-0.44-2.08-0.67c-0.46-0.22-0.8-0.44-1.33-0.57
		l0.51,0.01c-0.98-0.14-1.8-0.26-2.5-0.36c-0.71-0.08-1.32-0.14-1.89-0.2c-0.57-0.08-1.12-0.1-1.7-0.15
		c-0.58-0.04-1.21-0.12-1.94-0.14c-1.48,0.12-1.71,0.8-4.31,0.71c0.83-0.3-0.23-0.26-1.21-0.17c0.62-0.09,0.81-0.21-0.49-0.31
		c-0.17,0.1-0.45,0.18-0.71,0.24c-0.01-0.02-0.07-0.04-0.04-0.07c-1.62,0.25-1.32,0.35-0.57,0.28c-0.03,0.05,0.04,0.1,0.28,0.16
		c-0.86-0.1-2.03,0.06-3.02,0.19c-0.98,0.17-1.78,0.28-1.93,0.06c-2.41,0.56-4.42,1.25-6.25,2.06c-1.85,0.78-3.52,1.68-5.31,2.61
		c-0.53-0.04,0.24-0.64,1.28-1.22c-0.87,0.43-1.75,0.83-2.58,1.32c-0.07-0.17,0.28-0.41,0.74-0.66c0.47-0.23,1.06-0.48,1.46-0.69
		c-0.85,0.22-1.68,0.54-2.46,0.99c-0.4,0.21-0.79,0.44-1.18,0.68c-0.39,0.25-0.76,0.52-1.15,0.78c-1.55,1.05-3.05,2.26-4.85,3.22
		c-0.17,0.24-0.33,0.5-0.49,0.74l-0.22,0.11c0.1,0.11-0.48,0.84-0.91,1.24c-0.64,0.12-0.44-0.6-1.95,0.73
		c-0.71,0.4-1.49,1.23-2.28,2.13c-0.75,0.93-1.51,1.94-2.11,2.79c0.77-0.81,0.67-0.42,0.44,0.02c-0.64,0.76-1.27,0.98-1.63,1.68
		l-0.31-0.15c0.07,0.14-0.2,0.62-0.52,1.15c-0.39,0.64-0.82,1.37-0.86,1.56c-0.59,0.28,0.66-1.43,0.64-1.76
		c-1.17,1.64-1.45,2.05-1.72,2.48c-0.25,0.44-0.57,0.83-1.57,2.58c-0.78,2.02,0.55-0.13,0.37,0.94c-0.86,1.66-1.37,3.42-2.46,5.26
		l0.63-0.46c-1.1,3.3-1.7,5.24-2.7,7.4c-0.43,3.24-0.36,5.76-0.24,7.65c0.1,0.95,0.18,1.75,0.3,2.41c0.13,0.66,0.26,1.2,0.39,1.61
		c0.01,0.04,0.02,0.07,0.04,0.1c0.45-0.13,0.98-0.24,1.54-0.32C113.51,87.51,113.7,86.38,113.91,85.39z"/>
	<path class="st2" d="M210.25,60.68c-0.08,0.11-0.17,0.22-0.25,0.35C210.07,61.03,210.16,60.95,210.25,60.68z"/>
	<path class="st2" d="M135.45,149.42c-0.05,0.01-0.1,0.02-0.14,0.04C135.41,149.44,135.44,149.43,135.45,149.42z"/>
	<path class="st2" d="M204.5,81.29l0-0.01c-0.01-0.03-0.01-0.05-0.02-0.08L204.5,81.29z"/>
	<path class="st2" d="M233.52,52.27c-3.71-0.42-6.53-0.36-9.52-0.15c-1.49,0.12-3.04,0.24-4.75,0.38c-0.86,0.06-1.76,0.12-2.73,0.19
		c-0.48,0.03-0.98,0.05-1.5,0.08c-0.26,0.01-0.52,0.02-0.79,0.03c-0.18,0.01-0.36,0.02-0.54,0.03c-0.2,0.02-0.4,0.02-0.61,0.06
		c-0.58,0.06-1.11,0.18-1.63,0.33c-2.08,0.59-3.66,1.8-4.73,3.12c-0.03,0.04-0.05,0.07-0.08,0.11c-0.63,0.81-1.11,1.67-1.45,2.56
		c-0.34,0.93-0.52,1.92-0.57,2.85c-0.08,1.11-0.14,2.24-0.17,3.49c-0.04,1.56-0.04,3.32,0.04,5.56c-0.03,1.92,0,3.91,0.04,5.88
		c0.01,0.23,0.01,0.46,0.02,0.69c0.01,0.38,0.02,0.75,0.03,1.13c0,0.18,0.01,0.36,0.01,0.54c0.01,0.2,0.01,0.4,0.02,0.59l0.01,0.36
		l0,0.17l0,0.08c0,0.11,0.01,0.21-0.01,0.31c-0.01,0.21-0.07,0.41-0.12,0.6c0.12,0.47-0.24,1.05-0.76,1.39
		c-0.26,0.17-0.54,0.31-0.82,0.43c-0.28,0.1-0.56,0.21-0.83,0.33c-0.04-0.05-0.24-0.11-0.36-0.16l-0.41-0.16
		c-0.73,0.17-1.58,0.28-2.31,0.1l0.05-0.1c-1.09,0.25-2.31,0.1-2.85,0.23l0.05-0.1l-1.32,0.04l0.23-0.14
		c-1.89,0.26-3.84,0.28-5.56,0.16l0.14,0.4c-1.84-0.22-3.09-0.13-4.3-0.04c-0.61,0.04-1.19,0.08-1.85,0.08
		c-0.92,0.01-1.93,0.09-3.11,0.4l0.03-0.11c-1.36,0.78-2.37,1.66-3.21,2.58c-0.84,0.92-1.52,1.91-1.99,3.04
		c-0.23,0.56-0.41,1.15-0.52,1.77c-0.05,0.31-0.07,0.63-0.1,0.95c-0.01,0.22-0.02,0.44-0.02,0.67c-0.01,0.9,0.07,1.86,0.32,2.94
		c-0.12-0.54-0.21,0.23-0.3,0.19c0.11,1.99,0.17,4.12,0.96,4.15c-0.01,1.45-0.24,1.18-0.55,1.37c0.34-0.01,0.49,1.25,0.51,2.38
		l-0.13-0.52l0.12,3.25l0.65-0.64c-0.19,1.72-0.79,0.44-0.63,2.09l0.54-0.02c-0.03,0.6-0.1,1.13-0.19,1.63
		c-0.1,0.49-0.22,1.04-0.37,1.28c-0.31,0.61-0.79,1.05-1.29,1.48c-0.38,0.53-0.91,0.96-1.51,1.23c-0.3,0.13-0.62,0.21-0.95,0.27
		l-0.25,0.02c-0.03,0.01-0.11,0.01-0.19,0.01l-0.23,0.01l-0.92,0.03c-2.45,0.1-4.91,0.2-7.35,0.3c-2.44,0.1-4.86,0.17-7.23,0.16
		c-0.59-0.01-1.18-0.02-1.76-0.02l-0.9-0.02c-0.4,0.01-0.8,0.01-1.19,0.07c-1.58,0.18-3.1,0.82-4.36,1.77
		c-0.23,0.02-0.46,0.05-0.7,0.09c-0.29-0.12-0.81,0.72-1.11,1.63c-0.33,0.9-0.41,1.84-0.75,1.99c-0.07,0.5-0.11,1-0.08,1.49
		c-0.19,0.38-0.32,1.25-0.42,0.51c-0.03,0.34-0.04,0.62-0.03,0.81c0.01,0.15,0.02,0.26,0.05,0.37c0.04,0.21,0.11,0.39,0.2,0.74
		l-0.37,1.03c-0.22,2.95,0.16,5.56,0.27,8.45c0.03,0.82,0.04,1.65,0.01,2.52c-0.08,0.5-0.14,1.06-0.19,1.65
		c-0.07,0.81-0.11,1.67-0.13,2.6c0,0.2-0.01,0.4-0.01,0.6c0,0.18,0,0.47-0.01,0.53c-0.01,0.22-0.03,0.44-0.08,0.66
		c-0.09,0.43-0.27,0.86-0.54,1.25c-0.25,0.38-0.6,0.71-0.99,0.96c-0.42,0.27-0.89,0.46-1.38,0.54l-0.18,0.03l-0.3,0.02
		c-0.2,0.01-0.4,0.03-0.6,0.04c-0.4,0.03-0.78,0.06-1.16,0.08c-0.75,0.06-1.46,0.11-2.11,0.16c-1.42,0.17-2.89,0.22-4.38,0.19
		c-2.34-0.04-4.75-0.26-7.16-0.47l-1.49-0.13l-0.74-0.06c-0.26-0.02-0.45-0.05-0.86-0.04c-1.43-0.01-2.9,0.34-4.15,1.06
		c-2.56,1.38-4.19,4.22-4.15,6.93c-0.05,0.17-0.04,0.49-0.01,0.75c0.04,0.2,0.11,0.35,0.14,0.34l-0.08,6.83
		c0,0-0.23,33.11,4.65,7.95l0.13,0.17c0.31-3.74,0.38-6.09-0.27-8.67c0.79-0.41,0.08-3.07,0.34-3.94l0.06,0.08
		c-0.15-0.57-0.2-1.15-0.19-1.73c0.01-0.29,0.02-0.58,0.05-0.87c0.01-0.17,0.04-0.23,0.06-0.33c0.03-0.09,0.03-0.18,0.07-0.27
		c0.23-0.72,0.61-1.22,0.82-1.92c0.02,0.08,0.17,0.24,0.01,0.48c0.2-0.41,0.56-0.87,0.95-1.11c0.38-0.25,0.74-0.28,0.84-0.08
		c0.23-0.11,0.5-0.16,0.78-0.21l0.21-0.01l0.11-0.01l0.2,0c0.26,0,0.53,0,0.8-0.01c1.08-0.01,2.18-0.03,3.24-0.04
		c2.12-0.05,4.07-0.18,5.29-0.55l-0.17,0.13c1.4-0.5,1.81-0.07,3.37-0.33c0.09,0.06,0.2,0.09,0.18,0.12
		c0.76-0.24,1.87-0.26,2.94-0.25c0.54,0.01,1.06,0.02,1.53,0.03c0.24,0,0.46,0,0.66-0.01c0.21-0.01,0.35-0.02,0.58-0.06l0.11,0.3
		c0.95-0.05,1.89-0.28,2.77-0.65c0.37-0.16,0.72-0.33,1.06-0.55c-0.22,0.13-0.45,0.23-0.68,0.33c-0.17,0.08-0.35,0.14-0.53,0.2
		c-0.06,0.02-0.11,0.05-0.17,0.06c0.01-0.03,0.04-0.05,0.05-0.08c0.17-0.4,0.82-0.55,1.71-0.97c0.85-0.4,1.92-1.19,2.43-2.42
		c0.05-0.12,0.1-0.23,0.14-0.36c0.68-1.18,0.56-2.77,0.12-3.9c-0.34-0.9-0.63-1.81-0.58-2.73c0.01-0.15,0-0.3,0.03-0.45
		c-0.39-1.02,0.64,0.9,0.34-0.63c0.44-0.05,0.27,0.71,0.62,0.32c-0.16-1.14,0.18-1.97,0.22-3.12c0.01-0.36,0-0.74-0.07-1.17
		l0.34-0.08c-0.62-2.4,0.45-4.54-0.15-6.14c-0.28-2.47,1.01-1.68,0.35-4.23c0.17-0.21,0.33-0.4,0.52-0.55
		c0.1-0.29-0.02-0.43-0.08-0.59c-0.08-0.16-0.13-0.34,0.15-0.62c0.12,0.09,0.28-0.08,0.43-0.19c0.15-0.11,0.26-0.17,0.26,0.07
		c0.61-0.42,1.07-0.96,1.85-1.26c0.19-0.07,0.4-0.13,0.62-0.15l0.09-0.01l0.15-0.01l0.3-0.01c0.2,0,0.41,0,0.61,0
		c0.82,0.01,1.69,0.09,2.6,0.28c0.79-0.57,2.63-0.23,3.22-0.65c0.1,0.25,3.68,0.04,1.62,0.58c-0.18,0.04-0.49,0.04-0.47-0.06
		l-0.25,0.34c2.08,0.63,3.78-0.35,5.85-0.25c-0.61-0.11-1.42-0.08-0.88-0.31l1.91,0.05l-0.4,0.28l2.85,0.16l-0.39-0.35
		c0.7,0.09,1.17,0.28,1.66,0.39c0.71,0.08,1.58,0.08,2.65-0.5c0.47-0.3-0.04-0.24-0.4-0.26c-0.36-0.02-0.55-0.02,0.43-0.36
		c1.28-0.29,2.87-1.02,4.14-2.33c0.63-0.65,1.19-1.43,1.6-2.28c0.41-0.85,0.66-1.78,0.78-2.68c-0.21,0.15-0.29-0.02-0.33-0.33
		c-0.02-0.14-0.03-0.38-0.04-0.54c-0.02-0.15-0.03-0.31-0.05-0.48l0.34-0.08c-0.47-2.53,0.75-0.93,0.37-3.44l-0.48-0.44
		c-0.68-2.26,0.71-1.22-0.22-3.74c0.06,0.99-0.75,0.47-0.6-0.76l0.33,0.31c-0.07-0.68-0.21-0.9-0.14-1.35
		c0.18,0.4,0.48,0.21,0.42-0.78l0.41,0.67l-0.61-1.88c0.35-1.45-0.09-3.76,0.37-4.36c0,0,0.06-0.78,0.05-1.65
		c0-0.17-0.01-0.35-0.01-0.53c-0.01-0.11-0.02-0.23-0.02-0.33c-0.03-0.21-0.04-0.39-0.15-0.53c0.12,0.22,0.24,0.09,0.41,0
		c0.15-0.1,0.32-0.17,0.45,0c-0.09-0.22-0.07-0.65,0.16-1c0.22-0.36,0.62-0.59,0.9-0.53c-0.02,0.02-0.04,0.05-0.05,0.08
		c0.41-0.12,0.75-0.2,1.1-0.26c0.09-0.01,0.18-0.02,0.27-0.04c0.18-0.01,0.37-0.03,0.55-0.04c0.38-0.03,0.75-0.06,1.11-0.09
		c1.47-0.12,2.89-0.24,4.48,0c-0.14-0.4,1.53-0.18,1.12-0.69c3.29-0.5,6,1.03,7.18-0.54c1.5-0.08,1.77,0.37,2.55,0.45l-0.36,0.08
		c0.7-0.03,1.28-0.05,1.78-0.08c0.33-0.02,0.67-0.04,0.97-0.08c0.3-0.05,0.59-0.09,0.87-0.16c0.37-0.09,0.73-0.21,1.09-0.34
		c0.69-0.25,1.38-0.59,2.15-1.14c0.53-0.5,0.67-0.95,0.89-1.46c0.21-0.52,0.52-1.08,1.1-2.11c-0.09,0.82,0.35-0.07,0.6-0.96
		c-0.05,0.29-0.1,0.48-0.03,0.47c0.05-0.01,0.18-0.17,0.36-0.55c0.04-0.08,0.07-0.16,0.12-0.26c-0.03-0.13-0.04-0.31-0.05-0.5
		c0-0.07-0.01-0.15-0.01-0.22c0.02-0.01,0.05-0.05,0.08-0.02c0-0.01,0-0.01,0-0.02c0.04-0.76-0.03-1.09-0.06-1.11
		c-0.04-0.04-0.07,0.17-0.11,0.49c0,0.02-0.01,0.04-0.01,0.06c-0.04-0.04-0.1,0.02-0.19,0.22c0.05-0.18,0.1-0.38,0.13-0.59
		c0-0.01,0.01-0.02,0.01-0.04c0.04-0.23,0.05-0.37,0.06-0.57c0.02-0.32,0.02-0.63,0.02-0.94c0-0.06,0-0.12,0-0.18
		c0-0.19,0.01-0.36,0.01-0.52c0.02-0.45,0.08-0.78,0.27-0.84c-0.12-3.5-0.63-6-0.82-8.91c0.26-0.33,0.48,0.35,0.58,1.2l-0.09-2.06
		c0.37,0.02,0.21,1.19,0.29,1.82c0.3-1.23,0.15-2.5-0.01-3.82c-0.08-0.66-0.16-1.33-0.18-2.02c-0.01-0.34-0.01-0.69,0.01-1.04
		c0.01-0.17,0.02-0.35,0.05-0.52c0.02-0.17,0.06-0.32,0.1-0.42c-0.1-0.14-0.17-0.28-0.24-0.44l0.06-0.11
		c-0.15-0.01-0.26-0.53-0.18-0.86c0.2-0.09,0.37-0.01,0.54-0.02c0.17-0.02,0.31-0.12,0.55-0.51c0.33-0.21,0.62-0.6,1.01-0.99
		c0.38-0.4,0.89-0.77,1.38-0.95c-0.55,0.08-0.44-0.13-0.21-0.3c0.26-0.06,0.47-0.02,0.67,0.03c0,0,0.01,0,0.01,0
		c0.2,0.05,0.34,0.08,0.65,0.02l0.05,0.34c0.1-0.32,1.9-0.36,2.14-0.52c0.41,0.32-1.11,0.28-1.29,0.52
		c2.86-0.04,1.43-0.02,4.29-0.06c1.53-0.33-0.28-0.41,0.45-0.79c1.35-0.08,2.66-0.39,4.21-0.13l-0.49-0.38
		c2.53-0.3,4.05-0.25,5.75,0.14C248.41,53.42,233.52,52.27,233.52,52.27z"/>
	<polygon class="st2" points="180.98,106.73 180.98,106.73 181.21,106.95 	"/>
	<path class="st2" d="M214.49,57.86l-0.02-0.1C214.47,57.8,214.47,57.83,214.49,57.86z"/>
	<path class="st2" d="M162.57,54.79l-0.16,0.26C162.49,55.05,162.55,54.98,162.57,54.79z"/>
	<path class="st3" d="M131.2,92.73c-0.02,0.01-0.04,0.02-0.06,0.04"/>
	<path class="st2" d="M157.19,64.81V64.8c-0.02-0.02-0.02-0.05-0.04-0.07L157.19,64.81z"/>
	<polygon class="st2" points="164,86.76 164,86.76 164.23,86.86 	"/>
	<path class="st2" d="M112.31,91.66c0.59,0.33,1.32,0.7,2.23,1.1l-0.07,0.13c1.66,0.31,2.7,0.38,3.85-0.27
		c0.18,0.79,1.36,0.08,1.75,0.34l-0.04,0.06c1.01-0.61,2.09,0.51,3.06-0.04c-0.04,0.06-0.06,0.28-0.28,0.29
		c0.71-0.1,1.68-0.28,1.74,0.18c1.7-0.12,4.07,0.09,5.16-0.64l-0.07,0.13c0.62-0.5,0.8-0.07,1.5-0.33c0.04,0.06,0.09,0.09,0.08,0.12
		c0.68-0.49,1.97-0.08,2.52-0.29l0.04,0.31l1.35-0.07l-0.5-0.07c0.17-0.84,1.02,0.53,1.99-0.02c0.91,0.11,1.85-1.75,2.8-1.33
		c0.45-0.39-0.4,0.64,0.28,0.34c0.02,0.44-0.32,0.27-0.14,0.62c0.66-0.21,1.09,0.45,1.91,0.15l0.03,0.34
		c1.07-0.62,2.01,0.45,2.73-0.15c1.1-0.28,0.74,1.01,1.89,0.35l0.45,0.46c0.49,0.07,0.35-0.57,0.9-0.34
		c-0.03,0.29,0.69,0.23,0.37,0.51c1.23,0.45,2.5-0.65,4.12,0.12c0.35-0.57,1.17-0.23,1.43-0.65c0.04,0.25,1.64,0.04,0.72,0.58
		c-0.08,0.04-0.22,0.04-0.21-0.06l-0.11,0.34c0.92,0.63,1.68-0.35,2.6-0.25c-0.27-0.11-0.63-0.08-0.39-0.31l0.85,0.05l-0.18,0.28
		c0.14,0.03,0.61,0.05,0.98,0.08l1.17,0.08l-0.4-0.35c0.56,0.09,1,0.28,1.46,0.39c0.45,0.11,0.92,0.13,1.4-0.11
		c0.36-0.28-1.3-0.47-0.26-0.58c0.66,0.1,1.49,0.23,2.43,0.34c0.16-0.9,0.3-2.01,0.36-3.1c-0.39-0.02-0.38-0.52-0.46-1.05l0.34,0.07
		c-0.24-1.09-0.05-1.2,0.15-1.37c0.1-0.08,0.2-0.16,0.26-0.36c0.03-0.1,0.04-0.23,0.04-0.4c0-0.09-0.01-0.18-0.02-0.29
		c-0.01-0.09-0.03-0.13-0.05-0.21l-0.48-0.2c-0.68-1.01,0.71-0.54-0.22-1.66c0.06,0.44-0.75,0.21-0.6-0.34l0.33,0.14
		c-0.07-0.3-0.21-0.4-0.14-0.6c0.18,0.18,0.48,0.09,0.42-0.35l0.41,0.3l-0.61-0.84c0.35-0.65-0.09-1.67,0.37-1.93
		c0,0,0.23-1.39-0.28-1.71c0.32,0.28,0.44-0.49,0.81-0.27c-0.36-0.36-0.65-1.42-0.27-1.85l0.04,0.08c0.39-1.57-0.53-2.69-0.06-4.1
		c-0.4,0.06-0.18-0.68-0.69-0.5c-0.5-1.46,1.03-2.66-0.54-3.19c-0.08-0.66,0.37-0.79,0.45-1.13l0.08,0.16
		c-0.13-1.25-0.14-1.61-0.11-2.53c-0.15-0.46-0.88-0.53-0.7-1.36c0.29,0.27,0.24-0.07,0.24-0.38c0.05,0.2,0.15,0.26,0.35-0.15
		c-0.09-0.06-0.14-0.15-0.19-0.23c0.02,0,0.04-0.02,0.07-0.01c-0.1-0.52-0.19-0.43-0.23-0.19c-0.04-0.01-0.1,0.01-0.18,0.08
		c0.37-0.54-0.03-1.49,0.47-1.56c-0.12-1.55-0.63-2.66-0.82-3.96c0.26-0.15,0.48,0.16,0.58,0.53l-0.09-0.92
		c0.37,0.01,0.21,0.53,0.29,0.81c0.59-1.09-0.59-2.25-0.05-3.53l-0.29-0.27l0.05-0.08c-0.15,0-0.36-0.28-0.41-0.47
		c0.32-0.18,0.74,0.01,0.72-0.62c0.31-0.5-0.15-1.42-0.33-2.08c-0.05,0.35-0.23,0.24-0.34,0.09c-0.01-0.32,0.31-0.5,0.17-0.74
		l0.43-0.03c-0.41,0.12-0.44-0.83-0.62-0.94c0.32-0.18,0.28,0.49,0.52,0.57c-0.04-1.27-0.02-0.64-0.06-1.91
		c-0.33-0.68-0.41,0.12-0.79-0.2c-0.08-0.6-0.39-1.18-0.13-1.87l-0.38,0.22c-0.3-1.12-0.25-1.8,0.13-2.55
		c-0.1-0.26-0.19-0.51-0.29-0.75c-2.91-7.22-3.98-1.02-3.98-1.02c-0.12,0.47-0.19,0.9-0.24,1.31c0,0,0,0.01,0,0.01c0,0,0,0,0,0.01
		c-0.29,2.5,0.56,4.24,0.81,7.6c-0.19,3.45-0.94,4.37-0.64,7.94c-0.06,1.71,0.11,3.53,0.2,5.19c0.58,0.79,0.01,2.19,0.49,3.13
		l-0.33,0.36c0.17,0.32,0.28,0.7,0.1,1.03l-0.1-0.02c0.25,0.48,0.1,1.03,0.23,1.27l-0.1-0.02l0.04,0.59l-0.14-0.1
		c0.26,0.84,0.28,1.71,0.16,2.47l0.4-0.06c-0.45,1.63,0.38,2.23-0.15,3.7l-0.1-0.02c1.05,1.86-0.72,2.94,0.28,4.86
		c-0.12-0.24-0.21,0.1-0.3,0.08c0.11,0.88,0.17,1.83,0.96,1.84c-0.01,0.64-0.24,0.52-0.55,0.61c0.34,0,0.49,0.56,0.51,1.06
		l-0.13-0.23l0.12,1.44l0.65-0.28c-0.09,0.38-0.29,0.45-0.44,0.45c-0.15,0.02-0.27,0.03-0.19,0.21l0.54,0.07
		c-0.05,0.32-0.28,0.51-0.55,0.57c-0.27,0.07-0.57,0.01-0.77-0.02c-0.01,0.04-0.02,0.08-0.02,0.13c-0.29-0.02-0.5,0.03-0.79,0.12
		l-0.11,0.03c-0.04,0.01-0.05,0.02-0.22,0.04l-0.78,0.07c-0.52,0.05-1.04,0.1-1.56,0.15c-2.07,0.18-4.1,0.26-6-0.2l-0.17-0.4
		c-0.08-0.59-1.09,0.87-1.24,0.33l-0.46,0.27c-0.13-0.11-0.4-0.22-0.17-0.35c-0.43-0.02-0.44,0.07-0.74,0.25l-0.46-0.37
		c-1.68-0.28-3.11,0.42-4.87,0.28c-2.12-0.75-6.12-0.06-8.42,0.34c-3.24,0.88-7-1.46-10.31-0.46c-0.11-0.08-0.39,0.1-0.38,0.17
		l-3.03-0.08c0,0-2.61-0.04-4.79,0.28c-0.56,0.08-1.09,0.19-1.54,0.32c-1.13,0.34-1.75,0.86-1.13,1.67
		C110.89,90.74,111.43,91.16,112.31,91.66z"/>
</g>
</svg>
