<?xml version="1.0" encoding="utf-8"?>
<!-- Generator: Adobe Illustrator 26.3.1, SVG Export Plug-In . SVG Version: 6.00 Build 0)  -->
<svg version="1.1" id="Layer_1" xmlns="http://www.w3.org/2000/svg" xmlns:xlink="http://www.w3.org/1999/xlink" x="0px" y="0px"
	 viewBox="0 0 326 200" style="enable-background:new 0 0 326 200;" xml:space="preserve">
<style type="text/css">
	.st0{fill:#FFFFFF;}
</style>
<g>
	<path class="st0" d="M140.8,145.6c0.1,0,0.1,0,0.2-0.1C141,145.5,140.9,145.5,140.8,145.6C140.9,145.5,140.9,145.5,140.8,145.6z"/>
	<path class="st0" d="M117.3,36.7l0.9-0.5C118.2,36.1,117.9,36.3,117.3,36.7z"/>
	<path class="st0" d="M153.5,28.5C153.5,28.5,153.5,28.5,153.5,28.5c-0.1,0-0.2,0-0.3,0C153.3,28.5,153.4,28.5,153.5,28.5z"/>
	<path class="st0" d="M111.7,129.5c-0.1-0.1-0.2-0.1-0.2-0.2C111.5,129.4,111.6,129.5,111.7,129.5z"/>
	<path class="st0" d="M107.4,46.6L107.4,46.6C107.5,46.6,107.5,46.6,107.4,46.6z"/>
	<path class="st0" d="M208.6,50c-0.1-0.1-0.2-0.3-0.3-0.5c-0.3-0.4-0.7-1-1.2-1.7c-0.9-1.2-2-2.5-2.6-2.8c1,0.6-0.9-1.7-0.1-1.3
		c-1.2-0.9-4.3-3.7-5.3-5.1l0.3,0.2c-2.2-2.3-4.3-3.9-6.5-5.2c-2.2-1.4-4.4-2.6-6.7-4.2c0,0.5-2.5-1.1-2.1-0.3
		c-0.7-0.3-1.3-0.5-1.9-0.8c-0.6-0.3-1.2-0.6-1.8-0.8c-1.2-0.5-2.2-1.1-3.2-1.5c-1-0.4-1.9-0.8-2.7-0.9c-0.8-0.1-1.5-0.1-2.1,0.1
		c-1.3-0.3-2-0.5-2.6-0.8c-0.6-0.2-1-0.5-1.6-0.6l0.6,0c-1.2-0.2-2.2-0.3-3.1-0.5c-0.9-0.1-1.6-0.2-2.3-0.3
		c-0.7-0.1-1.4-0.1-2.1-0.2c-0.7,0-1.5-0.1-2.4-0.2c-1.8,0.1-2.1,0.8-5.3,0.7c1-0.3-0.3-0.3-1.5-0.1c0.8-0.1,1-0.2-0.6-0.3
		c-0.2,0.1-0.6,0.2-0.9,0.3c0,0-0.1,0-0.1-0.1c-2,0.3-1.6,0.4-0.7,0.3c0,0,0,0.1,0.3,0.1c-1.1-0.1-2.5,0.1-3.7,0.3
		c-1.2,0.2-2.2,0.4-2.4,0.1c-3,0.7-5.4,1.5-7.7,2.5c-0.6,0.2-1.1,0.5-1.7,0.7c-0.6,0.3-1.1,0.5-1.6,0.8c-1.1,0.5-2.1,1.1-3.3,1.6
		c-0.6,0,0.3-0.7,1.6-1.4c-1.1,0.5-2.1,1-3.2,1.6c-0.1-0.2,0.4-0.5,0.9-0.8c0.6-0.3,1.3-0.6,1.8-0.9c-1,0.3-2,0.7-3,1.2
		c-0.5,0.3-1,0.5-1.5,0.8c-0.5,0.3-0.9,0.6-1.4,0.9c-1.9,1.3-3.8,2.7-6,4c-0.2,0.3-0.4,0.6-0.6,0.9l-0.3,0.1c0.1,0.1-0.6,1-1.2,1.5
		c-0.7,0.2-0.4-0.6-2.3,1c-0.8,0.5-1.8,1.5-2.8,2.6c-0.9,1.1-1.9,2.3-2.7,3.4c0.9-1,0.8-0.5,0.5,0c-0.8,0.9-1.5,1.2-2,2.1l-0.3-0.1
		c0.1,0.2-0.3,0.7-0.7,1.4c-0.5,0.8-1,1.7-1.1,1.9c-0.7,0.4,0.9-1.7,0.9-2.1c-1.4,2-1.8,2.5-2.1,3c-0.2,0.3-0.3,0.5-0.6,1
		c-0.3,0.5-0.7,1.1-1.3,2.2c-1,2.4,0.6-0.2,0.3,1.1c-1.1,2-1.8,4.2-3.1,6.5c0.2-0.2,0.5-0.4,0.7-0.6c-1.4,4.1-2.2,6.5-3.3,9.2
		c-0.6,4-0.6,7.1-0.6,9.4c0.1,1.2,0.2,2.2,0.3,3c0.1,0.8,0.3,1.5,0.4,2c0.5,2.1,1,1.9,1.3,0.8c0.4-1.1,0.6-3.1,0.9-4.8
		c0.1-0.9,0.3-1.7,0.4-2.2c0.1-0.6,0.2-0.9,0.2-0.9c0.7-2.9,1.2-5.3,2-7.7c0.3-1.2,0.7-2.3,1-3.4c0.4-1.1,0.8-2.2,1.2-3.3
		c1.7-4.4,3.8-9,8.2-14.5c4.1-4.6,7.3-7,10.6-9.1c0.8-0.5,1.7-1.1,2.5-1.6c0.4-0.3,0.9-0.5,1.3-0.8c0.5-0.3,0.9-0.5,1.5-0.8
		c1-0.6,2.1-1.1,3.2-1.7c1.2-0.5,2.5-1.2,4-1.8c2.8-1.1,5.8-2,8.8-2.7c3-0.7,6.1-1.1,9.1-1.3c0.7-0.2,1.5-0.3,2.5-0.3
		c0.9,0,1.9,0,2.9,0c1,0,2,0.2,3,0.2c1,0.1,1.9,0.2,2.8,0.1c0.4,0.1,0.8,0.4,1.2,0.5c0.6,0,1.2,0.1,1.8,0.1c0.6,0.1,1.2,0.3,1.8,0.5
		l-0.1,0.1c0.9,0,1.8,0.3,2.5,0.5c0.8,0.2,1.4,0.4,1.9,0.5l-0.1,0.1l2,0.6l-0.4,0c2.9,0.8,5.8,2,8.1,3.4l0-0.5
		c2.5,1.6,4.2,2.6,5.8,3.7c0.8,0.5,1.6,1,2.4,1.7c0.4,0.3,0.8,0.7,1.3,1c0.4,0.4,0.9,0.8,1.3,1.3l-0.1,0c2.9,1.8,4.6,3.9,6.2,6.1
		c1.1,1.6,2.2,3.1,3.5,4.9c0,0,0.1-0.1,0.1-0.1C204.9,51.8,206.5,50.6,208.6,50z"/>
	<path class="st0" d="M133.9,141.9c0.6-0.1,1.4-0.1,2.1-0.2c0.4,0,0.8-0.1,1.2-0.1c0.2,0,0.4,0,0.6,0l0.3,0l0.2,0
		c0.5-0.1,1-0.3,1.4-0.5c-4.7-1.3-9.4-3.6-13.7-6.6c-5.2-3.6-9.8-8.1-14-12.3c-0.2-0.3-0.9-1-1-1c-2.2-2.9-4.2-6-5.9-9.2
		c0,0-0.1-0.2-0.3-0.5c-0.2-0.3-0.4-0.8-0.7-1.4c-0.3-0.6-0.6-1.4-1-2.2c-0.3-0.8-0.7-1.8-1.1-2.8c-0.7-2-1.5-4.3-2.1-6.7
		c-0.6-2.3-1.1-4.7-1.5-6.7c-0.3-2.1-0.6-3.8-0.8-5c-0.3-1.2-0.5-1.7-0.9-1.4c-0.2,0.2-0.3,0.6-0.5,1.3c-0.2,0.7-0.4,1.6-0.5,2.9
		c-0.1,0.6-0.1,1.4-0.2,2.2c0,0.8,0,1.7-0.1,2.7c0,1,0.1,2.1,0.1,3.2c0.1,1.2,0.2,2.4,0.4,3.8l-0.2-0.2c0.4,1.6,0.7,3,1.1,4.3
		c0.4,1.3,0.8,2.5,1.3,3.6c0.4,1.1,1,2.1,1.5,3.1c0.6,1,1.2,1.9,1.8,2.8c-0.2,0.5,0.5,1.7,1.2,2.9c0.8,1.2,1.7,2.4,2.1,3.1l-0.1-0.1
		c1.4,1.4,2.5,3.1,3.7,4.8c1.2,1.6,2.5,3.2,4,4.4c-0.1-0.1-0.3,0-0.8-0.4c2,1.9,4.8,4.1,4.7,4.5c2.6,2.1,5.9,4.4,9.2,6.1
		c1.4,0.7,2.7,1.4,4,1.9C131,142.1,132.5,142.1,133.9,141.9z"/>
	<path class="st0" d="M210.2,54.1c-0.2,0.2-0.3,0.4,0.2,0.3c-0.5,0.2-1,0.5-1.4,1c-0.4,0.4-0.7,0.8-1,1c-0.2,0.4-0.4,0.5-0.6,0.5
		c-0.2,0-0.3-0.1-0.5,0c-0.1,0.3,0,0.8,0.2,0.9c0.1-0.1,0.2-0.2,0.2-0.3c-0.1,0.3-0.2,0.3-0.2,0.3l-0.1,0.1c0.1,0.2,0.1,0.3,0.2,0.4
		c0,0.1-0.1,0.2-0.1,0.4c0.9,1.6,1.7,2.7,2.1,2.6c0.5,1.1,0.6,1.5,0.6,1.8c0,0.2-0.1,0.3-0.2,0.5c0.3-0.1,1.2,1.7,1.8,3.4l-0.4-0.8
		c0.6,1.6,1.1,3.3,1.6,5c0.1-0.4,0.3-0.8,0.4-1.2c0.5,2.8-0.6,0.9,0.2,3.4l0.5-0.1c0.1,1,0.2,1.8,0.3,2.7c0,0.8,0,1.6,0,2.4
		c0,0.8-0.1,1.5-0.2,2.3c-0.1,0.8-0.1,1.6-0.2,2.6c0.2,7.6-0.9,15.6-3.5,23c-2.6,7.4-7,14.1-12.3,18.9l-0.7,0.2
		c-0.3-0.1-0.8,0.7-1.4,1.6c-0.6,0.9-1.2,1.7-1.6,1.7l-1.1,1.3c-0.4,0.2-1.3,0.7-0.7,0.1c-1.2,0.9-1.2,1.1-2,1.8l-1.6,0.7
		c-2.6,1.6-4.9,3.1-7.4,4.4c-2.5,1.3-5.1,2.6-8.2,3.4c-3.8,0.8-9.1,1.9-14.7,2.2c-2.8,0.2-5.6,0.1-8.2,0c-1.3-0.1-2.6-0.2-3.8-0.4
		c-0.4-0.1-0.9-0.1-1.3-0.2c-0.5,1.2-1.6,2-2.4,2.4c-0.9,0.4-1.5,0.6-1.7,1c0,0,0.1,0,0.1,0c0.2-0.1,0.4-0.1,0.5-0.2
		c0.2-0.1,0.5-0.2,0.7-0.3c-0.3,0.2-0.7,0.4-1.1,0.6c0.3,0.1,0.6,0.1,0.9,0.1c0.9,0.2,1.8,0.4,2.7,0.5c1.8,0.4,3.6,0.6,4.6,0.7
		l0.1,0.3c1.7,0.1,3.5,0.3,5.2,0.3c-0.6,0-1.3-0.1-1.9-0.1c0.4-0.4,1.3-0.2,2.7,0c0.7,0.1,1.5,0.2,2.3,0.2c0.9,0,1.8,0,2.7-0.2
		c1.8-0.1,3.5-0.7,5.2-1.4c0.9-0.4,1.7-0.7,2.6-1c0.9-0.3,1.7-0.6,2.6-0.6c1.6-0.8-1.3,1,1.1,0.1c0.2,0.4-1.1,0.6-0.4,0.8
		c2.4-0.9,4.2-0.7,7.1-2.1l0.2,0.3c0.5-0.3,0.9-0.5,1.4-0.7c0.4-0.2,0.9-0.4,1.3-0.6c0.4-0.2,0.9-0.4,1.3-0.6
		c0.4-0.2,0.9-0.4,1.3-0.6c1.7-0.7,3.1-1.4,4.1-2.4c1.7-1.3,2.5-1.4,3.2-1.7c0.4-0.1,0.7-0.3,1.2-0.6c0.2-0.1,0.5-0.4,0.8-0.6
		c0.3-0.3,0.6-0.6,1-1c0.6-0.2,1.1-0.5,1.7-0.7c1.5-1.2,0.7-1.3,2.4-2.6c0.1,0.3,2.1-1.7,1.4-0.6c1-0.7,1.8-1.7,2.7-2.6
		c0.8-1,1.6-2,2.4-3c1.6-2.1,3.1-4.5,5.2-7c0.1-0.8,0.6-1.8,1.1-2.8c0.5-1,0.9-2,1-2.5c0.2,0,0.8-1.5,1.3-2.5c0.3-0.5,0.4-0.9,0.5-1
		c0.1-0.1,0.1,0.2-0.2,1.1c-0.1,0.3-0.3,0.8-0.4,0.7l0.1,0.5c2.1-3.1,2.2-6.3,3.3-9.8c-0.4,1-0.8,2.4-0.7,1.4
		c0.3-1.1,0.7-2.1,0.9-3.2l0.1,0.8l0.6-2.4c0.2-0.8,0.4-1.6,0.5-2.4l-0.5,0.6c0.1-0.6,0.3-1.1,0.5-1.5c0.1-0.4,0.3-0.9,0.4-1.3
		c0.2-0.8,0.4-1.8,0.2-3.2c-0.2-1.3-0.6,2.3-0.6-0.3c0.1-0.8,0.3-1.7,0.4-2.7c0.1-1,0.2-2,0.2-3.1c0.1-2.2,0.1-4.4-0.1-6.5
		c-0.3,0.4-0.5-0.7-0.7-1.8l0.3-0.2c-0.6-2.2-0.5-2.6-0.4-3c0.1-0.4,0.2-0.9-0.4-3l0.3,0.3c-0.3-0.3-0.6-0.7-1-1
		c-0.9-1.8-0.8-2.4-0.9-3c-0.1-0.6-0.1-1.3-1.3-3.2c0.7,1.6-0.4,1-1.1-1l0.5,0.4c-0.5-1.1-0.8-1.4-1-2.1c0.4,0.6,0.6,0.2-0.2-1.4
		l0.9,0.9c-0.6-0.9-1.3-1.8-2-2.7c-0.2-0.6-0.5-1.3-0.9-1.9c-0.2-0.3-0.4-0.6-0.5-0.9C210.7,54.1,210.5,54.1,210.2,54.1z"/>
	<path class="st0" d="M124.6,46.5l0.7-0.4C125.3,46,125.1,46.1,124.6,46.5z"/>
	<path class="st0" d="M153.9,40.8C153.9,40.8,153.9,40.8,153.9,40.8c0,0-0.1,0-0.1,0C153.9,40.8,153.9,40.8,153.9,40.8z"/>
	<path class="st0" d="M150.7,136.1l0.1,0.3c1.4,0.1,2.8,0.2,4.3,0.2c-0.5,0-1.1-0.1-1.6-0.1c0.3-0.4,1.1-0.3,2.2-0.1
		c0.6,0.1,1.2,0.2,1.9,0.2c0.7,0,1.4,0,2.2-0.2c1.4,0,2.9-0.7,4.2-1.2c0.7-0.3,1.4-0.6,2.1-0.9c0.7-0.3,1.4-0.5,2.1-0.5
		c1.3-0.7-1,0.9,0.9,0.1c0.2,0.4-0.9,0.5-0.3,0.7c1.9-0.8,3.4-0.5,5.8-1.7l0.2,0.3c0.4-0.2,0.7-0.4,1.1-0.6c0.4-0.2,0.7-0.4,1.1-0.5
		c0.7-0.3,1.4-0.6,2.1-0.9c1.4-0.5,2.6-1.1,3.4-1.9c1.4-1.1,2-1.1,2.6-1.3c0.3-0.1,0.6-0.2,1-0.4s0.9-0.6,1.5-1.4l1.4-0.5
		c1.2-1,0.5-1.2,1.9-2.2c0.1,0.3,1.8-1.3,1.2-0.4c0.8-0.6,1.5-1.3,2.2-2.1c0.7-0.8,1.3-1.6,1.9-2.5c1.3-1.8,2.5-3.7,4.2-5.7
		c0-0.6,0.5-1.5,0.9-2.3c0.4-0.8,0.8-1.6,0.8-2.1c0.2,0,0.7-1.2,1.1-2c0.4-0.8,0.7-1.3,0.4,0.2c-0.1,0.2-0.3,0.7-0.3,0.6l0.2,0.5
		c1.8-2.5,1.8-5.2,2.6-8c-0.4,0.8-0.6,1.9-0.6,1.1c0.3-0.9,0.6-1.7,0.8-2.6l0.1,0.6l0.5-2c0.2-0.7,0.3-1.3,0.4-2l-0.4,0.5
		c0.1-0.5,0.3-0.9,0.4-1.2c0.1-0.4,0.2-0.7,0.3-1.1c0.2-0.7,0.3-1.4,0.2-2.6c-0.2-1-0.6,1.8-0.6-0.3c0.5-2.6,0.8-6.6,0.5-10.1
		c-0.3,0.3-0.4-0.2-0.5-0.8c-0.2,0.4-0.3,0.5-0.4,0.6c-0.1,0,0-0.2,0-0.5c-0.2,0.9-0.7,1.8-0.6,1c-0.6,1-0.9,1.6-1.1,2.1
		c-0.2,0.5-0.4,1-0.9,1.5c-0.8,0.6-1.5,0.9-2.1,1.1c0.1,5.9-0.7,12.1-2.8,17.9c-2.1,5.9-5.5,11.3-9.9,15.1l-0.6,0.1
		c-0.3-0.1-0.7,0.6-1.1,1.3c-0.4,0.7-0.9,1.4-1.3,1.4l-0.8,1.1c-0.4,0.2-1.1,0.6-0.6,0c-1,0.7-0.9,0.8-1.5,1.5l-1.3,0.5
		c-2.1,1.2-3.9,2.4-5.9,3.6c-2,1.1-4.1,2.1-6.5,2.8c-3,0.5-7.3,1.4-11.8,1.7c-2.2,0.2-4.5,0.1-6.6,0.1c-1.1-0.1-2.1-0.1-3-0.3
		c-0.5-0.1-0.9-0.1-1.4-0.2c-0.3-0.1-0.7-0.1-1-0.2c0,1.1-0.4,2-0.2,3.1c-0.4,0.4-0.2-0.4-0.6-0.3c0.3,1.5-0.7-0.4-0.3,0.6
		c0,0.1,0,0.3,0,0.4c0.7,0.1,1.4,0.3,2.2,0.4C148.4,135.8,149.8,136.1,150.7,136.1z"/>
	<path class="st0" d="M141.6,130.2c-3.3-1.1-6.6-2.8-9.5-4.9c-4.2-3-7.7-6.6-11.1-9.9c-0.2-0.3-0.8-0.8-0.8-0.8
		c-1.8-2.3-3.4-4.8-4.7-7.4c0,0-0.3-0.6-0.8-1.6c-0.2-0.5-0.5-1.1-0.8-1.8c-0.3-0.7-0.6-1.4-0.9-2.2c-1.2-3.2-2.3-7.4-2.9-10.7
		c-0.2-1-0.3-1.9-0.5-2.6c-0.9-0.5-1.4-0.9-1.7-1.3c-0.2,0.5-0.4,1.3-0.5,2.2c-0.1,0.5-0.2,1.1-0.2,1.8c0,0.7-0.1,1.4-0.1,2.2
		c0,0.8,0,1.7,0,2.6c0.1,0.9,0.1,2,0.3,3.1l-0.2-0.2c1.1,5.2,2.5,8.3,4.7,11.2c-0.2,0.4,0.3,1.4,0.9,2.4c0.7,1,1.4,2,1.7,2.5
		l-0.1-0.1c1.2,1.2,2.1,2.5,3,3.9s2,2.7,3.3,3.5c-0.1,0-0.3,0.1-0.7-0.3c1.7,1.5,3.9,3.3,3.8,3.7c2.1,1.7,4.8,3.6,7.5,5
		c2.7,1.4,5.3,2.4,7,2.7l-0.3,0c1,0.1,1.6,0.3,2.2,0.5c0.4,0.1,0.7,0.3,1.2,0.4c0.1-0.6,0.1-1.1,0.2-1.6
		C141.6,131.9,141.6,131.1,141.6,130.2z"/>
	<path class="st0" d="M201.7,75.9c0-0.2,0-0.4,0-0.5C201.7,75.5,201.7,75.6,201.7,75.9z"/>
	<path class="st0" d="M116.5,54.5L116.5,54.5C116.6,54.5,116.5,54.5,116.5,54.5z"/>
	<path class="st0" d="M207.1,74.9c0,0.2,0,0.3,0,0.5c0,0.1,0,0.1,0,0.2C207.1,75.5,207.2,75.2,207.1,74.9z"/>
	<path class="st0" d="M207.2,78.1C207.2,78.1,207.2,78.1,207.2,78.1C207.2,78.1,207.2,78.1,207.2,78.1c-0.1,0.1-0.1,0.2-0.1,0.3
		l0.1-0.1C207.3,78.2,207.3,78.2,207.2,78.1z"/>
	<path class="st0" d="M119.9,122.1c-0.1-0.1-0.1-0.1-0.2-0.2C119.8,122,119.8,122,119.9,122.1z"/>
	<path class="st0" d="M206.9,77.8c0.1-0.2,0.1-0.3,0.2-0.2c0,0,0,0,0-0.1c0-0.1-0.1-0.2-0.1-0.3C207,77.4,206.9,77.6,206.9,77.8z"/>
	<path class="st0" d="M111,82.1c0.1-0.7,0.3-1.3,0.4-1.8c0.1-0.5,0.2-0.7,0.2-0.7c0.6-2.3,1.1-4.2,1.6-6.1c0.5-1.8,1.1-3.6,1.7-5.3
		c1.3-3.5,2.9-7.2,6.4-11.7c3.3-3.7,5.9-5.5,8.5-7.2c0.7-0.4,1.3-0.8,2-1.2c0.4-0.2,0.7-0.4,1.1-0.6c0.4-0.2,0.8-0.4,1.2-0.6
		c0.8-0.5,1.7-0.9,2.6-1.4c1-0.4,2-1,3.1-1.4c2.2-0.8,4.6-1.6,7-2.2c2.4-0.5,4.8-0.9,7.1-1.1c0.1-0.4,0.1-0.8,0.2-1.3
		c0,0,1.1-6.2,4,1c0,0,0.1,0,0.1,0c0.8,0,1.6,0.1,2.4,0.2c0.8,0.1,1.5,0.1,2.2,0.1c0.3,0.1,0.6,0.3,1,0.5c0.5,0,1,0,1.5,0.1
		c0.5,0.1,1,0.2,1.4,0.4l-0.1,0.1c0.7,0,1.4,0.2,2,0.4c0.6,0.2,1.2,0.3,1.5,0.4l-0.1,0.1l1.6,0.5l-0.3,0c2.3,0.6,4.6,1.6,6.5,2.7
		l0-0.4c1.9,1.3,3.3,2.1,4.6,2.9c0.7,0.4,1.3,0.8,1.9,1.3c0.3,0.3,0.7,0.5,1,0.8c0.3,0.3,0.7,0.7,1,1.1l-0.1,0
		c2.3,1.4,3.7,3.1,4.9,4.8c1.2,1.8,2.4,3.6,4.2,5.7c-0.5-0.5,0,0.4-0.1,0.4c1.4,2.1,2.6,4.6,3.3,4.3c0.8,1.7,0.4,1.5,0.2,1.8
		c0.3-0.1,1.1,1.3,1.5,2.7l-0.3-0.6c0.5,1.3,0.9,2.6,1.3,4c0.1-0.2,0.1-0.3,0.2-0.5c0-0.2,0-0.5,0-0.7c-0.1-2-0.1-4,0-5.9
		c-0.1-2.2-0.1-4,0-5.6c-0.1-0.2-0.2-0.5-0.4-0.8c-0.3-0.5-0.6-1.1-0.9-1.6c-0.6-1-1.2-1.9-1.2-2.4c0,0-0.1-0.2-0.4-0.6
		c-0.2-0.4-0.6-0.8-0.9-1.4c-0.8-1-1.7-2-2.2-2.3c0.8,0.5-0.7-1.5,0.1-1.2c-1-0.7-3.6-2.9-4.4-4.1l0.2,0.2c-1.8-1.9-3.5-3.2-5.4-4.3
		c-1.8-1.1-3.6-2.1-5.5-3.4c0,0.4-2-0.8-1.7-0.1c-1.1-0.4-2.1-0.8-3.1-1.3c-0.9-0.4-1.8-0.9-2.6-1.2c-1.6-0.7-3-1.1-4-0.5
		c-1-0.2-1.6-0.4-2.1-0.7c-0.5-0.2-0.8-0.4-1.3-0.6l0.5,0c-1-0.1-1.8-0.3-2.5-0.4c-0.7-0.1-1.3-0.1-1.9-0.2
		c-0.6-0.1-1.1-0.1-1.7-0.2c-0.6,0-1.2-0.1-1.9-0.1c-1.5,0.1-1.7,0.8-4.3,0.7c0.8-0.3-0.2-0.3-1.2-0.2c0.6-0.1,0.8-0.2-0.5-0.3
		c-0.2,0.1-0.4,0.2-0.7,0.2c0,0-0.1,0,0-0.1c-1.6,0.2-1.3,0.3-0.6,0.3c0,0,0,0.1,0.3,0.2c-0.9-0.1-2,0.1-3,0.2
		c-1,0.2-1.8,0.3-1.9,0.1c-2.4,0.6-4.4,1.2-6.2,2.1c-1.9,0.8-3.5,1.7-5.3,2.6c-0.5,0,0.2-0.6,1.3-1.2c-0.9,0.4-1.8,0.8-2.6,1.3
		c-0.1-0.2,0.3-0.4,0.7-0.7c0.5-0.2,1.1-0.5,1.5-0.7c-0.9,0.2-1.7,0.5-2.5,1c-0.4,0.2-0.8,0.4-1.2,0.7c-0.4,0.2-0.8,0.5-1.1,0.8
		c-1.6,1-3.1,2.3-4.9,3.2c-0.2,0.2-0.3,0.5-0.5,0.7l-0.2,0.1c0.1,0.1-0.5,0.8-0.9,1.2c-0.6,0.1-0.4-0.6-1.9,0.7
		c-0.7,0.4-1.5,1.2-2.3,2.1c-0.8,0.9-1.5,1.9-2.1,2.8c0.8-0.8,0.7-0.4,0.4,0c-0.6,0.8-1.3,1-1.6,1.7l-0.3-0.2
		c0.1,0.1-0.2,0.6-0.5,1.2c-0.4,0.6-0.8,1.4-0.9,1.6c-0.6,0.3,0.7-1.4,0.6-1.8c-1.2,1.6-1.4,2-1.7,2.5c-0.2,0.4-0.6,0.8-1.6,2.6
		c-0.8,2,0.6-0.1,0.4,0.9c-0.9,1.7-1.4,3.4-2.5,5.3l0.6-0.5c-1.1,3.3-1.7,5.2-2.7,7.4c-0.4,3.2-0.4,5.8-0.2,7.7
		c0.1,0.9,0.2,1.8,0.3,2.4c0.1,0.7,0.3,1.2,0.4,1.6c0,0,0,0.1,0,0.1c0.4-0.1,1-0.2,1.5-0.3C110.6,84.3,110.8,83.1,111,82.1z"/>
	<path class="st0" d="M207.4,57.4c-0.1,0.1-0.2,0.2-0.2,0.3C207.2,57.8,207.3,57.7,207.4,57.4z"/>
	<path class="st0" d="M132.6,146.2c-0.1,0-0.1,0-0.1,0C132.5,146.2,132.6,146.2,132.6,146.2z"/>
	<path class="st0" d="M201.6,78L201.6,78C201.6,78,201.6,78,201.6,78L201.6,78z"/>
	<path class="st0" d="M230.6,49c-3.7-0.4-6.5-0.4-9.5-0.2c-1.5,0.1-3,0.2-4.8,0.4c-0.9,0.1-1.8,0.1-2.7,0.2c-0.5,0-1,0-1.5,0.1
		c-0.3,0-0.5,0-0.8,0c-0.2,0-0.4,0-0.5,0c-0.2,0-0.4,0-0.6,0.1c-0.6,0.1-1.1,0.2-1.6,0.3c-2.1,0.6-3.7,1.8-4.7,3.1
		c0,0-0.1,0.1-0.1,0.1c-0.6,0.8-1.1,1.7-1.4,2.6c-0.3,0.9-0.5,1.9-0.6,2.8c-0.1,1.1-0.1,2.2-0.2,3.5c0,1.6,0,3.3,0,5.6
		c0,1.9,0,3.9,0,5.9c0,0.2,0,0.5,0,0.7c0,0.4,0,0.8,0,1.1c0,0.2,0,0.4,0,0.5c0,0.2,0,0.4,0,0.6l0,0.4V77v0.1c0,0.1,0,0.2,0,0.3
		c0,0.2-0.1,0.4-0.1,0.6c0.1,0.5-0.2,1.1-0.8,1.4c-0.3,0.2-0.5,0.3-0.8,0.4c-0.3,0.1-0.6,0.2-0.8,0.3c0-0.1-0.2-0.1-0.4-0.2
		l-0.4-0.2c-0.7,0.2-1.6,0.3-2.3,0.1l0.1-0.1c-1.1,0.2-2.3,0.1-2.9,0.2l0.1-0.1l-1.3,0l0.2-0.1c-1.9,0.3-3.8,0.3-5.6,0.2l0.1,0.4
		c-1.8-0.2-3.1-0.1-4.3,0c-0.6,0-1.2,0.1-1.9,0.1c-0.9,0-1.9,0.1-3.1,0.4l0-0.1c-1.4,0.8-2.4,1.7-3.2,2.6c-0.8,0.9-1.5,1.9-2,3
		c-0.2,0.6-0.4,1.2-0.5,1.8c-0.1,0.3-0.1,0.6-0.1,0.9c0,0.2,0,0.4,0,0.7c0,0.9,0.1,1.9,0.3,2.9c-0.1-0.5-0.2,0.2-0.3,0.2
		c0.1,2,0.2,4.1,1,4.2c0,1.4-0.2,1.2-0.6,1.4c0.3,0,0.5,1.2,0.5,2.4l-0.1-0.5l0.1,3.2l0.6-0.6c-0.2,1.7-0.8,0.4-0.6,2.1l0.5,0
		c0,0.6-0.1,1.1-0.2,1.6c-0.1,0.5-0.2,1-0.4,1.3c-0.3,0.6-0.8,1.1-1.3,1.5c-0.4,0.5-0.9,1-1.5,1.2c-0.3,0.1-0.6,0.2-0.9,0.3l-0.2,0
		c0,0-0.1,0-0.2,0l-0.2,0l-0.9,0c-2.4,0.1-4.9,0.2-7.4,0.3c-2.4,0.1-4.9,0.2-7.2,0.2c-0.6,0-1.2,0-1.8,0l-0.9,0
		c-0.4,0-0.8,0-1.2,0.1c-1.6,0.2-3.1,0.8-4.4,1.8c-0.2,0-0.5,0.1-0.7,0.1c-0.3-0.1-0.8,0.7-1.1,1.6c-0.3,0.9-0.4,1.8-0.8,2
		c-0.1,0.5-0.1,1-0.1,1.5c-0.2,0.4-0.3,1.2-0.4,0.5c0,0.3,0,0.6,0,0.8c0,0.2,0,0.3,0.1,0.4c0,0.2,0.1,0.4,0.2,0.7l-0.4,1
		c-0.2,2.9,0.2,5.6,0.3,8.4c0,0.8,0,1.6,0,2.5c-0.1,0.5-0.1,1.1-0.2,1.6c-0.1,0.8-0.1,1.7-0.1,2.6c0,0.2,0,0.4,0,0.6
		c0,0.2,0,0.5,0,0.5c0,0.2,0,0.4-0.1,0.7c-0.1,0.4-0.3,0.9-0.5,1.2c-0.2,0.4-0.6,0.7-1,1c-0.4,0.3-0.9,0.5-1.4,0.5l-0.2,0l-0.3,0
		c-0.2,0-0.4,0-0.6,0c-0.4,0-0.8,0.1-1.2,0.1c-0.8,0.1-1.5,0.1-2.1,0.2c-1.4,0.2-2.9,0.2-4.4,0.2c-2.3,0-4.8-0.3-7.2-0.5l-1.5-0.1
		l-0.7-0.1c-0.3,0-0.4-0.1-0.9,0c-1.4,0-2.9,0.3-4.2,1.1c-2.6,1.4-4.2,4.2-4.2,6.9c-0.1,0.2,0,0.5,0,0.8c0,0.2,0.1,0.4,0.1,0.3
		l-0.1,6.8c0,0-0.2,33.1,4.7,7.9l0.1,0.2c0.3-3.7,0.4-6.1-0.3-8.7c0.8-0.4,0.1-3.1,0.3-3.9l0.1,0.1c-0.2-0.6-0.2-1.1-0.2-1.7
		c0-0.3,0-0.6,0.1-0.9c0-0.2,0-0.2,0.1-0.3c0-0.1,0-0.2,0.1-0.3c0.2-0.7,0.6-1.2,0.8-1.9c0,0.1,0.2,0.2,0,0.5
		c0.2-0.4,0.6-0.9,0.9-1.1c0.4-0.2,0.7-0.3,0.8-0.1c0.2-0.1,0.5-0.2,0.8-0.2l0.2,0l0.1,0h0.2c0.3,0,0.5,0,0.8,0c1.1,0,2.2,0,3.2,0
		c2.1-0.1,4.1-0.2,5.3-0.6l-0.2,0.1c1.4-0.5,1.8-0.1,3.4-0.3c0.1,0.1,0.2,0.1,0.2,0.1c0.8-0.2,1.9-0.3,2.9-0.2c0.5,0,1.1,0,1.5,0
		c0.2,0,0.5,0,0.7,0c0.2,0,0.4,0,0.6-0.1l0.1,0.3c0.9-0.1,1.9-0.3,2.8-0.6c0.4-0.2,0.7-0.3,1.1-0.6c-0.2,0.1-0.4,0.2-0.7,0.3
		c-0.2,0.1-0.4,0.1-0.5,0.2c-0.1,0-0.1,0.1-0.2,0.1c0,0,0-0.1,0.1-0.1c0.2-0.4,0.8-0.6,1.7-1c0.9-0.4,1.9-1.2,2.4-2.4
		c0.1-0.1,0.1-0.2,0.1-0.4c0.7-1.2,0.6-2.8,0.1-3.9c-0.3-0.9-0.6-1.8-0.6-2.7c0-0.1,0-0.3,0-0.4c-0.4-1,0.6,0.9,0.3-0.6
		c0.4-0.1,0.3,0.7,0.6,0.3c-0.2-1.1,0.2-2,0.2-3.1c0-0.4,0-0.7-0.1-1.2l0.3-0.1c-0.6-2.4,0.4-4.5-0.1-6.1c-0.3-2.5,1-1.7,0.4-4.2
		c0.2-0.2,0.3-0.4,0.5-0.6c0.1-0.3,0-0.4-0.1-0.6c-0.1-0.2-0.1-0.3,0.1-0.6c0.1,0.1,0.3-0.1,0.4-0.2s0.3-0.2,0.3,0.1
		c0.6-0.4,1.1-1,1.9-1.3c0.2-0.1,0.4-0.1,0.6-0.2l0.1,0l0.1,0l0.3,0c0.2,0,0.4,0,0.6,0c0.8,0,1.7,0.1,2.6,0.3
		c0.8-0.6,2.6-0.2,3.2-0.7c0.1,0.2,3.7,0,1.6,0.6c-0.2,0-0.5,0-0.5-0.1l-0.2,0.3c2.1,0.6,3.8-0.3,5.9-0.2c-0.6-0.1-1.4-0.1-0.9-0.3
		l1.9,0.1l-0.4,0.3l2.9,0.2l-0.4-0.3c0.7,0.1,1.2,0.3,1.7,0.4c0.7,0.1,1.6,0.1,2.6-0.5c0.5-0.3,0-0.2-0.4-0.3c-0.4,0-0.6,0,0.4-0.4
		c1.3-0.3,2.9-1,4.1-2.3c0.6-0.7,1.2-1.4,1.6-2.3s0.7-1.8,0.8-2.7c-0.2,0.2-0.3,0-0.3-0.3c0-0.1,0-0.4,0-0.5c0-0.2,0-0.3-0.1-0.5
		l0.3-0.1c-0.5-2.5,0.8-0.9,0.4-3.4l-0.5-0.4c-0.7-2.3,0.7-1.2-0.2-3.7c0.1,1-0.8,0.5-0.6-0.8l0.3,0.3c-0.1-0.7-0.2-0.9-0.1-1.3
		c0.2,0.4,0.5,0.2,0.4-0.8l0.4,0.7l-0.6-1.9c0.4-1.4-0.1-3.8,0.4-4.4c0,0,0.1-0.8,0.1-1.7c0-0.2,0-0.3,0-0.5c0-0.1,0-0.2,0-0.3
		c0-0.2,0-0.4-0.1-0.5c0.1,0.2,0.2,0.1,0.4,0c0.1-0.1,0.3-0.2,0.4,0c-0.1-0.2-0.1-0.7,0.2-1c0.2-0.4,0.6-0.6,0.9-0.5
		c0,0,0,0.1-0.1,0.1c0.4-0.1,0.8-0.2,1.1-0.3c0.1,0,0.2,0,0.3,0c0.2,0,0.4,0,0.6,0c0.4,0,0.8-0.1,1.1-0.1c1.5-0.1,2.9-0.2,4.5,0
		c-0.1-0.4,1.5-0.2,1.1-0.7c3.3-0.5,6,1,7.2-0.5c1.5-0.1,1.8,0.4,2.6,0.4l-0.4,0.1c0.7,0,1.3-0.1,1.8-0.1c0.3,0,0.7,0,1-0.1
		c0.3-0.1,0.6-0.1,0.9-0.2c0.4-0.1,0.7-0.2,1.1-0.3c0.7-0.2,1.4-0.6,2.1-1.1c0.5-0.5,0.7-0.9,0.9-1.5c0.2-0.5,0.5-1.1,1.1-2.1
		c-0.1,0.8,0.4-0.1,0.6-1c-0.1,0.3-0.1,0.5,0,0.5c0.1,0,0.2-0.2,0.4-0.6c0-0.1,0.1-0.2,0.1-0.3c0-0.1,0-0.3-0.1-0.5
		c0-0.1,0-0.2,0-0.2c0,0,0.1-0.1,0.1,0c0,0,0,0,0,0c0-0.8,0-1.1-0.1-1.1c0,0-0.1,0.2-0.1,0.5c0,0,0,0,0,0.1c0,0-0.1,0-0.2,0.2
		c0.1-0.2,0.1-0.4,0.1-0.6c0,0,0,0,0,0c0-0.2,0.1-0.4,0.1-0.6c0-0.3,0-0.6,0-0.9c0-0.1,0-0.1,0-0.2c0-0.2,0-0.4,0-0.5
		c0-0.4,0.1-0.8,0.3-0.8c-0.1-3.5-0.6-6-0.8-8.9c0.3-0.3,0.5,0.3,0.6,1.2l-0.1-2.1c0.4,0,0.2,1.2,0.3,1.8c0.3-1.2,0.1-2.5,0-3.8
		c-0.1-0.7-0.2-1.3-0.2-2c0-0.3,0-0.7,0-1c0-0.2,0-0.3,0.1-0.5c0-0.2,0.1-0.3,0.1-0.4c-0.1-0.1-0.2-0.3-0.2-0.4l0.1-0.1
		c-0.1,0-0.3-0.5-0.2-0.9c0.2-0.1,0.4,0,0.5,0c0.2,0,0.3-0.1,0.6-0.5c0.3-0.2,0.6-0.6,1-1c0.4-0.4,0.9-0.8,1.4-1
		c-0.6,0.1-0.4-0.1-0.2-0.3c0.3-0.1,0.5,0,0.7,0h0c0.2,0,0.3,0.1,0.6,0l0.1,0.3c0.1-0.3,1.9-0.4,2.1-0.5c0.4,0.3-1.1,0.3-1.3,0.5
		c2.9,0,1.4,0,4.3-0.1c1.5-0.3-0.3-0.4,0.4-0.8c1.4-0.1,2.7-0.4,4.2-0.1l-0.5-0.4c2.5-0.3,4.1-0.2,5.8,0.1
		C245.5,50.2,230.6,49,230.6,49z"/>
	<polygon class="st0" points="178.1,103.5 178.1,103.5 178.3,103.7 	"/>
	<path class="st0" d="M211.6,54.6L211.6,54.6C211.6,54.5,211.6,54.6,211.6,54.6z"/>
	<path class="st0" d="M159.7,51.5l-0.2,0.3C159.6,51.8,159.7,51.7,159.7,51.5z"/>
	<path class="st0" d="M128.3,89.5C128.3,89.5,128.3,89.5,128.3,89.5"/>
	<path class="st0" d="M154.3,61.6L154.3,61.6C154.3,61.5,154.3,61.5,154.3,61.6L154.3,61.6z"/>
	<polygon class="st0" points="161.1,83.5 161.1,83.5 161.4,83.6 	"/>
	<path class="st0" d="M109.4,88.4c0.6,0.3,1.3,0.7,2.2,1.1l-0.1,0.1c1.7,0.3,2.7,0.4,3.8-0.3c0.2,0.8,1.4,0.1,1.8,0.3l0,0.1
		c1-0.6,2.1,0.5,3.1,0c0,0.1-0.1,0.3-0.3,0.3c0.7-0.1,1.7-0.3,1.7,0.2c1.7-0.1,4.1,0.1,5.2-0.6l-0.1,0.1c0.6-0.5,0.8-0.1,1.5-0.3
		c0,0.1,0.1,0.1,0.1,0.1c0.7-0.5,2-0.1,2.5-0.3l0,0.3l1.4-0.1l-0.5-0.1c0.2-0.8,1,0.5,2,0c0.9,0.1,1.9-1.8,2.8-1.3
		c0.4-0.4-0.4,0.6,0.3,0.3c0,0.4-0.3,0.3-0.1,0.6c0.7-0.2,1.1,0.4,1.9,0.2l0,0.3c1.1-0.6,2,0.4,2.7-0.2c1.1-0.3,0.7,1,1.9,0.3
		l0.4,0.5c0.5,0.1,0.4-0.6,0.9-0.3c0,0.3,0.7,0.2,0.4,0.5c1.2,0.4,2.5-0.7,4.1,0.1c0.4-0.6,1.2-0.2,1.4-0.7c0,0.2,1.6,0,0.7,0.6
		c-0.1,0-0.2,0-0.2-0.1l-0.1,0.3c0.9,0.6,1.7-0.3,2.6-0.2c-0.3-0.1-0.6-0.1-0.4-0.3l0.9,0.1l-0.2,0.3c0.1,0,0.6,0.1,1,0.1l1.2,0.1
		l-0.4-0.3c0.6,0.1,1,0.3,1.5,0.4c0.4,0.1,0.9,0.1,1.4-0.1c0.4-0.3-1.3-0.5-0.3-0.6c0.7,0.1,1.5,0.2,2.4,0.3c0.2-0.9,0.3-2,0.4-3.1
		c-0.4,0-0.4-0.5-0.5-1.1l0.3,0.1c-0.2-1.1-0.1-1.2,0.1-1.4c0.1-0.1,0.2-0.2,0.3-0.4c0-0.1,0-0.2,0-0.4c0-0.1,0-0.2,0-0.3
		c0-0.1,0-0.1-0.1-0.2l-0.5-0.2c-0.7-1,0.7-0.5-0.2-1.7c0.1,0.4-0.8,0.2-0.6-0.3l0.3,0.1c-0.1-0.3-0.2-0.4-0.1-0.6
		c0.2,0.2,0.5,0.1,0.4-0.3l0.4,0.3l-0.6-0.8c0.4-0.7-0.1-1.7,0.4-1.9c0,0,0.2-1.4-0.3-1.7c0.3,0.3,0.4-0.5,0.8-0.3
		c-0.4-0.4-0.6-1.4-0.3-1.8l0,0.1c0.4-1.6-0.5-2.7-0.1-4.1c-0.4,0.1-0.2-0.7-0.7-0.5c-0.5-1.5,1-2.7-0.5-3.2
		c-0.1-0.7,0.4-0.8,0.4-1.1l0.1,0.2c-0.1-1.2-0.1-1.6-0.1-2.5c-0.1-0.5-0.9-0.5-0.7-1.4c0.3,0.3,0.2-0.1,0.2-0.4
		c0.1,0.2,0.1,0.3,0.4-0.2c-0.1-0.1-0.1-0.2-0.2-0.2c0,0,0,0,0.1,0c-0.1-0.5-0.2-0.4-0.2-0.2c0,0-0.1,0-0.2,0.1
		c0.4-0.5,0-1.5,0.5-1.6c-0.1-1.5-0.6-2.7-0.8-4c0.3-0.2,0.5,0.2,0.6,0.5l-0.1-0.9c0.4,0,0.2,0.5,0.3,0.8c0.6-1.1-0.6-2.2-0.1-3.5
		l-0.3-0.3l0.1-0.1c-0.1,0-0.4-0.3-0.4-0.5c0.3-0.2,0.7,0,0.7-0.6c0.3-0.5-0.1-1.4-0.3-2.1c-0.1,0.3-0.2,0.2-0.3,0.1
		c0-0.3,0.3-0.5,0.2-0.7l0.4,0c-0.4,0.1-0.4-0.8-0.6-0.9c0.3-0.2,0.3,0.5,0.5,0.6c0-1.3,0-0.6-0.1-1.9c-0.3-0.7-0.4,0.1-0.8-0.2
		c-0.1-0.6-0.4-1.2-0.1-1.9l-0.4,0.2c-0.3-1.1-0.2-1.8,0.1-2.5c-0.1-0.3-0.2-0.5-0.3-0.8c-2.9-7.2-4-1-4-1c-0.1,0.5-0.2,0.9-0.2,1.3
		v0c0,0,0,0,0,0c-0.3,2.5,0.6,4.2,0.8,7.6c-0.2,3.5-0.9,4.4-0.6,7.9c-0.1,1.7,0.1,3.5,0.2,5.2c0.6,0.8,0,2.2,0.5,3.1l-0.3,0.4
		c0.2,0.3,0.3,0.7,0.1,1l-0.1,0c0.2,0.5,0.1,1,0.2,1.3l-0.1,0l0,0.6l-0.1-0.1c0.3,0.8,0.3,1.7,0.2,2.5l0.4-0.1
		c-0.4,1.6,0.4,2.2-0.1,3.7l-0.1,0c1.1,1.9-0.7,2.9,0.3,4.9c-0.1-0.2-0.2,0.1-0.3,0.1c0.1,0.9,0.2,1.8,1,1.8c0,0.6-0.2,0.5-0.6,0.6
		c0.3,0,0.5,0.6,0.5,1.1l-0.1-0.2l0.1,1.4l0.6-0.3c-0.1,0.4-0.3,0.4-0.4,0.4c-0.1,0-0.3,0-0.2,0.2l0.5,0.1c-0.1,0.3-0.3,0.5-0.6,0.6
		c-0.3,0.1-0.6,0-0.8,0c0,0,0,0.1,0,0.1c-0.3,0-0.5,0-0.8,0.1l-0.1,0c0,0-0.1,0-0.2,0l-0.8,0.1c-0.5,0.1-1,0.1-1.6,0.2
		c-2.1,0.2-4.1,0.3-6-0.2l-0.2-0.4c-0.1-0.6-1.1,0.9-1.2,0.3l-0.5,0.3c-0.1-0.1-0.4-0.2-0.2-0.3c-0.4,0-0.4,0.1-0.7,0.2l-0.5-0.4
		c-1.7-0.3-3.1,0.4-4.9,0.3c-2.1-0.8-6.1-0.1-8.4,0.3c-3.2,0.9-7-1.5-10.3-0.5c-0.1-0.1-0.4,0.1-0.4,0.2l-3-0.1c0,0-2.6,0-4.8,0.3
		c-0.6,0.1-1.1,0.2-1.5,0.3c-1.1,0.3-1.8,0.9-1.1,1.7C108,87.5,108.6,87.9,109.4,88.4z"/>
</g>
</svg>
