<?xml version="1.0" encoding="utf-8"?>
<!-- Generator: Adobe Illustrator 23.0.1, SVG Export Plug-In . SVG Version: 6.00 Build 0)  -->
<svg version="1.1" id="Layer_1" xmlns="http://www.w3.org/2000/svg" xmlns:xlink="http://www.w3.org/1999/xlink" x="0px" y="0px"
	 viewBox="0 0 326 200" style="enable-background:new 0 0 326 200;" xml:space="preserve">
<style type="text/css">
	.st0{fill:none;}
	.st1{fill:#FFFFFF;}
	.st2{fill:none;stroke:#FFFFFF;stroke-width:0;stroke-linecap:round;stroke-linejoin:round;}
</style>
<g>
	<path class="st0" d="M203.6,139.85l-2.02-2.07c-0.05,0.05-0.37,0-0.38-0.13c-2.33-1.16-3.41-3.99-5.14-5.88
		c-0.37-0.33-0.73-0.66-1.1-0.99c-0.16-0.11-0.33-0.22-0.5-0.31c-1.85-1.24-5.06-3.41-6-5.35c-0.28-0.32-0.58-0.59-0.89-0.83
		l-0.06-0.04l-0.02-0.01l-0.04-0.02l-0.09-0.03c-0.06-0.02-0.11-0.02-0.16-0.03c-0.21-0.04-0.32,0.01-0.45-0.31
		c-0.02-0.19-0.05-0.39-0.09-0.6c-0.06,0.19-0.05,0.34-0.13,0.22c0.02-0.16-0.05-0.39-0.1-0.59l-0.03,0.16v0.27
		c-0.08-0.41-0.07,0.05-0.03,0.42c0.04,0.38,0.12,0.69-0.01,0.32c-0.06-0.16-0.13-0.32-0.2-0.48c-0.25-0.03-0.52,0.27-0.73,0.62
		l-0.24,0.45l-0.34,0.68c-0.22,0.46-0.43,0.93-0.64,1.41c-0.83,1.9-1.6,3.88-2.68,5.6c-0.2,0.17-0.42,0.3-0.64,0.42l-0.33,0.17
		l-0.16,0.08c-0.05,0.01-0.08,0.01-0.12,0.02c-0.33,0.04-0.67,0.19-0.88,0.46l0.57,0.08c0.01,0.31-0.51,0-0.95,0.4
		c0.28-0.06,0.55-0.11,0.82-0.15l-0.1,0.31l0.24,0.17l-0.22-0.04c0.19,0.16,0.51,0.28,0.84,0.12c-0.27,0.15-0.54,0.22-0.34,0.44
		c0.35-0.21,0.59-0.26,0.75-0.28c0.04,0,0.08,0,0.11,0c0.04,0.01,0.15,0.09,0.23,0.14c0.16,0.12,0.34,0.25,0.51,0.38
		c-0.08,0.06,0.09,0.34-0.16,0.27c2,0.58,1.49,2.56,3.49,3.06l-0.08,0.05c0.63,1.36,1.61,1.18,2.4,2.59l0.24-0.33
		c0.43,0.6,1.03,1.17,1.79,1.54l-0.16,0.03l0.43,0.36l-0.08,0.05c0.25,0.07,0.51,0.54,1.02,0.69l-0.08,0.05
		c0.09,0.34,0.43,0.52,0.77,0.62l0.01,0.48c0.98,0.28,1.52,1.63,2.47,1.75l-0.01-0.01l0.08,0.03c-0.02,0-0.05-0.01-0.07-0.02
		c0.57,0.5,1.17,1.02,1.78,1.54c0.07,0,0.09-0.02,0.11,0.04c0-0.01,0.01-0.02,0.01-0.02c0.03-0.09,0.03-0.08,0.06-0.06
		c0.01,0.01,0.03,0.03,0.06,0.06c-0.02,0.02,0.08-0.03,0.13-0.05l0.18-0.08l0.36-0.15c0.96-0.38,1.96-0.72,3.37-1.46
		c2.56-1.84,3.56-3.39,5.66-4.37C204.52,140.76,203.6,139.85,203.6,139.85z"/>
	<path class="st0" d="M195.52,100.57c0.01,0.07-0.16,0.28-0.25,0.2c-2.21,1.28-5.14-0.72-7.31,0.43c-1.57,0.59-4.3,1.62-5.88,1.06
		c-0.63,0.01-1.17,0.21-1.71,0.4l-0.4,0.14l-0.2,0.06c-0.06,0.02-0.04,0.02-0.07,0.03c-0.06,0.03-0.12,0.03-0.22-0.03
		c-0.08-0.11-0.16-0.23-0.26-0.34c0.01,0.1,0.03,0.17,0.03,0.21c0.01,0.04,0,0.07-0.02,0.09c-0.05-0.16-0.15-0.21-0.24-0.27
		c0.03,0.11,0.07,0.21,0.11,0.31c-0.19-0.2-0.09,0.04,0.05,0.23c0.13,0.2,0.3,0.34,0.06,0.17c-0.11-0.08-0.25-0.11-0.38-0.16
		c-2.41,1.72-3.19,5.15-5.14,7.46c-0.75,0.36-1.66,0.24-2.18,0.78l0.44,0.31c-0.18,0.51-0.43-0.17-0.9,0.16l0.64,0.22l-0.5,0.9
		l-0.01-0.21c-0.19,0.3-0.31,0.71-0.03,0.9c-0.28-0.13-0.42-0.33-0.7,0.03c0.16,0.12,0.25,0.24,0.31,0.37
		c0.06,0.12,0.03,0.3,0.08,0.34c0.06,0.13,0.06,0.21,0.07,0.29c-0.09-0.04-0.21-0.01-0.3-0.1c0.38,0.32,0.17,0.29-0.17,0.44
		c-0.3,0.1-0.72,0.38-0.04,0.32l-0.14,0.03c-0.36,0.16-0.44,0.26-0.42,0.31c0.02,0.05,0.15,0.04,0.11,0.1
		c0.07,0,0.07,0.04-0.03,0.14l0.63-0.33c-0.1,0.11,0.13,0.12,0.52-0.1l-0.17,0.12l0.12-0.03l-0.11,0.08
		c0.16-0.11,0.1,0.04,0.37-0.18l-0.08,0.09c-0.11,0.17,0.05,0.07,0.19-0.08c-0.06,0.1-0.11,0.21-0.15,0.31
		c0.21-0.22,0.25-0.19,0.32-0.18c0.03,0.01,0.07,0.01,0.11-0.02c0.19-0.01,0.36-0.07,0.52-0.19c0,0-0.01,0-0.01,0l0.06-0.03
		c-0.02,0.01-0.03,0.02-0.05,0.03c1.18,0.05,2.48,0.03,3.68,0.23c2.55,0,3.11,0.81,5.51,1.29c0.88,0.01,1.61-0.08,2.28-0.17
		c0.19-0.33,0.38-0.64,0.59-0.86c-0.15,0.84,0.4-0.28,0.47,0.2c0.24-0.2,0.28-0.49,0.32-0.82c0.02-0.16,0.04-0.33,0.08-0.5
		l0.03-0.12l0.02-0.06c0.01-0.01,0.02,0.01,0.03,0.01c0.05,0.03,0.11,0.09,0.18,0.18l0.32,0.67c0.1-0.14,0.2-0.29,0.3-0.43
		c0.25-0.36,0.51-0.72,0.76-1.08c0.46-0.65,0.91-1.3,1.38-1.95c0.91-1.32,1.83-2.66,2.74-4.03c1.62-2.42,3.25-4.91,4.9-7.42
		L195.52,100.57z"/>
	<path class="st0" d="M210.98,144.54l0.19,2.14c0.07-0.01,0.28,0.16,0.2,0.25c1.29,2.2-0.69,5.14,0.47,7.31
		c0.15,0.39,0.33,0.86,0.5,1.36c0.09,0.25,0.17,0.51,0.25,0.77l0.06,0.2c0.02,0.06,0.04,0.15,0.05,0.15l0.07,0.09
		c0.16,0.25,0.16,0.38-0.13,1c-0.03,0.24,0.07,0.3,0.17,0.28c0.1-0.01,0.21-0.11,0.21,0.03c0.03-0.01,0.04,0,0.05,0.05
		c-0.06,0.2-0.11,0.38-0.15,0.57c0.16-0.34,0.21-0.5,0.27-0.51c-0.1,0.24-0.11,0.39-0.13,0.53c0.07-0.17,0.14-0.33,0.2-0.48
		c-0.09,0.41,0.06,0.01,0.16-0.34c0.11-0.36,0.17-0.67,0.11-0.27l-0.05,0.54c0.14,0.19,0.41,0.1,0.66-0.07
		c0.12-0.09,0.24-0.19,0.35-0.31c0.03-0.03,0.03-0.05,0.09-0.1l0.21-0.19l0.42-0.4c1.12-1.07,2.21-2.22,3.49-3.03
		c0.82-0.11,1.65,0.28,2.32-0.08l-0.32-0.43c0.32-0.43,0.36,0.29,0.9,0.12l-0.54-0.4l0.75-0.7l-0.05,0.2
		c0.27-0.23,0.51-0.58,0.3-0.85c0.23,0.21,0.3,0.45,0.67,0.18c-0.46-0.64,0.05-1.08,0.48-1.54c0.05,0.09,0.29,0.01,0.23,0.21
		c0.25-0.8,0.79-0.97,1.33-1.13c0.27-0.08,0.53-0.16,0.76-0.33c0.12-0.08,0.12-0.19-0.01-0.42l0.07,0.07
		c0.19,0.05,0.29,0.02,0.34-0.02c0-0.1-0.08-0.21-0.11-0.3c-0.02-0.05-0.02-0.09-0.01-0.13c0.02-0.05,0.06-0.02,0.16-0.28h-0.4
		c0.18-0.52,0.23-1.14,0.04-1.76l0.13,0.09l0-0.42l0.09,0.02c-0.1-0.18,0.09-0.55-0.12-0.92l0.09,0.03c0.2-0.21,0.12-0.49-0.02-0.73
		l0.36-0.22c-0.41-0.71,0.27-1.63-0.24-2.26c0,0,0,0.01,0,0.01l-0.03-0.06c0.01,0.02,0.02,0.03,0.03,0.05
		c0.04-1.18,0.02-2.49,0.21-3.68c-0.02-2.55,0.8-3.11,1.26-5.52c0-0.21-0.01-0.39-0.02-0.58c-0.7,0.53-1.38,1.07-2.04,1.62
		c-1.78,1.41-4,3.12-6.38,4.89c-1.2,0.88-2.43,1.79-3.69,2.67l-0.94,0.66c-0.48,0.33-0.97,0.66-1.45,0.98
		c-0.64,0.42-1.27,0.84-1.91,1.25C210.98,144.49,210.98,144.54,210.98,144.54z"/>
	<path class="st1" d="M147.98,89.55c0.24,0.04,0.48,0.05,0.72,0.07C148.68,89.55,148.5,89.53,147.98,89.55z"/>
	<path class="st1" d="M101.33,42.19c-0.04,0.03-0.1,0.07-0.13,0.1C101.29,42.23,101.32,42.21,101.33,42.19z"/>
	<path class="st1" d="M173.27,86.12c-0.02,0-0.03-0.01-0.05-0.01c-0.07,0-0.16-0.01-0.23-0.01L173.27,86.12z"/>
	<path class="st1" d="M85.55,65.25c0.56,3.23,1.78,6.35,3.55,9.13c0,0,0.09,0.16,0.28,0.45c0.2,0.27,0.5,0.67,0.87,1.17
		c0.19,0.24,0.38,0.53,0.62,0.8c0.25,0.27,0.51,0.56,0.79,0.87c0.29,0.3,0.57,0.64,0.9,0.95c0.34,0.3,0.7,0.62,1.06,0.94
		c0.18,0.16,0.37,0.32,0.56,0.49c0.2,0.15,0.41,0.3,0.61,0.45c0.42,0.3,0.84,0.6,1.27,0.91c0.45,0.29,0.92,0.54,1.38,0.81
		c0.46,0.27,0.93,0.53,1.44,0.74c0.49,0.21,0.98,0.43,1.47,0.64c0.49,0.19,1,0.33,1.49,0.49c0.97,0.34,1.95,0.48,2.85,0.65
		c1.81,0.25,3.35,0.25,4.34,0.04c1-0.17,1.43-0.44,1.15-0.77c-0.14-0.17-0.47-0.37-1-0.59c-0.52-0.23-1.25-0.43-2.15-0.84
		c-1.81-0.7-4.48-1.82-7.36-4.27l0.23-0.01c-1.83-1.21-3.07-2.49-4.22-3.59c-0.53-0.59-1.12-1.09-1.6-1.66
		c-0.25-0.28-0.52-0.54-0.79-0.81c-0.26-0.28-0.51-0.56-0.77-0.85c0.11-0.21,0.05-0.5-0.1-0.84c-0.15-0.34-0.33-0.77-0.57-1.19
		c-0.12-0.21-0.24-0.43-0.36-0.64c-0.12-0.21-0.19-0.43-0.28-0.64c-0.17-0.41-0.3-0.77-0.33-1.03l0.09,0.07
		c-0.2-0.28-0.33-0.59-0.44-0.92c-0.11-0.32-0.2-0.65-0.29-0.98c-0.1-0.33-0.12-0.67-0.14-1.01l-0.06-1.02
		c-0.02-1.37,0.08-2.68-0.09-3.98c0.06,0.1,0.27,0.17,0.26,0.75c-0.13-1.85,0.35-4.38,0.84-4.38c0.49-2.12,1.6-4.52,2.99-6.51
		c1.37-2,2.94-3.62,3.9-4.73l-0.08,0.22c0.25-0.34,0.48-0.6,0.71-0.81c0.23-0.21,0.47-0.34,0.71-0.48c0.49-0.27,0.98-0.58,1.77-1.07
		c0.12,0.01,0.25-0.02,0.24,0.01c0.35-0.3,0.82-0.63,1.38-0.84c0.28-0.12,0.57-0.23,0.87-0.35l0.45-0.17l0.47-0.11
		c0.63-0.14,1.23-0.32,1.78-0.4c0.56-0.08,1.04-0.17,1.4-0.28l0.13,0.29c0.59-0.1,1.19-0.1,1.78-0.16c0.59-0.06,1.19-0.06,1.79-0.03
		c-0.44-0.04-0.89-0.09-1.34-0.09c0.23-0.44,0.93-0.3,1.87-0.06c0.94,0.24,2.08,0.61,3.41,0.67c0.81,0.24,1.68,0.31,2.59,0.39
		c0.12,0.01,0.21,0.01,0.36,0.04l0.47,0.09l0.9,0.19c0.57,0.13,1.09,0.25,1.57,0.39c0.64-0.9,1.16-1.73,1.94-2.31
		c0.35-0.64,0.24-0.3,0.22-0.04c-0.02,0.15-0.04,0.29,0.05,0.26c0.11-0.04,0.25-0.18,0.53-0.57c0.35,0.27-0.43,0.83,0.16,0.73
		c0.28-0.37,0.6-0.65,0.92-0.9c0.32-0.26,0.64-0.48,0.99-0.69c0.35-0.21,0.69-0.45,1.06-0.72c0.38-0.26,0.76-0.57,1.18-0.96
		l0.27,0.23c1.03-1.08,2.31-1.7,3.48-2.14c1.18-0.46,2.26-0.77,3.07-1.38c1.39-0.62,1.95-0.52,2.5-0.44
		c0.28,0.03,0.55,0.06,0.93-0.02c0.39-0.05,0.88-0.2,1.62-0.51l1.25,0.29c0.65-0.06,0.87-0.19,1.12-0.34
		c0.24-0.13,0.51-0.3,1.25-0.2c-0.07,0.29,1.85,0.18,1,0.48c1.63,0.23,3.27,0.18,5.07,0.36c1.78,0.18,3.71,0.62,5.56,1.77
		c1.08-0.17,2.93,1.06,3.72,1.08c0,0.07,0.23,0.24,0.55,0.45c0.31,0.22,0.69,0.49,1.01,0.72c0.62,0.47,0.93,0.79-0.22,0.33
		c-0.2-0.08-0.5-0.28-0.43-0.35l-0.42,0.13c0.42,0.47,0.88,0.81,1.33,1.15c0.46,0.32,0.94,0.6,1.4,0.89
		c0.48,0.27,0.96,0.57,1.42,0.9c0.23,0.16,0.47,0.33,0.68,0.53l0.16,0.15l0.21,0.2c0.21,0.2,0.42,0.41,0.61,0.64
		c-0.21-0.28-0.51-0.59-0.69-0.8c-0.12-0.14-0.23-0.27-0.3-0.37c-0.15-0.2-0.18-0.29,0.13-0.15l0.42,0.44
		c0.25,0.25,0.49,0.5,0.73,0.77l1.43,1.6l-0.73-0.38l1.36,1.57l2.13-0.96l1.08-0.46l0.96-0.35c-0.24-0.03-0.57-0.02-0.84-0.04
		c0.17-0.05,0.33-0.1,0.49-0.15c0.08-0.02,0.15-0.04,0.23-0.07l0.13-0.02c0.17-0.02,0.33-0.05,0.49-0.06
		c0.31-0.02,0.59-0.03,0.87-0.05c0.56-0.04,1.11-0.16,1.93-0.56c0.76-0.41-1.57-0.2,0.07-0.6c2.17-0.16,5.38,0.26,7.91,1.03
		c-0.15-0.44,0.55-0.25,1.3-0.14l-0.02,0.36c2.84,0.55,0.71,1,3.35,1.85c-0.11,0.03-0.21,0.05-0.32,0.09
		c0.32-0.1,0.64-0.17,0.98-0.24c0.63,0.19,1.02,0.36,1.24,0.55c0.23,0.2,0.32,0.37,0.43,0.54c0.21,0.37,0.5,0.62,1.84,1.26
		c-0.88-0.72,0.1-0.94,1.06,0.16c-0.16-0.02-0.33-0.01-0.49-0.01c0.61,0.49,0.86,0.63,1.18,1.05c-0.46-0.22-0.5,0.12,0.26,0.96
		c-0.25-0.13-0.54-0.21-0.81-0.31c0.16,0.1,0.32,0.19,0.47,0.29l0.44,0.33l0.89,0.68c0.19,0.38,0.37,0.83,0.62,1.25
		c0.12,0.21,0.25,0.43,0.38,0.64c0.12,0.22,0.22,0.44,0.32,0.65c0.21,0.43,0.41,0.83,0.54,1.17c0.1,0.36,0.14,0.65,0.09,0.85
		c0,0,0.07,0.21,0.17,0.54c0.05,0.16,0.13,0.35,0.18,0.57c0.05,0.21,0.11,0.45,0.17,0.68c0.11,0.48,0.31,0.96,0.4,1.4
		c0.11,0.43,0.25,0.79,0.41,0.98c-0.42-0.66-0.25,1.28-0.7,0.77c0.18,0.43,0.44,1.31,0.49,2.24c0.02,0.92-0.02,1.88-0.33,2.37
		l-0.01-0.21c-0.12,0.48-0.22,0.94-0.3,1.39c-0.13,0.44-0.24,0.87-0.33,1.29c-0.05,0.21-0.08,0.42-0.14,0.63
		c-0.06,0.2-0.12,0.4-0.19,0.6c-0.12,0.4-0.23,0.8-0.34,1.2c-0.15,0.38-0.31,0.76-0.46,1.14l-0.24,0.57l-0.31,0.54
		c-0.21,0.36-0.43,0.71-0.67,1.07c-0.27,0.33-0.57,0.65-0.88,0.98c0.2,0.05,0,0.44-0.22,0.78c-0.22,0.33-0.41,0.65-0.06,0.64
		c-1.05,1.64-2.66,2.51-3.85,3.25c-0.64,0.32-1.19,0.62-1.61,0.98c-0.44,0.32-0.76,0.68-0.91,1.2c-0.77,0.45-1.33,0.49-1.75,0.54
		c-0.43,0.02-0.75,0.05-1.2,0.11c0.13-0.06,0.25-0.11,0.37-0.19c-0.77,0.26-1.41,0.43-1.97,0.6c-0.57,0.12-1.06,0.19-1.53,0.28
		c-0.46,0.1-0.91,0.11-1.39,0.13c-0.48,0.01-0.99,0.07-1.6,0.04c-0.61,0.07-0.97,0.26-1.46,0.4c-0.49,0.13-1.13,0.21-2.21-0.09
		c0.76-0.15-0.14-0.25-0.95-0.45c0.53,0.08,0.7,0.02-0.29-0.43c-0.17,0.05-0.41,0.03-0.63,0.02c0-0.02-0.04-0.05-0.01-0.08
		c-1.33-0.32-1.14-0.18-0.54,0.07c-0.04,0.03-0.01,0.1,0.15,0.24c-0.2-0.12-0.43-0.24-0.67-0.36c-0.36-0.16-0.74-0.33-1.12-0.5
		c-0.86-0.4-1.71-0.81-2.4-1.16c-0.62,0.6-1.08,1.05-1.24,0.94c-0.3,0.34-0.59,0.67-0.88,1c-0.14,0.17-0.29,0.32-0.44,0.47
		l-0.34,0.36c-0.32,0.38-0.67,0.71-1,1.05c-0.32,0.34-0.65,0.66-0.98,0.97c-0.32,0.31-0.64,0.62-0.98,0.9
		c-1.3,1.17-2.65,2.2-4.23,3.07c-0.48-0.06,0.19-0.61,1.04-1.19c-0.35,0.23-0.73,0.42-1.09,0.62c-0.37,0.21-0.74,0.4-1.12,0.58
		c-0.12-0.33,1.22-0.8,1.86-1.22c-1.45,0.43-2.75,1.19-4.21,1.86c-1.45,0.66-3.06,1.24-4.83,1.26l-0.68,0.39l-0.21-0.02
		c0.02,0.08-0.17,0.19-0.42,0.31c-0.25,0.1-0.58,0.19-0.84,0.24c-0.26-0.14-0.27-0.32-0.43-0.45c-0.16-0.13-0.46-0.2-1.32-0.17
		c-0.69-0.12-1.64-0.11-2.67-0.06c-0.51,0.01-1.04,0.02-1.56,0.04c-0.52-0.01-1.01-0.03-1.47-0.04c0.95,0.19,0.62,0.32,0.18,0.37
		c-0.88-0.14-1.3-0.56-1.99-0.57l0.01-0.34c-0.09,0.13-0.56,0.09-1.11,0.02c-0.66-0.08-1.37-0.29-1.56-0.25
		c-0.37-0.46,1.38,0.17,1.66-0.03c-1.67-0.47-2.08-0.63-2.49-0.78c-0.41-0.15-0.82-0.28-2.41-0.99c-1.81-0.56,0.12,0.52-0.85,0.45
		c-1.54-0.67-3.13-1.29-4.54-2.68l0.27,0.68c-0.34-0.21-0.67-0.42-0.98-0.61c-0.3-0.21-0.58-0.42-0.85-0.62
		c-0.55-0.39-0.99-0.82-1.42-1.22c-0.79-0.77-1.55-1.74-2.35-2.97c-0.15-0.12-0.28-0.3-0.39-0.3c-0.8,0.54-1.52,1-2.17,1.39
		c-0.3,0.17-0.59,0.34-0.88,0.5c-0.27,0.16-0.54,0.29-0.8,0.43c-1.04,0.54-1.99,0.94-2.84,1.27c-1.69,0.65-2.94,1-3.75,1.29
		c-1.61,0.56-1.42,0.97-0.53,1.31c0.99,0.34,2.88,0.47,4.5,0.32c1.63-0.12,2.97-0.48,2.97-0.48c0.48-0.1,0.95-0.23,1.4-0.36
		c0.23-0.07,0.45-0.14,0.67-0.21l0.32-0.11c0.01,0,0.04,0,0.03,0c0.02,0.04,0.02,0.08,0,0.11c-0.01,0.03-0.04,0-0.04,0.01l0.35,0.35
		c0.16,0.16,0.33,0.31,0.5,0.46c0.34,0.3,0.67,0.59,1.01,0.89c1.39,1.12,2.83,2.14,4.45,3.03c3.22,1.77,7,3.31,12.11,4.18
		c2.71,0.56,4.97,0.75,6.98,0.82c2.02,0.08,3.8-0.05,5.59-0.26c1.79-0.22,3.57-0.63,5.56-1.3c1.98-0.68,4.18-1.66,6.61-3.28
		c1.48-0.88,2.87-1.96,4.21-3.1l0.97-0.89c0.16-0.15,0.32-0.3,0.47-0.46l0.23-0.24l0.09-0.1l0-0.01l0.08-0.14l0.09,0.01l0.03,0
		l0.09,0.03l0.53,0.17c1.05,0.34,2.11,0.61,3.16,0.81c1.36-0.01,3.15,0.24,5.03,0.26c0.94,0,1.89-0.07,2.8-0.13
		c0.9-0.14,1.76-0.34,2.5-0.57c0.41,0.03,0.82,0.02,1.24,0.03c0.5-0.22,1.05-0.41,1.6-0.62c0.54-0.22,1.09-0.41,1.63-0.51L188,84.67
		c1.4-0.82,3.06-1.51,3.66-2.06l-0.01,0.12c0.54-0.36,1.11-0.67,1.61-1.08l-0.19,0.31c2.17-1.79,4.17-3.82,5.8-5.75l-0.44-0.08
		c0.44-0.5,0.85-0.96,1.19-1.43c0.32-0.48,0.6-0.93,0.86-1.37c0.27-0.43,0.48-0.86,0.65-1.29c0.18-0.42,0.35-0.83,0.53-1.24
		c0.32-0.82,0.54-1.65,0.88-2.53c0.13-0.45,0.27-0.92,0.43-1.42c0.15-0.5,0.37-1.03,0.5-1.61l0.08,0.08
		c0.06-3.09,0.12-5.42,0.05-7.87c-0.04-0.61-0.09-1.22-0.15-1.84c-0.11-0.61-0.25-1.24-0.41-1.88c-0.14-0.65-0.42-1.28-0.7-1.93
		c-0.15-0.33-0.3-0.66-0.47-0.99c-0.2-0.32-0.41-0.64-0.64-0.97c0.45,0.65,0.04-0.39,0.15-0.38c-0.17-0.32-0.34-0.65-0.52-0.96
		c-0.2-0.3-0.4-0.6-0.59-0.9c-0.39-0.58-0.76-1.13-1.17-1.54c-0.79-0.84-1.4-1.33-1.73-1.08c-1.36-1.52-0.94-1.4-0.91-1.81
		c-0.06,0.06-0.19,0.03-0.36-0.07c-0.19-0.09-0.42-0.23-0.69-0.42c-0.54-0.36-1.16-0.94-1.83-1.39l0.67,0.34l-1.87-1.33
		c-0.65-0.4-1.32-0.77-1.99-1.15l0.44,1.02c-0.96-0.71-1.02-0.92-1.07-1.12c-0.05-0.2-0.12-0.36-1.2-0.79l-0.19,0.5
		c-1.48-0.7-2.64-1.35-3.87-1.91c-0.31-0.15-0.61-0.3-0.92-0.44c-0.32-0.13-0.64-0.24-0.98-0.36c-0.68-0.23-1.4-0.51-2.23-0.62
		c-2.2-0.23-4.46-0.08-6.67,0.38c-1.1,0.23-2.2,0.54-3.26,0.93c-0.24,0.09-0.61,0.22-0.64,0.25l-0.16,0.07l-0.1,0.05
		c-0.14,0.07-0.27,0.15-0.42,0.24c-0.12-0.08-0.24-0.2-0.36-0.31l-0.2-0.17l-0.6-0.55l-1.34-1.13l-1.4-1.06
		c-1.89-1.36-3.9-2.52-5.98-3.47c-4.15-1.91-8.51-2.98-12.75-3.5l-0.54-0.42c-0.11-0.29-1-0.12-1.89,0.14
		c-0.89,0.23-1.79,0.54-2.05,0.29c-0.48,0.13-0.95,0.25-1.42,0.42c-0.41-0.05-1.29-0.04-0.59-0.27c-1.34,0.16-1.35,0.32-2.27,0.67
		c-0.5-0.03-0.99-0.01-1.49-0.01c-2.63,0.55-4.93,1.59-7.08,2.87c-2.16,1.29-4.18,2.81-6.33,4.59c-0.6,0.45-1.31,0.96-1.94,1.57
		c-0.21,0.13-0.35,0.27-0.51,0.39c-0.17-0.11-0.33-0.2-0.52-0.28l-0.24-0.1l-0.33-0.13c-0.22-0.08-0.45-0.17-0.67-0.24
		c-0.45-0.16-0.92-0.3-1.39-0.42c-1.88-0.51-3.87-0.78-5.82-0.8c-0.97-0.03-1.93,0.07-2.86,0.17c-0.94,0.05-1.83,0.28-2.7,0.45
		c-1.73,0.39-3.28,0.94-4.58,1.54c-2.33,1.15-4.65,2.49-6.81,4.18c-2.16,1.69-4.13,3.74-5.75,6.1c-1.61,2.36-2.83,5.04-3.47,7.84
		c-0.62,2.8-0.61,5.69-0.02,8.34C85.17,64.4,85.49,65.27,85.55,65.25z"/>
	<path class="st1" d="M138.21,88.84l0,0.1C138.23,88.92,138.23,88.88,138.21,88.84z"/>
	<path class="st1" d="M200,151.88l-0.29-0.01C199.75,151.93,199.84,151.95,200,151.88z"/>
	<path class="st1" d="M193.94,146.27L193.94,146.27c0.04,0.01,0.06,0.02,0.08,0.03L193.94,146.27z"/>
	<path class="st1" d="M173.7,133.8c0,0,0-0.01,0-0.01c-0.06-0.05-0.13-0.1-0.19-0.15L173.7,133.8z"/>
	<path class="st1" d="M178.58,121.58l-0.16-0.18C178.42,121.47,178.45,121.54,178.58,121.58z"/>
	<path class="st2" d="M187.87,96.93c0.01-0.01,0.03-0.02,0.04-0.04"/>
	<path class="st1" d="M172.17,115.4C172.17,115.4,172.18,115.4,172.17,115.4c0.03-0.01,0.05-0.02,0.06-0.03L172.17,115.4z"/>
	<path class="st1" d="M232.06,135.67l-0.18,0.16C231.96,135.84,232.03,135.8,232.06,135.67z"/>
	<path class="st2" d="M207.57,154.35c-0.01-0.01-0.02-0.03-0.04-0.04"/>
	<path class="st1" d="M225.92,142.12C225.92,142.12,225.92,142.11,225.92,142.12c-0.01-0.03-0.02-0.05-0.03-0.06L225.92,142.12z"/>
	<polygon class="st1" points="224.29,157.66 224.29,157.66 224.38,157.89 	"/>
	<path class="st1" d="M287.94,47.58l0.25-0.76C288.11,46.82,288.03,47.01,287.94,47.58z"/>
	<path class="st1" d="M224.43,129.39c0.04-0.05,0.1-0.09,0.13-0.14C224.46,129.34,224.43,129.38,224.43,129.39z"/>
	<path class="st1" d="M270.62,34.56c0.02,0,0.03-0.01,0.04-0.01c0.07-0.03,0.14-0.06,0.2-0.09L270.62,34.56z"/>
	<path class="st1" d="M294.05,32.58c-1.79-0.11-3.77-0.3-6-0.27c-0.57,0-1.15,0.01-1.73,0.01c-0.35,0.01-0.71,0.02-1.06,0.03
		c-0.71,0.03-1.42,0.07-2.13,0.13c-1.42,0.1-2.84,0.27-4.25,0.46c-2.82,0.4-5.59,0.96-8.22,1.61c-1.18,0.57-2.9,0.99-4.65,1.49
		c-0.88,0.24-1.77,0.51-2.6,0.81c-0.84,0.29-1.62,0.62-2.29,0.99l-1.22,0.09c-0.91,0.55-2.02,1.06-3.04,1.32l0.02-0.11
		c-0.67,0.43-1.42,0.76-2.08,1.08c-0.66,0.32-1.23,0.58-1.56,0.8l0.02-0.11c-0.57,0.27-1.12,0.58-1.68,0.88l0.23-0.27
		c-2.33,1.43-4.71,2.87-6.88,4.06l0.39,0.23c-1.16,0.62-2.1,1.2-2.92,1.76c-0.81,0.58-1.5,1.13-2.17,1.67
		c-1.32,1.12-2.6,2.18-4.56,3.52l-0.01-0.11c-0.98,1.16-1.88,2.16-2.82,3c-0.9,0.86-1.78,1.62-2.68,2.38
		c-0.9,0.76-1.81,1.51-2.7,2.41c-0.87,0.91-1.74,1.94-2.6,3.21c0.43-0.63-0.37,0.09-0.4-0.02c-0.46,0.53-0.92,1.06-1.36,1.57
		c-0.42,0.52-0.81,1.02-1.13,1.47c-0.63,0.9-0.98,1.6-0.7,1.88c-1.35,1.5-1.28,1.07-1.68,1.06c0.26,0.21-0.8,1.62-1.79,2.84
		l0.37-0.64l-2.83,3.52l1.07-0.26c-1.68,1.71-1.02-0.06-2.34,1.82l0.43,0.32c-2.15,2.5-4.03,3.48-6.3,5.78
		c-3.14,3.87-6.09,8.06-8.94,12.29c-0.99-0.11-1.66-0.02-2.3,0.64c-0.22-0.77-0.97,0.04-1.27-0.18l0.02-0.07
		c-0.64,0.69-1.53-0.32-2.15,0.3c0.02-0.07,0.01-0.28,0.16-0.31c-0.49,0.16-1.15,0.42-1.24-0.03c-1.18,0.27-2.87,0.26-3.55,1.08
		l0.04-0.13c-0.38,0.55-0.56,0.14-1.01,0.45c-0.03-0.06-0.07-0.08-0.07-0.11c-0.42,0.54-1.38,0.25-1.74,0.5l-0.06-0.3l-0.94,0.19
		l0.36,0.02c-0.02,0.85-0.78-0.44-1.4,0.19c-0.65-0.03-1.09,1.89-1.81,1.57c-0.27,0.43,0.2-0.67-0.24-0.31
		c-0.07-0.43,0.19-0.3,0.02-0.63c-0.44,0.26-0.82-0.35-1.36,0.01l-0.06-0.34c-0.34,0.36-0.71,0.29-1.04,0.21
		c-0.17-0.04-0.33-0.08-0.47-0.07c-0.22,0.02-0.43,0.09-0.59,0.26c-0.52,0.2-0.78,0.01-1.07-0.16c-0.28-0.17-0.58-0.3-1.01-0.02
		c-0.02,0.06-0.03,0.14-0.05,0.22c-0.19,0-0.38,0-0.58,0.02c-0.4,0.43,0.13,0.79-0.39,1.13c-0.18-0.24-0.65,0.51-0.64,0.01
		c-0.15,0.12-0.3,0.27-0.42,0.4c-0.08,0.08-0.14,0.17-0.19,0.27c-0.11,0.2-0.19,0.43-0.28,0.66c-0.18,0.46-0.41,0.92-1.06,1.16
		c0.31,0.53-0.3,0.81-0.06,1.21c-0.22-0.12-0.71,0.92-0.76,0.08c0-0.07,0.06-0.15,0.14-0.08l-0.23-0.26
		c-0.9,0.16-0.41,1.17-0.87,1.64c0.2-0.09,0.33-0.32,0.42-0.04l-0.39,0.46l-0.16-0.27l-0.66,0.63l0.36,0.1
		c-0.4,0.25-0.98,0.03-0.86,0.72c0.09,0.34,0.63-0.06,0.44,0.38c-0.54,0.34-1.34,0.84-1.87,1.39c0.36,0.17,0.23,0.33,0.17,0.54
		l-0.29-0.18c-0.08,0.92-0.78-0.2-0.94,0.66l-0.15-0.2l0.46,0.59c0.13,0.97-0.8-0.1-0.51,1.08c0.14-0.29,0.7,0.32,0.35,0.55
		l-0.21-0.27c-0.07,0.21,0,0.35-0.14,0.43c-0.07-0.21-0.35-0.34-0.49-0.05l-0.21-0.41l0.07,0.42c0.01,0.08,0.03,0.12,0.03,0.22
		l-0.02,0.29c-0.37,0.22-0.66,0.65-0.91,1.02c-0.26,0.37-0.49,0.68-0.83,0.76c0,0-0.32,0.34-0.6,0.74c-0.28,0.4-0.52,0.85-0.31,1
		c-0.18-0.29-0.91,0.51-1.22,0.31c0.15,0.4-0.19,1.38-1.07,1.95l0-0.07c-0.67,0.68-1.03,1.25-1.29,1.73
		c-0.26,0.49-0.4,0.9-0.73,1.39c0.46,0.04,0.83,0.11,1.11,0.27c0.56-0.33,1.15-0.05,1.69-0.49c1.21-0.11,1.59,0.2,2.12,0.38
		c0.51,0.19,1.1,0.25,2.1-0.42c0.77,0.01,0.55,0.43,0.89,0.56l-0.24,0.05c1.54,0.05,1.93,0.08,2.98,0.25
		c0.54-0.09,0.86-0.78,1.37-0.55c-0.22,0.27,0.02,0.24,0.24,0.27c-0.14,0.03-0.2,0.13,0.06,0.36c0.05-0.08,0.12-0.13,0.18-0.17
		c0,0.02,0.01,0.04,0,0.07c0.38-0.06,0.32-0.16,0.16-0.21c0.01-0.04,0.01-0.1-0.04-0.19c0.33,0.42,1.05,0.1,1.04,0.6
		c1.11,0.01,1.95-0.4,2.88-0.49c0.07,0.27-0.17,0.47-0.44,0.53l0.66-0.02c-0.05,0.36-0.4,0.17-0.6,0.22c0.7,0.68,1.65-0.4,2.49,0.25
		l0.22-0.27l0.05,0.05c0.02-0.15,0.24-0.34,0.38-0.37c0.09,0.33-0.1,0.73,0.35,0.77c0.32,0.35,1.02-0.03,1.5-0.15
		c-0.24-0.08-0.14-0.25-0.02-0.35c0.21,0.01,0.3,0.28,0.46,0.24c-0.1,0.11-0.19,0.23-0.3,0.34c0.33,0.57-0.34,1.09-0.09,1.51
		c-0.24-0.08-0.79,1.35-0.84,0.32c0-0.09,0.07-0.2,0.15-0.14l-0.24-0.25c-0.98,0.47-0.47,1.57-0.98,2.29
		c0.22-0.17,0.36-0.49,0.45-0.18l-0.43,0.69l-0.17-0.28l-0.73,0.98l0.39,0.02c-0.44,0.43-1.06,0.32-0.95,1.15
		c0.1,0.4,0.68-0.26,0.48,0.34c-0.3,0.29-0.67,0.65-1.03,1.04c-0.18,0.2-0.37,0.4-0.54,0.61c-0.08,0.1-0.17,0.21-0.25,0.31
		c-0.09,0.12-0.13,0.16-0.28,0.4c0.43,0.03,0.19,0.45,0.03,0.9l-0.35-0.07c-0.45,1.79-1.11,0.48-1.7,2.3
		c0.12,0.11,0.25,0.21,0.38,0.31c-0.01,0.46-0.13,0.69-0.31,0.88c0.07,0.16-0.02,0.28,0.09,0.45c0.1,0.17,0.42,0.42,1.2,0.75
		c-0.58-0.49,0.59-0.48,0.99,0.13l-0.48-0.01c0.41,0.31,0.65,0.35,0.8,0.6c-0.36-0.11-0.55,0.13,0.02,0.62
		c-0.23-0.04-0.47-0.08-0.72-0.13c0.53,0.24,1.03,0.45,1.5,0.63c0.05,0.12,0.15,0.25,0.21,0.35c0.05,0.08,0.1,0.15,0.16,0.22
		c0.12,0.14,0.26,0.27,0.39,0.39c0.26,0.24,0.47,0.46,0.4,0.72c0,0,0.78,1.09,1.35,0.95c-0.41,0.04,0.02,0.64-0.39,0.75
		c0.5-0.01,1.42,0.49,1.44,1.05l-0.08-0.02c0.79,1.33,2.2,1.43,2.82,2.71c0.24-0.32,0.59,0.33,0.82-0.15
		c1.34,0.62,1.08,2.52,2.54,1.76c0.51,0.39,0.27,0.79,0.45,1.08l-0.17-0.05c0.93,0.74,1.19,0.98,1.79,1.62
		c0.42,0.2,0.98-0.27,1.42,0.41c-0.38,0.03-0.12,0.21,0.09,0.42c-0.17-0.1-0.28-0.07-0.14,0.34c0.1-0.03,0.2-0.01,0.29,0.02
		c-0.01,0.02-0.02,0.04-0.04,0.06c0.42,0.27,0.42,0.15,0.29-0.04c0.04-0.02,0.07-0.08,0.07-0.18c0.1,0.62,1.03,0.98,0.72,1.38
		c0.16,0.14,0.31,0.27,0.47,0.4c0.17,0.13,0.33,0.27,0.49,0.39c0.32,0.25,0.62,0.47,0.91,0.67c0.58,0.4,1.1,0.71,1.58,1.02
		c0.3-0.26,0.6-0.5,0.9-0.73c0.17,0.19-0.17,0.66-0.65,1.07l1.13-0.79c0.03,0.41-0.65,0.64-1.01,0.94c0.69-0.07,1.48-0.72,2.17-1.31
		c0.35-0.3,0.69-0.6,1.06-0.85c0.1-0.07,0.17-0.11,0.23-0.15c0.06-0.04,0.13-0.07,0.2-0.1c0.14-0.06,0.29-0.1,0.45-0.12l0.07-0.38
		l0.09,0c-0.08-0.13,0.04-0.45,0.17-0.59c0.31,0.19,0.37,0.64,0.88,0.31c0.57,0.02,1.08-0.83,1.53-1.3
		c-0.32,0.13-0.32-0.08-0.25-0.25c0.25-0.17,0.57,0.02,0.7-0.22l0.25,0.36c-0.31-0.29,0.45-0.78,0.45-0.99
		c0.31,0.19-0.26,0.48-0.2,0.72c1.02-0.66,0.51-0.33,1.52-0.99c0.39-0.61-0.31-0.29-0.24-0.77c0.45-0.37,0.77-0.91,1.46-1.03
		l-0.38-0.22c0.27-0.28,0.51-0.48,0.75-0.65c0.04,0.12,0.05,0.23-0.01,0.31l-0.07-0.02c0.69,0.63-0.31,1.53,0.31,2.15
		c-0.07-0.02-0.28-0.01-0.32-0.16c0.16,0.49,0.42,1.15-0.03,1.24c0.27,1.18,0.27,2.87,1.1,3.54l-0.13-0.04
		c0.55,0.37,0.15,0.55,0.46,1.01c-0.06,0.03-0.08,0.07-0.11,0.07c0.55,0.41,0.25,1.38,0.51,1.73l-0.3,0.06l0.19,0.94l0.02-0.36
		c0.42,0.01,0.32,0.2,0.18,0.47c-0.13,0.31-0.26,0.94,0.07,1.36c0.01,0.51,0.49,0.82,0.92,1c0.43,0.2,0.8,0.26,0.66,0.81
		c0.4,0.03-0.62,0.22-0.27,0.54c-0.39,0.43-0.28-0.04-0.57,0.44c0.13,0.23,0.07,0.6,0.02,1.01c-0.05,0.4-0.08,0.84,0.09,1.08
		l-0.28,0.47c0.34,0.18,0.31,0.82,0.27,1.5c-0.03,0.66-0.06,1.35,0.22,1.2c0.02,0.04,0.04,0.09,0.05,0.13
		c0.41-0.36,0.36-0.01,0.4,0.19c0.04,0.2,0.19,0.24,0.85-0.64c0.06,0.15,0.12,0.29,0.2,0.43c0.46-0.24,0.56-1.12,0.99-1.15
		c-0.13,0.46,0.6-0.15,0.21,0.47c0.57-0.14,1.27-0.85,1.93-1.49c0.68-0.65,1.31-1.22,2.27-1.45c0.13-0.8,1.07-1.07,1.08-1.61
		c0.19,0.17,0.96-0.66,0.76,0.15c-0.02,0.07-0.1,0.12-0.15,0.04l0.14,0.32c0.9,0.12,0.75-0.99,1.33-1.29
		c-0.22,0.02-0.41,0.2-0.41-0.09l0.51-0.32l0.07,0.3l0.82-0.4l-0.31-0.21c0.46-0.12,0.94,0.27,1.04-0.42
		c0.02-0.36-0.61-0.13-0.31-0.5c0.61-0.16,1.54-0.39,2.2-0.75c-0.29-0.28-0.12-0.38,0-0.57l0.22,0.26c0.36-0.85,0.68,0.43,1.09-0.34
		l-0.17-0.47c0.17-0.97,0.73,0.34,0.82-0.87c-0.22,0.23-0.57-0.52-0.17-0.63l0.12,0.32c0.13-0.18,0.11-0.34,0.26-0.36
		c0,0.22,0.23,0.43,0.45,0.19l0.08,0.46l0.12-0.84c0.58,0.01,0.9-0.77,1.33-0.51c0,0,0.93-0.4,0.81-0.94
		c0.03,0.37,0.54,0.15,0.63,0.54c0-0.22,0.1-0.5,0.27-0.71c0.02-0.04,0.15-0.14,0.22-0.21c0.09-0.07,0.18-0.14,0.27-0.19
		c0.18-0.11,0.37-0.18,0.55-0.2l-0.05,0.09c0.69-0.33,1.22-0.76,1.65-1.16c0-0.61-0.03-1.2-0.02-1.75c0.01-0.28,0.03-0.55,0.07-0.82
		c0.02-0.14,0.05-0.27,0.09-0.41c0.04-0.15,0.07-0.17,0.12-0.26c-0.4,0-0.12-0.5-0.64-0.43c-0.38-1.08,1.24-1.76-0.28-2.31
		c-0.03-0.48,0.43-0.51,0.53-0.75l0.07,0.12c-0.03-0.89-0.01-1.15,0.09-1.79c-0.12-0.34-0.83-0.47-0.59-1.04
		c0.27,0.22,0.24-0.02,0.26-0.24c0.03,0.14,0.13,0.2,0.36-0.06c-0.08-0.05-0.13-0.12-0.17-0.18c0.02,0,0.04-0.01,0.07,0
		c-0.06-0.38-0.16-0.32-0.22-0.16c-0.04-0.01-0.1-0.01-0.19,0.04c0.41-0.34,0.09-1.05,0.59-1.04c0.01-1.11-0.41-1.95-0.5-2.88
		c0.27-0.07,0.47,0.16,0.54,0.44l-0.02-0.66c0.37,0.05,0.17,0.39,0.22,0.6c0.68-0.7-0.41-1.65,0.23-2.49l-0.27-0.22l0.05-0.05
		c-0.15-0.01-0.34-0.24-0.37-0.38c0.33-0.09,0.73,0.09,0.76-0.36c0.35-0.32-0.04-1.02-0.16-1.5c-0.08,0.24-0.25,0.14-0.35,0.02
		c0.01-0.22,0.35-0.32,0.23-0.5l0.43,0.03c-0.42,0.04-0.37-0.63-0.54-0.73c0.33-0.09,0.23,0.38,0.47,0.46
		c0.06-0.9,0.03-0.45,0.09-1.35c-0.27-0.51-0.42,0.04-0.77-0.23c-0.04-0.43-0.29-0.88,0.02-1.33l-0.4,0.11
		c-0.05-0.18-0.07-0.34-0.09-0.49c0.14-0.09,0.28-0.19,0.42-0.28c2.21-1.52,4.54-2.97,6.85-4.49c2.3-1.51,4.62-3.03,6.8-4.66
		c1.09-0.81,2.17-1.63,3.2-2.49c1.02-0.87,2-1.76,2.93-2.67c0.32-0.15,0.88-0.84,0.83-0.89c1.25-0.97,2.46-2,3.68-3.02
		c1.21-1.03,2.45-2.01,3.64-3.07c0,0,0.54-0.48,1.43-1.28c0.88-0.81,2.14-1.9,3.5-3.24c1.34-1.35,2.86-2.84,4.3-4.37
		c1.4-1.59,2.76-3.16,3.89-4.58c2.13-2.98,3.39-5.16,2.47-5.1c-0.46,0.03-1.45,0.61-3.13,1.9c-0.42,0.32-0.88,0.69-1.38,1.1
		c-0.5,0.42-1.11,0.82-1.73,1.31c-0.63,0.48-1.31,1-2.05,1.57c-0.73,0.57-1.51,1.19-2.4,1.82l0.08-0.25
		c-0.97,0.83-1.84,1.58-2.64,2.3c-0.79,0.72-1.52,1.39-2.22,2.02c-1.38,1.27-2.54,2.51-3.64,3.93c-0.94-0.23-3.26,2.66-4.34,3.24
		l0.04-0.12c-0.98,1.25-2.33,2.16-3.65,3.06c-1.33,0.89-2.63,1.79-3.65,2.93c0.05-0.12-0.03-0.33,0.51-0.77
		c-1.67,1.43-3.94,3.41-4.35,3.15c-2.03,1.66-4.57,3.51-6.87,5.3c-1.51,1.14-2.91,2.26-4.03,3.26c-1.33-0.82-2.15,1.4-2.15,1.4
		c-0.16,0.31-0.26,0.61-0.34,0.89c-0.73,0.58-1.41,0.9-2.51,1.89c-0.13,0.02-0.27,0.08-0.27,0.04c-1.43,1.6-4.97,3.56-6.25,4.68
		l-0.26-0.19l-3.41,2.39l1.33-0.81c0.01,0.5-0.72,0.83-1.72,1.3c-0.5,0.24-1.08,0.51-1.66,0.85c-0.29,0.17-0.59,0.36-0.88,0.57
		c-0.06,0.05-0.17,0.12-0.19,0.15l-0.1,0.09c-0.06,0.07-0.13,0.14-0.19,0.22c-0.3,0.16-0.56,0.46-0.91,0.85
		c-0.21-0.06-0.46-0.12-0.75-0.21c-0.05-0.14-0.1-0.28-0.16-0.43l0.14-0.04c-0.92-1.33-1.58-2.07-2.82-2.37
		c0.43-0.69-0.88-0.96-0.96-1.41l0.07-0.02c-0.27-0.06-0.48-0.19-0.65-0.37c-0.02-0.02-0.03-0.03-0.04-0.05
		c-0.44-0.49-0.64-1.23-1.25-1.51c-0.03-0.04-0.07-0.08-0.1-0.12c0.08-0.04,0.2-0.08,0.32,0.02c-0.56-0.4-1.34-0.92-1.06-1.29
		c-0.9-0.75-1.92-1.85-2.88-2.49c-1.5-1.57-2.59-3.22-4-4.02c-2.63-2.21-0.92-2.34-3.92-4.37l-0.66-1.3
		c-0.5-0.54-0.88-0.72-0.97-0.64c-0.16,0.02-0.35-0.03-0.47-0.3c0.16-0.05,0.1-0.19,0.07-0.29c-0.02-0.05-0.02-0.09,0.06-0.11
		c0.07-0.02,0.08-0.01,0.2,0.02c0.2-0.2,0.35-0.34,0.42-0.52c0.45-0.81,0.92-1.63,1.4-2.49c1.02-1.81,2.18-3.73,3.9-5.59
		c0.13-1.22,1.82-3.12,1.94-4.03c0.28,0.03,2.9-4.14,1.73-1.5c-0.1,0.23-0.35,0.57-0.41,0.5l0.08,0.47c2.13-1.99,2.69-4.45,4.41-6.7
		c-0.59,0.61-1.2,1.54-0.96,0.8l1.58-2.1l-0.09,0.61l2.43-3.06l-0.6,0.23c1.27-1.44,2.17-1.61,3.06-3.64
		c0.37-0.95-1.46,1.17-0.34-0.52c0.86-0.96,1.95-2.14,3.09-3.38c1.15-1.24,2.3-2.59,3.38-3.81c-0.5-0.01,0.06-0.68,0.57-1.43
		l0.33,0.13c1.82-2.98,1.36-0.52,3.26-3.4l-0.01,0.38l0.04-1.15c1.48-2.8,1.62-0.81,3.14-4.04c-0.83,1.08-1-0.02,0.23-1.17
		l-0.03,0.53c0.56-0.74,0.67-1.06,1.13-1.48c-0.23,0.53,0.17,0.54,1.03-0.52l-0.3,0.95l1.26-2.32c0.78-0.63,1.64-1.59,2.42-2.41
		c0.77-0.83,1.46-1.55,1.9-1.68c0,0,0.77-0.74,1.58-1.6c0.84-0.84,1.72-1.8,1.88-2.33c-0.38,0.82,1.37-0.74,1.15,0
		c0.26-0.51,0.92-1.4,1.67-2.22c0.76-0.78,1.59-1.52,2.19-1.81l-0.15,0.19c0.94-0.71,1.8-1.38,2.57-2.07
		c0.79-0.66,1.54-1.31,2.27-1.96c0.75-0.62,1.5-1.22,2.29-1.81c0.81-0.56,1.66-1.08,2.61-1.55c-0.38-0.24,1.65-1.21,0.91-1.36
		c1.75-1.36,3.66-2.08,5.19-2.71c1.53-0.62,2.7-1.17,3.12-2.21c1.82-0.88,2.34-0.6,3.33-0.89l-0.41,0.25
		c3.46-1.47,4.5-1.81,7.19-2.56c0.65-0.27,0.98-0.59,1.46-0.9c0.48-0.31,1.11-0.63,2.36-0.82c-0.73,0.47,0.26,0.17,1.18-0.03
		c-0.58,0.17-0.73,0.31,0.51,0.25c0.15-0.12,0.4-0.23,0.64-0.33c0.01,0.02,0.07,0.03,0.05,0.06c1.52-0.4,1.24-0.43,0.51-0.34
		c0.03-0.05-0.04-0.1-0.28-0.13c1.67,0.05,4.48-0.79,4.74-0.3c2.26-0.36,4.21-0.68,6.07-0.93c0.47-0.06,0.93-0.12,1.38-0.18
		c0.33-0.05,0.65-0.09,0.97-0.14c0.55-0.07,1.21-0.16,1.83-0.12c0.01,0.06,0.01,0.12,0.02,0.18c-0.14,0.27-0.26,0.27-0.38,0.17
		c-0.23,0.04-0.56,0.13-0.85,0.16c0.22,0,0.48-0.03,0.68,0l0.06,0.71c-0.25,0.12-0.26-0.18-0.27-0.51
		c-0.13-0.04-0.31-0.03-0.45-0.01c0.1,0.07,0.22,0.1,0.29,0.16c-0.05,0.37-0.04,0.64,0,0.94c0.02,0.16,0.05,0.32,0.07,0.48
		c0.02,0.04,0.02,0.31,0.04,0.49l0.03,0.6c0.06,1.62,0.06,3.31-0.35,5.04l0.22,0.83l-0.07,0.23c0.15,0,0.26,0.9,0.24,1.48
		c-0.38,0.51-0.73-0.12-0.94,1.79c-0.27,0.73-0.4,1.81-0.47,2.95c-0.07,1.15-0.18,2.35-0.28,3.35c0.26-1.05,0.37-0.67,0.39-0.19
		c-0.18,0.95-0.58,1.44-0.63,2.19l-0.34,0c0.28,0.2-0.25,2.59-0.17,2.95c-0.44,0.46,0.08-1.53-0.1-1.82
		c-0.86,3.77-0.43,1.89-1.45,5.62c-0.27,2.08,0.5-0.24,0.58,0.82c-0.21,0.9-0.46,1.77-0.71,2.68c-0.27,0.9-0.55,1.85-1.08,2.77
		c0.2-0.16,0.42-0.32,0.61-0.48c-0.52,1.66-1.01,2.96-1.51,4.11c-0.5,1.14-1.15,2.06-1.82,3.02c-0.28,0.76-0.52,1.5-0.78,2.18
		c-0.28,0.67-0.55,1.3-0.8,1.89c-0.51,1.18-0.89,2.26-1.31,3.15c-0.84,1.77-1.38,3.05-1.68,3.94c-0.6,1.76-0.2,1.89,0.65,1.36
		c0.83-0.59,2.09-1.95,3.15-3.17c0.26-0.31,0.52-0.6,0.74-0.88c0.2-0.29,0.39-0.55,0.54-0.77c0.3-0.44,0.49-0.72,0.49-0.72
		c0.77-1.11,1.51-2.15,2.14-3.19c0.58-1.06,1.12-2.08,1.63-3.08c0.25-0.5,0.5-0.99,0.72-1.49c0.2-0.51,0.4-1.01,0.6-1.51
		c0.39-1,0.76-2,1.13-3.02c1.28-4.13,2.4-8.54,3.55-14.72c0.27-1.21,0.51-2.32,0.74-3.35c0.2-1.04,0.39-2,0.57-2.91
		c0.19-0.91,0.33-1.77,0.47-2.6c0.14-0.83,0.29-1.63,0.4-2.42c0.23-1.59,0.44-3.15,0.57-4.89c0.04-0.43,0.07-0.88,0.09-1.34
		c0.01-0.25,0.02-0.49,0.03-0.75c0.02-0.44,0.03-0.89,0.04-1.35C294.17,36.58,294.14,34.65,294.05,32.58z M200.01,146.1
		c-1.41,0.74-2.41,1.08-3.37,1.46l-0.36,0.15l-0.18,0.08c-0.05,0.02-0.15,0.07-0.13,0.05c-0.03-0.02-0.05-0.04-0.06-0.06
		c-0.03-0.03-0.02-0.03-0.06,0.06c0,0.01-0.01,0.02-0.01,0.02c-0.02-0.06-0.04-0.04-0.11-0.04c-0.6-0.52-1.2-1.04-1.78-1.54
		c-0.94-0.12-1.49-1.46-2.47-1.75l-0.01-0.48c-0.34-0.1-0.67-0.27-0.77-0.62l0.08-0.05c-0.5-0.15-0.77-0.62-1.02-0.69l0.08-0.05
		l-0.43-0.36l0.16-0.03c-0.76-0.38-1.35-0.95-1.79-1.54l-0.24,0.33c-0.79-1.41-1.78-1.23-2.4-2.59l0.08-0.05
		c-2-0.5-1.49-2.48-3.49-3.06c0.25,0.07,0.07-0.21,0.16-0.27c-0.17-0.13-0.34-0.26-0.51-0.38c-0.07-0.05-0.19-0.14-0.23-0.14
		c-0.03,0-0.07,0-0.11,0c-0.16,0.02-0.4,0.07-0.75,0.28c-0.21-0.22,0.06-0.28,0.34-0.44c-0.33,0.16-0.64,0.04-0.84-0.12l0.22,0.04
		l-0.24-0.17l0.1-0.31c-0.27,0.04-0.54,0.08-0.82,0.15c0.44-0.4,0.95-0.09,0.95-0.4l-0.57-0.08c0.21-0.27,0.55-0.41,0.88-0.46
		c0.04-0.01,0.08,0,0.12-0.02l0.16-0.08l0.33-0.17c0.22-0.12,0.43-0.25,0.64-0.42c1.08-1.72,1.85-3.7,2.68-5.6
		c0.21-0.48,0.42-0.95,0.64-1.41l0.34-0.68l0.24-0.45c0.2-0.35,0.48-0.66,0.73-0.62c0.07,0.15,0.13,0.31,0.2,0.48
		c0.13,0.37,0.05,0.07,0.01-0.32c-0.05-0.38-0.06-0.83,0.03-0.42v-0.27l0.03-0.16c0.06,0.2,0.13,0.43,0.1,0.59
		c0.08,0.11,0.07-0.04,0.13-0.22c0.04,0.21,0.07,0.41,0.09,0.6c0.13,0.32,0.23,0.28,0.45,0.31c0.05,0.01,0.11,0.02,0.16,0.03
		l0.09,0.03l0.04,0.02l0.02,0.01l0.06,0.04c0.31,0.24,0.61,0.51,0.89,0.83c0.93,1.95,4.14,4.11,6,5.35c0.17,0.09,0.34,0.2,0.5,0.31
		c0.36,0.33,0.73,0.66,1.1,0.99c1.73,1.9,2.81,4.72,5.14,5.88c0.02,0.13,0.34,0.18,0.38,0.13l2.02,2.07c0,0,0.91,0.91,2.06,1.88
		C203.56,142.72,202.57,144.27,200.01,146.1z M212.87,143.16c0.48-0.33,0.97-0.65,1.45-0.98l0.94-0.66
		c1.25-0.88,2.49-1.79,3.69-2.67c2.38-1.78,4.6-3.49,6.38-4.89c0.66-0.55,1.35-1.08,2.04-1.62c0.01,0.19,0.02,0.37,0.02,0.58
		c-0.47,2.41-1.28,2.97-1.26,5.52c-0.2,1.19-0.17,2.5-0.21,3.68c0.51,0.62-0.17,1.54,0.24,2.26l-0.36,0.22
		c0.14,0.25,0.22,0.53,0.02,0.73l-0.09-0.03c0.21,0.37,0.02,0.73,0.12,0.92l-0.09-0.02l0,0.42l-0.13-0.09
		c0.2,0.62,0.14,1.23-0.04,1.76h0.4c-0.11,0.25-0.14,0.23-0.16,0.28c-0.02,0.04-0.01,0.08,0.01,0.13c0.03,0.09,0.11,0.21,0.11,0.3
		c-0.05,0.05-0.15,0.08-0.34,0.02l-0.07-0.07c0.13,0.23,0.13,0.34,0.01,0.42c-0.23,0.16-0.49,0.25-0.76,0.33
		c-0.53,0.16-1.08,0.32-1.33,1.13c0.06-0.2-0.18-0.12-0.23-0.21c-0.44,0.46-0.94,0.91-0.48,1.54c-0.37,0.26-0.44,0.02-0.67-0.18
		c0.21,0.27-0.03,0.62-0.3,0.85l0.05-0.2l-0.75,0.7l0.54,0.4c-0.55,0.17-0.58-0.55-0.9-0.12l0.32,0.43
		c-0.67,0.36-1.5-0.03-2.32,0.08c-1.28,0.8-2.37,1.96-3.49,3.03l-0.42,0.4l-0.21,0.19c-0.06,0.05-0.06,0.07-0.09,0.1
		c-0.1,0.11-0.22,0.22-0.35,0.31c-0.25,0.17-0.52,0.26-0.66,0.07l0.05-0.54c0.05-0.4-0.01-0.09-0.11,0.27
		c-0.1,0.35-0.26,0.75-0.16,0.34c-0.06,0.16-0.13,0.32-0.2,0.48c0.02-0.14,0.03-0.29,0.13-0.53c-0.06,0.01-0.1,0.17-0.27,0.51
		c0.04-0.18,0.09-0.37,0.15-0.57c-0.01-0.05-0.02-0.06-0.05-0.05c0-0.13-0.11-0.04-0.21-0.03c-0.1,0.02-0.21-0.04-0.17-0.28
		c0.3-0.63,0.3-0.75,0.13-1l-0.07-0.09c-0.01,0-0.03-0.08-0.05-0.15l-0.06-0.2c-0.08-0.26-0.17-0.52-0.25-0.77
		c-0.17-0.5-0.35-0.96-0.5-1.36c-1.16-2.16,0.82-5.11-0.47-7.31c0.07-0.09-0.14-0.26-0.2-0.25l-0.19-2.14c0,0,0-0.05-0.01-0.13
		C211.6,143.99,212.23,143.58,212.87,143.16z M190.88,107.97c-0.91,1.37-1.83,2.71-2.74,4.03c-0.46,0.66-0.92,1.31-1.38,1.95
		c-0.26,0.36-0.51,0.72-0.76,1.08c-0.1,0.14-0.2,0.29-0.3,0.43l-0.32-0.67c-0.07-0.09-0.13-0.14-0.18-0.18
		c-0.01,0-0.03-0.02-0.03-0.01l-0.02,0.06l-0.03,0.12c-0.04,0.17-0.06,0.34-0.08,0.5c-0.04,0.33-0.08,0.62-0.32,0.82
		c-0.07-0.48-0.62,0.64-0.47-0.2c-0.21,0.22-0.41,0.52-0.59,0.86c-0.67,0.09-1.39,0.18-2.28,0.17c-2.41-0.48-2.96-1.3-5.51-1.29
		c-1.19-0.2-2.49-0.18-3.68-0.23c-0.16,0.13-0.33,0.18-0.52,0.19c-0.04,0.03-0.07,0.03-0.11,0.02c-0.07-0.02-0.11-0.04-0.32,0.18
		c0.04-0.11,0.09-0.21,0.15-0.31c-0.14,0.15-0.29,0.25-0.19,0.08l0.08-0.09c-0.27,0.22-0.21,0.08-0.37,0.18l0.11-0.08l-0.12,0.03
		l0.17-0.12c-0.4,0.22-0.62,0.21-0.52,0.1l-0.63,0.33c0.09-0.1,0.09-0.13,0.03-0.14c0.03-0.06-0.09-0.06-0.11-0.1
		c-0.03-0.04,0.06-0.14,0.42-0.31l0.14-0.03c-0.69,0.05-0.27-0.22,0.04-0.32c0.33-0.14,0.55-0.11,0.17-0.44
		c0.09,0.08,0.21,0.06,0.3,0.1c-0.01-0.08-0.01-0.16-0.07-0.29c-0.05-0.04-0.02-0.22-0.08-0.34c-0.05-0.13-0.15-0.25-0.31-0.37
		c0.28-0.36,0.42-0.16,0.7-0.03c-0.28-0.2-0.16-0.6,0.03-0.9l0.01,0.21l0.5-0.9l-0.64-0.22c0.47-0.33,0.72,0.35,0.9-0.16l-0.44-0.31
		c0.52-0.55,1.44-0.43,2.18-0.78c1.95-2.31,2.74-5.73,5.14-7.46c0.13,0.05,0.27,0.08,0.38,0.16c0.24,0.17,0.08,0.02-0.06-0.17
		c-0.14-0.19-0.24-0.44-0.05-0.23c-0.04-0.1-0.08-0.2-0.11-0.31c0.09,0.06,0.19,0.12,0.24,0.27c0.03-0.02,0.03-0.05,0.02-0.09
		c0-0.04-0.02-0.11-0.03-0.21c0.1,0.11,0.18,0.22,0.26,0.34c0.1,0.06,0.16,0.06,0.22,0.03c0.02-0.01,0.01-0.02,0.07-0.03l0.2-0.06
		l0.4-0.14c0.54-0.19,1.08-0.4,1.71-0.4c1.58,0.56,4.31-0.47,5.88-1.06c2.17-1.15,5.1,0.85,7.31-0.43c0.09,0.07,0.26-0.14,0.25-0.2
		l0.25-0.02C194.12,103.06,192.5,105.55,190.88,107.97z"/>
	<path class="st1" d="M286.05,58.39l0.1,0C286.12,58.37,286.09,58.37,286.05,58.39z"/>
	<path class="st1" d="M233.7,69.71l0.32-0.04C233.97,69.61,233.88,69.6,233.7,69.71z"/>
	<path class="st2" d="M239.96,100.13c-0.02,0.01-0.05,0.01-0.07,0.02"/>
	<path class="st1" d="M244,71.3c0,0-0.01,0-0.01,0c-0.02,0.02-0.03,0.03-0.05,0.04L244,71.3z"/>
	<polygon class="st1" points="262.83,78.74 262.83,78.74 263.09,78.79 	"/>
	<path class="st1" d="M262.95,84.82c-0.26-0.38-0.51,0.62-0.57-0.12c0.13-0.45,0.34-1.03,0.46-1.65c0.09-0.62,0.21-1.3,0.18-1.91
		c-0.37,0.16-0.41-0.17-0.54-0.48l0.33-0.09c-0.68-1.19,0.7-0.62,0.02-1.82l-0.52-0.11c-0.94-0.91,0.53-0.83-0.78-1.74
		c0.23,0.45-0.63,0.47-0.69-0.13l0.36,0.02c-0.18-0.29-0.34-0.34-0.38-0.57c0.25,0.11,0.49-0.09,0.22-0.53l0.52,0.14
		c-0.32-0.21-0.65-0.41-0.96-0.6c0.01-0.41-0.25-0.82-0.48-1.17c-0.22-0.35-0.41-0.67-0.3-0.92c0,0-0.04-0.09-0.12-0.23
		c-0.08-0.13-0.2-0.31-0.33-0.49c-0.27-0.35-0.62-0.71-0.93-0.68c0.46,0.04-0.04-0.7,0.41-0.75c-0.56-0.09-1.57-0.78-1.7-1.36
		l0.1,0.03c-0.28-0.38-0.57-0.69-0.91-0.92c-0.34-0.23-0.69-0.41-1.03-0.58c-0.33-0.19-0.69-0.33-1.02-0.51
		c-0.33-0.18-0.64-0.42-0.94-0.72c-0.12,0.38-0.79-0.18-0.83,0.36c-0.42-0.06-0.77-0.24-1.08-0.43c-0.32-0.17-0.61-0.38-0.88-0.54
		c-0.53-0.35-1.03-0.46-1.51,0.23c-0.72-0.09-0.74-0.59-1.11-0.72l0.19-0.05c-1.39-0.11-1.79-0.14-2.81-0.21
		c-0.52,0.13-0.6,0.83-1.48,0.71c0.28-0.3-0.09-0.23-0.42-0.21c0.21-0.06,0.28-0.17-0.19-0.34c-0.06,0.09-0.15,0.15-0.23,0.2
		c-0.01-0.02-0.02-0.04-0.02-0.07c-0.55,0.15-0.44,0.25-0.18,0.24c-0.01,0.05,0.02,0.1,0.11,0.17c-0.62-0.3-1.58,0.26-1.74-0.22
		c-1.66,0.49-2.64,1.35-3.77,2.12c-0.25-0.16-0.06-0.51,0.27-0.77l-0.86,0.51c-0.16-0.33,0.42-0.44,0.67-0.64
		c-0.66,0-1.19,0.37-1.65,0.85c-0.48,0.47-0.95,0.92-1.65,1.14l-0.06,0.4l-0.1,0.01c0.1,0.12-0.02,0.47-0.15,0.63
		c-0.35-0.12-0.46-0.58-0.96-0.1c-0.31,0.07-0.58,0.36-0.8,0.72c-0.21,0.37-0.38,0.8-0.55,1.12c0.3-0.25,0.35-0.04,0.32,0.16
		c-0.22,0.25-0.6,0.19-0.64,0.49l-0.36-0.24c0.4,0.15-0.19,0.98-0.11,1.18c-0.38-0.03,0.09-0.58-0.05-0.79
		c-0.79,1.13-0.41,0.56-1.1,1.75c-0.09,0.78,0.42,0.09,0.57,0.58c-0.25,0.58-0.2,1.25-0.75,1.78l0.45-0.05
		c-0.15,1.16-0.41,1.74-0.95,2.39c0.03,0.28,0.06,0.54,0.1,0.79c0.05,0.25,0.11,0.48,0.17,0.69c0.12,0.43,0.23,0.79,0.37,1.09
		c0.3,0.62,0.58,1.01,0.84,1.27c0.53,0.51,0.98,0.49,1.31,0.19c0.35-0.25,0.62-0.67,0.79-1.03c0.08-0.18,0.17-0.34,0.22-0.46
		c0.05-0.12,0.09-0.19,0.09-0.19c0.57-1.15,0.82-1.96,0.97-2.96c0.22-0.96,0.4-2.1,1.27-3.39c0.25-0.23,0.48-0.44,0.69-0.62
		c0.21-0.18,0.45-0.31,0.66-0.44c0.4-0.27,0.81-0.43,1.19-0.61c0.77-0.35,1.52-0.67,2.68-1.32c1.18-0.43,2.47-0.85,3.73-0.99
		c0.14-0.15,0.32-0.24,0.52-0.28c0.2-0.04,0.41-0.01,0.63,0c0.22,0.02,0.44,0.03,0.65,0.02c0.21,0,0.42-0.02,0.62-0.11l0.23,0.37
		c0.14-0.06,0.28-0.11,0.42-0.12c0.14,0.01,0.27,0.06,0.37,0.18l-0.04,0.09c0.41-0.14,0.79,0.08,1,0.04l-0.04,0.09l0.44,0.12
		l-0.12,0.1c0.71-0.06,1.33,0.26,1.81,0.61l0.14-0.37c0.45,0.54,0.88,0.65,1.27,0.84c0.38,0.2,0.81,0.35,1.05,0.97l-0.08,0.06
		c0.92,0.08,1.2,0.7,1.45,1.24c0.12,0.28,0.21,0.59,0.39,0.84c0.19,0.25,0.43,0.49,0.84,0.69c-0.21-0.1-0.13,0.18-0.22,0.21
		c0.11,0.13,0.23,0.27,0.35,0.4c0.1,0.14,0.21,0.26,0.33,0.36c0.23,0.19,0.51,0.28,0.87,0.13c0.23,0.49-0.06,0.5-0.3,0.68
		c0.32-0.14,0.61,0.25,0.78,0.65l-0.19-0.14c0.19,0.36,0.31,0.74,0.45,1.12l0.57-0.4c-0.01,0.69-0.72,0.35-0.42,0.92l0.52-0.12
		c0.02,0.47-0.15,0.87-0.36,1.24c-0.2,0.38-0.52,0.74-0.69,1.15c-0.06,1.68-0.05,3.45-0.51,5.18c-0.44,1.71-1.4,3.34-2.86,4.17
		l-0.38-0.18c-0.22-0.18-0.22,0.12-0.23,0.42c-0.01,0.31-0.04,0.64-0.26,0.48l-0.1,0.46c-0.15-0.02-0.4,0.02-0.33-0.19
		c-0.29,0.18-0.23,0.26-0.33,0.56l-0.5-0.08c-0.64,0.23-1.08,0.66-1.6,1.02c-0.49,0.41-1.07,0.74-1.76,0.91
		c-0.93-0.15-2.06,0.14-3.29,0.28l-0.46,0.08L244.13,96c-0.31,0.04-0.62,0.07-0.92,0.11c-0.59,0-1.17,0.09-1.65,0.04
		c-1.43,0.15-2.74-0.81-3.75-1.84c-1.04-1.06-1.81-2.16-3.03-2.84c0-0.11-0.27-0.18-0.32-0.14c-0.22-0.34-0.49-0.66-0.68-1.02
		c-0.19-0.36-0.42-0.7-0.58-1.07c0,0-0.08-0.17-0.21-0.44c-0.07-0.14-0.15-0.3-0.25-0.48c-0.08-0.19-0.17-0.4-0.26-0.62
		c-0.42-0.88-0.76-2.03-1.16-2.95c-0.33-0.91-0.79-1.62-1.45-1.45c-0.33,0.09-0.7,0.4-1.13,1.1c-0.1,0.17-0.22,0.37-0.32,0.59
		c-0.09,0.22-0.18,0.47-0.28,0.75c-0.09,0.28-0.18,0.59-0.27,0.93c-0.07,0.34-0.12,0.71-0.18,1.12l-0.14-0.05
		c0.05,0.94,0.27,1.67,0.52,2.3c0.28,0.62,0.7,1.11,1.25,1.52c-0.58,0.55,0.69,1.33,0.73,1.81l-0.08,0c0.59,0.27,0.8,0.81,1.07,1.33
		c0.28,0.51,0.56,1.05,1.14,1.23c-0.07,0.01-0.25,0.16-0.43-0.01c0.65,0.49,1.56,1.07,1.33,1.46c0.4,0.27,0.83,0.58,1.27,0.89
		c0.46,0.29,0.94,0.56,1.41,0.82c0.97,0.45,1.91,0.76,2.61,0.6l-0.12,0.09c0.81-0.25,0.85,0.27,1.66,0.21
		c0.02,0.07,0.07,0.11,0.05,0.13c0.42-0.16,0.93-0.01,1.44,0.08c0.5,0.09,0.99,0.22,1.29,0.16l0,0.31c0.49,0.02,0.98,0.01,1.47,0.01
		l-0.54-0.09c0.12-0.41,0.38-0.27,0.75-0.08c0.38,0.19,0.89,0.34,1.4,0.05c0.5,0.05,0.96-0.47,1.37-0.94
		c0.21-0.23,0.41-0.46,0.62-0.6c0.21-0.16,0.42-0.26,0.68-0.22c0.34-0.49-0.24,0.72,0.36,0.26c0.14,0.42-0.25,0.35,0.02,0.64
		c0.31-0.19,0.62-0.14,0.95-0.15c0.32-0.01,0.67-0.04,1.03-0.33l0.16,0.31c0.44-0.47,0.94-0.64,1.45-0.75
		c0.51-0.1,0.95-0.25,1.13-0.7c0.85-0.85,1.26,0.41,1.89-0.89c0.23,0.02,0.46,0.04,0.69,0.06c0.46-0.32-0.08-0.69,0.52-0.93
		c0.17,0.24,0.73-0.35,0.66,0.09c0.67-0.33,1.03-0.99,1.43-1.65c0.37-0.7,0.8-1.36,1.59-1.97c-0.14-0.32-0.01-0.63,0.11-0.92
		c0.1-0.3,0.22-0.59,0.09-0.81c0.12,0.03,0.33-0.38,0.51-0.65c0.17-0.28,0.32-0.43,0.36,0.16c0,0.1-0.07,0.24-0.16,0.19l0.25,0.25
		c0.54-0.35,0.61-0.87,0.64-1.38c0.03-0.51-0.02-1.03,0.14-1.53c-0.19,0.27-0.26,0.68-0.41,0.35l0.28-0.92l0.22,0.26
		c0.18-0.46,0.35-0.92,0.46-1.4l-0.38,0.14C262.72,85.87,263.39,85.68,262.95,84.82z"/>
	<path class="st1" d="M107.63,113.51c-0.24-0.12-0.47-0.27-0.72-0.36C106.9,113.22,107.09,113.31,107.63,113.51z"/>
	<path class="st1" d="M140.06,167.81c0.07-0.01,0.14-0.02,0.2-0.04C140.12,167.79,140.08,167.8,140.06,167.81z"/>
	<path class="st1" d="M75.42,116.6c0.01-0.01,0.02-0.03,0.04-0.04c0.05-0.07,0.1-0.14,0.14-0.2L75.42,116.6z"/>
	<path class="st1" d="M165.19,141.43c0,0-0.08-0.2-0.21-0.56c-0.13-0.36-0.41-0.86-0.72-1.49c-0.62-1.26-1.71-2.9-3.17-4.56
		c-1.47-1.65-3.42-3.21-5.51-4.41c-2.09-1.23-4.38-1.98-6.38-2.37c-0.5-0.08-0.99-0.16-1.45-0.24c-0.46-0.04-0.91-0.06-1.32-0.07
		c-0.41-0.01-0.79-0.03-1.14-0.01c-0.35,0.03-0.67,0.07-0.95,0.11c-1.12,0.17-1.61,0.43-1.29,0.77c0.16,0.17,0.53,0.37,1.11,0.6
		c0.29,0.11,0.64,0.23,1.04,0.36c0.4,0.17,0.85,0.34,1.36,0.54c0.51,0.17,1.06,0.44,1.67,0.72c0.3,0.14,0.62,0.27,0.95,0.44
		c0.32,0.18,0.65,0.36,1,0.56c0.71,0.35,1.39,0.89,2.15,1.38c0.71,0.59,1.5,1.16,2.22,1.91l-0.25-0.02c1.88,1.54,3.15,3.05,4.2,4.46
		c0.26,0.35,0.48,0.72,0.73,1.06c0.12,0.17,0.25,0.34,0.37,0.51l0.32,0.53c0.23,0.35,0.45,0.69,0.68,1.04
		c0.2,0.36,0.41,0.72,0.64,1.09c-0.24,0.37-0.03,1.32,0.28,2.33c0.11,0.52,0.22,1.06,0.33,1.53c0.07,0.48,0.07,0.91,0.02,1.19
		l-0.07-0.1c0.42,1.45,0.1,3-0.28,4.43c-0.49,1.42-1.04,2.75-1.46,4.11c-0.01-0.13-0.17-0.27,0.1-0.85
		c-0.2,0.46-0.43,0.97-0.65,1.47c-0.25,0.49-0.55,0.95-0.8,1.36c-0.55,0.8-1.1,1.31-1.3,1.23c-1.46,1.91-3.81,3.72-6.23,4.89
		c-2.41,1.21-4.85,1.77-6.41,2.29l0.21-0.14c-0.9,0.28-1.48,0.35-2.13,0.35c-0.69-0.01-1.4-0.05-2.53,0.07
		c-0.12-0.06-0.28-0.09-0.26-0.12c-2.21,0.49-6.44,0.08-8.23,0.29l-0.12-0.31l-4.4,0.07l1.64,0.07c-0.57,0.84-3.32-0.53-6.51,0.02
		c-2.98-0.11-6.05,1.75-9.15,1.33c-1.48,0.39,1.3-0.64-0.91-0.34c-0.07-0.44,1.03-0.27,0.46-0.62c-2.17,0.21-3.56-0.45-6.23-0.15
		l-0.11-0.34c-3.49,0.62-6.58-0.45-8.91,0.15c-3.6,0.28-2.41-1.01-6.16-0.35l-1.46-0.46c-1.6-0.07-1.15,0.57-2.93,0.34
		c0.11-0.29-2.25-0.23-1.21-0.51c-4.02-0.45-8.17,0.65-13.47-0.12c-1.15,0.57-3.82,0.23-4.68,0.65c-0.14-0.25-5.35-0.04-2.35-0.58
		c0.26-0.04,0.71-0.04,0.68,0.06l0.36-0.34c-3.02-0.63-5.49,0.35-8.48,0.25c0.89,0.11,2.07,0.08,1.28,0.31l-2.78-0.05l0.58-0.28
		c-0.34-0.02-0.71-0.02-1.02-0.05l-0.89-0.09l-0.89-0.08l-0.87-0.17l0.44,0.42c-0.87-0.22-1.42-0.47-1.98-0.75
		c-0.28-0.13-0.58-0.23-0.93-0.31c-0.35-0.08-0.74-0.18-1.24-0.22c-0.95-0.04,1.43,1-0.38,0.48c-0.14-0.06-0.28-0.13-0.42-0.19
		c-0.14-0.08-0.28-0.16-0.42-0.25c-0.29-0.17-0.59-0.34-0.9-0.53c-0.32-0.16-0.6-0.41-0.91-0.62c-0.3-0.23-0.63-0.42-0.92-0.68
		c-0.58-0.51-1.21-0.99-1.74-1.57c-0.58-0.53-1.05-1.13-1.54-1.68c-0.05,0.23-0.21,0.2-0.44,0.04c-0.21-0.17-0.47-0.49-0.76-0.79
		l0.21-0.28c-0.14-0.14-0.27-0.26-0.38-0.37c-0.1-0.12-0.18-0.24-0.26-0.34c-0.14-0.21-0.24-0.37-0.3-0.51
		c-0.13-0.28-0.12-0.45-0.11-0.61c0-0.16,0.05-0.35-0.04-0.63c-0.07-0.29-0.31-0.67-0.67-1.33l0.31,0.15
		c-0.31-0.15-0.62-0.31-0.94-0.48c-0.2-0.3-0.36-0.55-0.47-0.76c-0.09-0.22-0.14-0.41-0.17-0.57c-0.06-0.32-0.04-0.53-0.02-0.75
		c0.01-0.22,0.02-0.44-0.03-0.79c-0.05-0.35-0.27-0.82-0.55-1.58c0.05,0.62-0.05,0.78-0.28,0.6c-0.24-0.17-0.39-0.73-0.37-1.53
		l0.35,0.38c-0.05-0.43-0.13-0.71-0.17-0.97c-0.02-0.25-0.02-0.47,0.02-0.76c0.15,0.52,0.47,0.28,0.47-0.96l0.37,0.86
		c-0.2-0.78-0.24-1.57-0.32-2.39c0.37-0.86,0.64-1.99,1.04-2.96c0.16-0.5,0.4-0.93,0.6-1.28c0.21-0.35,0.4-0.61,0.59-0.71
		c0,0,0.14-0.2,0.36-0.51c0.1-0.16,0.23-0.34,0.36-0.54c0.07-0.1,0.13-0.21,0.2-0.32c0.08-0.1,0.16-0.21,0.25-0.31
		c0.34-0.42,0.64-0.91,0.95-1.29c0.3-0.39,0.53-0.75,0.59-1c-0.16,0.4,0.15,0.22,0.48,0.05c0.36-0.15,0.72-0.31,0.62,0.03
		c0.13-0.23,0.35-0.53,0.63-0.88c0.29-0.33,0.68-0.65,1.07-0.99c0.38-0.35,0.85-0.58,1.25-0.81c0.21-0.11,0.4-0.2,0.58-0.28
		c0.19-0.06,0.37-0.1,0.52-0.12l-0.18,0.13c2.03-0.82,3.78-1.41,5.57-1.8c1.77-0.39,3.63-0.55,5.55-0.02
		c-0.12-0.45,1.92,0.18,1.52-0.42c0.86,0.08,1.66,0.31,2.39,0.6c0.37,0.14,0.71,0.31,1.04,0.48c0.16,0.09,0.32,0.18,0.48,0.27
		l0.24,0.14c0.22,0.12,0.31,0.18,0.47,0.28c0.29,0.18,0.57,0.35,0.84,0.52c0.28,0.2,0.55,0.4,0.81,0.59
		c0.53,0.38,1.06,0.8,1.56,1.16c1,0.74,1.88,1.36,2.52,1.69c0.07-0.15,0.09-0.42,0.12-0.66c0.03-0.24,0.05-0.48,0.06-0.71
		c0.03-0.47,0.03-0.93-0.01-1.37c0.21-0.84,0.39-1.46,0.57-1.97c0.18-0.49,0.36-0.81,0.52-1.13c0.33-0.61,0.62-1.07,0.93-1.86
		l-0.17,0.78c0.11-0.37,0.22-0.72,0.33-1.06l0.04-0.12l0.03-0.07l0.06-0.14c0.04-0.09,0.08-0.19,0.12-0.27
		c0.16-0.36,0.3-0.69,0.44-0.99c0.25-0.62,0.55-1.11,0.82-1.59c0.28-0.46,0.5-0.94,0.83-1.37c0.32-0.45,0.67-0.93,1.07-1.49
		c0.38-0.59,0.48-1.03,0.69-1.57c0.11-0.26,0.24-0.57,0.49-0.89c0.25-0.32,0.59-0.68,1.07-1.1c-0.19,0.4-0.11,0.4,0.1,0.22
		c0.21-0.18,0.54-0.55,0.91-0.84c-0.43,0.43-0.5,0.62,0.57-0.03c0.07-0.18,0.24-0.4,0.41-0.6c0.02,0.01,0.07-0.01,0.07,0.03
		c0.56-0.56,0.81-0.76,0.81-0.82c0.01-0.05-0.22,0.06-0.53,0.27c0-0.06-0.08-0.06-0.3,0.02c0.36-0.21,0.81-0.43,1.23-0.72
		c0.43-0.27,0.85-0.6,1.26-0.85c0.83-0.49,1.52-0.87,1.73-0.71c2.05-1.17,3.85-2.13,5.68-2.83c0.46-0.18,0.9-0.37,1.36-0.53
		c0.46-0.14,0.92-0.28,1.38-0.42c0.92-0.31,1.88-0.46,2.88-0.64c0.47,0.2-0.44,0.54-1.56,0.78l1.39-0.22
		c0.46-0.08,0.93-0.16,1.4-0.18c0,0.2-0.4,0.22-0.9,0.32c-0.5,0.08-1.11,0.14-1.53,0.23c1.69,0.05,3.36-0.21,5.16-0.32
		c0.9-0.02,1.82-0.12,2.75,0.01c0.47,0.05,0.94,0.11,1.41,0.19c0.47,0.08,0.93,0.25,1.4,0.41l0.86-0.11l0.22,0.1
		c0.03-0.18,0.94-0.12,1.52,0.01c0.22,0.23,0.16,0.41,0.27,0.59c0.06,0.09,0.16,0.19,0.36,0.29c0.21,0.09,0.51,0.22,0.95,0.4
		c1.32,0.78,4.03,1.58,5.83,2.55c-0.9-0.6-0.51-0.58-0.05-0.43c0.43,0.24,0.7,0.54,0.96,0.8c0.26,0.26,0.5,0.49,0.85,0.65
		l-0.14,0.31c0.14-0.08,0.63,0.15,1.12,0.5c0.61,0.41,1.28,0.91,1.48,0.96c0.21,0.6-1.35-0.78-1.68-0.75
		c1.51,1.22,1.83,1.6,2.18,1.94c0.34,0.35,0.73,0.65,1.97,2.14c1.57,1.42,0.09-0.56,1.02-0.01c0.57,0.75,1.22,1.43,1.77,2.23
		c0.52,0.81,1.1,1.65,1.41,2.71l0.05-0.8c0.39,0.68,0.75,1.3,1.07,1.9c0.28,0.69,0.53,1.32,0.75,1.93c0.24,0.59,0.37,1.23,0.51,1.86
		c0.07,0.33,0.14,0.65,0.2,0.97l0.1,0.5c0.04,0.15,0.04,0.42,0.15,0.35c0.27-0.15,0.54-0.31,0.85-0.46c0.9-0.77,1.73-1.41,2.45-1.94
		c0.36-0.24,0.73-0.5,1.03-0.68c0.3-0.19,0.59-0.38,0.89-0.54c1.16-0.68,2.25-1.18,3.21-1.57c1.93-0.79,3.39-1.16,4.33-1.48
		c1.9-0.58,1.71-0.99,0.74-1.34c-1.1-0.35-3.22-0.45-5.06-0.22c-1.84,0.21-3.35,0.69-3.35,0.69c-0.69,0.19-1.36,0.41-1.99,0.66
		l-0.47,0.19l-0.23,0.1c-0.09,0.04,0.06-0.03,0.02-0.02l0,0c-0.01-0.01-0.02-0.02-0.02-0.04c-0.01-0.04,0.01-0.08,0.03-0.11
		c-0.06-0.13-0.16-0.32-0.25-0.48c-0.42-0.79-0.83-1.58-1.25-2.38c-0.49-0.81-1.03-1.61-1.57-2.43c-2.28-3.19-5.34-6.3-9.85-9.3
		c-0.61-0.47-1.27-0.82-1.85-1.21c-0.3-0.19-0.59-0.37-0.88-0.55c-0.3-0.16-0.59-0.32-0.88-0.47c-0.57-0.31-1.12-0.6-1.66-0.88
		c-0.55-0.24-1.08-0.48-1.6-0.71c-2.07-0.91-3.97-1.51-5.92-1.98c-1.95-0.46-3.97-0.74-6.3-0.82c-0.58-0.05-1.19,0.01-1.81,0.02
		c-0.63,0.03-1.28,0.03-1.95,0.11c-1.35,0.18-2.82,0.35-4.39,0.77c-3.03,0.65-6.09,1.72-8.87,3.29c-2.79,1.55-5.33,3.48-7.5,5.58
		c-0.4,0.62-0.96,1.26-1.57,1.96c-0.56,0.74-1.24,1.48-1.86,2.29c-0.3,0.42-0.6,0.83-0.89,1.25c-0.3,0.42-0.59,0.83-0.82,1.27
		c-0.24,0.43-0.47,0.86-0.68,1.28c-0.1,0.21-0.2,0.42-0.29,0.62c-0.08,0.21-0.15,0.42-0.21,0.62l-0.86,1.04
		c-0.09,0.27-0.18,0.56-0.27,0.84c-0.01,0.11-0.03,0.23-0.06,0.35c-0.06,0.23-0.16,0.45-0.29,0.56c-0.02-0.03-0.04-0.06-0.07-0.1
		c0.06,0.25,0.03,0.52-0.03,0.6c-0.08-0.06-0.16-0.1-0.2-0.07l-0.01-0.12c-0.09-0.04-0.19-0.09-0.3-0.13
		c0.03-0.04,0.05-0.07,0.07-0.12c-0.05,0.01-0.11,0.01-0.17,0.01l-0.02,0c0,0-0.04-0.01,0.02,0.02l-0.28-0.11l-0.55-0.22
		c-0.74-0.28-1.48-0.55-2.22-0.78c-1.48-0.47-2.95-0.83-4.35-1.08l0.17,0.43c-2.94-0.65-5.04-0.4-6.96-0.07
		c-0.48,0.09-0.96,0.18-1.45,0.27c-0.48,0.12-0.97,0.25-1.48,0.38c-0.26,0.06-0.52,0.12-0.79,0.19c-0.27,0.08-0.54,0.16-0.82,0.25
		c-0.56,0.18-1.18,0.3-1.82,0.54l0.03-0.12c-2.94,1.85-5.17,3.26-7.3,5.02c-0.51,0.46-1.02,0.93-1.52,1.42
		c-0.46,0.53-0.93,1.08-1.39,1.67c-0.42,0.62-0.81,1.29-1.2,2c-0.32,0.75-0.65,1.53-0.89,2.39c0.21-0.87-0.33,0.27-0.39,0.17
		c-1.19,3.11-1.49,6.68-0.65,6.77c-0.15,2.31-0.31,1.88-0.61,2.19c0.17-0.01,0.32,0.49,0.44,1.22c0.03,0.18,0.06,0.38,0.09,0.58
		c0.04,0.2,0.09,0.42,0.13,0.63c0.09,0.44,0.18,0.89,0.25,1.34l-0.26-0.8c0.09,0.43,0.14,0.86,0.25,1.28l0.36,1.25
		c0.21,0.84,0.6,1.62,0.91,2.43c0.08-0.4,0.16-0.79,0.24-1.17c0.19,0.64,0.26,1.02,0.27,1.27c0.02,0.24-0.02,0.35-0.05,0.45
		c-0.07,0.21-0.11,0.39,0.56,1.53l0.45-0.29c0.44,0.81,0.83,1.55,1.19,2.26c0.41,0.67,0.74,1.36,1.14,1.99
		c0.8,1.27,1.66,2.56,3.07,3.83l1.19,0.87l1.27,0.76l0.64,0.37c0.22,0.12,0.45,0.21,0.67,0.32l1.36,0.62
		c1.86,0.7,3.79,1.27,5.78,1.48c0.5,0.05,0.99,0.15,1.49,0.16l1.49,0.04c0.24,0,0.51,0.02,0.73,0.01l0.67-0.02l1.34-0.04
		c1.78-0.05,3.56-0.1,5.33-0.16c7.09-0.2,14.05-0.3,20.52,0.17l0.57,0.4c0.25,0.59,3.57-0.87,4.06-0.33l1.5-0.27
		c0.42,0.1,1.31,0.22,0.56,0.35c1.39,0.02,1.42-0.07,2.43-0.25l1.49,0.37c5.49,0.28,10.15-0.42,15.93-0.28
		c6.94,0.75,20,0.06,27.52-0.34c1.32-0.11,2.67-0.17,4.04-0.19c0.35,0,0.69-0.01,1.04-0.01c0.38-0.02,0.75-0.03,1.13-0.05
		c0.38-0.02,0.76-0.03,1.14-0.05l1.14-0.14c3.05-0.36,6.14-1.25,8.98-2.76c2.84-1.5,5.42-3.63,7.35-6.24
		c1.93-2.61,3.18-5.7,3.51-8.77c0.15-0.38,0.12-1.44,0.06-1.43C167.04,148.74,166.53,144.92,165.19,141.43z"/>
	<path class="st1" d="M131.99,127.98c0,0-0.01,0.01-0.01,0.01c0.01,0.01,0.01,0.03,0.02,0.04
		C132.01,128.01,132,127.98,131.99,127.98z"/>
	<path class="st1" d="M117.42,118.41l0.04-0.09C117.43,118.34,117.41,118.36,117.42,118.41z"/>
</g>
</svg>
