<?xml version="1.0" encoding="utf-8"?>
<!-- Generator: Adobe Illustrator 23.0.1, SVG Export Plug-In . SVG Version: 6.00 Build 0)  -->
<svg version="1.1" id="Layer_1" xmlns="http://www.w3.org/2000/svg" xmlns:xlink="http://www.w3.org/1999/xlink" x="0px" y="0px"
	 viewBox="0 0 326 200" style="enable-background:new 0 0 326 200;" xml:space="preserve">
<style type="text/css">
	.st0{fill:none;}
	.st1{fill:#77E7FF;}
	.st2{fill:none;stroke:#77E7FF;stroke-width:0;stroke-linecap:round;stroke-linejoin:round;}
	.st3{fill:#D2D2D2;}
	.st4{fill:none;stroke:#D2D2D2;stroke-width:0;stroke-linecap:round;stroke-linejoin:round;}
</style>
<g>
	<path class="st0" d="M127.09,80.62c0.19-0.49,0.35-1,0.31-1.61l-0.52,0.12c-0.36-0.75,0.39-0.26,0.35-1.16l-0.55,0.47
		c-0.17-0.51-0.32-1.02-0.56-1.49l0.21,0.2c-0.22-0.52-0.56-1.05-0.87-0.91c0.23-0.19,0.55-0.18,0.23-0.83
		c-0.36,0.15-0.67,0.01-0.94-0.27c-0.14-0.14-0.27-0.31-0.39-0.5c-0.14-0.18-0.29-0.37-0.44-0.55c0.09-0.03-0.03-0.39,0.21-0.23
		c-0.47-0.31-0.77-0.65-1.03-0.98c-0.25-0.34-0.39-0.73-0.58-1.09c-0.2-0.35-0.4-0.71-0.68-1.02c-0.27-0.33-0.7-0.54-1.23-0.68
		l0.08-0.06c-0.1-0.18-0.21-0.34-0.31-0.48c-0.12-0.13-0.24-0.23-0.36-0.33c-0.25-0.19-0.5-0.33-0.75-0.46
		c-0.25-0.15-0.53-0.25-0.81-0.42c-0.29-0.16-0.57-0.39-0.9-0.7l-0.13,0.38c-0.66-0.44-1.5-0.87-2.42-0.88l0.14-0.09l-0.59-0.17
		l0.05-0.08c-0.27,0.02-0.79-0.23-1.33-0.12l0.04-0.09c-0.14-0.13-0.32-0.19-0.5-0.21c-0.19,0-0.38,0.04-0.56,0.1l-0.32-0.38
		c-0.26,0.09-0.54,0.09-0.82,0.08c-0.04,0-0.09,0-0.13,0c0.02,0.1,0.02,0.1,0.1,0.39c-0.24,0.01-0.23-0.23-0.54-0.12
		c0.18,0.02,0.26,0.35,0.66,0.24l-0.43,0.08c0.15,0.06-0.16,0.18-0.13,0.29c0.12,0.03,0.3,0.04,0.33-0.09
		c0.21,0.2,0.69,0.43,0.45,0.66c0.08,0.21-0.35,0.24-0.65,0.37c0.07,0.06,0.3,0.11,0.45,0.07l0.13-0.12
		c-0.01,0.07-0.06,0.11-0.13,0.12l-0.04,0.04l0.31,0.02c-0.41,0.58,0.83,0.66,0.35,1.19c-0.1-0.08,0.01-0.3-0.34-0.2l0.17,0.29
		c-0.13-0.1-0.37-0.14-0.6-0.02c0.28,0.41,0.93,0.62,1.22,1.09c-0.46,0.19,0.03,0.37-0.25,0.68c0.07-0.05,0.12-0.08,0.16-0.09
		c0.01-0.09,0.08-0.16,0.24-0.02c-0.03,0.01-0.04,0.02-0.07,0.03c0.05,0.01,0.11,0.02,0.2,0.01c-0.13,0.2-0.24,0.22-0.3,0.18
		c0.04,0.1,0.13,0.2-0.17,0.21c-0.06,0.35,0.61,0.1,0.82,0.18c0.11,0.3,0.18,0.41,0.48,0.75l-0.1-0.01
		c-0.02,0.14-0.41,0.38-0.23,0.55c1.49-0.54,0.27,0.54,0.98,0.75c0.41-0.3,0.35,0.02,0.69-0.19c-0.16,0.65,0.83,0.49,0.76,1.14
		l-0.05,0c-0.12,0.17-0.08,0.29,0.05,0.35c0.13,0.06,0.34,0.06,0.52,0.01c-0.35,0.15-0.29,0.43-0.61,0.54
		c0.48-0.21,0.58,0.3,0.58,0.3c-0.32,0.35,0.24,0.36,0.1,0.76l0.64-0.15l-0.38,0.18c0.13,0.09-0.08,0.3-0.26,0.36
		c-0.01,0.1,0.11,0.04,0.24,0.08l-0.29,0.17c0.02,0.24,0.69-0.23,0.54-0.3c0.96-0.32-0.2,0.47,0.55,0.28l0.6-0.4l-0.2,0.13
		c0.53,0.02-0.54,0.67,0.07,0.63l-0.24,0.24c0.13,0.02,0.18,0.1,0.44-0.19c0.16,0.34,0.19,0.9,0.25,1.25
		c0.24,0.07,0.15-0.28,0.42-0.4c0.52-0.2,0.16,0.28,0.2,0.55l0.19-0.3l0.21,0.41l-0.23,0.17l0.19,0.23c0.21-0.12,0.1-0.18,0.11-0.33
		c0.18,0.28,0.97-0.28,0.82,0.38l-0.24,0.24c0.06-0.07,0.03-0.11-0.02-0.09c-0.59,0.23-0.02,0.39-0.16,0.6
		c0.34-0.28,0.36,0.16,0.8-0.22c-0.01,0.94,0.97,0.33,1.06,0.93c-0.25,0.17,0,0.25-0.17,0.49c0.04,0.29,0.35-0.28,0.45-0.13
		l-0.11,0.47c0.69-0.36-0.09,0.68,0.39,0.64c0.51-0.4,0.26,0.75,0.91,0.35l-0.15,0.31c0.4-0.14,0.24,0.51,0.55,0.43
		c-0.1,0.34-0.14,0.14-0.32,0.54c0.36-0.16-0.38,0.63-0.05,0.35c0.15,0.53,1.24-1,1.48-0.77c0.51-0.34,0.29,0.99,0.66,0.25
		l-0.14-0.12l0.47,0.1l-0.1,0.29c0.25-0.13,0.55,0.42,0.94,0.04c0.01-0.01,0.02-0.01,0.03-0.03c-0.01,0.01-0.02,0.02-0.03,0.03
		c-0.01,0.02,0,0.06-0.01,0.12c0.09-0.04,0.14-0.04,0.19-0.02c0.04-0.75,0.07-1.49,0.08-2.23C126.59,81.58,126.91,81.1,127.09,80.62
		z"/>
	<path class="st0" d="M218.92,80.62c0.19-0.49,0.35-1,0.31-1.61l-0.52,0.12c-0.36-0.75,0.39-0.26,0.35-1.16l-0.55,0.47
		c-0.17-0.51-0.32-1.02-0.56-1.49l0.21,0.2c-0.22-0.52-0.56-1.05-0.87-0.91c0.23-0.19,0.55-0.18,0.23-0.83
		c-0.36,0.15-0.67,0.01-0.94-0.27c-0.14-0.14-0.27-0.31-0.39-0.5c-0.14-0.18-0.29-0.37-0.44-0.55c0.09-0.03-0.03-0.39,0.21-0.23
		c-0.47-0.31-0.77-0.65-1.03-0.98c-0.25-0.34-0.39-0.73-0.58-1.09c-0.2-0.35-0.4-0.71-0.68-1.02c-0.27-0.33-0.7-0.54-1.23-0.68
		l0.08-0.06c-0.1-0.18-0.21-0.34-0.31-0.48c-0.12-0.13-0.24-0.23-0.36-0.33c-0.25-0.19-0.5-0.33-0.75-0.46
		c-0.25-0.15-0.53-0.25-0.81-0.42c-0.29-0.16-0.57-0.39-0.9-0.7l-0.13,0.38c-0.66-0.44-1.5-0.87-2.42-0.88l0.14-0.09l-0.59-0.17
		l0.05-0.08c-0.27,0.02-0.79-0.23-1.33-0.12l0.04-0.09c-0.14-0.13-0.32-0.19-0.5-0.21c-0.19,0-0.38,0.04-0.56,0.1l-0.32-0.38
		c-0.26,0.09-0.54,0.09-0.82,0.08c-0.04,0-0.09,0-0.13,0c0.02,0.1,0.02,0.1,0.1,0.39c-0.24,0.01-0.23-0.23-0.54-0.12
		c0.18,0.02,0.26,0.35,0.66,0.24l-0.43,0.08c0.15,0.06-0.16,0.18-0.13,0.29c0.12,0.03,0.3,0.04,0.33-0.09
		c0.21,0.2,0.69,0.43,0.45,0.66c0.08,0.21-0.35,0.24-0.65,0.37c0.07,0.06,0.3,0.11,0.45,0.07l0.13-0.12
		c-0.01,0.07-0.06,0.11-0.13,0.12l-0.04,0.04l0.31,0.02c-0.41,0.58,0.83,0.66,0.35,1.19c-0.1-0.08,0.01-0.3-0.34-0.2l0.17,0.29
		c-0.13-0.1-0.37-0.14-0.6-0.02c0.28,0.41,0.93,0.62,1.22,1.09c-0.46,0.19,0.03,0.37-0.25,0.68c0.07-0.05,0.12-0.08,0.16-0.09
		c0.01-0.09,0.08-0.16,0.24-0.02c-0.03,0.01-0.04,0.02-0.07,0.03c0.05,0.01,0.11,0.02,0.2,0.01c-0.13,0.2-0.24,0.22-0.3,0.18
		c0.04,0.1,0.13,0.2-0.17,0.21c-0.06,0.35,0.61,0.1,0.82,0.18c0.11,0.3,0.18,0.41,0.48,0.75l-0.1-0.01
		c-0.02,0.14-0.41,0.38-0.23,0.55c1.49-0.54,0.27,0.54,0.98,0.75c0.41-0.3,0.35,0.02,0.69-0.19c-0.16,0.65,0.83,0.49,0.76,1.14
		l-0.05,0c-0.12,0.17-0.08,0.29,0.05,0.35c0.13,0.06,0.34,0.06,0.52,0.01c-0.35,0.15-0.29,0.43-0.61,0.54
		c0.48-0.21,0.58,0.3,0.58,0.3c-0.32,0.35,0.24,0.36,0.1,0.76l0.64-0.15l-0.38,0.18c0.13,0.09-0.08,0.3-0.26,0.36
		c-0.01,0.1,0.11,0.04,0.24,0.08l-0.29,0.17c0.02,0.24,0.69-0.23,0.54-0.3c0.96-0.32-0.2,0.47,0.55,0.28l0.6-0.4l-0.2,0.13
		c0.53,0.02-0.54,0.67,0.07,0.63l-0.24,0.24c0.13,0.02,0.18,0.1,0.44-0.19c0.16,0.34,0.19,0.9,0.25,1.25
		c0.24,0.07,0.15-0.28,0.42-0.4c0.52-0.2,0.16,0.28,0.2,0.55l0.19-0.3l0.21,0.41l-0.23,0.17l0.19,0.23c0.21-0.12,0.1-0.18,0.11-0.33
		c0.18,0.28,0.97-0.28,0.82,0.38l-0.24,0.24c0.06-0.07,0.03-0.11-0.02-0.09c-0.59,0.23-0.02,0.39-0.16,0.6
		c0.34-0.28,0.36,0.16,0.8-0.22c-0.01,0.94,0.97,0.33,1.06,0.93c-0.25,0.17,0,0.25-0.17,0.49c0.04,0.29,0.35-0.28,0.45-0.13
		l-0.11,0.47c0.69-0.36-0.09,0.68,0.39,0.64c0.51-0.4,0.26,0.75,0.91,0.35l-0.15,0.31c0.4-0.14,0.24,0.51,0.55,0.43
		c-0.1,0.34-0.14,0.14-0.32,0.54c0.36-0.16-0.38,0.63-0.05,0.35c0.15,0.53,1.24-1,1.48-0.77c0.51-0.34,0.29,0.99,0.66,0.25
		l-0.14-0.12l0.47,0.1l-0.1,0.29c0.25-0.13,0.55,0.42,0.94,0.04c0.01-0.01,0.02-0.01,0.03-0.03c-0.01,0.01-0.02,0.02-0.03,0.03
		c-0.01,0.02,0,0.06-0.01,0.12c0.09-0.04,0.14-0.04,0.19-0.02c0.04-0.75,0.07-1.49,0.08-2.23C218.41,81.58,218.74,81.1,218.92,80.62
		z"/>
	<path class="st0" d="M172.93,108.51c0.03-0.59-1.8,0.19-1.67-0.37l-0.07-0.46c-2.32-1.45-5.21-2.21-8.15-2.56
		c-2.95-0.35-5.95-0.31-8.83-0.37c-1.39-0.38-2.3-1.11-3.79-1.1l0.07,0.53c-0.99,0.28-0.27-0.42-1.35-0.47l0.47,0.59
		c-0.65,0.13-1.31,0.23-1.95,0.4l0.29-0.19c-0.68,0.14-1.41,0.42-1.34,0.75c-0.17-0.27-0.06-0.56-0.93-0.37
		c0.15,0.79-1.1,1.08-2.21,1.53c0-0.1-0.47-0.05-0.19-0.26c-1.12,0.81-2.11,0.98-3.14,1.12c-0.99,0.2-2.03,0.37-2.95,1.39l-0.01-0.1
		c-0.24,0.04-0.46,0.09-0.66,0.15l-0.13,0.27c1.17,0.48,1.32,1.35,2.2,1.8c-0.01,0.44-0.31,0-0.55,0.36
		c0.97,0.37-0.65,0.42,0.11,0.52c0.42,0.59,1.18,0.72,1.96,0.88c0.78,0.15,1.61,0.27,2.06,0.79c0.71,0.31,1.08,0.92,1.33,1.42
		c0.25,0.5,0.41,0.87,0.81,0.67l-0.47-0.59c0.48,0.47,0.97,0.93,1.44,1.42l-0.19,0.24c0.35,0.24,0.76,0.79,1.21,1.34
		c0.44,0.56,0.9,1.13,1.41,1.38c0.03,0.02,0.06,0.04,0.09,0.05c-0.03-0.01-0.06-0.03-0.09-0.05c-0.03,0.01-0.01,0.08-0.02,0.16
		c0.84,0.68,0.63,1.16,1.58,1.63l-0.17-0.02c0.4,0.22,0.79,0.6,1.19,1.07c0.4,0.47,0.82,1.01,1.19,1.63
		c0.78,1.21,1.47,2.6,2.09,3.74c-0.39,0.28,0.41,1.53,0.9,2.5c-0.14-0.31-0.35-0.26-0.43-0.29c0.52,0.58,0.68,1.36,0.84,2.14
		c0.12,0.73,0.25,1.44,0.69,2.05c0.06-0.18,0.13-0.41,0.22-0.72c0.19,0.19-0.17,1.13,0.22,0.97c-0.11-0.22,0.31-1.57-0.13-1.53
		l0.42,0.1c-0.01-0.39,0.37-0.55,0.54-0.98c-0.02-0.25-0.13-0.47-0.37,0c0.19-0.97,0.28-2.46,0.89-3.01
		c0.38-0.88,0.64-0.44,1.04-0.55c0.06-0.28,0.08-0.75-0.06-0.81l-0.32,0.27c0.15-0.24,0.25-0.3,0.32-0.27l0.1-0.08l-0.08-0.48
		c0.34-0.37,0.58-0.77,0.77-1.19c0.2-0.41,0.36-0.84,0.51-1.26c0.29-0.85,0.64-1.65,1.33-2.18c-0.17,0.4-0.72,0.97-0.42,1.18
		l0.66-1.21c-0.22,0.53-0.27,1.03,0.06,0.98c0.22-0.43,0.41-0.86,0.6-1.29c0.2-0.42,0.4-0.85,0.61-1.28
		c0.4-0.88,0.92-1.75,1.59-2.71c0.44,0.24,1.08-1.1,1.89-1.46c-0.13,0.03-0.19,0.01-0.21-0.03c-0.26,0.25-0.43,0.28,0.02-0.36
		c0.01,0.03,0.04,0.02,0.06,0.04c0.05-0.12,0.1-0.25,0.1-0.38c0.57-0.31,0.58-0.17,0.41,0.08c0.32-0.34,0.63-0.74,0.56-0.25
		c0.97-0.77,0.55-1.35,0.95-1.94c1.03-0.95,1.44-1.31,2.79-2.63l-0.14,0.21c0.46-0.26,0.89-0.02,1.62-0.71
		c-0.17-0.87,0.36-1.27,1.12-1.65c0.12-0.07,0.26-0.13,0.4-0.2c0,0,0,0,0,0L172.93,108.51z"/>
	<path class="st0" d="M172.58,80.22c0.19-0.49,0.35-1,0.31-1.61l-0.52,0.12c-0.36-0.75,0.39-0.26,0.35-1.16l-0.55,0.47
		c-0.17-0.51-0.32-1.02-0.56-1.49l0.21,0.2c-0.22-0.52-0.56-1.05-0.87-0.91c0.23-0.19,0.55-0.18,0.23-0.83
		c-0.36,0.15-0.67,0.01-0.94-0.27c-0.14-0.14-0.27-0.31-0.39-0.5c-0.14-0.18-0.29-0.37-0.44-0.55c0.09-0.03-0.03-0.39,0.21-0.23
		c-0.47-0.31-0.77-0.65-1.03-0.98c-0.25-0.34-0.39-0.73-0.58-1.09c-0.2-0.35-0.4-0.71-0.68-1.02c-0.27-0.33-0.7-0.54-1.23-0.68
		l0.08-0.06c-0.1-0.18-0.21-0.34-0.31-0.48c-0.12-0.13-0.24-0.23-0.36-0.33c-0.25-0.19-0.5-0.33-0.75-0.46
		c-0.25-0.15-0.53-0.25-0.81-0.42c-0.29-0.16-0.57-0.39-0.9-0.7l-0.13,0.38c-0.66-0.44-1.5-0.87-2.42-0.88l0.14-0.09l-0.59-0.17
		l0.05-0.08c-0.27,0.02-0.79-0.23-1.33-0.12l0.04-0.09c-0.14-0.13-0.32-0.19-0.5-0.21c-0.19,0-0.38,0.04-0.56,0.1l-0.32-0.38
		c-0.26,0.09-0.54,0.09-0.82,0.08c-0.04,0-0.09,0-0.13,0c0.02,0.1,0.02,0.1,0.1,0.39c-0.24,0.01-0.23-0.23-0.54-0.12
		c0.18,0.02,0.26,0.35,0.66,0.24l-0.43,0.08c0.15,0.06-0.16,0.18-0.13,0.29c0.12,0.03,0.3,0.04,0.33-0.09
		c0.21,0.2,0.69,0.43,0.45,0.66c0.08,0.21-0.35,0.23-0.65,0.37c0.07,0.06,0.3,0.11,0.45,0.07l0.13-0.12
		c-0.01,0.07-0.06,0.11-0.13,0.12l-0.04,0.04l0.31,0.02c-0.41,0.58,0.83,0.66,0.35,1.19c-0.09-0.08,0.01-0.3-0.34-0.2l0.17,0.29
		c-0.13-0.1-0.37-0.14-0.6-0.02c0.28,0.41,0.93,0.62,1.22,1.09c-0.46,0.19,0.03,0.37-0.25,0.68c0.07-0.05,0.12-0.08,0.16-0.09
		c0.01-0.09,0.08-0.16,0.24-0.02c-0.03,0.01-0.04,0.02-0.07,0.03c0.05,0.01,0.11,0.02,0.2,0.01c-0.13,0.2-0.24,0.22-0.3,0.18
		c0.04,0.1,0.13,0.2-0.17,0.21c-0.06,0.35,0.61,0.1,0.82,0.18c0.11,0.3,0.18,0.41,0.48,0.75l-0.1-0.01
		c-0.02,0.14-0.41,0.38-0.23,0.55c1.49-0.54,0.27,0.54,0.98,0.75c0.41-0.3,0.35,0.02,0.69-0.19c-0.16,0.65,0.83,0.49,0.76,1.14
		l-0.05,0c-0.12,0.17-0.08,0.29,0.05,0.35c0.13,0.06,0.34,0.06,0.52,0.01c-0.35,0.15-0.29,0.43-0.61,0.54
		c0.48-0.21,0.58,0.3,0.58,0.3c-0.32,0.35,0.24,0.36,0.1,0.76l0.64-0.15l-0.38,0.18c0.13,0.09-0.08,0.3-0.26,0.36
		c-0.01,0.1,0.11,0.04,0.24,0.08l-0.29,0.17c0.02,0.24,0.69-0.23,0.54-0.3c0.96-0.32-0.2,0.47,0.55,0.28l0.6-0.4l-0.2,0.13
		c0.53,0.02-0.54,0.67,0.07,0.63l-0.24,0.24c0.13,0.02,0.18,0.1,0.44-0.19c0.16,0.34,0.19,0.9,0.25,1.25
		c0.24,0.07,0.15-0.28,0.42-0.4c0.52-0.2,0.16,0.28,0.2,0.55l0.19-0.3l0.21,0.41l-0.23,0.17l0.19,0.23c0.21-0.12,0.1-0.18,0.11-0.33
		c0.18,0.28,0.97-0.28,0.82,0.38l-0.24,0.24c0.06-0.07,0.03-0.11-0.02-0.09c-0.59,0.23-0.02,0.39-0.16,0.59
		c0.34-0.28,0.36,0.15,0.8-0.22c-0.01,0.94,0.97,0.33,1.06,0.93c-0.25,0.17,0,0.25-0.17,0.49c0.04,0.29,0.35-0.28,0.45-0.13
		l-0.11,0.47c0.69-0.36-0.09,0.68,0.39,0.64c0.51-0.4,0.26,0.75,0.91,0.35l-0.15,0.31c0.4-0.14,0.24,0.51,0.55,0.43
		c-0.1,0.34-0.14,0.14-0.32,0.54c0.36-0.16-0.38,0.63-0.05,0.35c0.15,0.53,1.24-1,1.48-0.77c0.51-0.34,0.29,0.99,0.66,0.25
		l-0.14-0.12l0.47,0.1l-0.1,0.29c0.25-0.13,0.55,0.42,0.94,0.04c0.01-0.01,0.02-0.01,0.03-0.03c-0.01,0.01-0.02,0.02-0.03,0.03
		c-0.01,0.02,0,0.06-0.01,0.12c0.09-0.04,0.14-0.04,0.19-0.02c0.04-0.75,0.07-1.49,0.08-2.23C172.07,81.18,172.4,80.7,172.58,80.22z
		"/>
	<path class="st1" d="M111.67,127.21l0.32-0.27C111.92,126.91,111.82,126.96,111.67,127.21z"/>
	<path class="st2" d="M193.19,118.86c0.03,0.02,0.06,0.04,0.09,0.05"/>
	<path class="st1" d="M124.11,118.6l-0.01,0.01c-0.01,0.03-0.03,0.06-0.03,0.09L124.11,118.6z"/>
	<path class="st1" d="M129.21,109.57c-0.45-0.03-0.5,0.05-1.01-0.23c0.34,0.01,0.05-0.25-0.06-0.41l-0.68-0.01
		c0.02-0.38-0.75-0.19-1.25-0.16c-0.35,0.29-0.55,0.66-0.43,1.23c-0.73,0.68-1.16,0.44-1.62,0.71l0.14-0.21
		c-1.36,1.32-1.76,1.68-2.79,2.63c-0.4,0.6,0.02,1.17-0.95,1.94c0.07-0.49-0.24-0.09-0.56,0.25c0.17-0.25,0.16-0.39-0.41-0.08
		c0.01,0.12-0.05,0.26-0.1,0.38c-0.02-0.01-0.05-0.01-0.06-0.04c-0.44,0.65-0.28,0.61-0.02,0.36c0.02,0.04,0.08,0.06,0.21,0.03
		c-0.8,0.36-1.45,1.7-1.89,1.46c-0.67,0.96-1.19,1.83-1.59,2.71c-0.21,0.43-0.41,0.86-0.61,1.28c-0.19,0.43-0.38,0.86-0.6,1.29
		c-0.33,0.05-0.28-0.45-0.06-0.98l-0.66,1.21c-0.31-0.2,0.25-0.78,0.42-1.18c-0.7,0.53-1.04,1.33-1.33,2.18
		c-0.15,0.42-0.31,0.85-0.51,1.26c-0.19,0.42-0.43,0.82-0.77,1.19l0.08,0.48l-0.1,0.08c0.14,0.06,0.13,0.53,0.06,0.81
		c-0.4,0.11-0.66-0.33-1.04,0.55c-0.62,0.56-0.7,2.04-0.89,3.01c0.24-0.47,0.35-0.25,0.37,0c-0.17,0.44-0.54,0.59-0.54,0.98
		l-0.42-0.1c0.44-0.04,0.02,1.32,0.13,1.53c-0.39,0.16-0.03-0.78-0.22-0.97c-0.57,1.82-0.27,0.92-0.77,2.76
		c0.04,1.06,0.44-0.07,0.68,0.49c-0.14,0.88-0.03,1.78-0.5,2.71l0.44-0.24c-0.01,1.67-0.23,2.61-0.73,3.66
		c0.05,0.39,0.1,0.76,0.15,1.11c0.07,0.35,0.14,0.67,0.2,0.98c0.14,0.61,0.26,1.13,0.41,1.58c0.31,0.9,0.59,1.51,0.86,1.91
		c0.53,0.79,0.98,0.74,1.31,0.3c0.35-0.41,0.61-1.17,0.78-1.82c0.08-0.32,0.16-0.62,0.22-0.84c0.05-0.22,0.08-0.35,0.08-0.35
		c0.56-2.16,0.79-3.76,0.89-5.54c0.18-1.75,0.27-3.69,1.02-6.23c0.48-1.06,0.87-1.92,1.32-2.64c0.22-0.36,0.42-0.7,0.62-1.03
		c0.21-0.32,0.42-0.63,0.63-0.93c0.2-0.31,0.41-0.62,0.62-0.94c0.22-0.32,0.44-0.65,0.67-1.01c0.43-0.73,0.97-1.54,1.55-2.57
		c1.32-1.84,2.73-3.82,4.2-5.49c0.15-0.59,0.66-1.12,1.23-1.63c0.28-0.26,0.56-0.52,0.82-0.79c0.26-0.26,0.49-0.53,0.65-0.83
		l0.58-0.07c0.21-0.42,0.55-0.82,1-0.95l0.04,0.09c0.35-0.6,1.02-0.93,1.22-1.21l0.03,0.09l0.62-0.49l-0.03,0.19
		c0.38-0.44,0.81-0.83,1.28-1.14c0.18-0.12,0.35-0.23,0.53-0.34c-0.84-0.39-1.67-0.79-2.47-1.36L129.21,109.57z"/>
	<path class="st1" d="M179.01,111.17l0.28,0.3c-0.18,0.07-0.35,0.17-0.52,0.27c0.7,0.36,1.39,0.76,2.06,1.32
		c0.93,1.17,2.53,2.45,4.12,3.83c1.6,1.36,3.23,2.78,4.36,3.91c1.74,1.46,2.83,3.7,3.68,5.97c0.87,2.27,1.53,4.55,2.77,6.48
		c-0.03,0.17,0.27,0.46,0.33,0.44c0.43,1.31,0.79,2.64,1.09,3.98c0,0,0.07,0.3,0.19,0.81c0.13,0.5,0.28,1.21,0.44,2.01
		c0.36,1.6,0.68,3.61,1.05,5.16c0.33,1.55,0.78,2.66,1.44,2.39c0.33-0.14,0.71-0.62,1.14-1.61c0.23-0.49,0.44-1.11,0.64-1.88
		c0.1-0.38,0.21-0.8,0.32-1.26c0.1-0.46,0.17-0.96,0.26-1.5l0.14,0.1c0-2.52-0.31-4.13-1.33-5.64c0.71-0.46-0.47-2-0.39-2.63
		l0.08,0.03c-0.53-0.63-0.66-1.41-0.79-2.2c-0.16-0.77-0.31-1.55-0.84-2.14c0.08,0.03,0.29-0.03,0.43,0.29
		c-0.49-0.97-1.29-2.22-0.9-2.5c-0.62-1.14-1.31-2.53-2.09-3.74c-0.37-0.62-0.8-1.16-1.19-1.63c-0.4-0.47-0.79-0.85-1.19-1.07
		l0.17,0.02c-0.95-0.47-0.75-0.96-1.58-1.63c0.01-0.08-0.01-0.16,0.02-0.16c-0.51-0.25-0.97-0.82-1.41-1.38
		c-0.45-0.55-0.87-1.11-1.21-1.34l0.19-0.24c-0.46-0.49-0.96-0.95-1.44-1.42l0.47,0.59c-0.4,0.19-0.56-0.17-0.81-0.67
		c-0.24-0.5-0.61-1.11-1.33-1.42c-0.45-0.52-1.29-0.64-2.06-0.79c-0.77-0.16-1.54-0.3-1.96-0.88c-0.76-0.1,0.85-0.14-0.11-0.52
		c0.24-0.37,0.53,0.07,0.55-0.36c-0.6-0.31-0.87-0.8-1.33-1.23c-0.58,0.2-1.02,0.48-1.45,0.77
		C180.68,110.33,180.08,110.81,179.01,111.17z"/>
	<polygon class="st1" points="148.93,98.94 148.93,98.94 149.06,98.69 	"/>
	<path class="st1" d="M132.99,106.66c0.61,0.01,1.1,0.41,1.62,0.88c0.52,0.48,1.09,0.96,1.93,1.15l-0.02,0.04
		c0.2-0.06,0.42-0.11,0.66-0.15l0.01,0.1c0.92-1.02,1.96-1.19,2.95-1.39c1.02-0.14,2.01-0.31,3.14-1.12
		c-0.28,0.21,0.19,0.16,0.19,0.26c1.11-0.45,2.36-0.74,2.21-1.53c0.87-0.19,0.76,0.1,0.93,0.37c-0.07-0.34,0.66-0.61,1.34-0.75
		l-0.29,0.19c0.64-0.17,1.3-0.27,1.95-0.4l-0.47-0.59c1.08,0.05,0.36,0.75,1.35,0.47l-0.07-0.53c1.49-0.01,2.39,0.72,3.79,1.1
		c2.88,0.06,5.88,0.02,8.83,0.37c2.94,0.35,5.83,1.11,8.15,2.56l0.07,0.46c-0.13,0.56,1.7-0.22,1.67,0.37l0.68,0.01c0,0,0,0,0,0
		c0.68-0.33,1.47-0.66,2.14-1.33c-0.51-0.28,0.57-0.71,0.29-0.99c0.55-0.17,1.02-0.42,1.46-0.69c-0.22-0.4-0.26-0.76-1.39-0.89
		c-0.13-0.24-0.27-0.47-0.41-0.71c-0.65-0.38-0.72,0.29-1.38-0.25c0.17-0.25-0.87-0.63-0.31-0.7c-1.6-1.13-3.76-0.81-5.92-2.18
		c-0.54,0.31-1.37-0.03-1.93,0.01c0,0,0.01-0.01,0.01-0.01c1.11-1,1.43,0.3,2.31-1.17c0.26,0,0.52,0,0.78-0.02
		c0.56-0.41-0.01-0.76,0.7-1.09c0.16,0.25,0.87-0.48,0.73,0.02c0.41-0.2,0.7-0.54,0.99-0.88c0.28-0.36,0.55-0.73,0.79-1.14
		c0.47-0.84,1.03-1.66,1.93-2.46c-0.11-0.36,0.05-0.74,0.21-1.09c0.14-0.37,0.28-0.72,0.17-0.98c0.12,0.03,0.38-0.48,0.59-0.83
		c0.2-0.35,0.37-0.54,0.36,0.16c-0.01,0.12-0.1,0.29-0.18,0.24l0.24,0.28c0.6-0.46,0.7-1.09,0.77-1.7c0.02-0.2,0.04-0.4,0.05-0.59
		c-0.04,0-0.07,0.01-0.11,0.01c-0.26,0.02-0.48,0.01-0.64-0.01c-0.16-0.02-0.26-0.04-0.26-0.04l-1.26-0.28
		c-0.01,0.07-0.16,0.23-0.19,0.14c-0.79,0.41-1.48-0.12-2.11-0.65c-0.27-0.23-0.54-0.44-0.81-0.61c-0.05,0.18-0.07,0.36-0.13,0.53
		c-0.66,2.26-1.94,4.38-3.77,5.59l-0.41-0.14c-0.23-0.17-0.28,0.18-0.35,0.54c-0.07,0.36-0.15,0.75-0.39,0.6L166,95.73
		c-0.18,0-0.49,0.09-0.37-0.16c-0.38,0.25-0.33,0.33-0.49,0.68l-0.6,0c-0.4,0.2-0.78,0.39-1.13,0.63c-0.34,0.26-0.69,0.48-1.04,0.71
		c-0.68,0.51-1.46,0.91-2.37,1.16c-0.58-0.04-1.24,0.04-1.95,0.14c-0.28-0.08-0.6-0.09-1.06,0.1c-0.04,0.02-0.04,0.04-0.06,0.06
		c-0.43,0.06-0.87,0.12-1.32,0.15l-0.29,0.04c-0.23-0.04-0.46-0.08-0.69-0.12c-0.84-0.11-1.72-0.22-2.54-0.22
		c0.16,0.36-0.22,0.4-0.64,0.5c-0.02,0-0.05,0-0.07-0.01l-0.07-0.31c-1.67,0.62-0.7-0.73-2.37-0.14l-0.01,0.03
		c-1.08-0.43-2.09-1.18-2.97-1.97c-1.44-1.31-2.57-2.73-4.09-3.75c-0.02-0.13-0.33-0.26-0.39-0.22c-0.3-0.45-0.66-0.87-0.92-1.35
		c-0.26-0.48-0.57-0.93-0.79-1.43c0,0-0.11-0.22-0.28-0.59c-0.09-0.18-0.2-0.4-0.33-0.64c-0.1-0.25-0.22-0.54-0.34-0.84
		c-0.54-1.18-0.95-2.73-1.4-3.95c-0.36-1.22-0.82-2.14-1.48-1.92c-0.33,0.12-0.7,0.52-1.11,1.4c-0.1,0.22-0.21,0.47-0.32,0.75
		c-0.08,0.28-0.17,0.59-0.25,0.94c-0.08,0.35-0.16,0.73-0.24,1.15c-0.05,0.42-0.08,0.87-0.11,1.38l-0.15-0.07
		c0.09,1.15,0.39,2.05,0.7,2.85c0.34,0.77,0.84,1.39,1.45,1.94c-0.56,0.59,0.87,1.65,0.98,2.21l-0.08,0
		c0.67,0.38,0.97,1.03,1.33,1.66c0.38,0.61,0.74,1.26,1.42,1.53c-0.08,0.01-0.27,0.16-0.49-0.07c0.79,0.62,1.9,1.38,1.67,1.78
		c0.5,0.34,1.03,0.72,1.57,1.11c0.03,0.02,0.07,0.04,0.11,0.06c-0.68,0.19-1.31,0.44-1.63,0.23c0,0-0.13,0.03-0.34,0.07
		c-0.2,0.05-0.47,0.13-0.75,0.23c-0.56,0.2-1.16,0.47-1.3,0.79c0.29-0.45-0.85-0.16-0.67-0.62c-0.39,0.55-1.8,1.38-2.54,1.33
		l0.1-0.09c-0.59,0.16-1.11,0.38-1.59,0.62c-0.47,0.26-0.9,0.55-1.32,0.83c-0.41,0.27-0.8,0.54-1.22,0.8
		C132.27,105.43,131.6,106.15,132.99,106.66z"/>
	<path class="st1" d="M141.4,65.36l0.38-0.08C141.73,65.23,141.62,65.23,141.4,65.36z"/>
	<path class="st1" d="M150.81,63.5c0,0,0.25-0.74,0.92-0.99c0.34-0.11,0.77-0.14,1.33,0.09c0.56,0.22,1.24,0.68,2.06,1.41
		c-0.37,0.31-0.41,0.57-0.09,0.97l0.38-0.12c-0.23,0.28,0.11,0.46,0.22,0.67c0.39,0.07,0.43-0.23,0.79-0.03
		c0.04,0.15,0.05,0.22,0.07,0.26c0.04,0,0.09,0.01,0.13,0c0.29,0.01,0.56,0.01,0.82-0.08l0.32,0.38c0.18-0.06,0.37-0.1,0.56-0.1
		c0.18,0.02,0.36,0.08,0.5,0.21l-0.04,0.09c0.54-0.11,1.06,0.15,1.33,0.12l-0.05,0.08l0.59,0.17l-0.14,0.09
		c0.92,0.01,1.75,0.43,2.42,0.88l0.13-0.38c0.33,0.31,0.61,0.54,0.9,0.7c0.28,0.17,0.56,0.27,0.81,0.42
		c0.25,0.14,0.5,0.28,0.75,0.46c0.12,0.1,0.25,0.2,0.36,0.33c0.11,0.14,0.21,0.3,0.31,0.48l-0.08,0.06
		c0.53,0.14,0.96,0.36,1.23,0.68c0.28,0.32,0.48,0.67,0.68,1.02c0.19,0.36,0.33,0.75,0.58,1.09c0.26,0.33,0.56,0.67,1.03,0.98
		c-0.24-0.15-0.12,0.2-0.21,0.23c0.15,0.18,0.3,0.37,0.44,0.55c0.13,0.19,0.26,0.36,0.39,0.5c0.27,0.28,0.58,0.42,0.94,0.27
		c0.31,0.65,0,0.63-0.23,0.83c0.32-0.14,0.66,0.39,0.87,0.91l-0.21-0.2c0.24,0.48,0.39,0.99,0.56,1.49l0.55-0.47
		c0.04,0.89-0.71,0.4-0.35,1.16l0.52-0.12c0.04,0.61-0.12,1.12-0.31,1.61c-0.18,0.49-0.51,0.96-0.66,1.51
		c-0.01,0.73-0.04,1.48-0.08,2.23c0.12,0.04,0.15,0.18,0.41-0.11l-0.06,0.11c0.59-0.61,1.3-0.21,1.89-0.18
		c-0.08,0.44,0.28,0.39,0.54,0.31c-0.08,0-0.13,0.21-0.15,0.27c0.43-0.49,0.61,0.67,1.06,0.12l-0.02,0.06
		c0.1,0.27,0.6-0.37,0.56,0.43c0.48-0.56,0.81-0.48,1.38-0.15l-0.03,0.13c0.09,0.12,0.16,0.23,0.24,0.35c0.14-0.29,0.22-0.61,0-1.11
		c-0.25-0.46-0.51,0.78-0.57-0.14c0.14-0.56,0.36-1.28,0.47-2.05c0.08-0.77,0.2-1.6,0.15-2.36c-0.37,0.18-0.41-0.22-0.56-0.61
		l0.33-0.1c-0.73-1.49,0.7-0.73-0.06-2.22l-0.53-0.16c-1-1.18,0.49-0.97-0.92-2.17c0.27,0.56-0.61,0.53-0.72-0.22l0.37,0.06
		c-0.21-0.37-0.38-0.45-0.44-0.72c0.27,0.15,0.5-0.07,0.18-0.61l0.56,0.21l-1.06-0.81c-0.02-0.24-0.09-0.5-0.21-0.74
		c-0.12-0.24-0.27-0.47-0.41-0.69c-0.28-0.44-0.51-0.83-0.41-1.11c0,0-0.05-0.12-0.16-0.27c-0.1-0.16-0.25-0.38-0.41-0.6
		c-0.34-0.43-0.75-0.88-1.09-0.89c0.51,0.09-0.13-0.79,0.36-0.81c-0.62-0.16-1.83-1.06-2.05-1.72l0.11,0.05
		c-0.36-0.45-0.72-0.83-1.13-1.12c-0.42-0.28-0.84-0.52-1.25-0.75c-0.4-0.24-0.83-0.42-1.24-0.65c-0.41-0.23-0.79-0.51-1.18-0.86
		c-0.11,0.39-0.95-0.26-0.95,0.3c-0.51-0.11-0.94-0.32-1.34-0.55c-0.4-0.2-0.77-0.44-1.11-0.63c-0.67-0.4-1.29-0.54-1.83,0.13
		c-0.89-0.13-0.95-0.65-1.41-0.79l0.23-0.05c-0.87-0.07-1.42-0.12-1.92-0.18c-0.5-0.06-0.94-0.05-1.58-0.11
		c-0.65,0.13-0.74,0.81-1.85,0.71c0.35-0.31-0.1-0.23-0.52-0.21c0.26-0.06,0.35-0.17-0.22-0.33c-0.07,0.09-0.19,0.15-0.3,0.21
		c-0.01-0.02-0.03-0.04-0.02-0.07c-0.69,0.16-0.55,0.26-0.23,0.25c-0.01,0.05,0.02,0.1,0.13,0.17c-0.76-0.28-1.98,0.32-2.16-0.16
		c-2.06,0.58-3.34,1.53-4.78,2.45c-0.28-0.15-0.02-0.53,0.4-0.84l-1.08,0.62c-0.16-0.33,0.55-0.5,0.87-0.73
		c-0.4,0.03-0.76,0.16-1.1,0.34c-0.17,0.09-0.34,0.2-0.5,0.31c-0.16,0.12-0.31,0.26-0.46,0.4c-0.61,0.55-1.23,1.09-2.07,1.41
		l-0.11,0.45l-0.11,0.02c0.1,0.12-0.08,0.51-0.25,0.7c-0.39-0.09-0.46-0.58-1.09,0.01c-0.35,0.12-0.7,0.47-1,0.9
		c-0.28,0.45-0.52,0.95-0.75,1.34c0.36-0.32,0.39-0.08,0.34,0.14c-0.27,0.32-0.69,0.29-0.77,0.65l-0.36-0.24
		c0.42,0.12-0.32,1.16-0.27,1.39c-0.41,0.01,0.17-0.69,0.04-0.92c-1,1.41-0.51,0.7-1.38,2.18c-0.19,0.94,0.44,0.06,0.54,0.62
		c-0.33,0.72-0.34,1.54-0.97,2.23l0.47-0.1c-0.26,1.44-0.58,2.19-1.18,3.04c0.02,0.34,0.03,0.67,0.05,0.98
		c0.04,0.31,0.09,0.6,0.14,0.87c0.11,0.54,0.19,0.99,0.32,1.38c0.29,0.78,0.57,1.3,0.82,1.62c0.52,0.66,0.98,0.63,1.31,0.25
		c0.36-0.33,0.63-0.91,0.81-1.4c0.08-0.25,0.18-0.47,0.24-0.63c0.06-0.16,0.1-0.26,0.1-0.26c0.62-1.59,0.99-2.72,1.27-4.06
		c0.37-1.28,0.73-2.76,1.93-4.46c0.33-0.32,0.63-0.6,0.91-0.86c0.28-0.25,0.59-0.43,0.85-0.62c0.53-0.39,1.05-0.63,1.56-0.9
		c1-0.51,2.01-1.02,3.62-1.83c0.75-0.28,1.55-0.54,2.35-0.76c-0.23-0.43-0.48-0.8-0.67-1.17C150.51,64.81,150.42,64.24,150.81,63.5z
		"/>
	<polygon class="st1" points="177.41,76.71 177.41,76.72 177.67,76.8 	"/>
	<path class="st3" d="M156.85,67.53l-0.13,0.12C156.79,67.64,156.85,67.6,156.85,67.53z"/>
	<path class="st4" d="M171.66,83.86c0.01-0.01,0.02-0.01,0.03-0.03"/>
	<path class="st3" d="M152.91,72.91L152.91,72.91c-0.02-0.01-0.03-0.02-0.05-0.02L152.91,72.91z"/>
	<path class="st3" d="M174.17,89.34c0.03,0.09,0.18-0.08,0.19-0.14l1.26,0.28c0,0,0.1,0.01,0.26,0.04c0.16,0.03,0.39,0.03,0.64,0.01
		c0.03,0,0.07-0.01,0.11-0.01c0.49-0.03,1.08-0.13,1.53-0.36c0.48-0.25,0.8-0.67,0.72-1.34c-0.06-0.6-0.48-1.43-1.23-2.51
		c-0.08-0.12-0.15-0.22-0.24-0.35l0.03-0.13c-0.56-0.34-0.9-0.41-1.38,0.15c0.04-0.79-0.46-0.15-0.56-0.43l0.02-0.06
		c-0.45,0.55-0.63-0.61-1.06-0.12c0.03-0.06,0.08-0.27,0.15-0.27c-0.26,0.08-0.62,0.13-0.54-0.31c-0.59-0.03-1.31-0.43-1.89,0.18
		l0.06-0.11c-0.26,0.29-0.29,0.15-0.41,0.11c-0.04-0.02-0.1-0.02-0.19,0.02c0.01-0.06,0-0.1,0.01-0.12
		c-0.38,0.38-0.68-0.17-0.94-0.04l0.1-0.29l-0.47-0.1l0.14,0.12c-0.37,0.75-0.15-0.59-0.66-0.25c-0.24-0.23-1.33,1.3-1.48,0.77
		c-0.33,0.28,0.41-0.51,0.05-0.35c0.19-0.4,0.23-0.2,0.32-0.54c-0.31,0.08-0.15-0.57-0.55-0.43l0.15-0.31
		c-0.65,0.39-0.39-0.75-0.91-0.35c-0.48,0.04,0.3-1-0.39-0.64l0.11-0.47c-0.1-0.15-0.41,0.41-0.45,0.13
		c0.17-0.24-0.08-0.32,0.17-0.49c-0.09-0.59-1.06,0.02-1.06-0.93c-0.44,0.38-0.46-0.06-0.8,0.22c0.14-0.2-0.43-0.37,0.16-0.59
		c0.05-0.02,0.08,0.02,0.02,0.09l0.24-0.24c0.15-0.66-0.65-0.1-0.82-0.38c-0.01,0.15,0.11,0.21-0.11,0.33l-0.19-0.23l0.23-0.17
		l-0.21-0.41l-0.19,0.3c-0.04-0.28,0.32-0.76-0.2-0.55c-0.27,0.13-0.18,0.48-0.42,0.4c-0.06-0.35-0.09-0.92-0.25-1.25
		c-0.26,0.3-0.32,0.21-0.44,0.19l0.24-0.24c-0.61,0.04,0.46-0.61-0.07-0.63l0.2-0.13l-0.6,0.4c-0.74,0.19,0.42-0.6-0.55-0.28
		c0.15,0.07-0.53,0.54-0.54,0.3l0.29-0.17c-0.13-0.03-0.25,0.02-0.24-0.08c0.17-0.06,0.39-0.28,0.26-0.36l0.38-0.18l-0.64,0.15
		c0.15-0.4-0.42-0.41-0.1-0.76c0,0-0.1-0.51-0.58-0.3c0.32-0.11,0.26-0.38,0.61-0.54c-0.18,0.05-0.39,0.05-0.52-0.01
		c-0.12-0.07-0.17-0.19-0.05-0.35l0.05,0c0.06-0.65-0.92-0.5-0.76-1.14c-0.33,0.21-0.28-0.11-0.69,0.19
		c-0.71-0.21,0.51-1.29-0.98-0.75c-0.18-0.18,0.21-0.41,0.23-0.55l0.1,0.01c-0.3-0.33-0.37-0.44-0.48-0.75
		c-0.21-0.08-0.88,0.17-0.82-0.18c0.3-0.02,0.21-0.11,0.17-0.21c0.07,0.05,0.17,0.03,0.3-0.18c-0.09,0.01-0.15,0-0.2-0.01
		c0.02-0.01,0.04-0.02,0.07-0.03c-0.16-0.13-0.23-0.07-0.24,0.02c-0.04,0.01-0.09,0.04-0.16,0.09c0.28-0.31-0.21-0.49,0.25-0.68
		c-0.29-0.47-0.94-0.68-1.22-1.09c0.23-0.12,0.48-0.08,0.6,0.02l-0.17-0.29c0.35-0.1,0.25,0.12,0.34,0.2
		c0.48-0.53-0.77-0.61-0.35-1.19l-0.31-0.02l0.04-0.04c-0.15,0.04-0.38-0.02-0.45-0.07c0.3-0.13,0.72-0.16,0.65-0.37
		c0.24-0.23-0.24-0.46-0.45-0.66c-0.03,0.13-0.22,0.13-0.33,0.09c-0.03-0.11,0.28-0.23,0.13-0.29l0.43-0.08
		c-0.4,0.11-0.48-0.22-0.66-0.24c0.31-0.11,0.3,0.13,0.54,0.12c-0.07-0.29-0.07-0.3-0.1-0.39c-0.01-0.05-0.03-0.12-0.07-0.26
		c-0.36-0.2-0.4,0.1-0.79,0.03c-0.11-0.21-0.46-0.39-0.22-0.67l-0.38,0.12c-0.32-0.39-0.29-0.66,0.09-0.97
		c-0.82-0.73-1.5-1.19-2.06-1.41c-0.56-0.22-0.99-0.2-1.33-0.09c-0.67,0.25-0.92,0.99-0.92,0.99c-0.39,0.74-0.29,1.31-0.05,1.87
		c0.19,0.37,0.44,0.74,0.67,1.17c0.12,0.23,0.24,0.48,0.34,0.76c0,0.75-0.1,1.26-0.14,1.77c-0.05,0.51-0.03,1.03,0.32,1.75
		c0.18,0.73,0.63,1.43,0.96,2.08c0.64,0.11,0.37,0.88,0.99,1.05l-0.23,0.28c0.21,0.06,0.38,0.15,0.28,0.36l-0.09,0.03
		c0.31,0.08,0.28,0.36,0.44,0.39l-0.09,0.04l0.15,0.21l-0.14,0.02c0.38,0.21,0.58,0.52,0.65,0.86l0.33-0.22
		c-0.02,0.82,0.82,0.61,0.69,1.43l-0.09,0.05c0.32,0.03,0.49,0.13,0.57,0.27c0.1,0.14,0.12,0.31,0.13,0.49
		c0.04,0.36,0.08,0.74,0.72,0.77c-0.16-0.01-0.14,0.16-0.22,0.21c0.32,0.24,0.61,0.52,1.22,0.03c0.15,0.22-0.06,0.33-0.27,0.55
		c0.26-0.22,0.53-0.14,0.68,0l-0.17,0.01l0.49,0.37l0.41-0.51c0.07,0.35-0.54,0.58-0.22,0.7l0.4-0.36c0.21,0.39-0.21,1.13-0.2,1.73
		c0.56,0.73,1.48,1.14,2.28,1.6c0.85,0.41,1.62,0.84,2.02,1.73l-0.16,0.37c-0.3,0.51,0.88-0.48,0.63,0.01l0.31-0.12
		c-0.01,0.12,0.03,0.27-0.12,0.33c0.14,0.11,0.2,0.03,0.4-0.05l-0.02,0.41c0.48,0.62,1.34,0.34,1.95,0.77
		c0.24,0.53,0.83,0.83,1.49,1c0.67,0.13,1.4,0.09,1.92,0.07c0.39-0.1,0.72,0.02,1.04,0.19c0.05,0.02,0.09,0.06,0.14,0.09
		c0.27,0.17,0.54,0.38,0.81,0.61C172.68,89.22,173.37,89.76,174.17,89.34z"/>
	<path class="st3" d="M66.19,127.61l0.32-0.27C66.44,127.3,66.34,127.36,66.19,127.61z"/>
	<path class="st4" d="M147.71,119.26c0.03,0.02,0.06,0.04,0.09,0.05"/>
	<path class="st3" d="M78.63,119l-0.01,0.01c-0.01,0.03-0.03,0.06-0.03,0.09L78.63,119z"/>
	<polygon class="st3" points="103.45,99.34 103.45,99.34 103.57,99.09 	"/>
	<path class="st3" d="M106.52,99.81c0.36,0,0.75,0.01,1.15,0.01c0.4-0.03,0.8-0.06,1.22-0.09l0.62-0.03l0.33-0.05
		c-0.23-0.04-0.46-0.08-0.69-0.12c-0.84-0.11-1.72-0.22-2.54-0.22c0.16,0.36-0.22,0.4-0.64,0.5c0.01,0,0.01,0,0.02,0
		C106.16,99.81,106.34,99.81,106.52,99.81z"/>
	<path class="st3" d="M105.9,99.8l-0.07-0.31c-1.67,0.62-0.7-0.73-2.37-0.14l-0.01,0.03c0.66,0.27,1.35,0.42,2.05,0.39
		C105.62,99.78,105.76,99.79,105.9,99.8z"/>
	<path class="st3" d="M111.51,99.39c-0.04,0.02-0.04,0.04-0.06,0.06c0.39-0.05,0.76-0.11,1.12-0.16
		C112.28,99.2,111.97,99.2,111.51,99.39z"/>
	<path class="st1" d="M95.92,65.76l0.38-0.08C96.24,65.62,96.13,65.63,95.92,65.76z"/>
	<path class="st1" d="M103.73,103.71c-0.03,0.01-0.06,0-0.09,0.01C103.7,103.72,103.72,103.72,103.73,103.71z"/>
	<path class="st1" d="M105.32,63.9c0,0,0.25-0.74,0.92-0.99c0.34-0.11,0.77-0.14,1.33,0.09c0.56,0.22,1.24,0.68,2.06,1.41
		c-0.37,0.31-0.41,0.57-0.09,0.97l0.38-0.12c-0.23,0.28,0.11,0.46,0.22,0.67c0.39,0.07,0.43-0.23,0.79-0.03
		c0.04,0.15,0.05,0.22,0.07,0.26c0.04,0,0.09,0.01,0.13,0c0.29,0.01,0.56,0.01,0.82-0.08l0.32,0.38c0.18-0.06,0.37-0.1,0.56-0.1
		c0.18,0.02,0.36,0.08,0.5,0.21l-0.04,0.09c0.54-0.11,1.06,0.15,1.33,0.12l-0.05,0.08l0.59,0.17l-0.14,0.09
		c0.92,0.01,1.75,0.43,2.42,0.88l0.13-0.38c0.33,0.31,0.61,0.54,0.9,0.7c0.28,0.17,0.56,0.27,0.81,0.42
		c0.25,0.14,0.5,0.28,0.75,0.46c0.12,0.1,0.25,0.2,0.36,0.33c0.11,0.14,0.21,0.3,0.31,0.48l-0.08,0.06
		c0.53,0.14,0.96,0.36,1.23,0.68c0.28,0.32,0.48,0.67,0.68,1.02c0.19,0.36,0.33,0.75,0.58,1.09c0.26,0.33,0.56,0.67,1.03,0.98
		c-0.24-0.15-0.12,0.2-0.21,0.23c0.15,0.18,0.3,0.37,0.44,0.55c0.13,0.19,0.26,0.36,0.39,0.5c0.27,0.28,0.58,0.42,0.94,0.27
		c0.31,0.65,0,0.63-0.23,0.83c0.32-0.14,0.66,0.39,0.87,0.91l-0.21-0.2c0.24,0.48,0.39,0.99,0.56,1.49l0.55-0.47
		c0.04,0.89-0.71,0.4-0.35,1.16l0.52-0.12c0.04,0.61-0.12,1.12-0.31,1.61c-0.18,0.49-0.51,0.96-0.66,1.51
		c-0.01,0.73-0.04,1.48-0.08,2.23c0.12,0.04,0.15,0.18,0.41-0.11l-0.06,0.11c0.59-0.61,1.3-0.21,1.89-0.18
		c-0.08,0.44,0.28,0.39,0.54,0.31c-0.08,0-0.13,0.21-0.15,0.27c0.43-0.49,0.61,0.67,1.06,0.12l-0.02,0.06
		c0.1,0.27,0.6-0.37,0.56,0.43c0.48-0.56,0.81-0.48,1.38-0.15l-0.03,0.13c0.09,0.12,0.16,0.23,0.24,0.35c0.14-0.29,0.22-0.61,0-1.11
		c-0.25-0.46-0.51,0.78-0.57-0.14c0.14-0.56,0.36-1.28,0.47-2.05c0.08-0.77,0.2-1.6,0.15-2.36c-0.37,0.18-0.41-0.22-0.56-0.61
		l0.33-0.1c-0.73-1.49,0.7-0.73-0.06-2.22l-0.53-0.16c-1-1.18,0.49-0.97-0.92-2.17c0.27,0.56-0.61,0.53-0.72-0.22l0.37,0.06
		c-0.21-0.37-0.38-0.45-0.44-0.72c0.27,0.15,0.5-0.07,0.18-0.61l0.56,0.21l-1.06-0.81c-0.02-0.24-0.09-0.5-0.21-0.74
		c-0.12-0.24-0.27-0.47-0.41-0.69c-0.28-0.44-0.51-0.83-0.41-1.11c0,0-0.05-0.12-0.16-0.27c-0.1-0.16-0.25-0.38-0.41-0.6
		c-0.34-0.43-0.75-0.88-1.09-0.89c0.51,0.09-0.13-0.79,0.36-0.81c-0.62-0.16-1.83-1.06-2.05-1.72l0.11,0.05
		c-0.36-0.45-0.72-0.83-1.13-1.12c-0.42-0.28-0.84-0.52-1.25-0.75c-0.4-0.24-0.83-0.42-1.24-0.65c-0.41-0.23-0.79-0.51-1.18-0.86
		c-0.11,0.39-0.95-0.26-0.95,0.3c-0.51-0.11-0.94-0.32-1.34-0.55c-0.4-0.2-0.77-0.44-1.11-0.63c-0.67-0.4-1.29-0.54-1.83,0.13
		c-0.89-0.13-0.95-0.65-1.41-0.79l0.23-0.05c-0.87-0.07-1.42-0.12-1.92-0.18c-0.5-0.06-0.94-0.05-1.58-0.11
		c-0.65,0.13-0.74,0.81-1.85,0.71c0.35-0.31-0.1-0.23-0.52-0.21c0.26-0.06,0.35-0.17-0.22-0.33c-0.07,0.09-0.19,0.15-0.3,0.21
		c-0.01-0.02-0.03-0.04-0.02-0.07c-0.69,0.16-0.55,0.26-0.23,0.25c-0.01,0.05,0.02,0.1,0.13,0.17c-0.76-0.28-1.98,0.32-2.16-0.16
		c-2.06,0.58-3.34,1.53-4.78,2.45c-0.28-0.15-0.02-0.53,0.4-0.84l-1.08,0.62c-0.16-0.33,0.55-0.5,0.87-0.73
		c-0.4,0.03-0.76,0.16-1.1,0.34c-0.17,0.09-0.34,0.2-0.5,0.31c-0.16,0.12-0.31,0.26-0.46,0.4c-0.61,0.55-1.23,1.09-2.07,1.41
		l-0.11,0.45l-0.11,0.02c0.1,0.12-0.08,0.51-0.25,0.7c-0.39-0.09-0.46-0.58-1.09,0.01c-0.35,0.12-0.7,0.47-1,0.9
		c-0.28,0.45-0.52,0.95-0.75,1.34c0.36-0.32,0.39-0.08,0.34,0.14c-0.27,0.32-0.69,0.29-0.77,0.65l-0.36-0.24
		c0.42,0.12-0.32,1.16-0.27,1.39c-0.41,0.01,0.17-0.69,0.04-0.92c-1,1.41-0.51,0.7-1.38,2.18c-0.19,0.94,0.44,0.06,0.54,0.62
		c-0.33,0.72-0.34,1.54-0.97,2.23l0.47-0.1c-0.26,1.44-0.58,2.19-1.18,3.04c0.02,0.34,0.03,0.67,0.05,0.98
		c0.04,0.31,0.09,0.6,0.14,0.87c0.11,0.54,0.19,0.99,0.32,1.38c0.29,0.78,0.57,1.3,0.82,1.62c0.52,0.66,0.98,0.63,1.31,0.25
		c0.36-0.33,0.63-0.91,0.81-1.4c0.08-0.25,0.18-0.47,0.24-0.63c0.06-0.16,0.1-0.26,0.1-0.26c0.62-1.59,0.99-2.72,1.27-4.06
		c0.37-1.28,0.73-2.76,1.93-4.46c0.33-0.32,0.63-0.6,0.91-0.86c0.28-0.25,0.59-0.43,0.85-0.62c0.53-0.39,1.05-0.63,1.56-0.9
		c1-0.51,2.01-1.02,3.62-1.83c0.75-0.28,1.55-0.54,2.35-0.76c-0.23-0.43-0.48-0.8-0.67-1.17C105.03,65.2,104.93,64.64,105.32,63.9z"
		/>
	<polygon class="st1" points="131.92,77.11 131.92,77.12 132.19,77.19 	"/>
	<path class="st1" d="M101.76,103.15l-0.14,0.08c0.49-0.08,0.75-0.01,1.01,0.1c0.26,0.12,0.54,0.24,1.03,0.23
		c0.03,0.07,0.09,0.12,0.07,0.14c0.51-0.14,1.15,0.06,1.78,0.16c0.63,0.11,1.24,0.26,1.62,0.21l0.01,0.31
		c0.61,0.03,1.22,0.02,1.83,0.03l-0.68-0.1c0.14-0.41,0.47-0.27,0.94-0.07c0.47,0.19,1.11,0.34,1.75,0.04
		c0.63,0.04,1.2-0.5,1.74-0.98c0.27-0.24,0.54-0.48,0.81-0.63c0.27-0.18,0.55-0.3,0.86-0.27c0.46-0.53-0.34,0.75,0.43,0.24
		c0.14,0.42-0.33,0.37-0.02,0.65c0.4-0.22,0.78-0.18,1.18-0.21c0.4-0.04,0.83-0.1,1.29-0.42l0.17,0.3c0.14-0.14,0.29-0.24,0.44-0.33
		c0.15-0.1,0.3-0.19,0.45-0.26c0.31-0.14,0.62-0.23,0.93-0.32c0.62-0.15,1.15-0.36,1.41-0.85c0,0,0.01-0.01,0.01-0.01
		c1.11-1,1.43,0.3,2.31-1.17c0.26,0,0.52,0,0.78-0.02c0.56-0.41-0.01-0.76,0.7-1.09c0.16,0.25,0.87-0.48,0.73,0.02
		c0.41-0.2,0.7-0.54,0.99-0.88c0.28-0.36,0.55-0.73,0.79-1.14c0.47-0.84,1.03-1.66,1.93-2.46c-0.11-0.36,0.05-0.74,0.21-1.09
		c0.14-0.37,0.28-0.72,0.17-0.98c0.12,0.03,0.38-0.48,0.59-0.83c0.2-0.35,0.37-0.54,0.36,0.16c-0.01,0.12-0.1,0.29-0.18,0.24
		l0.24,0.28c0.6-0.46,0.7-1.09,0.77-1.7c0.02-0.2,0.04-0.4,0.05-0.59c-0.04,0-0.07,0.01-0.11,0.01c-0.26,0.02-0.48,0.01-0.64-0.01
		c-0.16-0.02-0.26-0.04-0.26-0.04l-1.26-0.28c-0.01,0.07-0.16,0.23-0.19,0.14c-0.79,0.41-1.48-0.13-2.11-0.65
		c-0.27-0.23-0.54-0.44-0.81-0.61c-0.05,0.18-0.07,0.36-0.13,0.53c-0.66,2.26-1.94,4.38-3.77,5.59l-0.41-0.14
		c-0.23-0.17-0.28,0.18-0.35,0.54c-0.07,0.36-0.15,0.75-0.39,0.6l-0.19,0.54c-0.18,0-0.49,0.09-0.37-0.16
		c-0.38,0.25-0.33,0.33-0.49,0.68l-0.6,0c-0.4,0.2-0.78,0.39-1.13,0.63c-0.34,0.26-0.69,0.48-1.04,0.71
		c-0.68,0.51-1.46,0.91-2.37,1.16c-0.58-0.04-1.24,0.04-1.95,0.14c-0.36,0.05-0.74,0.11-1.12,0.16c-0.43,0.06-0.87,0.12-1.33,0.15
		l-0.29,0.04l-0.33,0.05l-0.62,0.03c-0.41,0.03-0.82,0.06-1.22,0.09c-0.4,0-0.78-0.01-1.15-0.01c-0.18,0-0.36,0-0.54,0
		c-0.01,0-0.01,0-0.02,0c-0.02,0-0.05,0-0.07-0.01c-0.14-0.01-0.28-0.03-0.41-0.04c-0.7,0.02-1.39-0.13-2.05-0.39
		c-1.08-0.43-2.09-1.18-2.97-1.97c-1.44-1.31-2.57-2.73-4.09-3.75c-0.02-0.13-0.33-0.26-0.39-0.22c-0.3-0.45-0.66-0.87-0.92-1.35
		c-0.26-0.48-0.57-0.93-0.79-1.43c0,0-0.11-0.22-0.28-0.59c-0.09-0.18-0.2-0.4-0.33-0.64c-0.1-0.25-0.22-0.54-0.34-0.84
		c-0.54-1.18-0.95-2.73-1.4-3.95c-0.36-1.22-0.82-2.14-1.48-1.92c-0.33,0.12-0.7,0.52-1.11,1.4c-0.1,0.22-0.21,0.47-0.32,0.75
		c-0.08,0.28-0.17,0.59-0.25,0.94c-0.08,0.35-0.16,0.73-0.24,1.15c-0.05,0.42-0.08,0.87-0.11,1.38l-0.15-0.07
		c0.09,1.15,0.39,2.05,0.7,2.85c0.34,0.77,0.84,1.39,1.45,1.94c-0.56,0.59,0.87,1.65,0.98,2.21l-0.08,0
		c0.67,0.38,0.97,1.03,1.33,1.66c0.38,0.61,0.74,1.26,1.42,1.53c-0.08,0.01-0.27,0.15-0.49-0.07c0.79,0.62,1.9,1.38,1.67,1.78
		c0.5,0.34,1.03,0.72,1.57,1.11c0.03,0.02,0.07,0.04,0.11,0.06c0.53,0.34,1.09,0.66,1.63,0.96
		C99.76,102.85,100.91,103.27,101.76,103.15z"/>
	<path class="st3" d="M111.37,67.93l-0.13,0.12C111.31,68.03,111.36,68,111.37,67.93z"/>
	<path class="st4" d="M126.18,84.25c0.01-0.01,0.02-0.01,0.03-0.03"/>
	<path class="st3" d="M107.42,73.3L107.42,73.3c-0.02-0.01-0.03-0.02-0.05-0.02L107.42,73.3z"/>
	<path class="st3" d="M128.68,89.74c0.03,0.09,0.18-0.08,0.19-0.14l1.26,0.28c0,0,0.1,0.01,0.26,0.04c0.16,0.03,0.39,0.03,0.64,0.01
		c0.03,0,0.07-0.01,0.11-0.01c0.49-0.03,1.08-0.13,1.53-0.36c0.48-0.25,0.8-0.67,0.72-1.34c-0.06-0.6-0.48-1.43-1.23-2.51
		c-0.08-0.12-0.15-0.22-0.24-0.35l0.03-0.13c-0.56-0.34-0.9-0.41-1.38,0.15c0.04-0.79-0.46-0.15-0.56-0.43l0.02-0.06
		c-0.45,0.55-0.63-0.61-1.06-0.12c0.03-0.06,0.08-0.27,0.15-0.27c-0.26,0.08-0.62,0.13-0.54-0.31c-0.59-0.03-1.31-0.43-1.89,0.18
		l0.06-0.11c-0.26,0.29-0.29,0.15-0.41,0.11c-0.04-0.02-0.1-0.02-0.19,0.02c0.01-0.06,0-0.1,0.01-0.12
		c-0.38,0.38-0.68-0.17-0.94-0.04l0.1-0.29l-0.47-0.1l0.14,0.12c-0.37,0.75-0.15-0.59-0.66-0.25c-0.24-0.23-1.33,1.3-1.48,0.77
		c-0.33,0.28,0.41-0.51,0.05-0.35c0.19-0.4,0.23-0.2,0.32-0.54c-0.31,0.08-0.15-0.57-0.55-0.43l0.15-0.31
		c-0.65,0.39-0.39-0.75-0.91-0.35c-0.48,0.04,0.3-1-0.39-0.64l0.11-0.47c-0.1-0.15-0.41,0.41-0.45,0.13
		c0.17-0.24-0.08-0.32,0.17-0.49c-0.09-0.59-1.06,0.02-1.06-0.93c-0.44,0.38-0.46-0.06-0.8,0.22c0.14-0.2-0.43-0.37,0.16-0.6
		c0.05-0.02,0.08,0.02,0.02,0.09l0.24-0.24c0.15-0.66-0.65-0.1-0.82-0.38c-0.01,0.15,0.11,0.21-0.11,0.33l-0.19-0.23l0.23-0.17
		l-0.21-0.41l-0.19,0.3c-0.04-0.28,0.32-0.76-0.2-0.55c-0.27,0.13-0.18,0.48-0.42,0.4c-0.06-0.35-0.09-0.92-0.25-1.25
		c-0.26,0.3-0.32,0.21-0.44,0.19l0.24-0.24c-0.61,0.04,0.46-0.61-0.07-0.63l0.2-0.13l-0.6,0.4c-0.74,0.19,0.42-0.6-0.55-0.28
		c0.15,0.07-0.53,0.54-0.54,0.3l0.29-0.17c-0.13-0.03-0.25,0.02-0.24-0.08c0.17-0.06,0.39-0.28,0.26-0.36l0.38-0.18l-0.64,0.15
		c0.15-0.4-0.42-0.41-0.1-0.76c0,0-0.1-0.51-0.58-0.3c0.32-0.11,0.26-0.38,0.61-0.54c-0.18,0.05-0.39,0.05-0.52-0.01
		c-0.12-0.07-0.17-0.19-0.05-0.35l0.05,0c0.06-0.65-0.92-0.5-0.76-1.14c-0.33,0.21-0.28-0.11-0.69,0.19
		c-0.71-0.21,0.51-1.29-0.98-0.75c-0.18-0.18,0.21-0.41,0.23-0.55l0.1,0.01c-0.3-0.33-0.37-0.44-0.48-0.75
		c-0.21-0.08-0.88,0.17-0.82-0.18c0.3-0.02,0.21-0.11,0.17-0.21c0.07,0.05,0.17,0.03,0.3-0.18c-0.09,0.01-0.15,0-0.2-0.01
		c0.02-0.01,0.04-0.02,0.07-0.03c-0.16-0.13-0.23-0.07-0.24,0.02c-0.04,0.01-0.09,0.04-0.16,0.09c0.28-0.31-0.21-0.49,0.25-0.68
		c-0.29-0.47-0.94-0.68-1.22-1.09c0.23-0.12,0.48-0.08,0.6,0.02l-0.17-0.29c0.35-0.1,0.25,0.12,0.34,0.2
		c0.48-0.53-0.77-0.61-0.35-1.19l-0.31-0.02l0.04-0.04c-0.15,0.04-0.38-0.02-0.45-0.07c0.3-0.13,0.72-0.16,0.65-0.37
		c0.24-0.23-0.24-0.46-0.45-0.66c-0.03,0.13-0.22,0.13-0.33,0.09c-0.03-0.11,0.28-0.23,0.13-0.29l0.43-0.08
		c-0.4,0.11-0.48-0.22-0.66-0.24c0.31-0.11,0.3,0.13,0.54,0.12c-0.07-0.29-0.07-0.3-0.1-0.39c-0.01-0.05-0.03-0.12-0.07-0.26
		c-0.36-0.2-0.4,0.1-0.79,0.03c-0.11-0.21-0.46-0.39-0.22-0.67l-0.38,0.12c-0.32-0.39-0.29-0.66,0.09-0.97
		c-0.82-0.73-1.5-1.19-2.06-1.41c-0.56-0.22-0.99-0.2-1.33-0.09c-0.67,0.25-0.92,0.99-0.92,0.99c-0.39,0.74-0.29,1.31-0.05,1.87
		c0.19,0.37,0.44,0.74,0.67,1.17c0.12,0.23,0.24,0.48,0.34,0.76c0,0.75-0.1,1.26-0.14,1.77c-0.05,0.51-0.03,1.03,0.32,1.75
		c0.18,0.73,0.63,1.43,0.96,2.08c0.64,0.11,0.37,0.88,0.99,1.05l-0.23,0.28c0.21,0.06,0.38,0.15,0.28,0.36l-0.09,0.03
		c0.31,0.08,0.28,0.36,0.44,0.39l-0.09,0.04l0.15,0.21l-0.14,0.02c0.38,0.21,0.58,0.52,0.65,0.86l0.33-0.22
		c-0.02,0.83,0.82,0.61,0.69,1.43l-0.09,0.04c0.32,0.03,0.49,0.13,0.57,0.27c0.1,0.14,0.12,0.31,0.13,0.49
		c0.04,0.36,0.08,0.74,0.72,0.77c-0.16-0.01-0.14,0.16-0.22,0.21c0.32,0.24,0.61,0.52,1.22,0.03c0.15,0.22-0.06,0.33-0.27,0.55
		c0.26-0.22,0.53-0.14,0.68,0l-0.17,0.01l0.49,0.37l0.41-0.51c0.07,0.35-0.54,0.58-0.22,0.7l0.4-0.36c0.21,0.39-0.21,1.13-0.2,1.73
		c0.56,0.73,1.48,1.14,2.28,1.6c0.85,0.41,1.62,0.84,2.02,1.73l-0.16,0.37c-0.3,0.51,0.88-0.48,0.63,0.01l0.31-0.12
		c-0.01,0.12,0.03,0.27-0.12,0.33c0.14,0.11,0.2,0.03,0.4-0.05l-0.02,0.41c0.48,0.62,1.34,0.34,1.95,0.77
		c0.24,0.53,0.83,0.83,1.49,1c0.67,0.13,1.4,0.09,1.92,0.07c0.39-0.1,0.72,0.02,1.04,0.19c0.05,0.02,0.09,0.06,0.13,0.09
		c0.27,0.17,0.54,0.38,0.81,0.61C127.2,89.61,127.89,90.15,128.68,89.74z"/>
	<path class="st3" d="M158.01,127.61l0.32-0.27C158.26,127.3,158.16,127.36,158.01,127.61z"/>
	<path class="st4" d="M239.53,119.26c0.03,0.02,0.06,0.04,0.09,0.05"/>
	<path class="st3" d="M170.45,119l-0.01,0.01c-0.01,0.03-0.03,0.06-0.03,0.09L170.45,119z"/>
	<polygon class="st3" points="195.27,99.34 195.28,99.34 195.4,99.09 	"/>
	<path class="st3" d="M203.34,99.39c-0.04,0.02-0.04,0.04-0.06,0.06c0.39-0.05,0.76-0.11,1.12-0.16
		C204.11,99.2,203.79,99.2,203.34,99.39z"/>
	<path class="st3" d="M198.35,99.81c0.36,0,0.75,0.01,1.15,0.01c0.4-0.03,0.8-0.06,1.22-0.09l0.62-0.03l0.33-0.05
		c-0.23-0.04-0.46-0.08-0.69-0.12c-0.84-0.11-1.72-0.22-2.54-0.22c0.16,0.36-0.22,0.4-0.64,0.5c0.01,0,0.01,0,0.02,0
		C197.98,99.81,198.16,99.81,198.35,99.81z"/>
	<path class="st3" d="M247.81,136.62c0.71-0.46-0.47-2-0.39-2.63l0.08,0.03c-0.53-0.63-0.66-1.41-0.79-2.2
		c-0.16-0.77-0.31-1.55-0.84-2.14c0.08,0.03,0.29-0.03,0.43,0.29c-0.49-0.97-1.29-2.22-0.9-2.5c-0.62-1.14-1.31-2.53-2.09-3.74
		c-0.37-0.62-0.8-1.16-1.19-1.63c-0.4-0.47-0.79-0.85-1.19-1.07l0.17,0.02c-0.95-0.47-0.75-0.96-1.58-1.63
		c0.01-0.08-0.01-0.16,0.02-0.16c-0.51-0.25-0.97-0.82-1.41-1.38c-0.45-0.55-0.87-1.11-1.21-1.34l0.19-0.24
		c-0.46-0.49-0.96-0.95-1.44-1.42l0.47,0.59c-0.4,0.19-0.56-0.17-0.81-0.67c-0.24-0.5-0.61-1.11-1.33-1.42
		c-0.45-0.52-1.29-0.64-2.06-0.79c-0.77-0.16-1.54-0.3-1.96-0.88c-0.76-0.1,0.85-0.14-0.11-0.52c0.24-0.37,0.53,0.07,0.55-0.36
		c-0.89-0.46-1.04-1.33-2.2-1.8l0.15-0.31c-0.84-0.19-1.41-0.68-1.93-1.15c-0.52-0.47-1.02-0.87-1.62-0.88
		c-1.56-0.57-0.51-1.42-2.35-1.63c-0.13-0.24-0.27-0.47-0.41-0.71c-0.65-0.38-0.72,0.29-1.38-0.25c0.17-0.25-0.87-0.63-0.31-0.7
		c-1.6-1.13-3.76-0.81-5.92-2.18c-0.54,0.31-1.37-0.03-1.93,0.01c-0.26,0.49-0.8,0.71-1.41,0.85c-0.31,0.08-0.62,0.17-0.93,0.32
		c-0.15,0.07-0.3,0.16-0.45,0.26c-0.15,0.09-0.3,0.2-0.44,0.33l-0.17-0.3c-0.46,0.33-0.89,0.39-1.29,0.42
		c-0.4,0.03-0.78-0.01-1.18,0.21c-0.31-0.28,0.16-0.23,0.02-0.65c-0.77,0.51,0.03-0.76-0.43-0.24c-0.32-0.03-0.59,0.09-0.86,0.27
		c-0.27,0.16-0.54,0.39-0.81,0.63c-0.54,0.49-1.12,1.03-1.74,0.98c-0.64,0.3-1.28,0.15-1.75-0.04c-0.48-0.19-0.8-0.34-0.94,0.07
		l0.68,0.1c-0.61-0.01-1.22,0-1.83-0.03l-0.01-0.31c-0.38,0.05-0.99-0.09-1.62-0.21c-0.63-0.11-1.27-0.3-1.78-0.16
		c-0.01,0.01-0.03,0.02-0.09,0.01c0.03-0.01,0.06-0.01,0.09-0.01c0.02-0.02-0.04-0.07-0.07-0.14c-0.49,0.01-0.77-0.12-1.03-0.23
		c-0.27-0.11-0.52-0.18-1.01-0.1l0.14-0.08c-0.84,0.12-1.99-0.3-3.19-0.86c-0.54-0.3-1.1-0.62-1.63-0.96
		c-0.68,0.19-1.31,0.44-1.63,0.23c0,0-0.13,0.03-0.34,0.07c-0.2,0.05-0.47,0.13-0.75,0.23c-0.56,0.2-1.16,0.47-1.3,0.79
		c0.29-0.45-0.85-0.16-0.67-0.62c-0.39,0.55-1.8,1.38-2.54,1.33l0.1-0.09c-0.59,0.16-1.11,0.38-1.59,0.62
		c-0.47,0.26-0.9,0.55-1.32,0.83c-0.41,0.27-0.8,0.54-1.22,0.8c-0.44,0.27-0.91,0.52-1.46,0.69c0.28,0.28-0.8,0.7-0.29,0.99
		c-0.67,0.67-1.46,1.01-2.14,1.33c-0.14,0.06-0.27,0.13-0.4,0.2c-0.76,0.38-1.29,0.78-1.12,1.65c-0.73,0.68-1.16,0.44-1.62,0.71
		l0.14-0.21c-1.36,1.32-1.76,1.68-2.79,2.63c-0.4,0.6,0.02,1.17-0.95,1.94c0.07-0.49-0.24-0.09-0.56,0.25
		c0.17-0.25,0.16-0.39-0.41-0.08c0.01,0.12-0.05,0.26-0.1,0.38c-0.02-0.01-0.05-0.01-0.06-0.04c-0.44,0.65-0.28,0.61-0.02,0.36
		c0.02,0.04,0.08,0.06,0.21,0.03c-0.8,0.36-1.45,1.7-1.89,1.46c-0.67,0.96-1.19,1.83-1.59,2.71c-0.21,0.43-0.41,0.86-0.61,1.28
		c-0.19,0.43-0.38,0.86-0.6,1.29c-0.33,0.05-0.28-0.45-0.06-0.98l-0.66,1.21c-0.31-0.2,0.25-0.78,0.42-1.18
		c-0.7,0.53-1.04,1.33-1.33,2.18c-0.15,0.42-0.31,0.85-0.51,1.26c-0.19,0.42-0.43,0.82-0.77,1.19l0.08,0.48l-0.1,0.08
		c0.14,0.06,0.13,0.53,0.06,0.81c-0.4,0.11-0.66-0.33-1.04,0.55c-0.62,0.56-0.7,2.04-0.89,3.01c0.24-0.47,0.35-0.25,0.37,0
		c-0.17,0.44-0.54,0.59-0.54,0.98l-0.42-0.1c0.44-0.04,0.02,1.32,0.13,1.53c-0.39,0.16-0.03-0.78-0.22-0.97
		c-0.1,0.31-0.17,0.54-0.22,0.72c-0.44-0.61-0.57-1.32-0.69-2.05c-0.16-0.77-0.31-1.55-0.84-2.14c0.08,0.03,0.29-0.03,0.43,0.29
		c-0.49-0.97-1.29-2.22-0.9-2.5c-0.62-1.14-1.31-2.53-2.09-3.74c-0.37-0.62-0.8-1.16-1.19-1.63c-0.4-0.47-0.79-0.85-1.19-1.07
		l0.17,0.02c-0.95-0.47-0.75-0.96-1.58-1.63c0.01-0.08-0.01-0.16,0.02-0.16c-0.51-0.25-0.97-0.82-1.41-1.38
		c-0.45-0.55-0.87-1.11-1.21-1.34l0.19-0.24c-0.46-0.49-0.96-0.95-1.44-1.42l0.47,0.59c-0.4,0.19-0.56-0.17-0.81-0.67
		c-0.24-0.5-0.61-1.11-1.33-1.42c-0.45-0.52-1.29-0.64-2.06-0.79c-0.77-0.16-1.54-0.3-1.96-0.88c-0.76-0.1,0.85-0.14-0.11-0.52
		c0.24-0.37,0.53,0.07,0.55-0.36c-0.89-0.46-1.04-1.33-2.2-1.8l0.13-0.27l0.02-0.04c-0.84-0.19-1.41-0.68-1.93-1.15
		c-0.52-0.47-1.02-0.87-1.62-0.88c-1.38-0.5-0.72-1.23-1.82-1.53c-0.14-0.04-0.31-0.07-0.53-0.1c-0.13-0.24-0.27-0.47-0.41-0.71
		c-0.65-0.38-0.72,0.29-1.38-0.25c0.17-0.25-0.87-0.63-0.31-0.7c-1.6-1.13-3.76-0.81-5.92-2.18c-0.54,0.31-1.37-0.03-1.93,0.01
		c-0.26,0.49-0.8,0.71-1.41,0.85c-0.31,0.08-0.62,0.17-0.93,0.32c-0.15,0.07-0.3,0.16-0.45,0.26c-0.15,0.09-0.3,0.2-0.44,0.33
		l-0.17-0.3c-0.46,0.33-0.89,0.39-1.29,0.42c-0.4,0.03-0.78-0.01-1.18,0.21c-0.31-0.28,0.16-0.23,0.02-0.65
		c-0.77,0.51,0.03-0.76-0.43-0.24c-0.32-0.03-0.59,0.09-0.86,0.27c-0.27,0.16-0.54,0.39-0.81,0.63c-0.54,0.49-1.12,1.03-1.74,0.98
		c-0.64,0.3-1.28,0.15-1.75-0.04c-0.48-0.19-0.8-0.34-0.94,0.07l0.68,0.1c-0.61-0.01-1.22,0-1.83-0.03l-0.01-0.31
		c-0.38,0.05-0.99-0.09-1.62-0.21c-0.63-0.11-1.27-0.3-1.78-0.16c-0.01,0.01-0.03,0.02-0.09,0.01c0.03-0.01,0.06-0.01,0.09-0.01
		c0.02-0.02-0.04-0.07-0.07-0.14c-0.49,0.01-0.77-0.12-1.03-0.23c-0.27-0.11-0.52-0.18-1.01-0.1l0.14-0.08
		c-0.84,0.12-1.99-0.3-3.19-0.86c-0.54-0.3-1.1-0.62-1.63-0.96c-0.68,0.19-1.31,0.44-1.63,0.23c0,0-0.13,0.03-0.34,0.07
		c-0.2,0.05-0.47,0.13-0.75,0.23c-0.56,0.2-1.16,0.47-1.3,0.79c0.29-0.45-0.85-0.16-0.67-0.62c-0.39,0.55-1.8,1.38-2.54,1.33
		l0.1-0.09c-0.59,0.16-1.11,0.38-1.59,0.62c-0.47,0.26-0.9,0.55-1.32,0.83c-0.85,0.55-1.61,1.15-2.68,1.49
		c0.28,0.28-0.8,0.7-0.29,0.99c-0.8,0.81-1.79,1.13-2.53,1.53c-0.76,0.38-1.29,0.78-1.12,1.65c-0.73,0.68-1.16,0.44-1.62,0.71
		l0.14-0.21c-1.36,1.32-1.76,1.68-2.79,2.63c-0.4,0.6,0.02,1.17-0.95,1.94c0.07-0.49-0.24-0.09-0.56,0.25
		c0.17-0.25,0.16-0.39-0.41-0.08c0.01,0.12-0.05,0.26-0.1,0.38c-0.02-0.01-0.05-0.01-0.06-0.04c-0.44,0.65-0.28,0.61-0.02,0.36
		c0.02,0.04,0.08,0.06,0.21,0.03c-0.8,0.36-1.45,1.7-1.89,1.46c-0.67,0.96-1.19,1.83-1.59,2.71c-0.21,0.43-0.41,0.86-0.61,1.28
		c-0.19,0.43-0.38,0.86-0.6,1.29c-0.33,0.05-0.28-0.45-0.06-0.98l-0.66,1.21c-0.31-0.2,0.25-0.78,0.42-1.18
		c-0.7,0.53-1.04,1.33-1.33,2.18c-0.15,0.42-0.31,0.85-0.51,1.26c-0.19,0.42-0.43,0.82-0.77,1.19l0.08,0.48l-0.1,0.08
		c0.14,0.06,0.13,0.53,0.06,0.81c-0.4,0.11-0.66-0.33-1.04,0.55c-0.62,0.56-0.7,2.04-0.89,3.01c0.24-0.47,0.35-0.25,0.37,0
		c-0.17,0.44-0.54,0.59-0.54,0.98l-0.42-0.1c0.44-0.04,0.02,1.32,0.13,1.53c-0.39,0.16-0.03-0.78-0.22-0.97
		c-0.57,1.82-0.27,0.92-0.77,2.76c0.04,1.06,0.44-0.07,0.68,0.49c-0.14,0.88-0.03,1.78-0.5,2.71l0.44-0.24
		c-0.01,1.67-0.23,2.61-0.73,3.66c0.05,0.39,0.1,0.76,0.15,1.11c0.07,0.35,0.14,0.67,0.2,0.98c0.14,0.61,0.26,1.13,0.41,1.58
		c0.31,0.9,0.59,1.51,0.86,1.91c0.53,0.79,0.98,0.74,1.31,0.3c0.35-0.41,0.61-1.17,0.78-1.82c0.08-0.32,0.16-0.62,0.22-0.84
		c0.05-0.22,0.08-0.35,0.08-0.35c0.56-2.16,0.79-3.76,0.89-5.54c0.18-1.75,0.27-3.69,1.02-6.23c0.48-1.06,0.87-1.92,1.32-2.64
		c0.22-0.36,0.42-0.7,0.62-1.03c0.21-0.32,0.42-0.63,0.63-0.93c0.2-0.31,0.41-0.62,0.62-0.94c0.22-0.32,0.44-0.65,0.67-1.01
		c0.43-0.73,0.97-1.54,1.55-2.57c1.32-1.84,2.73-3.82,4.2-5.49c0.15-0.59,0.66-1.12,1.23-1.63c0.28-0.26,0.56-0.52,0.82-0.79
		c0.26-0.26,0.49-0.53,0.65-0.83l0.58-0.07c0.21-0.42,0.55-0.82,1-0.95l0.04,0.09c0.35-0.6,1.02-0.93,1.22-1.21l0.03,0.09l0.62-0.49
		l-0.03,0.19c0.38-0.44,0.81-0.83,1.28-1.14c0.47-0.32,0.93-0.61,1.41-0.81l-0.28-0.3c1.08-0.36,1.67-0.83,2.29-1.22
		c0.61-0.41,1.2-0.81,2.23-0.97l0.02,0.1c0.92-1.02,1.96-1.19,2.95-1.39c1.02-0.14,2.01-0.31,3.14-1.12
		c-0.28,0.21,0.19,0.16,0.19,0.26c1.11-0.45,2.36-0.74,2.21-1.53c0.87-0.19,0.76,0.1,0.93,0.37c-0.07-0.34,0.66-0.61,1.34-0.75
		l-0.29,0.19c0.64-0.17,1.3-0.27,1.95-0.4l-0.47-0.59c1.08,0.05,0.36,0.75,1.35,0.47l-0.07-0.53c1.49-0.01,2.39,0.72,3.79,1.1
		c2.88,0.06,5.88,0.02,8.83,0.37c2.94,0.35,5.83,1.11,8.15,2.56l0.07,0.46c-0.05,0.19,0.15,0.22,0.42,0.21
		c0.5-0.03,1.27-0.22,1.25,0.16l0.68,0.01c0.12,0.16,0.4,0.43,0.06,0.41c0.51,0.28,0.56,0.2,1.01,0.23l0.38,0.61
		c0.8,0.57,1.63,0.97,2.47,1.36c1.1,0.52,2.21,1.03,3.27,1.91c0.93,1.17,2.53,2.45,4.12,3.83c1.6,1.36,3.23,2.78,4.36,3.91
		c1.74,1.46,2.83,3.7,3.68,5.97c0.87,2.27,1.53,4.55,2.77,6.48c-0.03,0.17,0.27,0.46,0.33,0.44c0.43,1.31,0.79,2.64,1.09,3.98
		c0,0,0.07,0.3,0.19,0.81c0.13,0.5,0.28,1.21,0.44,2.01c0.36,1.6,0.68,3.61,1.05,5.16c0.33,1.55,0.78,2.66,1.44,2.39
		c0.32-0.13,0.69-0.6,1.11-1.53c0.21,0.54,0.42,0.95,0.61,1.23c0.53,0.79,0.98,0.74,1.31,0.3c0.35-0.41,0.61-1.17,0.78-1.82
		c0.08-0.32,0.16-0.62,0.22-0.84c0.05-0.22,0.08-0.35,0.08-0.35c0.56-2.16,0.79-3.76,0.89-5.54c0.18-1.75,0.27-3.69,1.02-6.23
		c0.48-1.06,0.87-1.92,1.32-2.64c0.22-0.36,0.42-0.7,0.62-1.03c0.21-0.32,0.42-0.63,0.63-0.93c0.2-0.31,0.41-0.62,0.62-0.94
		c0.22-0.32,0.44-0.65,0.67-1.01c0.43-0.73,0.97-1.54,1.55-2.57c1.32-1.84,2.73-3.82,4.2-5.49c0.15-0.59,0.66-1.12,1.23-1.63
		c0.28-0.26,0.56-0.52,0.82-0.79c0.26-0.26,0.49-0.53,0.65-0.83l0.58-0.07c0.21-0.42,0.55-0.82,1-0.95l0.04,0.09
		c0.35-0.6,1.02-0.93,1.22-1.21l0.03,0.09l0.62-0.49l-0.03,0.19c0.38-0.44,0.81-0.83,1.28-1.14c0.29-0.2,0.59-0.38,0.89-0.54
		c0.17-0.1,0.35-0.19,0.52-0.27l-0.28-0.3c1.08-0.36,1.67-0.83,2.29-1.22c0.44-0.29,0.87-0.58,1.45-0.77
		c0.23-0.08,0.48-0.15,0.78-0.19l0.02,0.1c0.92-1.02,1.96-1.19,2.95-1.39c1.02-0.14,2.01-0.31,3.14-1.12
		c-0.28,0.21,0.19,0.16,0.19,0.26c1.11-0.45,2.36-0.74,2.21-1.53c0.87-0.19,0.76,0.1,0.93,0.37c-0.07-0.34,0.66-0.61,1.34-0.75
		l-0.29,0.19c0.64-0.17,1.3-0.27,1.95-0.4l-0.47-0.59c1.08,0.05,0.36,0.75,1.35,0.47l-0.07-0.53c1.49-0.01,2.39,0.72,3.79,1.1
		c2.88,0.06,5.88,0.02,8.83,0.37c2.94,0.35,5.83,1.11,8.15,2.56l0.07,0.46c-0.13,0.56,1.7-0.22,1.67,0.37l0.68,0.01
		c0.12,0.16,0.4,0.43,0.06,0.41c0.51,0.28,0.56,0.2,1.01,0.23l0.38,0.61c1.85,1.32,3.88,1.72,5.74,3.28
		c0.93,1.17,2.53,2.45,4.12,3.83c1.6,1.36,3.23,2.78,4.36,3.91c1.74,1.46,2.83,3.7,3.68,5.97c0.87,2.27,1.53,4.55,2.77,6.48
		c-0.03,0.17,0.27,0.46,0.33,0.44c0.43,1.31,0.79,2.64,1.09,3.98c0,0,0.07,0.3,0.19,0.81c0.13,0.5,0.28,1.21,0.44,2.01
		c0.36,1.6,0.68,3.61,1.05,5.16c0.33,1.55,0.78,2.66,1.44,2.39c0.33-0.14,0.71-0.62,1.14-1.61c0.23-0.49,0.44-1.11,0.64-1.88
		c0.1-0.38,0.21-0.8,0.32-1.26c0.1-0.46,0.17-0.96,0.26-1.5l0.14,0.1C249.14,139.74,248.83,138.14,247.81,136.62z"/>
	<path class="st3" d="M197.72,99.8l-0.07-0.31c-1.67,0.62-0.7-0.73-2.37-0.14l-0.01,0.03c0.66,0.27,1.35,0.42,2.05,0.39
		C197.45,99.78,197.58,99.79,197.72,99.8z"/>
	<path class="st1" d="M187.74,65.76l0.38-0.08C188.07,65.62,187.96,65.63,187.74,65.76z"/>
	<path class="st1" d="M195.55,103.71c-0.03,0.01-0.06,0-0.09,0.01C195.52,103.72,195.55,103.72,195.55,103.71z"/>
	<polygon class="st1" points="223.75,77.11 223.75,77.12 224.01,77.19 	"/>
	<path class="st1" d="M197.15,63.9c0,0,0.25-0.74,0.92-0.99c0.34-0.11,0.77-0.14,1.33,0.09c0.56,0.22,1.24,0.68,2.06,1.41
		c-0.37,0.31-0.41,0.57-0.09,0.97l0.38-0.12c-0.23,0.28,0.11,0.46,0.22,0.67c0.39,0.07,0.43-0.23,0.79-0.03
		c0.04,0.15,0.05,0.22,0.07,0.26c0.04,0,0.09,0.01,0.13,0c0.29,0.01,0.56,0.01,0.82-0.08l0.32,0.38c0.18-0.06,0.37-0.1,0.56-0.1
		c0.18,0.02,0.36,0.08,0.5,0.21l-0.04,0.09c0.54-0.11,1.06,0.15,1.33,0.12l-0.05,0.08l0.59,0.17l-0.14,0.09
		c0.92,0.01,1.75,0.43,2.42,0.88l0.13-0.38c0.33,0.31,0.61,0.54,0.9,0.7c0.28,0.17,0.56,0.27,0.81,0.42
		c0.25,0.14,0.5,0.28,0.75,0.46c0.12,0.1,0.25,0.2,0.36,0.33c0.11,0.14,0.21,0.3,0.31,0.48l-0.08,0.06
		c0.53,0.14,0.96,0.36,1.23,0.68c0.28,0.32,0.48,0.67,0.68,1.02c0.19,0.36,0.33,0.75,0.58,1.09c0.26,0.33,0.56,0.67,1.03,0.98
		c-0.24-0.15-0.12,0.2-0.21,0.23c0.15,0.18,0.3,0.37,0.44,0.55c0.13,0.19,0.26,0.36,0.39,0.5c0.27,0.28,0.58,0.42,0.94,0.27
		c0.31,0.65,0,0.63-0.23,0.83c0.32-0.14,0.66,0.39,0.87,0.91l-0.21-0.2c0.24,0.48,0.39,0.99,0.56,1.49l0.55-0.47
		c0.04,0.89-0.71,0.4-0.35,1.16l0.52-0.12c0.04,0.61-0.12,1.12-0.31,1.61c-0.18,0.49-0.51,0.96-0.66,1.51
		c-0.01,0.73-0.04,1.48-0.08,2.23c0.12,0.04,0.15,0.18,0.41-0.11l-0.06,0.11c0.59-0.61,1.3-0.21,1.89-0.18
		c-0.08,0.44,0.28,0.39,0.54,0.31c-0.08,0-0.13,0.21-0.15,0.27c0.43-0.49,0.61,0.67,1.06,0.12l-0.02,0.06
		c0.1,0.27,0.6-0.37,0.56,0.43c0.48-0.56,0.81-0.48,1.38-0.15l-0.03,0.13c0.09,0.12,0.16,0.23,0.24,0.35c0.14-0.29,0.22-0.61,0-1.11
		c-0.25-0.46-0.51,0.78-0.57-0.14c0.14-0.56,0.36-1.28,0.47-2.05c0.08-0.77,0.2-1.6,0.15-2.36c-0.37,0.18-0.41-0.22-0.56-0.61
		l0.33-0.1c-0.73-1.49,0.7-0.73-0.06-2.22l-0.53-0.16c-1-1.18,0.49-0.97-0.92-2.17c0.27,0.56-0.61,0.53-0.72-0.22l0.37,0.06
		c-0.21-0.37-0.38-0.45-0.44-0.72c0.27,0.15,0.5-0.07,0.18-0.61l0.56,0.21l-1.06-0.81c-0.02-0.24-0.09-0.5-0.21-0.74
		c-0.12-0.24-0.27-0.47-0.41-0.69c-0.28-0.44-0.51-0.83-0.41-1.11c0,0-0.05-0.12-0.16-0.27c-0.1-0.16-0.25-0.38-0.41-0.6
		c-0.34-0.43-0.75-0.88-1.09-0.89c0.51,0.09-0.13-0.79,0.36-0.81c-0.62-0.16-1.83-1.06-2.05-1.72l0.11,0.05
		c-0.36-0.45-0.72-0.83-1.13-1.12c-0.42-0.28-0.84-0.52-1.25-0.75c-0.4-0.24-0.83-0.42-1.24-0.65c-0.41-0.23-0.79-0.51-1.18-0.86
		c-0.11,0.39-0.95-0.26-0.95,0.3c-0.51-0.11-0.94-0.32-1.34-0.55c-0.4-0.2-0.77-0.44-1.11-0.63c-0.67-0.4-1.29-0.54-1.83,0.13
		c-0.89-0.13-0.95-0.65-1.41-0.79l0.23-0.05c-0.87-0.07-1.42-0.12-1.92-0.18c-0.5-0.06-0.94-0.05-1.58-0.11
		c-0.65,0.13-0.74,0.81-1.85,0.71c0.35-0.31-0.1-0.23-0.52-0.21c0.26-0.06,0.35-0.17-0.22-0.33c-0.07,0.09-0.19,0.15-0.3,0.21
		c-0.01-0.02-0.03-0.04-0.02-0.07c-0.69,0.16-0.55,0.26-0.23,0.25c-0.01,0.05,0.02,0.1,0.13,0.17c-0.76-0.28-1.98,0.32-2.16-0.16
		c-2.06,0.58-3.34,1.53-4.78,2.45c-0.28-0.15-0.02-0.53,0.4-0.84l-1.08,0.62c-0.16-0.33,0.55-0.5,0.87-0.73
		c-0.4,0.03-0.76,0.16-1.1,0.34c-0.17,0.09-0.34,0.2-0.5,0.31c-0.16,0.12-0.31,0.26-0.46,0.4c-0.61,0.55-1.23,1.09-2.07,1.41
		l-0.11,0.45l-0.11,0.02c0.1,0.12-0.08,0.51-0.25,0.7c-0.39-0.09-0.46-0.58-1.09,0.01c-0.35,0.12-0.7,0.47-1,0.9
		c-0.28,0.45-0.52,0.95-0.75,1.34c0.36-0.32,0.39-0.08,0.34,0.14c-0.27,0.32-0.69,0.29-0.77,0.65l-0.36-0.24
		c0.42,0.12-0.32,1.16-0.27,1.39c-0.41,0.01,0.17-0.69,0.04-0.92c-1,1.41-0.51,0.7-1.38,2.18c-0.19,0.94,0.44,0.06,0.54,0.62
		c-0.33,0.72-0.34,1.54-0.97,2.23l0.47-0.1c-0.26,1.44-0.58,2.19-1.18,3.04c0.02,0.34,0.03,0.67,0.05,0.98
		c0.04,0.31,0.09,0.6,0.14,0.87c0.11,0.54,0.19,0.99,0.32,1.38c0.29,0.78,0.57,1.3,0.82,1.62c0.52,0.66,0.98,0.63,1.31,0.25
		c0.36-0.33,0.63-0.91,0.81-1.4c0.08-0.25,0.18-0.47,0.24-0.63c0.06-0.16,0.1-0.26,0.1-0.26c0.62-1.59,0.99-2.72,1.27-4.06
		c0.37-1.28,0.73-2.76,1.93-4.46c0.33-0.32,0.63-0.6,0.91-0.86c0.28-0.25,0.59-0.43,0.85-0.62c0.53-0.39,1.05-0.63,1.56-0.9
		c1-0.51,2.01-1.02,3.62-1.83c0.75-0.28,1.55-0.54,2.35-0.76c-0.23-0.43-0.48-0.8-0.67-1.17C196.86,65.2,196.76,64.64,197.15,63.9z"
		/>
	<path class="st1" d="M193.58,103.15l-0.14,0.08c0.49-0.08,0.75-0.01,1.01,0.1c0.26,0.12,0.54,0.24,1.03,0.23
		c0.03,0.07,0.09,0.12,0.07,0.14c0.51-0.14,1.15,0.06,1.78,0.16c0.63,0.11,1.24,0.26,1.62,0.21l0.01,0.31
		c0.61,0.03,1.22,0.02,1.83,0.03l-0.68-0.1c0.14-0.41,0.47-0.27,0.94-0.07c0.47,0.19,1.11,0.34,1.75,0.04
		c0.63,0.04,1.2-0.5,1.74-0.98c0.27-0.24,0.54-0.48,0.81-0.63c0.27-0.18,0.55-0.3,0.86-0.27c0.46-0.53-0.34,0.75,0.43,0.24
		c0.14,0.42-0.33,0.37-0.02,0.65c0.4-0.22,0.78-0.18,1.18-0.21c0.4-0.04,0.83-0.1,1.29-0.42l0.17,0.3c0.14-0.14,0.29-0.24,0.44-0.33
		c0.15-0.1,0.3-0.19,0.45-0.26c0.31-0.14,0.62-0.23,0.93-0.32c0.62-0.15,1.15-0.36,1.41-0.85c0,0,0.01-0.01,0.01-0.01
		c1.11-1,1.43,0.3,2.31-1.17c0.26,0,0.52,0,0.78-0.02c0.56-0.41-0.01-0.76,0.7-1.09c0.16,0.25,0.87-0.48,0.73,0.02
		c0.41-0.2,0.7-0.54,0.99-0.88c0.28-0.36,0.55-0.73,0.79-1.14c0.47-0.84,1.03-1.66,1.93-2.46c-0.11-0.36,0.05-0.74,0.21-1.09
		c0.14-0.37,0.28-0.72,0.17-0.98c0.12,0.03,0.38-0.48,0.59-0.83c0.2-0.35,0.37-0.54,0.36,0.16c-0.01,0.12-0.1,0.29-0.18,0.24
		l0.24,0.28c0.6-0.46,0.7-1.09,0.77-1.7c0.02-0.2,0.04-0.4,0.05-0.59c-0.04,0-0.07,0.01-0.11,0.01c-0.26,0.02-0.48,0.01-0.64-0.01
		c-0.16-0.02-0.26-0.04-0.26-0.04l-1.26-0.28c-0.01,0.07-0.16,0.23-0.19,0.14c-0.79,0.41-1.48-0.13-2.11-0.65
		c-0.27-0.23-0.54-0.44-0.81-0.61c-0.05,0.18-0.07,0.36-0.13,0.53c-0.66,2.26-1.94,4.38-3.77,5.59l-0.41-0.14
		c-0.23-0.17-0.28,0.18-0.35,0.54c-0.07,0.36-0.15,0.75-0.39,0.6l-0.19,0.54c-0.18,0-0.49,0.09-0.37-0.16
		c-0.38,0.25-0.33,0.33-0.49,0.68l-0.6,0c-0.4,0.2-0.78,0.39-1.13,0.63c-0.34,0.26-0.69,0.48-1.04,0.71
		c-0.68,0.51-1.46,0.91-2.37,1.16c-0.58-0.04-1.24,0.04-1.95,0.14c-0.36,0.05-0.74,0.11-1.12,0.16c-0.43,0.06-0.87,0.12-1.33,0.15
		l-0.29,0.04l-0.33,0.05l-0.62,0.03c-0.41,0.03-0.82,0.06-1.22,0.09c-0.4,0-0.78-0.01-1.15-0.01c-0.18,0-0.36,0-0.54,0
		c-0.01,0-0.01,0-0.02,0c-0.02,0-0.05,0-0.07-0.01c-0.14-0.01-0.28-0.03-0.41-0.04c-0.7,0.02-1.39-0.13-2.05-0.39
		c-1.08-0.43-2.09-1.18-2.97-1.97c-1.44-1.31-2.57-2.73-4.09-3.75c-0.02-0.13-0.33-0.26-0.39-0.22c-0.3-0.45-0.66-0.87-0.92-1.35
		c-0.26-0.48-0.57-0.93-0.79-1.43c0,0-0.11-0.22-0.28-0.59c-0.09-0.18-0.2-0.4-0.33-0.64c-0.1-0.25-0.22-0.54-0.34-0.84
		c-0.54-1.18-0.95-2.73-1.4-3.95c-0.36-1.22-0.82-2.14-1.48-1.92c-0.33,0.12-0.7,0.52-1.11,1.4c-0.1,0.22-0.21,0.47-0.32,0.75
		c-0.08,0.28-0.17,0.59-0.25,0.94c-0.08,0.35-0.16,0.73-0.24,1.15c-0.05,0.42-0.08,0.87-0.11,1.38l-0.15-0.07
		c0.09,1.15,0.39,2.05,0.7,2.85c0.34,0.77,0.84,1.39,1.45,1.94c-0.56,0.59,0.87,1.65,0.98,2.21l-0.08,0
		c0.67,0.38,0.97,1.03,1.33,1.66c0.38,0.61,0.74,1.26,1.42,1.53c-0.08,0.01-0.27,0.15-0.49-0.07c0.79,0.62,1.9,1.38,1.67,1.78
		c0.5,0.34,1.03,0.72,1.57,1.11c0.03,0.02,0.07,0.04,0.11,0.06c0.53,0.34,1.09,0.66,1.63,0.96
		C191.59,102.85,192.74,103.27,193.58,103.15z"/>
	<path class="st3" d="M203.19,67.93l-0.13,0.12C203.13,68.03,203.19,68,203.19,67.93z"/>
	<path class="st4" d="M218,84.25c0.01-0.01,0.02-0.01,0.03-0.03"/>
	<path class="st3" d="M199.25,73.3L199.25,73.3c-0.02-0.01-0.03-0.02-0.05-0.02L199.25,73.3z"/>
	<path class="st3" d="M220.51,89.74c0.03,0.09,0.18-0.08,0.19-0.14l1.26,0.28c0,0,0.1,0.01,0.26,0.04c0.16,0.03,0.39,0.03,0.64,0.01
		c0.03,0,0.07-0.01,0.11-0.01c0.49-0.03,1.08-0.13,1.53-0.36c0.48-0.25,0.8-0.67,0.72-1.34c-0.06-0.6-0.48-1.43-1.23-2.51
		c-0.08-0.12-0.15-0.22-0.24-0.35l0.03-0.13c-0.56-0.34-0.9-0.41-1.38,0.15c0.04-0.79-0.46-0.15-0.56-0.43l0.02-0.06
		c-0.45,0.55-0.63-0.61-1.06-0.12c0.03-0.06,0.08-0.27,0.15-0.27c-0.26,0.08-0.62,0.13-0.54-0.31c-0.59-0.03-1.31-0.43-1.89,0.18
		l0.06-0.11c-0.26,0.29-0.29,0.15-0.41,0.11c-0.04-0.02-0.1-0.02-0.19,0.02c0.01-0.06,0-0.1,0.01-0.12
		c-0.38,0.38-0.68-0.17-0.94-0.04l0.1-0.29l-0.47-0.1l0.14,0.12c-0.37,0.75-0.15-0.59-0.66-0.25c-0.24-0.23-1.33,1.3-1.48,0.77
		c-0.33,0.28,0.41-0.51,0.05-0.35c0.19-0.4,0.23-0.2,0.32-0.54c-0.31,0.08-0.15-0.57-0.55-0.43l0.15-0.31
		c-0.65,0.39-0.39-0.75-0.91-0.35c-0.48,0.04,0.3-1-0.39-0.64l0.11-0.47c-0.1-0.15-0.41,0.41-0.45,0.13
		c0.17-0.24-0.08-0.32,0.17-0.49c-0.09-0.59-1.06,0.02-1.06-0.93c-0.44,0.38-0.46-0.06-0.8,0.22c0.14-0.2-0.43-0.37,0.16-0.6
		c0.05-0.02,0.08,0.02,0.02,0.09l0.24-0.24c0.15-0.66-0.65-0.1-0.82-0.38c-0.01,0.15,0.11,0.21-0.11,0.33l-0.19-0.23l0.23-0.17
		l-0.21-0.41l-0.19,0.3c-0.04-0.28,0.32-0.76-0.2-0.55c-0.27,0.13-0.18,0.48-0.42,0.4c-0.06-0.35-0.09-0.92-0.25-1.25
		c-0.26,0.3-0.32,0.21-0.44,0.19l0.24-0.24c-0.61,0.04,0.46-0.61-0.07-0.63l0.2-0.13l-0.6,0.4c-0.74,0.19,0.42-0.6-0.55-0.28
		c0.15,0.07-0.53,0.54-0.54,0.3l0.29-0.17c-0.13-0.03-0.25,0.02-0.24-0.08c0.17-0.06,0.39-0.28,0.26-0.36l0.38-0.18l-0.64,0.15
		c0.15-0.4-0.42-0.41-0.1-0.76c0,0-0.1-0.51-0.58-0.3c0.32-0.11,0.26-0.38,0.61-0.54c-0.18,0.05-0.39,0.05-0.52-0.01
		c-0.12-0.07-0.17-0.19-0.05-0.35l0.05,0c0.06-0.65-0.92-0.5-0.76-1.14c-0.33,0.21-0.28-0.11-0.69,0.19
		c-0.71-0.21,0.51-1.29-0.98-0.75c-0.18-0.18,0.21-0.41,0.23-0.55l0.1,0.01c-0.3-0.33-0.37-0.44-0.48-0.75
		c-0.21-0.08-0.88,0.17-0.82-0.18c0.3-0.02,0.21-0.11,0.17-0.21c0.07,0.05,0.17,0.03,0.3-0.18c-0.09,0.01-0.15,0-0.2-0.01
		c0.02-0.01,0.04-0.02,0.07-0.03c-0.16-0.13-0.23-0.07-0.24,0.02c-0.04,0.01-0.09,0.04-0.16,0.09c0.28-0.31-0.21-0.49,0.25-0.68
		c-0.29-0.47-0.94-0.68-1.22-1.09c0.23-0.12,0.48-0.08,0.6,0.02l-0.17-0.29c0.35-0.1,0.25,0.12,0.34,0.2
		c0.48-0.53-0.77-0.61-0.35-1.19l-0.31-0.02l0.04-0.04c-0.15,0.04-0.38-0.02-0.45-0.07c0.3-0.13,0.72-0.16,0.65-0.37
		c0.24-0.23-0.24-0.46-0.45-0.66c-0.03,0.13-0.22,0.13-0.33,0.09c-0.03-0.11,0.28-0.23,0.13-0.29l0.43-0.08
		c-0.4,0.11-0.48-0.22-0.66-0.24c0.31-0.11,0.3,0.13,0.54,0.12c-0.07-0.29-0.07-0.3-0.1-0.39c-0.01-0.05-0.03-0.12-0.07-0.26
		c-0.36-0.2-0.4,0.1-0.79,0.03c-0.11-0.21-0.46-0.39-0.22-0.67l-0.38,0.12c-0.32-0.39-0.29-0.66,0.09-0.97
		c-0.82-0.73-1.5-1.19-2.06-1.41c-0.56-0.22-0.99-0.2-1.33-0.09c-0.67,0.25-0.92,0.99-0.92,0.99c-0.39,0.74-0.29,1.31-0.05,1.87
		c0.19,0.37,0.44,0.74,0.67,1.17c0.12,0.23,0.24,0.48,0.34,0.76c0,0.75-0.1,1.26-0.14,1.77c-0.05,0.51-0.03,1.03,0.32,1.75
		c0.18,0.73,0.63,1.43,0.96,2.08c0.64,0.11,0.37,0.88,0.99,1.05l-0.23,0.28c0.21,0.06,0.38,0.15,0.28,0.36l-0.09,0.03
		c0.31,0.08,0.28,0.36,0.44,0.39l-0.09,0.04l0.15,0.21l-0.14,0.02c0.38,0.21,0.58,0.52,0.65,0.86l0.33-0.22
		c-0.02,0.83,0.82,0.61,0.69,1.43l-0.09,0.04c0.32,0.03,0.49,0.13,0.57,0.27c0.1,0.14,0.12,0.31,0.13,0.49
		c0.04,0.36,0.08,0.74,0.72,0.77c-0.16-0.01-0.14,0.16-0.22,0.21c0.32,0.24,0.61,0.52,1.22,0.03c0.15,0.22-0.06,0.33-0.27,0.55
		c0.26-0.22,0.53-0.14,0.68,0l-0.17,0.01l0.49,0.37l0.41-0.51c0.07,0.35-0.54,0.58-0.22,0.7l0.4-0.36c0.21,0.39-0.21,1.13-0.2,1.73
		c0.56,0.73,1.48,1.14,2.28,1.6c0.85,0.41,1.62,0.84,2.02,1.73l-0.16,0.37c-0.3,0.51,0.88-0.48,0.63,0.01l0.31-0.12
		c-0.01,0.12,0.03,0.27-0.12,0.33c0.14,0.11,0.2,0.03,0.4-0.05l-0.02,0.41c0.48,0.62,1.34,0.34,1.95,0.77
		c0.24,0.53,0.83,0.83,1.49,1c0.67,0.13,1.4,0.09,1.92,0.07c0.39-0.1,0.72,0.02,1.04,0.19c0.05,0.02,0.09,0.06,0.13,0.09
		c0.27,0.17,0.54,0.38,0.81,0.61C219.02,89.61,219.71,90.15,220.51,89.74z"/>
</g>
</svg>
