<?xml version="1.0" encoding="utf-8"?>
<!-- Generator: Adobe Illustrator 26.3.1, SVG Export Plug-In . SVG Version: 6.00 Build 0)  -->
<svg version="1.1" id="Layer_1" xmlns="http://www.w3.org/2000/svg" xmlns:xlink="http://www.w3.org/1999/xlink" x="0px" y="0px"
	 viewBox="0 0 326 200" style="enable-background:new 0 0 326 200;" xml:space="preserve">
<style type="text/css">
	.st0{fill:#FFFFFF;}
</style>
<g>
	<path class="st0" d="M118.6,122.7l0.3-0.3C118.8,122.4,118.7,122.5,118.6,122.7z"/>
	<path class="st0" d="M200.1,114.4C200.1,114.4,200.1,114.4,200.1,114.4"/>
	<path class="st0" d="M131,114.1L131,114.1C131,114.1,131,114.2,131,114.1L131,114.1z"/>
	<path class="st0" d="M136.1,105.1c-0.4,0-0.5,0.1-1-0.2c0.3,0,0.1-0.2-0.1-0.4l-0.7,0c0-0.4-0.8-0.2-1.2-0.2
		c-0.3,0.3-0.6,0.7-0.4,1.2c-0.7,0.7-1.2,0.4-1.6,0.7l0.1-0.2c-1.4,1.3-1.8,1.7-2.8,2.6c-0.4,0.6,0,1.2-1,1.9
		c0.1-0.5-0.2-0.1-0.6,0.2c0.2-0.2,0.2-0.4-0.4-0.1c0,0.1-0.1,0.3-0.1,0.4c0,0-0.1,0-0.1,0c-0.4,0.7-0.3,0.6,0,0.4
		c0,0,0.1,0.1,0.2,0c-0.8,0.4-1.4,1.7-1.9,1.5c-0.7,1-1.2,1.8-1.6,2.7c-0.2,0.4-0.4,0.9-0.6,1.3c-0.2,0.4-0.4,0.9-0.6,1.3
		c-0.3,0.1-0.3-0.4-0.1-1l-0.7,1.2c-0.3-0.2,0.2-0.8,0.4-1.2c-0.7,0.5-1,1.3-1.3,2.2c-0.2,0.4-0.3,0.8-0.5,1.3
		c-0.2,0.4-0.4,0.8-0.8,1.2l0.1,0.5l-0.1,0.1c0.1,0.1,0.1,0.5,0.1,0.8c-0.4,0.1-0.7-0.3-1,0.6c-0.6,0.6-0.7,2-0.9,3
		c0.2-0.5,0.3-0.2,0.4,0c-0.2,0.4-0.5,0.6-0.5,1l-0.4-0.1c0.4,0,0,1.3,0.1,1.5c-0.4,0.2,0-0.8-0.2-1c-0.6,1.8-0.3,0.9-0.8,2.8
		c0,1.1,0.4-0.1,0.7,0.5c-0.1,0.9,0,1.8-0.5,2.7l0.4-0.2c0,1.7-0.2,2.6-0.7,3.7c0.1,0.4,0.1,0.8,0.2,1.1c0.1,0.4,0.1,0.7,0.2,1
		c0.1,0.6,0.3,1.1,0.4,1.6c0.3,0.9,0.6,1.5,0.9,1.9c0.5,0.8,1,0.7,1.3,0.3c0.3-0.4,0.6-1.2,0.8-1.8c0.1-0.3,0.2-0.6,0.2-0.8
		c0.1-0.2,0.1-0.4,0.1-0.4c0.6-2.2,0.8-3.8,0.9-5.5c0.2-1.8,0.3-3.7,1-6.2c0.5-1.1,0.9-1.9,1.3-2.6c0.2-0.4,0.4-0.7,0.6-1
		c0.2-0.3,0.4-0.6,0.6-0.9c0.2-0.3,0.4-0.6,0.6-0.9c0.2-0.3,0.4-0.7,0.7-1c0.4-0.7,1-1.5,1.6-2.6c1.3-1.8,2.7-3.8,4.2-5.5
		c0.1-0.6,0.7-1.1,1.2-1.6c0.3-0.3,0.6-0.5,0.8-0.8c0.3-0.3,0.5-0.5,0.6-0.8l0.6-0.1c0.2-0.4,0.6-0.8,1-0.9l0,0.1
		c0.4-0.6,1-0.9,1.2-1.2l0,0.1l0.6-0.5l0,0.2c0.4-0.4,0.8-0.8,1.3-1.1c0.2-0.1,0.4-0.2,0.5-0.3c-0.8-0.4-1.7-0.8-2.5-1.4
		L136.1,105.1z"/>
	<path class="st0" d="M185.9,106.7l0.3,0.3c-0.2,0.1-0.4,0.2-0.5,0.3c0.7,0.4,1.4,0.8,2.1,1.3c0.9,1.2,2.5,2.4,4.1,3.8
		c1.6,1.4,3.2,2.8,4.4,3.9c1.7,1.5,2.8,3.7,3.7,6c0.9,2.3,1.5,4.6,2.8,6.5c0,0.2,0.3,0.5,0.3,0.4c0.4,1.3,0.8,2.6,1.1,4
		c0,0,0.1,0.3,0.2,0.8c0.1,0.5,0.3,1.2,0.4,2c0.4,1.6,0.7,3.6,1.1,5.2c0.3,1.6,0.8,2.7,1.4,2.4c0.3-0.1,0.7-0.6,1.1-1.6
		c0.2-0.5,0.4-1.1,0.6-1.9c0.1-0.4,0.2-0.8,0.3-1.3c0.1-0.5,0.2-1,0.3-1.5l0.1,0.1c0-2.5-0.3-4.1-1.3-5.6c0.7-0.5-0.5-2-0.4-2.6
		l0.1,0c-0.5-0.6-0.7-1.4-0.8-2.2c-0.2-0.8-0.3-1.6-0.8-2.1c0.1,0,0.3,0,0.4,0.3c-0.5-1-1.3-2.2-0.9-2.5c-0.6-1.1-1.3-2.5-2.1-3.7
		c-0.4-0.6-0.8-1.2-1.2-1.6c-0.4-0.5-0.8-0.8-1.2-1.1l0.2,0c-0.9-0.5-0.8-1-1.6-1.6c0-0.1,0-0.2,0-0.2c-0.5-0.2-1-0.8-1.4-1.4
		c-0.4-0.6-0.9-1.1-1.2-1.3l0.2-0.2c-0.5-0.5-1-0.9-1.4-1.4l0.5,0.6c-0.4,0.2-0.6-0.2-0.8-0.7c-0.2-0.5-0.6-1.1-1.3-1.4
		c-0.4-0.5-1.3-0.6-2.1-0.8c-0.8-0.2-1.5-0.3-2-0.9c-0.8-0.1,0.9-0.1-0.1-0.5c0.2-0.4,0.5,0.1,0.6-0.4c-0.6-0.3-0.9-0.8-1.3-1.2
		c-0.6,0.2-1,0.5-1.4,0.8C187.6,105.8,187,106.3,185.9,106.7z"/>
	<polygon class="st0" points="155.8,94.4 155.8,94.4 155.9,94.2 	"/>
	<path class="st0" d="M139.9,102.2c0.6,0,1.1,0.4,1.6,0.9c0.5,0.5,1.1,1,1.9,1.2l0,0c0.2-0.1,0.4-0.1,0.7-0.2l0,0.1
		c0.9-1,2-1.2,2.9-1.4c1-0.1,2-0.3,3.1-1.1c-0.3,0.2,0.2,0.2,0.2,0.3c1.1-0.4,2.4-0.7,2.2-1.5c0.9-0.2,0.8,0.1,0.9,0.4
		c-0.1-0.3,0.7-0.6,1.3-0.8l-0.3,0.2c0.6-0.2,1.3-0.3,1.9-0.4l-0.5-0.6c1.1,0.1,0.4,0.8,1.4,0.5l-0.1-0.5c1.5,0,2.4,0.7,3.8,1.1
		c2.9,0.1,5.9,0,8.8,0.4c2.9,0.3,5.8,1.1,8.1,2.6l0.1,0.5c-0.1,0.6,1.7-0.2,1.7,0.4l0.7,0l0,0c0.7-0.3,1.5-0.7,2.1-1.3
		c-0.5-0.3,0.6-0.7,0.3-1c0.6-0.2,1-0.4,1.5-0.7c-0.2-0.4-0.3-0.8-1.4-0.9c-0.1-0.2-0.3-0.5-0.4-0.7c-0.6-0.4-0.7,0.3-1.4-0.2
		c0.2-0.2-0.9-0.6-0.3-0.7c-1.6-1.1-3.8-0.8-5.9-2.2c-0.5,0.3-1.4,0-1.9,0l0,0c1.1-1,1.4,0.3,2.3-1.2c0.3,0,0.5,0,0.8,0
		c0.6-0.4,0-0.8,0.7-1.1c0.2,0.2,0.9-0.5,0.7,0c0.4-0.2,0.7-0.5,1-0.9c0.3-0.4,0.6-0.7,0.8-1.1c0.5-0.8,1-1.7,1.9-2.5
		c-0.1-0.4,0.1-0.7,0.2-1.1c0.1-0.4,0.3-0.7,0.2-1c0.1,0,0.4-0.5,0.6-0.8c0.2-0.3,0.4-0.5,0.4,0.2c0,0.1-0.1,0.3-0.2,0.2l0.2,0.3
		c0.6-0.5,0.7-1.1,0.8-1.7c0-0.2,0-0.4,0.1-0.6c0,0-0.1,0-0.1,0c-0.3,0-0.5,0-0.6,0c-0.2,0-0.3,0-0.3,0l-1.3-0.3
		c0,0.1-0.2,0.2-0.2,0.1c-0.8,0.4-1.5-0.1-2.1-0.7c-0.3-0.2-0.5-0.4-0.8-0.6c-0.1,0.2-0.1,0.4-0.1,0.5c-0.7,2.3-1.9,4.4-3.8,5.6
		l-0.4-0.1c-0.2-0.2-0.3,0.2-0.4,0.5s-0.1,0.8-0.4,0.6l-0.2,0.5c-0.2,0-0.5,0.1-0.4-0.2c-0.4,0.2-0.3,0.3-0.5,0.7h-0.6
		c-0.4,0.2-0.8,0.4-1.1,0.6c-0.3,0.3-0.7,0.5-1,0.7c-0.7,0.5-1.5,0.9-2.4,1.2c-0.6,0-1.2,0-1.9,0.1c-0.3-0.1-0.6-0.1-1.1,0.1
		c0,0,0,0-0.1,0.1c-0.4,0.1-0.9,0.1-1.3,0.2l-0.3,0c-0.2,0-0.5-0.1-0.7-0.1c-0.8-0.1-1.7-0.2-2.5-0.2c0.2,0.4-0.2,0.4-0.6,0.5
		c0,0-0.1,0-0.1,0l-0.1-0.3c-1.7,0.6-0.7-0.7-2.4-0.1l0,0c-1.1-0.4-2.1-1.2-3-2c-1.4-1.3-2.6-2.7-4.1-3.8c0-0.1-0.3-0.3-0.4-0.2
		c-0.3-0.4-0.7-0.9-0.9-1.3c-0.3-0.5-0.6-0.9-0.8-1.4c0,0-0.1-0.2-0.3-0.6c-0.1-0.2-0.2-0.4-0.3-0.6c-0.1-0.2-0.2-0.5-0.3-0.8
		c-0.5-1.2-0.9-2.7-1.4-3.9c-0.4-1.2-0.8-2.1-1.5-1.9c-0.3,0.1-0.7,0.5-1.1,1.4c-0.1,0.2-0.2,0.5-0.3,0.8c-0.1,0.3-0.2,0.6-0.2,0.9
		c-0.1,0.3-0.2,0.7-0.2,1.2c-0.1,0.4-0.1,0.9-0.1,1.4l-0.1-0.1c0.1,1.2,0.4,2.1,0.7,2.8c0.3,0.8,0.8,1.4,1.4,1.9
		c-0.6,0.6,0.9,1.7,1,2.2h-0.1c0.7,0.4,1,1,1.3,1.7c0.4,0.6,0.7,1.3,1.4,1.5c-0.1,0-0.3,0.2-0.5-0.1c0.8,0.6,1.9,1.4,1.7,1.8
		c0.5,0.3,1,0.7,1.6,1.1c0,0,0.1,0,0.1,0.1c-0.7,0.2-1.3,0.4-1.6,0.2c0,0-0.1,0-0.3,0.1c-0.2,0.1-0.5,0.1-0.8,0.2
		c-0.6,0.2-1.2,0.5-1.3,0.8c0.3-0.4-0.9-0.2-0.7-0.6c-0.4,0.6-1.8,1.4-2.5,1.3l0.1-0.1c-0.6,0.2-1.1,0.4-1.6,0.6
		c-0.5,0.3-0.9,0.6-1.3,0.8c-0.4,0.3-0.8,0.5-1.2,0.8C139.2,100.9,138.5,101.6,139.9,102.2z"/>
	<path class="st0" d="M148.3,60.9l0.4-0.1C148.6,60.7,148.5,60.7,148.3,60.9z"/>
	<path class="st0" d="M157.7,59c0,0,0.2-0.7,0.9-1c0.3-0.1,0.8-0.1,1.3,0.1c0.6,0.2,1.2,0.7,2.1,1.4c-0.4,0.3-0.4,0.6-0.1,1l0.4-0.1
		c-0.2,0.3,0.1,0.5,0.2,0.7c0.4,0.1,0.4-0.2,0.8,0c0,0.2,0.1,0.2,0.1,0.3c0,0,0.1,0,0.1,0c0.3,0,0.6,0,0.8-0.1l0.3,0.4
		c0.2-0.1,0.4-0.1,0.6-0.1c0.2,0,0.4,0.1,0.5,0.2l0,0.1c0.5-0.1,1.1,0.2,1.3,0.1l-0.1,0.1l0.6,0.2l-0.1,0.1c0.9,0,1.8,0.4,2.4,0.9
		l0.1-0.4c0.3,0.3,0.6,0.5,0.9,0.7c0.3,0.2,0.6,0.3,0.8,0.4c0.2,0.1,0.5,0.3,0.8,0.5c0.1,0.1,0.2,0.2,0.4,0.3
		c0.1,0.1,0.2,0.3,0.3,0.5l-0.1,0.1c0.5,0.1,1,0.4,1.2,0.7c0.3,0.3,0.5,0.7,0.7,1c0.2,0.4,0.3,0.8,0.6,1.1c0.3,0.3,0.6,0.7,1,1
		c-0.2-0.2-0.1,0.2-0.2,0.2c0.1,0.2,0.3,0.4,0.4,0.6c0.1,0.2,0.3,0.4,0.4,0.5c0.3,0.3,0.6,0.4,0.9,0.3c0.3,0.7,0,0.6-0.2,0.8
		c0.3-0.1,0.7,0.4,0.9,0.9l-0.2-0.2c0.2,0.5,0.4,1,0.6,1.5l0.6-0.5c0,0.9-0.7,0.4-0.4,1.2l0.5-0.1c0,0.6-0.1,1.1-0.3,1.6
		c-0.2,0.5-0.5,1-0.7,1.5c0,0.7,0,1.5-0.1,2.2c0.1,0,0.1,0.2,0.4-0.1l-0.1,0.1c0.6-0.6,1.3-0.2,1.9-0.2c-0.1,0.4,0.3,0.4,0.5,0.3
		c-0.1,0-0.1,0.2-0.1,0.3c0.4-0.5,0.6,0.7,1.1,0.1l0,0.1c0.1,0.3,0.6-0.4,0.6,0.4c0.5-0.6,0.8-0.5,1.4-0.2l0,0.1
		c0.1,0.1,0.2,0.2,0.2,0.3c0.1-0.3,0.2-0.6,0-1.1c-0.2-0.5-0.5,0.8-0.6-0.1c0.1-0.6,0.4-1.3,0.5-2.1c0.1-0.8,0.2-1.6,0.1-2.4
		c-0.4,0.2-0.4-0.2-0.6-0.6l0.3-0.1c-0.7-1.5,0.7-0.7-0.1-2.2l-0.5-0.2c-1-1.2,0.5-1-0.9-2.2c0.3,0.6-0.6,0.5-0.7-0.2l0.4,0.1
		c-0.2-0.4-0.4-0.4-0.4-0.7c0.3,0.2,0.5-0.1,0.2-0.6l0.6,0.2l-1.1-0.8c0-0.2-0.1-0.5-0.2-0.7c-0.1-0.2-0.3-0.5-0.4-0.7
		c-0.3-0.4-0.5-0.8-0.4-1.1c0,0-0.1-0.1-0.2-0.3c-0.1-0.2-0.2-0.4-0.4-0.6c-0.3-0.4-0.8-0.9-1.1-0.9c0.5,0.1-0.1-0.8,0.4-0.8
		c-0.6-0.2-1.8-1.1-2.1-1.7l0.1,0.1c-0.4-0.4-0.7-0.8-1.1-1.1c-0.4-0.3-0.8-0.5-1.2-0.8c-0.4-0.2-0.8-0.4-1.2-0.7
		c-0.4-0.2-0.8-0.5-1.2-0.9c-0.1,0.4-0.9-0.3-0.9,0.3c-0.5-0.1-0.9-0.3-1.3-0.5c-0.4-0.2-0.8-0.4-1.1-0.6c-0.7-0.4-1.3-0.5-1.8,0.1
		c-0.9-0.1-0.9-0.7-1.4-0.8l0.2,0c-0.9-0.1-1.4-0.1-1.9-0.2s-0.9,0-1.6-0.1c-0.6,0.1-0.7,0.8-1.9,0.7c0.4-0.3-0.1-0.2-0.5-0.2
		c0.3-0.1,0.4-0.2-0.2-0.3c-0.1,0.1-0.2,0.2-0.3,0.2c0,0,0,0,0-0.1c-0.7,0.2-0.6,0.3-0.2,0.2c0,0,0,0.1,0.1,0.2
		c-0.8-0.3-2,0.3-2.2-0.2c-2.1,0.6-3.3,1.5-4.8,2.5c-0.3-0.2,0-0.5,0.4-0.8l-1.1,0.6c-0.2-0.3,0.6-0.5,0.9-0.7
		c-0.4,0-0.8,0.2-1.1,0.3c-0.2,0.1-0.3,0.2-0.5,0.3c-0.2,0.1-0.3,0.3-0.5,0.4c-0.6,0.5-1.2,1.1-2.1,1.4l-0.1,0.4l-0.1,0
		c0.1,0.1-0.1,0.5-0.2,0.7c-0.4-0.1-0.5-0.6-1.1,0c-0.4,0.1-0.7,0.5-1,0.9c-0.3,0.4-0.5,0.9-0.8,1.3c0.4-0.3,0.4-0.1,0.3,0.1
		c-0.3,0.3-0.7,0.3-0.8,0.7l-0.4-0.2c0.4,0.1-0.3,1.2-0.3,1.4c-0.4,0,0.2-0.7,0-0.9c-1,1.4-0.5,0.7-1.4,2.2
		c-0.2,0.9,0.4,0.1,0.5,0.6c-0.3,0.7-0.3,1.5-1,2.2l0.5-0.1c-0.3,1.4-0.6,2.2-1.2,3c0,0.3,0,0.7,0.1,1c0,0.3,0.1,0.6,0.1,0.9
		c0.1,0.5,0.2,1,0.3,1.4c0.3,0.8,0.6,1.3,0.8,1.6c0.5,0.7,1,0.6,1.3,0.2c0.4-0.3,0.6-0.9,0.8-1.4c0.1-0.2,0.2-0.5,0.2-0.6
		c0.1-0.2,0.1-0.3,0.1-0.3c0.6-1.6,1-2.7,1.3-4.1c0.4-1.3,0.7-2.8,1.9-4.5c0.3-0.3,0.6-0.6,0.9-0.9c0.3-0.2,0.6-0.4,0.9-0.6
		c0.5-0.4,1.1-0.6,1.6-0.9c1-0.5,2-1,3.6-1.8c0.8-0.3,1.6-0.5,2.4-0.8c-0.2-0.4-0.5-0.8-0.7-1.2C157.4,60.3,157.3,59.7,157.7,59z"/>
	<polygon class="st0" points="184.3,72.2 184.3,72.2 184.6,72.3 	"/>
	<path class="st0" d="M163.7,63l-0.1,0.1C163.7,63.1,163.7,63.1,163.7,63z"/>
	<path class="st0" d="M178.5,79.4C178.6,79.3,178.6,79.3,178.5,79.4"/>
	<path class="st0" d="M159.8,68.4L159.8,68.4C159.8,68.4,159.8,68.4,159.8,68.4L159.8,68.4z"/>
	<path class="st0" d="M181.1,84.8c0,0.1,0.2-0.1,0.2-0.1l1.3,0.3c0,0,0.1,0,0.3,0c0.2,0,0.4,0,0.6,0c0,0,0.1,0,0.1,0
		c0.5,0,1.1-0.1,1.5-0.4c0.5-0.2,0.8-0.7,0.7-1.3c-0.1-0.6-0.5-1.4-1.2-2.5c-0.1-0.1-0.1-0.2-0.2-0.3l0-0.1
		c-0.6-0.3-0.9-0.4-1.4,0.2c0-0.8-0.5-0.2-0.6-0.4l0-0.1c-0.4,0.6-0.6-0.6-1.1-0.1c0-0.1,0.1-0.3,0.1-0.3c-0.3,0.1-0.6,0.1-0.5-0.3
		c-0.6,0-1.3-0.4-1.9,0.2l0.1-0.1c-0.3,0.3-0.3,0.2-0.4,0.1c0,0-0.1,0-0.2,0c0-0.1,0-0.1,0-0.1c-0.4,0.4-0.7-0.2-0.9,0l0.1-0.3
		l-0.5-0.1l0.1,0.1c-0.4,0.8-0.1-0.6-0.7-0.2c-0.2-0.2-1.3,1.3-1.5,0.8c-0.3,0.3,0.4-0.5,0.1-0.3c0.2-0.4,0.2-0.2,0.3-0.5
		c-0.3,0.1-0.1-0.6-0.6-0.4l0.1-0.3c-0.6,0.4-0.4-0.8-0.9-0.3c-0.5,0,0.3-1-0.4-0.6l0.1-0.5c-0.1-0.2-0.4,0.4-0.4,0.1
		c0.2-0.2-0.1-0.3,0.2-0.5c-0.1-0.6-1.1,0-1.1-0.9c-0.4,0.4-0.5-0.1-0.8,0.2c0.1-0.2-0.4-0.4,0.2-0.6c0.1,0,0.1,0,0,0.1l0.2-0.2
		c0.1-0.7-0.6-0.1-0.8-0.4c0,0.2,0.1,0.2-0.1,0.3l-0.2-0.2l0.2-0.2l-0.2-0.4l-0.2,0.3c0-0.3,0.3-0.8-0.2-0.6
		c-0.3,0.1-0.2,0.5-0.4,0.4c-0.1-0.3-0.1-0.9-0.2-1.2c-0.3,0.3-0.3,0.2-0.4,0.2l0.2-0.2c-0.6,0,0.5-0.6-0.1-0.6l0.2-0.1l-0.6,0.4
		c-0.7,0.2,0.4-0.6-0.6-0.3c0.1,0.1-0.5,0.5-0.5,0.3l0.3-0.2c-0.1,0-0.2,0-0.2-0.1c0.2-0.1,0.4-0.3,0.3-0.4l0.4-0.2l-0.6,0.2
		c0.1-0.4-0.4-0.4-0.1-0.8c0,0-0.1-0.5-0.6-0.3c0.3-0.1,0.3-0.4,0.6-0.5c-0.2,0.1-0.4,0.1-0.5,0c-0.1-0.1-0.2-0.2-0.1-0.3h0.1
		c0.1-0.7-0.9-0.5-0.8-1.1c-0.3,0.2-0.3-0.1-0.7,0.2c-0.7-0.2,0.5-1.3-1-0.8c-0.2-0.2,0.2-0.4,0.2-0.6l0.1,0
		c-0.3-0.3-0.4-0.4-0.5-0.8c-0.2-0.1-0.9,0.2-0.8-0.2c0.3,0,0.2-0.1,0.2-0.2c0.1,0.1,0.2,0,0.3-0.2c-0.1,0-0.1,0-0.2,0
		c0,0,0,0,0.1,0c-0.2-0.1-0.2-0.1-0.2,0c0,0-0.1,0-0.2,0.1c0.3-0.3-0.2-0.5,0.2-0.7c-0.3-0.5-0.9-0.7-1.2-1.1c0.2-0.1,0.5-0.1,0.6,0
		l-0.2-0.3c0.4-0.1,0.2,0.1,0.3,0.2c0.5-0.5-0.8-0.6-0.4-1.2l-0.3,0l0,0c-0.1,0-0.4,0-0.4-0.1c0.3-0.1,0.7-0.2,0.6-0.4
		c0.2-0.2-0.2-0.5-0.4-0.7c0,0.1-0.2,0.1-0.3,0.1c0-0.1,0.3-0.2,0.1-0.3l0.4-0.1c-0.4,0.1-0.5-0.2-0.7-0.2c0.3-0.1,0.3,0.1,0.5,0.1
		c-0.1-0.3-0.1-0.3-0.1-0.4c0-0.1,0-0.1-0.1-0.3c-0.4-0.2-0.4,0.1-0.8,0c-0.1-0.2-0.5-0.4-0.2-0.7l-0.4,0.1c-0.3-0.4-0.3-0.7,0.1-1
		c-0.8-0.7-1.5-1.2-2.1-1.4s-1-0.2-1.3-0.1c-0.7,0.2-0.9,1-0.9,1c-0.4,0.7-0.3,1.3-0.1,1.9c0.2,0.4,0.4,0.7,0.7,1.2
		c0.1,0.2,0.2,0.5,0.3,0.8c0,0.8-0.1,1.3-0.1,1.8c-0.1,0.5,0,1,0.3,1.8c0.2,0.7,0.6,1.4,1,2.1c0.6,0.1,0.4,0.9,1,1.1l-0.2,0.3
		c0.2,0.1,0.4,0.2,0.3,0.4l-0.1,0c0.3,0.1,0.3,0.4,0.4,0.4l-0.1,0l0.1,0.2l-0.1,0c0.4,0.2,0.6,0.5,0.6,0.9l0.3-0.2
		c0,0.8,0.8,0.6,0.7,1.4l-0.1,0.1c0.3,0,0.5,0.1,0.6,0.3c0.1,0.1,0.1,0.3,0.1,0.5c0,0.4,0.1,0.7,0.7,0.8c-0.2,0-0.1,0.2-0.2,0.2
		c0.3,0.2,0.6,0.5,1.2,0c0.1,0.2-0.1,0.3-0.3,0.6c0.3-0.2,0.5-0.1,0.7,0l-0.2,0l0.5,0.4l0.4-0.5c0.1,0.3-0.5,0.6-0.2,0.7l0.4-0.4
		c0.2,0.4-0.2,1.1-0.2,1.7c0.6,0.7,1.5,1.1,2.3,1.6c0.9,0.4,1.6,0.8,2,1.7l-0.2,0.4c-0.3,0.5,0.9-0.5,0.6,0l0.3-0.1
		c0,0.1,0,0.3-0.1,0.3c0.1,0.1,0.2,0,0.4-0.1l0,0.4c0.5,0.6,1.3,0.3,1.9,0.8c0.2,0.5,0.8,0.8,1.5,1c0.7,0.1,1.4,0.1,1.9,0.1
		c0.4-0.1,0.7,0,1,0.2c0.1,0,0.1,0.1,0.1,0.1c0.3,0.2,0.5,0.4,0.8,0.6C179.6,84.7,180.3,85.3,181.1,84.8z"/>
	<path class="st0" d="M73.1,123.1l0.3-0.3C73.3,122.8,73.2,122.9,73.1,123.1z"/>
	<path class="st0" d="M154.6,114.8C154.6,114.8,154.7,114.8,154.6,114.8"/>
	<path class="st0" d="M85.5,114.5L85.5,114.5C85.5,114.5,85.5,114.6,85.5,114.5L85.5,114.5z"/>
	<polygon class="st0" points="110.3,94.8 110.3,94.8 110.5,94.6 	"/>
	<path class="st0" d="M113.4,95.3c0.4,0,0.8,0,1.2,0c0.4,0,0.8-0.1,1.2-0.1l0.6,0l0.3-0.1c-0.2,0-0.5-0.1-0.7-0.1
		c-0.8-0.1-1.7-0.2-2.5-0.2c0.2,0.4-0.2,0.4-0.6,0.5c0,0,0,0,0,0C113,95.3,113.2,95.3,113.4,95.3z"/>
	<path class="st0" d="M112.8,95.3l-0.1-0.3c-1.7,0.6-0.7-0.7-2.4-0.1l0,0c0.7,0.3,1.3,0.4,2.1,0.4C112.5,95.3,112.6,95.3,112.8,95.3
		z"/>
	<path class="st0" d="M118.4,94.9C118.4,94.9,118.4,94.9,118.4,94.9c0.3,0,0.7-0.1,1.1-0.1C119.2,94.7,118.9,94.7,118.4,94.9z"/>
	<path class="st0" d="M102.8,61.3l0.4-0.1C103.1,61.1,103,61.1,102.8,61.3z"/>
	<path class="st0" d="M110.6,99.2C110.6,99.2,110.6,99.2,110.6,99.2C110.6,99.2,110.6,99.2,110.6,99.2z"/>
	<path class="st0" d="M112.2,59.4c0,0,0.2-0.7,0.9-1c0.3-0.1,0.8-0.1,1.3,0.1c0.6,0.2,1.2,0.7,2.1,1.4c-0.4,0.3-0.4,0.6-0.1,1
		l0.4-0.1c-0.2,0.3,0.1,0.5,0.2,0.7c0.4,0.1,0.4-0.2,0.8,0c0,0.2,0.1,0.2,0.1,0.3c0,0,0.1,0,0.1,0c0.3,0,0.6,0,0.8-0.1l0.3,0.4
		c0.2-0.1,0.4-0.1,0.6-0.1c0.2,0,0.4,0.1,0.5,0.2l0,0.1c0.5-0.1,1.1,0.2,1.3,0.1l-0.1,0.1l0.6,0.2l-0.1,0.1c0.9,0,1.8,0.4,2.4,0.9
		l0.1-0.4c0.3,0.3,0.6,0.5,0.9,0.7c0.3,0.2,0.6,0.3,0.8,0.4c0.2,0.1,0.5,0.3,0.8,0.5c0.1,0.1,0.2,0.2,0.4,0.3
		c0.1,0.1,0.2,0.3,0.3,0.5l-0.1,0.1c0.5,0.1,1,0.4,1.2,0.7c0.3,0.3,0.5,0.7,0.7,1c0.2,0.4,0.3,0.8,0.6,1.1c0.3,0.3,0.6,0.7,1,1
		c-0.2-0.2-0.1,0.2-0.2,0.2c0.2,0.2,0.3,0.4,0.4,0.6c0.1,0.2,0.3,0.4,0.4,0.5c0.3,0.3,0.6,0.4,0.9,0.3c0.3,0.7,0,0.6-0.2,0.8
		c0.3-0.1,0.7,0.4,0.9,0.9l-0.2-0.2c0.2,0.5,0.4,1,0.6,1.5l0.6-0.5c0,0.9-0.7,0.4-0.4,1.2l0.5-0.1c0,0.6-0.1,1.1-0.3,1.6
		c-0.2,0.5-0.5,1-0.7,1.5c0,0.7,0,1.5-0.1,2.2c0.1,0,0.1,0.2,0.4-0.1l-0.1,0.1c0.6-0.6,1.3-0.2,1.9-0.2c-0.1,0.4,0.3,0.4,0.5,0.3
		c-0.1,0-0.1,0.2-0.1,0.3c0.4-0.5,0.6,0.7,1.1,0.1l0,0.1c0.1,0.3,0.6-0.4,0.6,0.4c0.5-0.6,0.8-0.5,1.4-0.2l0,0.1
		c0.1,0.1,0.2,0.2,0.2,0.3c0.1-0.3,0.2-0.6,0-1.1c-0.2-0.5-0.5,0.8-0.6-0.1c0.1-0.6,0.4-1.3,0.5-2.1c0.1-0.8,0.2-1.6,0.1-2.4
		c-0.4,0.2-0.4-0.2-0.6-0.6l0.3-0.1c-0.7-1.5,0.7-0.7-0.1-2.2l-0.5-0.2c-1-1.2,0.5-1-0.9-2.2c0.3,0.6-0.6,0.5-0.7-0.2l0.4,0.1
		c-0.2-0.4-0.4-0.4-0.4-0.7c0.3,0.2,0.5-0.1,0.2-0.6l0.6,0.2l-1.1-0.8c0-0.2-0.1-0.5-0.2-0.7c-0.1-0.2-0.3-0.5-0.4-0.7
		c-0.3-0.4-0.5-0.8-0.4-1.1c0,0-0.1-0.1-0.2-0.3c-0.1-0.2-0.2-0.4-0.4-0.6c-0.3-0.4-0.8-0.9-1.1-0.9c0.5,0.1-0.1-0.8,0.4-0.8
		c-0.6-0.2-1.8-1.1-2.1-1.7l0.1,0.1c-0.4-0.4-0.7-0.8-1.1-1.1c-0.4-0.3-0.8-0.5-1.2-0.8c-0.4-0.2-0.8-0.4-1.2-0.7
		c-0.4-0.2-0.8-0.5-1.2-0.9c-0.1,0.4-0.9-0.3-0.9,0.3c-0.5-0.1-0.9-0.3-1.3-0.5c-0.4-0.2-0.8-0.4-1.1-0.6c-0.7-0.4-1.3-0.5-1.8,0.1
		c-0.9-0.1-0.9-0.7-1.4-0.8l0.2,0c-0.9-0.1-1.4-0.1-1.9-0.2s-0.9,0-1.6-0.1c-0.7,0.1-0.7,0.8-1.8,0.7c0.3-0.3-0.1-0.2-0.5-0.2
		c0.3-0.1,0.3-0.2-0.2-0.3c-0.1,0.1-0.2,0.2-0.3,0.2c0,0,0,0,0-0.1c-0.7,0.2-0.6,0.3-0.2,0.2c0,0,0,0.1,0.1,0.2
		c-0.8-0.3-2,0.3-2.2-0.2c-2.1,0.6-3.3,1.5-4.8,2.5c-0.3-0.2,0-0.5,0.4-0.8l-1.1,0.6c-0.2-0.3,0.6-0.5,0.9-0.7
		c-0.4,0-0.8,0.2-1.1,0.3c-0.2,0.1-0.3,0.2-0.5,0.3c-0.2,0.1-0.3,0.3-0.5,0.4c-0.6,0.6-1.2,1.1-2.1,1.4l-0.1,0.4l-0.1,0
		c0.1,0.1-0.1,0.5-0.2,0.7c-0.4-0.1-0.5-0.6-1.1,0c-0.3,0.1-0.7,0.5-1,0.9c-0.3,0.4-0.5,0.9-0.8,1.3c0.4-0.3,0.4-0.1,0.3,0.1
		c-0.3,0.3-0.7,0.3-0.8,0.7l-0.4-0.2c0.4,0.1-0.3,1.2-0.3,1.4c-0.4,0,0.2-0.7,0-0.9c-1,1.4-0.5,0.7-1.4,2.2
		c-0.2,0.9,0.4,0.1,0.5,0.6c-0.3,0.7-0.3,1.5-1,2.2l0.5-0.1c-0.3,1.4-0.6,2.2-1.2,3c0,0.3,0,0.7,0.1,1c0,0.3,0.1,0.6,0.1,0.9
		c0.1,0.5,0.2,1,0.3,1.4c0.3,0.8,0.6,1.3,0.8,1.6c0.5,0.7,1,0.6,1.3,0.2c0.4-0.3,0.6-0.9,0.8-1.4c0.1-0.2,0.2-0.5,0.2-0.6
		c0.1-0.2,0.1-0.3,0.1-0.3c0.6-1.6,1-2.7,1.3-4.1c0.4-1.3,0.7-2.8,1.9-4.5c0.3-0.3,0.6-0.6,0.9-0.9c0.3-0.2,0.6-0.4,0.8-0.6
		c0.5-0.4,1.1-0.6,1.6-0.9c1-0.5,2-1,3.6-1.8c0.8-0.3,1.6-0.5,2.3-0.8c-0.2-0.4-0.5-0.8-0.7-1.2C111.9,60.7,111.8,60.1,112.2,59.4z"
		/>
	<polygon class="st0" points="138.8,72.6 138.8,72.6 139.1,72.7 	"/>
	<path class="st0" d="M108.6,98.6l-0.1,0.1c0.5-0.1,0.8,0,1,0.1c0.3,0.1,0.5,0.2,1,0.2c0,0.1,0.1,0.1,0.1,0.1
		c0.5-0.1,1.2,0.1,1.8,0.2c0.6,0.1,1.2,0.3,1.6,0.2l0,0.3c0.6,0,1.2,0,1.8,0l-0.7-0.1c0.1-0.4,0.5-0.3,0.9-0.1
		c0.5,0.2,1.1,0.3,1.8,0c0.6,0,1.2-0.5,1.7-1c0.3-0.2,0.5-0.5,0.8-0.6c0.3-0.2,0.6-0.3,0.9-0.3c0.5-0.5-0.3,0.8,0.4,0.2
		c0.1,0.4-0.3,0.4,0,0.7c0.4-0.2,0.8-0.2,1.2-0.2c0.4,0,0.8-0.1,1.3-0.4l0.2,0.3c0.1-0.1,0.3-0.2,0.4-0.3c0.2-0.1,0.3-0.2,0.4-0.3
		c0.3-0.1,0.6-0.2,0.9-0.3c0.6-0.2,1.2-0.4,1.4-0.8l0,0c1.1-1,1.4,0.3,2.3-1.2c0.3,0,0.5,0,0.8,0c0.6-0.4,0-0.8,0.7-1.1
		c0.2,0.2,0.9-0.5,0.7,0c0.4-0.2,0.7-0.5,1-0.9c0.3-0.4,0.6-0.7,0.8-1.1c0.5-0.8,1-1.7,1.9-2.5c-0.1-0.4,0.1-0.7,0.2-1.1
		c0.1-0.4,0.3-0.7,0.2-1c0.1,0,0.4-0.5,0.6-0.8c0.2-0.3,0.4-0.5,0.4,0.2c0,0.1-0.1,0.3-0.2,0.2l0.2,0.3c0.6-0.5,0.7-1.1,0.8-1.7
		c0-0.2,0-0.4,0.1-0.6c0,0-0.1,0-0.1,0c-0.3,0-0.5,0-0.6,0c-0.2,0-0.3,0-0.3,0l-1.3-0.3c0,0.1-0.2,0.2-0.2,0.1
		c-0.8,0.4-1.5-0.1-2.1-0.7c-0.3-0.2-0.5-0.4-0.8-0.6c-0.1,0.2-0.1,0.4-0.1,0.5c-0.7,2.3-1.9,4.4-3.8,5.6l-0.4-0.1
		c-0.2-0.2-0.3,0.2-0.4,0.5c-0.1,0.4-0.2,0.8-0.4,0.6l-0.2,0.5c-0.2,0-0.5,0.1-0.4-0.2c-0.4,0.2-0.3,0.3-0.5,0.7h-0.6
		c-0.4,0.2-0.8,0.4-1.1,0.6c-0.3,0.3-0.7,0.5-1,0.7c-0.7,0.5-1.5,0.9-2.4,1.2c-0.6,0-1.2,0-1.9,0.1c-0.4,0.1-0.7,0.1-1.1,0.2
		c-0.4,0.1-0.9,0.1-1.3,0.2l-0.3,0l-0.3,0.1l-0.6,0c-0.4,0-0.8,0.1-1.2,0.1c-0.4,0-0.8,0-1.2,0c-0.2,0-0.4,0-0.5,0c0,0,0,0,0,0
		c0,0-0.1,0-0.1,0c-0.1,0-0.3,0-0.4,0c-0.7,0-1.4-0.1-2.1-0.4c-1.1-0.4-2.1-1.2-3-2c-1.4-1.3-2.6-2.7-4.1-3.8c0-0.1-0.3-0.3-0.4-0.2
		c-0.3-0.4-0.7-0.9-0.9-1.3c-0.3-0.5-0.6-0.9-0.8-1.4c0,0-0.1-0.2-0.3-0.6c-0.1-0.2-0.2-0.4-0.3-0.6c-0.1-0.2-0.2-0.5-0.3-0.8
		c-0.5-1.2-0.9-2.7-1.4-3.9c-0.4-1.2-0.8-2.1-1.5-1.9c-0.3,0.1-0.7,0.5-1.1,1.4c-0.1,0.2-0.2,0.5-0.3,0.8c-0.1,0.3-0.2,0.6-0.2,0.9
		c-0.1,0.3-0.2,0.7-0.2,1.2c-0.1,0.4-0.1,0.9-0.1,1.4l-0.2-0.1c0.1,1.2,0.4,2.1,0.7,2.8c0.3,0.8,0.8,1.4,1.4,1.9
		c-0.6,0.6,0.9,1.7,1,2.2h-0.1c0.7,0.4,1,1,1.3,1.7c0.4,0.6,0.7,1.3,1.4,1.5c-0.1,0-0.3,0.2-0.5-0.1c0.8,0.6,1.9,1.4,1.7,1.8
		c0.5,0.3,1,0.7,1.6,1.1c0,0,0.1,0,0.1,0.1c0.5,0.3,1.1,0.7,1.6,1C106.6,98.3,107.8,98.8,108.6,98.6z"/>
	<path class="st0" d="M118.3,63.4l-0.1,0.1C118.2,63.5,118.2,63.5,118.3,63.4z"/>
	<path class="st0" d="M133.1,79.7C133.1,79.7,133.1,79.7,133.1,79.7"/>
	<path class="st0" d="M114.3,68.8L114.3,68.8C114.3,68.8,114.3,68.8,114.3,68.8L114.3,68.8z"/>
	<path class="st0" d="M135.6,85.2c0,0.1,0.2-0.1,0.2-0.1l1.3,0.3c0,0,0.1,0,0.3,0c0.2,0,0.4,0,0.6,0c0,0,0.1,0,0.1,0
		c0.5,0,1.1-0.1,1.5-0.4c0.5-0.2,0.8-0.7,0.7-1.3c-0.1-0.6-0.5-1.4-1.2-2.5c-0.1-0.1-0.1-0.2-0.2-0.3l0-0.1
		c-0.6-0.3-0.9-0.4-1.4,0.2c0-0.8-0.5-0.2-0.6-0.4l0-0.1c-0.4,0.6-0.6-0.6-1.1-0.1c0-0.1,0.1-0.3,0.1-0.3c-0.3,0.1-0.6,0.1-0.5-0.3
		c-0.6,0-1.3-0.4-1.9,0.2l0.1-0.1c-0.3,0.3-0.3,0.2-0.4,0.1c0,0-0.1,0-0.2,0c0-0.1,0-0.1,0-0.1c-0.4,0.4-0.7-0.2-0.9,0l0.1-0.3
		l-0.5-0.1l0.1,0.1c-0.4,0.8-0.2-0.6-0.7-0.2c-0.2-0.2-1.3,1.3-1.5,0.8c-0.3,0.3,0.4-0.5,0.1-0.3c0.2-0.4,0.2-0.2,0.3-0.5
		c-0.3,0.1-0.2-0.6-0.6-0.4l0.1-0.3c-0.6,0.4-0.4-0.8-0.9-0.3c-0.5,0,0.3-1-0.4-0.6l0.1-0.5c-0.1-0.2-0.4,0.4-0.4,0.1
		c0.2-0.2-0.1-0.3,0.2-0.5c-0.1-0.6-1.1,0-1.1-0.9c-0.4,0.4-0.5-0.1-0.8,0.2c0.1-0.2-0.4-0.4,0.2-0.6c0.1,0,0.1,0,0,0.1l0.2-0.2
		c0.2-0.7-0.7-0.1-0.8-0.4c0,0.2,0.1,0.2-0.1,0.3l-0.2-0.2l0.2-0.2l-0.2-0.4l-0.2,0.3c0-0.3,0.3-0.8-0.2-0.6
		c-0.3,0.1-0.2,0.5-0.4,0.4c-0.1-0.3-0.1-0.9-0.2-1.2c-0.3,0.3-0.3,0.2-0.4,0.2l0.2-0.2c-0.6,0,0.5-0.6-0.1-0.6l0.2-0.1l-0.6,0.4
		c-0.7,0.2,0.4-0.6-0.6-0.3c0.2,0.1-0.5,0.5-0.5,0.3l0.3-0.2c-0.1,0-0.2,0-0.2-0.1c0.2-0.1,0.4-0.3,0.3-0.4l0.4-0.2l-0.6,0.2
		c0.2-0.4-0.4-0.4-0.1-0.8c0,0-0.1-0.5-0.6-0.3c0.3-0.1,0.3-0.4,0.6-0.5c-0.2,0.1-0.4,0.1-0.5,0c-0.1-0.1-0.2-0.2-0.1-0.3h0.1
		c0.1-0.7-0.9-0.5-0.8-1.1c-0.3,0.2-0.3-0.1-0.7,0.2c-0.7-0.2,0.5-1.3-1-0.8c-0.2-0.2,0.2-0.4,0.2-0.6l0.1,0
		c-0.3-0.3-0.4-0.4-0.5-0.8c-0.2-0.1-0.9,0.2-0.8-0.2c0.3,0,0.2-0.1,0.2-0.2c0.1,0.1,0.2,0,0.3-0.2c-0.1,0-0.2,0-0.2,0
		c0,0,0,0,0.1,0c-0.2-0.1-0.2-0.1-0.2,0c0,0-0.1,0-0.2,0.1c0.3-0.3-0.2-0.5,0.2-0.7c-0.3-0.5-0.9-0.7-1.2-1.1c0.2-0.1,0.5-0.1,0.6,0
		l-0.2-0.3c0.3-0.1,0.2,0.1,0.3,0.2c0.5-0.5-0.8-0.6-0.3-1.2l-0.3,0l0,0c-0.2,0-0.4,0-0.4-0.1c0.3-0.1,0.7-0.2,0.7-0.4
		c0.2-0.2-0.2-0.5-0.4-0.7c0,0.1-0.2,0.1-0.3,0.1c0-0.1,0.3-0.2,0.1-0.3l0.4-0.1c-0.4,0.1-0.5-0.2-0.7-0.2c0.3-0.1,0.3,0.1,0.5,0.1
		c-0.1-0.3-0.1-0.3-0.1-0.4c0-0.1,0-0.1-0.1-0.3c-0.4-0.2-0.4,0.1-0.8,0c-0.1-0.2-0.5-0.4-0.2-0.7l-0.4,0.1c-0.3-0.4-0.3-0.7,0.1-1
		c-0.8-0.7-1.5-1.2-2.1-1.4s-1-0.2-1.3-0.1c-0.7,0.2-0.9,1-0.9,1c-0.4,0.7-0.3,1.3-0.1,1.9c0.2,0.4,0.4,0.7,0.7,1.2
		c0.1,0.2,0.2,0.5,0.3,0.8c0,0.8-0.1,1.3-0.1,1.8c-0.1,0.5,0,1,0.3,1.8c0.2,0.7,0.6,1.4,1,2.1c0.6,0.1,0.4,0.9,1,1.1l-0.2,0.3
		c0.2,0.1,0.4,0.2,0.3,0.4l-0.1,0c0.3,0.1,0.3,0.4,0.4,0.4l-0.1,0l0.2,0.2l-0.1,0c0.4,0.2,0.6,0.5,0.7,0.9l0.3-0.2
		c0,0.8,0.8,0.6,0.7,1.4l-0.1,0c0.3,0,0.5,0.1,0.6,0.3c0.1,0.1,0.1,0.3,0.1,0.5c0,0.4,0.1,0.7,0.7,0.8c-0.2,0-0.1,0.2-0.2,0.2
		c0.3,0.2,0.6,0.5,1.2,0c0.2,0.2-0.1,0.3-0.3,0.6c0.3-0.2,0.5-0.1,0.7,0l-0.2,0l0.5,0.4l0.4-0.5c0.1,0.3-0.5,0.6-0.2,0.7l0.4-0.4
		c0.2,0.4-0.2,1.1-0.2,1.7c0.6,0.7,1.5,1.1,2.3,1.6c0.8,0.4,1.6,0.8,2,1.7l-0.2,0.4c-0.3,0.5,0.9-0.5,0.6,0l0.3-0.1
		c0,0.1,0,0.3-0.1,0.3c0.1,0.1,0.2,0,0.4-0.1l0,0.4c0.5,0.6,1.3,0.3,1.9,0.8c0.2,0.5,0.8,0.8,1.5,1c0.7,0.1,1.4,0.1,1.9,0.1
		c0.4-0.1,0.7,0,1,0.2c0.1,0,0.1,0.1,0.1,0.1c0.3,0.2,0.5,0.4,0.8,0.6C134.1,85.1,134.8,85.6,135.6,85.2z"/>
	<path class="st0" d="M164.9,123.1l0.3-0.3C165.1,122.8,165,122.9,164.9,123.1z"/>
	<path class="st0" d="M246.4,114.8C246.4,114.8,246.5,114.8,246.4,114.8"/>
	<path class="st0" d="M177.3,114.5L177.3,114.5C177.3,114.5,177.3,114.6,177.3,114.5L177.3,114.5z"/>
	<polygon class="st0" points="202.2,94.8 202.2,94.8 202.3,94.6 	"/>
	<path class="st0" d="M210.2,94.9C210.2,94.9,210.2,94.9,210.2,94.9c0.3,0,0.7-0.1,1.1-0.1C211,94.7,210.7,94.7,210.2,94.9z"/>
	<path class="st0" d="M205.2,95.3c0.4,0,0.8,0,1.1,0c0.4,0,0.8-0.1,1.2-0.1l0.6,0l0.3-0.1c-0.2,0-0.5-0.1-0.7-0.1
		c-0.8-0.1-1.7-0.2-2.5-0.2c0.2,0.4-0.2,0.4-0.6,0.5c0,0,0,0,0,0C204.9,95.3,205,95.3,205.2,95.3z"/>
	<path class="st0" d="M254.7,132.1c0.7-0.5-0.5-2-0.4-2.6l0.1,0c-0.5-0.6-0.7-1.4-0.8-2.2c-0.2-0.8-0.3-1.6-0.8-2.1
		c0.1,0,0.3,0,0.4,0.3c-0.5-1-1.3-2.2-0.9-2.5c-0.6-1.1-1.3-2.5-2.1-3.7c-0.4-0.6-0.8-1.2-1.2-1.6c-0.4-0.5-0.8-0.8-1.2-1.1l0.2,0
		c-0.9-0.5-0.8-1-1.6-1.6c0-0.1,0-0.2,0-0.2c-0.5-0.2-1-0.8-1.4-1.4c-0.4-0.6-0.9-1.1-1.2-1.3l0.2-0.2c-0.5-0.5-1-0.9-1.4-1.4
		l0.5,0.6c-0.4,0.2-0.6-0.2-0.8-0.7c-0.2-0.5-0.6-1.1-1.3-1.4c-0.4-0.5-1.3-0.6-2.1-0.8c-0.8-0.2-1.5-0.3-2-0.9
		c-0.8-0.1,0.9-0.1-0.1-0.5c0.2-0.4,0.5,0.1,0.6-0.4c-0.9-0.5-1-1.3-2.2-1.8l0.1-0.3c-0.8-0.2-1.4-0.7-1.9-1.2
		c-0.5-0.5-1-0.9-1.6-0.9c-1.6-0.6-0.5-1.4-2.4-1.6c-0.1-0.2-0.3-0.5-0.4-0.7c-0.6-0.4-0.7,0.3-1.4-0.2c0.2-0.2-0.9-0.6-0.3-0.7
		c-1.6-1.1-3.8-0.8-5.9-2.2c-0.5,0.3-1.4,0-1.9,0c-0.3,0.5-0.8,0.7-1.4,0.8c-0.3,0.1-0.6,0.2-0.9,0.3c-0.1,0.1-0.3,0.2-0.4,0.3
		c-0.1,0.1-0.3,0.2-0.4,0.3l-0.2-0.3c-0.5,0.3-0.9,0.4-1.3,0.4s-0.8,0-1.2,0.2c-0.3-0.3,0.2-0.2,0-0.7c-0.8,0.5,0-0.8-0.4-0.2
		c-0.3,0-0.6,0.1-0.9,0.3c-0.3,0.2-0.5,0.4-0.8,0.6c-0.5,0.5-1.1,1-1.7,1c-0.6,0.3-1.3,0.2-1.8,0c-0.5-0.2-0.8-0.3-0.9,0.1l0.7,0.1
		c-0.6,0-1.2,0-1.8,0l0-0.3c-0.4,0.1-1-0.1-1.6-0.2c-0.6-0.1-1.3-0.3-1.8-0.2c0,0,0,0-0.1,0c0,0,0.1,0,0.1,0c0,0,0-0.1-0.1-0.1
		c-0.5,0-0.8-0.1-1-0.2c-0.3-0.1-0.5-0.2-1-0.1l0.1-0.1c-0.8,0.1-2-0.3-3.2-0.9c-0.5-0.3-1.1-0.6-1.6-1c-0.7,0.2-1.3,0.4-1.6,0.2
		c0,0-0.1,0-0.3,0.1c-0.2,0.1-0.5,0.1-0.8,0.2c-0.6,0.2-1.2,0.5-1.3,0.8c0.3-0.4-0.9-0.2-0.7-0.6c-0.4,0.6-1.8,1.4-2.5,1.3l0.1-0.1
		c-0.6,0.2-1.1,0.4-1.6,0.6c-0.5,0.3-0.9,0.6-1.3,0.8c-0.4,0.3-0.8,0.5-1.2,0.8c-0.4,0.3-0.9,0.5-1.5,0.7c0.3,0.3-0.8,0.7-0.3,1
		c-0.7,0.7-1.5,1-2.1,1.3c-0.1,0.1-0.3,0.1-0.4,0.2c-0.8,0.4-1.3,0.8-1.1,1.7c-0.7,0.7-1.2,0.4-1.6,0.7l0.1-0.2
		c-1.4,1.3-1.8,1.7-2.8,2.6c-0.4,0.6,0,1.2-0.9,1.9c0.1-0.5-0.2-0.1-0.6,0.2c0.2-0.2,0.2-0.4-0.4-0.1c0,0.1-0.1,0.3-0.1,0.4
		c0,0-0.1,0-0.1,0c-0.4,0.7-0.3,0.6,0,0.4c0,0,0.1,0.1,0.2,0c-0.8,0.4-1.4,1.7-1.9,1.5c-0.7,1-1.2,1.8-1.6,2.7
		c-0.2,0.4-0.4,0.9-0.6,1.3c-0.2,0.4-0.4,0.9-0.6,1.3c-0.3,0.1-0.3-0.4-0.1-1l-0.7,1.2c-0.3-0.2,0.2-0.8,0.4-1.2
		c-0.7,0.5-1,1.3-1.3,2.2c-0.1,0.4-0.3,0.8-0.5,1.3c-0.2,0.4-0.4,0.8-0.8,1.2l0.1,0.5l-0.1,0.1c0.1,0.1,0.1,0.5,0.1,0.8
		c-0.4,0.1-0.7-0.3-1,0.6c-0.6,0.6-0.7,2-0.9,3c0.2-0.5,0.4-0.2,0.4,0c-0.2,0.4-0.5,0.6-0.5,1l-0.4-0.1c0.4,0,0,1.3,0.1,1.5
		c-0.4,0.2,0-0.8-0.2-1c-0.1,0.3-0.2,0.5-0.2,0.7c-0.4-0.6-0.6-1.3-0.7-2c-0.2-0.8-0.3-1.6-0.8-2.1c0.1,0,0.3,0,0.4,0.3
		c-0.5-1-1.3-2.2-0.9-2.5c-0.6-1.1-1.3-2.5-2.1-3.7c-0.4-0.6-0.8-1.2-1.2-1.6c-0.4-0.5-0.8-0.8-1.2-1.1l0.2,0
		c-0.9-0.5-0.8-1-1.6-1.6c0-0.1,0-0.2,0-0.2c-0.5-0.2-1-0.8-1.4-1.4c-0.4-0.6-0.9-1.1-1.2-1.3l0.2-0.2c-0.5-0.5-1-0.9-1.4-1.4
		l0.5,0.6c-0.4,0.2-0.6-0.2-0.8-0.7c-0.2-0.5-0.6-1.1-1.3-1.4c-0.4-0.5-1.3-0.6-2.1-0.8c-0.8-0.2-1.5-0.3-2-0.9
		c-0.8-0.1,0.9-0.1-0.1-0.5c0.2-0.4,0.5,0.1,0.6-0.4c-0.9-0.5-1-1.3-2.2-1.8l0.1-0.3l0,0c-0.8-0.2-1.4-0.7-1.9-1.2
		c-0.5-0.5-1-0.9-1.6-0.9c-1.4-0.5-0.7-1.2-1.8-1.5c-0.1,0-0.3-0.1-0.5-0.1c-0.1-0.2-0.3-0.5-0.4-0.7c-0.6-0.4-0.7,0.3-1.4-0.2
		c0.2-0.2-0.9-0.6-0.3-0.7c-1.6-1.1-3.8-0.8-5.9-2.2c-0.5,0.3-1.4,0-1.9,0c-0.3,0.5-0.8,0.7-1.4,0.8c-0.3,0.1-0.6,0.2-0.9,0.3
		c-0.2,0.1-0.3,0.2-0.4,0.3c-0.2,0.1-0.3,0.2-0.4,0.3l-0.2-0.3c-0.5,0.3-0.9,0.4-1.3,0.4s-0.8,0-1.2,0.2c-0.3-0.3,0.2-0.2,0-0.7
		c-0.8,0.5,0-0.8-0.4-0.2c-0.3,0-0.6,0.1-0.9,0.3c-0.3,0.2-0.5,0.4-0.8,0.6c-0.5,0.5-1.1,1-1.7,1c-0.6,0.3-1.3,0.2-1.8,0
		c-0.5-0.2-0.8-0.3-0.9,0.1l0.7,0.1c-0.6,0-1.2,0-1.8,0l0-0.3c-0.4,0.1-1-0.1-1.6-0.2c-0.6-0.1-1.3-0.3-1.8-0.2c0,0,0,0-0.1,0
		c0,0,0.1,0,0.1,0c0,0,0-0.1-0.1-0.1c-0.5,0-0.8-0.1-1-0.2c-0.3-0.1-0.5-0.2-1-0.1l0.1-0.1c-0.8,0.1-2-0.3-3.2-0.9
		c-0.5-0.3-1.1-0.6-1.6-1c-0.7,0.2-1.3,0.4-1.6,0.2c0,0-0.1,0-0.3,0.1c-0.2,0.1-0.5,0.1-0.8,0.2c-0.6,0.2-1.2,0.5-1.3,0.8
		c0.3-0.4-0.8-0.2-0.7-0.6c-0.4,0.6-1.8,1.4-2.5,1.3l0.1-0.1c-0.6,0.2-1.1,0.4-1.6,0.6c-0.5,0.3-0.9,0.6-1.3,0.8
		c-0.8,0.6-1.6,1.2-2.7,1.5c0.3,0.3-0.8,0.7-0.3,1c-0.8,0.8-1.8,1.1-2.5,1.5c-0.8,0.4-1.3,0.8-1.1,1.7c-0.7,0.7-1.2,0.4-1.6,0.7
		l0.1-0.2c-1.4,1.3-1.8,1.7-2.8,2.6c-0.4,0.6,0,1.2-0.9,1.9c0.1-0.5-0.2-0.1-0.6,0.2c0.2-0.2,0.2-0.4-0.4-0.1c0,0.1-0.1,0.3-0.1,0.4
		c0,0-0.1,0-0.1,0c-0.4,0.7-0.3,0.6,0,0.4c0,0,0.1,0.1,0.2,0c-0.8,0.4-1.4,1.7-1.9,1.5c-0.7,1-1.2,1.8-1.6,2.7
		c-0.2,0.4-0.4,0.9-0.6,1.3c-0.2,0.4-0.4,0.9-0.6,1.3c-0.3,0.1-0.3-0.4-0.1-1l-0.7,1.2c-0.3-0.2,0.2-0.8,0.4-1.2
		c-0.7,0.5-1,1.3-1.3,2.2c-0.2,0.4-0.3,0.8-0.5,1.3c-0.2,0.4-0.4,0.8-0.8,1.2l0.1,0.5l-0.1,0.1c0.1,0.1,0.1,0.5,0.1,0.8
		c-0.4,0.1-0.7-0.3-1,0.6c-0.6,0.6-0.7,2-0.9,3c0.2-0.5,0.3-0.2,0.4,0c-0.2,0.4-0.5,0.6-0.5,1l-0.4-0.1c0.4,0,0,1.3,0.1,1.5
		c-0.4,0.2,0-0.8-0.2-1c-0.6,1.8-0.3,0.9-0.8,2.8c0,1.1,0.4-0.1,0.7,0.5c-0.1,0.9,0,1.8-0.5,2.7l0.4-0.2c0,1.7-0.2,2.6-0.7,3.7
		c0,0.4,0.1,0.8,0.2,1.1c0.1,0.4,0.1,0.7,0.2,1c0.1,0.6,0.3,1.1,0.4,1.6c0.3,0.9,0.6,1.5,0.9,1.9c0.5,0.8,1,0.7,1.3,0.3
		c0.3-0.4,0.6-1.2,0.8-1.8c0.1-0.3,0.2-0.6,0.2-0.8c0.1-0.2,0.1-0.4,0.1-0.4c0.6-2.2,0.8-3.8,0.9-5.5c0.2-1.8,0.3-3.7,1-6.2
		c0.5-1.1,0.9-1.9,1.3-2.6c0.2-0.4,0.4-0.7,0.6-1c0.2-0.3,0.4-0.6,0.6-0.9c0.2-0.3,0.4-0.6,0.6-0.9c0.2-0.3,0.4-0.7,0.7-1
		c0.4-0.7,1-1.5,1.6-2.6c1.3-1.8,2.7-3.8,4.2-5.5c0.2-0.6,0.7-1.1,1.2-1.6c0.3-0.3,0.6-0.5,0.8-0.8c0.3-0.3,0.5-0.5,0.7-0.8l0.6-0.1
		c0.2-0.4,0.6-0.8,1-0.9l0,0.1c0.3-0.6,1-0.9,1.2-1.2l0,0.1l0.6-0.5l0,0.2c0.4-0.4,0.8-0.8,1.3-1.1c0.5-0.3,0.9-0.6,1.4-0.8
		l-0.3-0.3c1.1-0.4,1.7-0.8,2.3-1.2c0.6-0.4,1.2-0.8,2.2-1l0,0.1c0.9-1,2-1.2,2.9-1.4c1-0.1,2-0.3,3.1-1.1c-0.3,0.2,0.2,0.2,0.2,0.3
		c1.1-0.4,2.4-0.7,2.2-1.5c0.9-0.2,0.8,0.1,0.9,0.4c-0.1-0.3,0.7-0.6,1.3-0.8l-0.3,0.2c0.6-0.2,1.3-0.3,1.9-0.4l-0.5-0.6
		c1.1,0.1,0.4,0.8,1.3,0.5l-0.1-0.5c1.5,0,2.4,0.7,3.8,1.1c2.9,0.1,5.9,0,8.8,0.4c2.9,0.3,5.8,1.1,8.2,2.6l0.1,0.5
		c-0.1,0.2,0.2,0.2,0.4,0.2c0.5,0,1.3-0.2,1.2,0.2l0.7,0c0.1,0.2,0.4,0.4,0.1,0.4c0.5,0.3,0.6,0.2,1,0.2l0.4,0.6
		c0.8,0.6,1.6,1,2.5,1.4c1.1,0.5,2.2,1,3.3,1.9c0.9,1.2,2.5,2.4,4.1,3.8c1.6,1.4,3.2,2.8,4.4,3.9c1.7,1.5,2.8,3.7,3.7,6
		c0.9,2.3,1.5,4.5,2.8,6.5c0,0.2,0.3,0.5,0.3,0.4c0.4,1.3,0.8,2.6,1.1,4c0,0,0.1,0.3,0.2,0.8c0.1,0.5,0.3,1.2,0.4,2
		c0.4,1.6,0.7,3.6,1.1,5.2c0.3,1.6,0.8,2.7,1.4,2.4c0.3-0.1,0.7-0.6,1.1-1.5c0.2,0.5,0.4,0.9,0.6,1.2c0.5,0.8,1,0.7,1.3,0.3
		c0.4-0.4,0.6-1.2,0.8-1.8c0.1-0.3,0.2-0.6,0.2-0.8c0.1-0.2,0.1-0.4,0.1-0.4c0.6-2.2,0.8-3.8,0.9-5.5c0.2-1.8,0.3-3.7,1-6.2
		c0.5-1.1,0.9-1.9,1.3-2.6c0.2-0.4,0.4-0.7,0.6-1c0.2-0.3,0.4-0.6,0.6-0.9c0.2-0.3,0.4-0.6,0.6-0.9c0.2-0.3,0.4-0.7,0.7-1
		c0.4-0.7,1-1.5,1.6-2.6c1.3-1.8,2.7-3.8,4.2-5.5c0.1-0.6,0.7-1.1,1.2-1.6c0.3-0.3,0.6-0.5,0.8-0.8c0.3-0.3,0.5-0.5,0.6-0.8l0.6-0.1
		c0.2-0.4,0.6-0.8,1-0.9l0,0.1c0.4-0.6,1-0.9,1.2-1.2l0,0.1l0.6-0.5l0,0.2c0.4-0.4,0.8-0.8,1.3-1.1c0.3-0.2,0.6-0.4,0.9-0.5
		c0.2-0.1,0.4-0.2,0.5-0.3l-0.3-0.3c1.1-0.4,1.7-0.8,2.3-1.2c0.4-0.3,0.9-0.6,1.4-0.8c0.2-0.1,0.5-0.2,0.8-0.2l0,0.1
		c0.9-1,2-1.2,2.9-1.4c1-0.1,2-0.3,3.1-1.1c-0.3,0.2,0.2,0.2,0.2,0.3c1.1-0.4,2.4-0.7,2.2-1.5c0.9-0.2,0.8,0.1,0.9,0.4
		c-0.1-0.3,0.7-0.6,1.3-0.8l-0.3,0.2c0.6-0.2,1.3-0.3,1.9-0.4l-0.5-0.6c1.1,0.1,0.4,0.8,1.4,0.5l-0.1-0.5c1.5,0,2.4,0.7,3.8,1.1
		c2.9,0.1,5.9,0,8.8,0.4c2.9,0.3,5.8,1.1,8.1,2.6l0.1,0.5c-0.1,0.6,1.7-0.2,1.7,0.4l0.7,0c0.1,0.2,0.4,0.4,0.1,0.4
		c0.5,0.3,0.6,0.2,1,0.2l0.4,0.6c1.9,1.3,3.9,1.7,5.7,3.3c0.9,1.2,2.5,2.4,4.1,3.8c1.6,1.4,3.2,2.8,4.4,3.9c1.7,1.5,2.8,3.7,3.7,6
		c0.9,2.3,1.5,4.6,2.8,6.5c0,0.2,0.3,0.5,0.3,0.4c0.4,1.3,0.8,2.6,1.1,4c0,0,0.1,0.3,0.2,0.8c0.1,0.5,0.3,1.2,0.4,2
		c0.4,1.6,0.7,3.6,1.1,5.2c0.3,1.6,0.8,2.7,1.4,2.4c0.3-0.1,0.7-0.6,1.1-1.6c0.2-0.5,0.4-1.1,0.6-1.9c0.1-0.4,0.2-0.8,0.3-1.3
		c0.1-0.5,0.2-1,0.3-1.5l0.1,0.1C256,135.2,255.7,133.6,254.7,132.1z"/>
	<path class="st0" d="M204.6,95.3l-0.1-0.3c-1.7,0.6-0.7-0.7-2.4-0.1l0,0c0.7,0.3,1.4,0.4,2.1,0.4C204.3,95.3,204.5,95.3,204.6,95.3
		z"/>
	<path class="st0" d="M194.6,61.3l0.4-0.1C195,61.1,194.8,61.1,194.6,61.3z"/>
	<path class="st0" d="M202.4,99.2C202.4,99.2,202.4,99.2,202.4,99.2C202.4,99.2,202.4,99.2,202.4,99.2z"/>
	<polygon class="st0" points="230.6,72.6 230.6,72.6 230.9,72.7 	"/>
	<path class="st0" d="M204,59.4c0,0,0.2-0.7,0.9-1c0.3-0.1,0.8-0.1,1.3,0.1c0.6,0.2,1.2,0.7,2.1,1.4c-0.4,0.3-0.4,0.6-0.1,1l0.4-0.1
		c-0.2,0.3,0.1,0.5,0.2,0.7c0.4,0.1,0.4-0.2,0.8,0c0,0.2,0.1,0.2,0.1,0.3c0,0,0.1,0,0.1,0c0.3,0,0.6,0,0.8-0.1L211,62
		c0.2-0.1,0.4-0.1,0.6-0.1c0.2,0,0.4,0.1,0.5,0.2l0,0.1c0.5-0.1,1.1,0.2,1.3,0.1l-0.1,0.1l0.6,0.2l-0.1,0.1c0.9,0,1.8,0.4,2.4,0.9
		l0.1-0.4c0.3,0.3,0.6,0.5,0.9,0.7c0.3,0.2,0.6,0.3,0.8,0.4c0.2,0.1,0.5,0.3,0.8,0.5c0.1,0.1,0.2,0.2,0.4,0.3
		c0.1,0.1,0.2,0.3,0.3,0.5l-0.1,0.1c0.5,0.1,1,0.4,1.2,0.7c0.3,0.3,0.5,0.7,0.7,1c0.2,0.4,0.3,0.8,0.6,1.1c0.3,0.3,0.6,0.7,1,1
		c-0.2-0.2-0.1,0.2-0.2,0.2c0.1,0.2,0.3,0.4,0.4,0.6c0.1,0.2,0.3,0.4,0.4,0.5c0.3,0.3,0.6,0.4,0.9,0.3c0.3,0.7,0,0.6-0.2,0.8
		c0.3-0.1,0.7,0.4,0.9,0.9l-0.2-0.2c0.2,0.5,0.4,1,0.6,1.5l0.6-0.5c0,0.9-0.7,0.4-0.4,1.2l0.5-0.1c0,0.6-0.1,1.1-0.3,1.6
		c-0.2,0.5-0.5,1-0.7,1.5c0,0.7,0,1.5-0.1,2.2c0.1,0,0.1,0.2,0.4-0.1l-0.1,0.1c0.6-0.6,1.3-0.2,1.9-0.2c-0.1,0.4,0.3,0.4,0.5,0.3
		c-0.1,0-0.1,0.2-0.1,0.3c0.4-0.5,0.6,0.7,1.1,0.1l0,0.1c0.1,0.3,0.6-0.4,0.6,0.4c0.5-0.6,0.8-0.5,1.4-0.2l0,0.1
		c0.1,0.1,0.2,0.2,0.2,0.3c0.1-0.3,0.2-0.6,0-1.1c-0.2-0.5-0.5,0.8-0.6-0.1c0.1-0.6,0.4-1.3,0.5-2.1c0.1-0.8,0.2-1.6,0.1-2.4
		c-0.4,0.2-0.4-0.2-0.6-0.6l0.3-0.1c-0.7-1.5,0.7-0.7-0.1-2.2l-0.5-0.2c-1-1.2,0.5-1-0.9-2.2c0.3,0.6-0.6,0.5-0.7-0.2l0.4,0.1
		c-0.2-0.4-0.4-0.4-0.4-0.7c0.3,0.2,0.5-0.1,0.2-0.6l0.6,0.2l-1.1-0.8c0-0.2-0.1-0.5-0.2-0.7c-0.1-0.2-0.3-0.5-0.4-0.7
		c-0.3-0.4-0.5-0.8-0.4-1.1c0,0-0.1-0.1-0.2-0.3c-0.1-0.2-0.2-0.4-0.4-0.6c-0.3-0.4-0.8-0.9-1.1-0.9c0.5,0.1-0.1-0.8,0.4-0.8
		c-0.6-0.2-1.8-1.1-2.1-1.7l0.1,0.1c-0.4-0.4-0.7-0.8-1.1-1.1c-0.4-0.3-0.8-0.5-1.2-0.8c-0.4-0.2-0.8-0.4-1.2-0.7
		c-0.4-0.2-0.8-0.5-1.2-0.9c-0.1,0.4-0.9-0.3-0.9,0.3c-0.5-0.1-0.9-0.3-1.3-0.5c-0.4-0.2-0.8-0.4-1.1-0.6c-0.7-0.4-1.3-0.5-1.8,0.1
		c-0.9-0.1-0.9-0.7-1.4-0.8l0.2,0c-0.9-0.1-1.4-0.1-1.9-0.2s-0.9,0-1.6-0.1c-0.6,0.1-0.7,0.8-1.9,0.7c0.4-0.3-0.1-0.2-0.5-0.2
		c0.3-0.1,0.4-0.2-0.2-0.3c-0.1,0.1-0.2,0.2-0.3,0.2c0,0,0,0,0-0.1c-0.7,0.2-0.6,0.3-0.2,0.2c0,0,0,0.1,0.1,0.2
		c-0.8-0.3-2,0.3-2.2-0.2c-2.1,0.6-3.3,1.5-4.8,2.5c-0.3-0.2,0-0.5,0.4-0.8l-1.1,0.6c-0.2-0.3,0.6-0.5,0.9-0.7
		c-0.4,0-0.8,0.2-1.1,0.3c-0.2,0.1-0.3,0.2-0.5,0.3c-0.2,0.1-0.3,0.3-0.5,0.4c-0.6,0.6-1.2,1.1-2.1,1.4l-0.1,0.4l-0.1,0
		c0.1,0.1-0.1,0.5-0.2,0.7c-0.4-0.1-0.5-0.6-1.1,0c-0.4,0.1-0.7,0.5-1,0.9c-0.3,0.4-0.5,0.9-0.8,1.3c0.4-0.3,0.4-0.1,0.3,0.1
		c-0.3,0.3-0.7,0.3-0.8,0.7l-0.4-0.2c0.4,0.1-0.3,1.2-0.3,1.4c-0.4,0,0.2-0.7,0-0.9c-1,1.4-0.5,0.7-1.4,2.2
		c-0.2,0.9,0.4,0.1,0.5,0.6c-0.3,0.7-0.3,1.5-1,2.2l0.5-0.1c-0.3,1.4-0.6,2.2-1.2,3c0,0.3,0,0.7,0.1,1c0,0.3,0.1,0.6,0.1,0.9
		c0.1,0.5,0.2,1,0.3,1.4c0.3,0.8,0.6,1.3,0.8,1.6c0.5,0.7,1,0.6,1.3,0.2c0.4-0.3,0.6-0.9,0.8-1.4c0.1-0.2,0.2-0.5,0.2-0.6
		c0.1-0.2,0.1-0.3,0.1-0.3c0.6-1.6,1-2.7,1.3-4.1c0.4-1.3,0.7-2.8,1.9-4.5c0.3-0.3,0.6-0.6,0.9-0.9c0.3-0.2,0.6-0.4,0.9-0.6
		c0.5-0.4,1.1-0.6,1.6-0.9c1-0.5,2-1,3.6-1.8c0.8-0.3,1.6-0.5,2.4-0.8c-0.2-0.4-0.5-0.8-0.7-1.2C203.7,60.7,203.6,60.1,204,59.4z"/>
	<path class="st0" d="M200.5,98.6l-0.1,0.1c0.5-0.1,0.8,0,1,0.1c0.3,0.1,0.5,0.2,1,0.2c0,0.1,0.1,0.1,0.1,0.1
		c0.5-0.1,1.1,0.1,1.8,0.2c0.6,0.1,1.2,0.3,1.6,0.2l0,0.3c0.6,0,1.2,0,1.8,0l-0.7-0.1c0.1-0.4,0.5-0.3,0.9-0.1
		c0.5,0.2,1.1,0.3,1.8,0c0.6,0,1.2-0.5,1.7-1c0.3-0.2,0.5-0.5,0.8-0.6c0.3-0.2,0.6-0.3,0.9-0.3c0.5-0.5-0.3,0.8,0.4,0.2
		c0.1,0.4-0.3,0.4,0,0.7c0.4-0.2,0.8-0.2,1.2-0.2c0.4,0,0.8-0.1,1.3-0.4l0.2,0.3c0.1-0.1,0.3-0.2,0.4-0.3c0.1-0.1,0.3-0.2,0.4-0.3
		c0.3-0.1,0.6-0.2,0.9-0.3c0.6-0.2,1.1-0.4,1.4-0.8l0,0c1.1-1,1.4,0.3,2.3-1.2c0.3,0,0.5,0,0.8,0c0.6-0.4,0-0.8,0.7-1.1
		c0.2,0.2,0.9-0.5,0.7,0c0.4-0.2,0.7-0.5,1-0.9c0.3-0.4,0.6-0.7,0.8-1.1c0.5-0.8,1-1.7,1.9-2.5c-0.1-0.4,0.1-0.7,0.2-1.1
		c0.1-0.4,0.3-0.7,0.2-1c0.1,0,0.4-0.5,0.6-0.8c0.2-0.3,0.4-0.5,0.4,0.2c0,0.1-0.1,0.3-0.2,0.2l0.2,0.3c0.6-0.5,0.7-1.1,0.8-1.7
		c0-0.2,0-0.4,0.1-0.6c0,0-0.1,0-0.1,0c-0.3,0-0.5,0-0.6,0c-0.2,0-0.3,0-0.3,0l-1.3-0.3c0,0.1-0.2,0.2-0.2,0.1
		c-0.8,0.4-1.5-0.1-2.1-0.7c-0.3-0.2-0.5-0.4-0.8-0.6c-0.1,0.2-0.1,0.4-0.1,0.5c-0.7,2.3-1.9,4.4-3.8,5.6l-0.4-0.1
		c-0.2-0.2-0.3,0.2-0.4,0.5s-0.1,0.8-0.4,0.6l-0.2,0.5c-0.2,0-0.5,0.1-0.4-0.2c-0.4,0.2-0.3,0.3-0.5,0.7h-0.6
		c-0.4,0.2-0.8,0.4-1.1,0.6c-0.3,0.3-0.7,0.5-1,0.7c-0.7,0.5-1.5,0.9-2.4,1.2c-0.6,0-1.2,0-1.9,0.1c-0.4,0.1-0.7,0.1-1.1,0.2
		c-0.4,0.1-0.9,0.1-1.3,0.2l-0.3,0l-0.3,0.1l-0.6,0c-0.4,0-0.8,0.1-1.2,0.1c-0.4,0-0.8,0-1.1,0c-0.2,0-0.4,0-0.5,0c0,0,0,0,0,0
		c0,0-0.1,0-0.1,0c-0.1,0-0.3,0-0.4,0c-0.7,0-1.4-0.1-2.1-0.4c-1.1-0.4-2.1-1.2-3-2c-1.4-1.3-2.6-2.7-4.1-3.8c0-0.1-0.3-0.3-0.4-0.2
		c-0.3-0.4-0.7-0.9-0.9-1.3c-0.3-0.5-0.6-0.9-0.8-1.4c0,0-0.1-0.2-0.3-0.6c-0.1-0.2-0.2-0.4-0.3-0.6c-0.1-0.2-0.2-0.5-0.3-0.8
		c-0.5-1.2-0.9-2.7-1.4-3.9c-0.4-1.2-0.8-2.1-1.5-1.9c-0.3,0.1-0.7,0.5-1.1,1.4c-0.1,0.2-0.2,0.5-0.3,0.8c-0.1,0.3-0.2,0.6-0.2,0.9
		c-0.1,0.3-0.2,0.7-0.2,1.2c-0.1,0.4-0.1,0.9-0.1,1.4l-0.1-0.1c0.1,1.2,0.4,2.1,0.7,2.8c0.3,0.8,0.8,1.4,1.4,1.9
		c-0.6,0.6,0.9,1.7,1,2.2H190c0.7,0.4,1,1,1.3,1.7c0.4,0.6,0.7,1.3,1.4,1.5c-0.1,0-0.3,0.2-0.5-0.1c0.8,0.6,1.9,1.4,1.7,1.8
		c0.5,0.3,1,0.7,1.6,1.1c0,0,0.1,0,0.1,0.1c0.5,0.3,1.1,0.7,1.6,1C198.5,98.3,199.6,98.8,200.5,98.6z"/>
	<path class="st0" d="M210.1,63.4l-0.1,0.1C210,63.5,210.1,63.5,210.1,63.4z"/>
	<path class="st0" d="M224.9,79.7C224.9,79.7,224.9,79.7,224.9,79.7"/>
	<path class="st0" d="M206.1,68.8L206.1,68.8C206.1,68.8,206.1,68.8,206.1,68.8L206.1,68.8z"/>
	<path class="st0" d="M227.4,85.2c0,0.1,0.2-0.1,0.2-0.1l1.3,0.3c0,0,0.1,0,0.3,0c0.2,0,0.4,0,0.6,0c0,0,0.1,0,0.1,0
		c0.5,0,1.1-0.1,1.5-0.4c0.5-0.2,0.8-0.7,0.7-1.3c-0.1-0.6-0.5-1.4-1.2-2.5c-0.1-0.1-0.1-0.2-0.2-0.3l0-0.1
		c-0.6-0.3-0.9-0.4-1.4,0.2c0-0.8-0.5-0.2-0.6-0.4l0-0.1c-0.4,0.6-0.6-0.6-1.1-0.1c0-0.1,0.1-0.3,0.1-0.3c-0.3,0.1-0.6,0.1-0.5-0.3
		c-0.6,0-1.3-0.4-1.9,0.2l0.1-0.1c-0.3,0.3-0.3,0.2-0.4,0.1c0,0-0.1,0-0.2,0c0-0.1,0-0.1,0-0.1c-0.4,0.4-0.7-0.2-0.9,0l0.1-0.3
		l-0.5-0.1l0.1,0.1c-0.4,0.8-0.1-0.6-0.7-0.2c-0.2-0.2-1.3,1.3-1.5,0.8c-0.3,0.3,0.4-0.5,0.1-0.3c0.2-0.4,0.2-0.2,0.3-0.5
		c-0.3,0.1-0.1-0.6-0.6-0.4l0.1-0.3c-0.6,0.4-0.4-0.8-0.9-0.3c-0.5,0,0.3-1-0.4-0.6l0.1-0.5c-0.1-0.2-0.4,0.4-0.4,0.1
		c0.2-0.2-0.1-0.3,0.2-0.5c-0.1-0.6-1.1,0-1.1-0.9c-0.4,0.4-0.5-0.1-0.8,0.2c0.1-0.2-0.4-0.4,0.2-0.6c0.1,0,0.1,0,0,0.1l0.2-0.2
		c0.1-0.7-0.6-0.1-0.8-0.4c0,0.2,0.1,0.2-0.1,0.3l-0.2-0.2l0.2-0.2l-0.2-0.4l-0.2,0.3c0-0.3,0.3-0.8-0.2-0.6
		c-0.3,0.1-0.2,0.5-0.4,0.4c-0.1-0.3-0.1-0.9-0.2-1.2c-0.3,0.3-0.3,0.2-0.4,0.2l0.2-0.2c-0.6,0,0.5-0.6-0.1-0.6l0.2-0.1l-0.6,0.4
		c-0.7,0.2,0.4-0.6-0.6-0.3c0.1,0.1-0.5,0.5-0.5,0.3l0.3-0.2c-0.1,0-0.2,0-0.2-0.1c0.2-0.1,0.4-0.3,0.3-0.4l0.4-0.2l-0.6,0.2
		c0.1-0.4-0.4-0.4-0.1-0.8c0,0-0.1-0.5-0.6-0.3c0.3-0.1,0.3-0.4,0.6-0.5c-0.2,0.1-0.4,0.1-0.5,0c-0.1-0.1-0.2-0.2-0.1-0.3h0.1
		c0.1-0.7-0.9-0.5-0.8-1.1c-0.3,0.2-0.3-0.1-0.7,0.2c-0.7-0.2,0.5-1.3-1-0.8c-0.2-0.2,0.2-0.4,0.2-0.6l0.1,0
		c-0.3-0.3-0.4-0.4-0.5-0.8c-0.2-0.1-0.9,0.2-0.8-0.2c0.3,0,0.2-0.1,0.2-0.2c0.1,0.1,0.2,0,0.3-0.2c-0.1,0-0.1,0-0.2,0
		c0,0,0,0,0.1,0c-0.2-0.1-0.2-0.1-0.2,0c0,0-0.1,0-0.2,0.1c0.3-0.3-0.2-0.5,0.2-0.7c-0.3-0.5-0.9-0.7-1.2-1.1c0.2-0.1,0.5-0.1,0.6,0
		l-0.2-0.3c0.4-0.1,0.2,0.1,0.3,0.2c0.5-0.5-0.8-0.6-0.4-1.2l-0.3,0l0,0c-0.1,0-0.4,0-0.4-0.1c0.3-0.1,0.7-0.2,0.6-0.4
		c0.2-0.2-0.2-0.5-0.4-0.7c0,0.1-0.2,0.1-0.3,0.1c0-0.1,0.3-0.2,0.1-0.3l0.4-0.1c-0.4,0.1-0.5-0.2-0.7-0.2c0.3-0.1,0.3,0.1,0.5,0.1
		c-0.1-0.3-0.1-0.3-0.1-0.4c0-0.1,0-0.1-0.1-0.3c-0.4-0.2-0.4,0.1-0.8,0c-0.1-0.2-0.5-0.4-0.2-0.7l-0.4,0.1c-0.3-0.4-0.3-0.7,0.1-1
		c-0.8-0.7-1.5-1.2-2.1-1.4s-1-0.2-1.3-0.1c-0.7,0.2-0.9,1-0.9,1c-0.4,0.7-0.3,1.3-0.1,1.9c0.2,0.4,0.4,0.7,0.7,1.2
		c0.1,0.2,0.2,0.5,0.3,0.8c0,0.8-0.1,1.3-0.1,1.8c-0.1,0.5,0,1,0.3,1.8c0.2,0.7,0.6,1.4,1,2.1c0.6,0.1,0.4,0.9,1,1.1l-0.2,0.3
		c0.2,0.1,0.4,0.2,0.3,0.4l-0.1,0c0.3,0.1,0.3,0.4,0.4,0.4l-0.1,0l0.1,0.2l-0.1,0c0.4,0.2,0.6,0.5,0.6,0.9l0.3-0.2
		c0,0.8,0.8,0.6,0.7,1.4l-0.1,0c0.3,0,0.5,0.1,0.6,0.3c0.1,0.1,0.1,0.3,0.1,0.5c0,0.4,0.1,0.7,0.7,0.8c-0.2,0-0.1,0.2-0.2,0.2
		c0.3,0.2,0.6,0.5,1.2,0c0.1,0.2-0.1,0.3-0.3,0.6c0.3-0.2,0.5-0.1,0.7,0l-0.2,0l0.5,0.4l0.4-0.5c0.1,0.3-0.5,0.6-0.2,0.7l0.4-0.4
		c0.2,0.4-0.2,1.1-0.2,1.7c0.6,0.7,1.5,1.1,2.3,1.6c0.9,0.4,1.6,0.8,2,1.7l-0.2,0.4c-0.3,0.5,0.9-0.5,0.6,0l0.3-0.1
		c0,0.1,0,0.3-0.1,0.3c0.1,0.1,0.2,0,0.4-0.1l0,0.4c0.5,0.6,1.3,0.3,1.9,0.8c0.2,0.5,0.8,0.8,1.5,1c0.7,0.1,1.4,0.1,1.9,0.1
		c0.4-0.1,0.7,0,1,0.2c0.1,0,0.1,0.1,0.1,0.1c0.3,0.2,0.5,0.4,0.8,0.6C225.9,85.1,226.6,85.6,227.4,85.2z"/>
</g>
</svg>
